<svg xmlns="http://www.w3.org/2000/svg" width="218.418" height="92.382" viewBox="0 0 218.418 92.382">
  <path id="Path_83" data-name="Path 83" d="M205.931,0H27.481C27.481,33.555,15.2,60.786,0,61.075a.257.257,0,0,0,.034.007H205.949a12.469,12.469,0,0,0,12.469-12.469V12.487A12.487,12.487,0,0,0,205.931,0" fill="#f91d56"/>
  <path id="Path_627" data-name="Path 627" d="M0,0H218.418V92.381H0Z" fill="none"/>
  <path id="Path_628" data-name="Path 628" d="M19.374-6.06a6.593,6.593,0,0,1-.282,2A5.829,5.829,0,0,1,18.345-2.5a5.077,5.077,0,0,1-1.079,1.146,6.3,6.3,0,0,1-1.287.772,6.613,6.613,0,0,1-1.361.44,6.505,6.505,0,0,1-1.3.141H1.627V-4.316H13.281a1.8,1.8,0,0,0,1.328-.448,1.753,1.753,0,0,0,.448-1.295,1.58,1.58,0,0,0-1.743-1.727H6.624a5.377,5.377,0,0,1-2.424-.5A4.952,4.952,0,0,1,2.582-9.529a4.747,4.747,0,0,1-.9-1.61,5.343,5.343,0,0,1-.274-1.61,5.218,5.218,0,0,1,.515-2.432,4.858,4.858,0,0,1,1.295-1.6,5.08,5.08,0,0,1,1.693-.888,5.967,5.967,0,0,1,1.71-.274H17.232v4.316H6.657a1.476,1.476,0,0,0-.523.075.617.617,0,0,0-.282.2.554.554,0,0,0-.108.266,2.345,2.345,0,0,0-.017.274.992.992,0,0,0,.1.415.522.522,0,0,0,.208.216.667.667,0,0,0,.282.075q.158.008.307.008h6.69a6.112,6.112,0,0,1,2.822.6A5.614,5.614,0,0,1,18.013-10,5.96,5.96,0,0,1,19.05-8.035,6.806,6.806,0,0,1,19.374-6.06ZM43.479,0H37.254l-8.7-8.4a2,2,0,0,1-.681-1.66,2.251,2.251,0,0,1,.241-.872,2.023,2.023,0,0,1,.573-.689l7.886-6.358h6.906L33.319-9.795Zm-16.7,0H22.462V-25.533h4.316ZM65.692,1.727a6.593,6.593,0,0,1-.282,2,5.829,5.829,0,0,1-.747,1.561,5.077,5.077,0,0,1-1.079,1.146,6.3,6.3,0,0,1-1.287.772,6.652,6.652,0,0,1-1.353.44,6.385,6.385,0,0,1-1.295.141H51.863V3.47h7.786a1.719,1.719,0,0,0,1.295-.448,1.794,1.794,0,0,0,.432-1.295V-17.946h4.316ZM59.649,0H51.863a6.934,6.934,0,0,1-1.984-.315,5.864,5.864,0,0,1-1.967-1.038A5.677,5.677,0,0,1,46.4-3.229a6.1,6.1,0,0,1-.6-2.831V-17.946H50.12V-6.06a1.753,1.753,0,0,0,.448,1.295,1.8,1.8,0,0,0,1.328.448h7.753ZM89.5-6.06a6.593,6.593,0,0,1-.282,2A5.829,5.829,0,0,1,88.47-2.5a5.077,5.077,0,0,1-1.079,1.146A6.3,6.3,0,0,1,86.1-.581a6.613,6.613,0,0,1-1.361.44,6.505,6.505,0,0,1-1.3.141H75.653a6.512,6.512,0,0,1-1.992-.282,5.7,5.7,0,0,1-1.552-.755,5.237,5.237,0,0,1-1.146-1.087,6.3,6.3,0,0,1-.772-1.287,6.614,6.614,0,0,1-.44-1.361A6.433,6.433,0,0,1,69.61-6.06V-11.9a5.991,5.991,0,0,1,.606-2.814,5.819,5.819,0,0,1,1.511-1.876,5.761,5.761,0,0,1,1.967-1.038,6.922,6.922,0,0,1,1.959-.315h7.786v4.316H75.687a1.8,1.8,0,0,0-1.312.44,1.724,1.724,0,0,0-.448,1.287v5.811a1.823,1.823,0,0,0,.44,1.328,1.724,1.724,0,0,0,1.287.448h7.786a1.743,1.743,0,0,0,1.312-.448,1.794,1.794,0,0,0,.432-1.295V-25.533H89.5Zm23.807,0a6.593,6.593,0,0,1-.282,2,5.829,5.829,0,0,1-.747,1.561A5.077,5.077,0,0,1,111.2-1.353a6.3,6.3,0,0,1-1.287.772,6.613,6.613,0,0,1-1.361.44,6.505,6.505,0,0,1-1.3.141H99.46a6.512,6.512,0,0,1-1.992-.282,5.7,5.7,0,0,1-1.552-.755A5.237,5.237,0,0,1,94.77-2.125,6.3,6.3,0,0,1,94-3.412a6.614,6.614,0,0,1-.44-1.361,6.433,6.433,0,0,1-.141-1.287V-11.9a5.991,5.991,0,0,1,.606-2.814,5.819,5.819,0,0,1,1.511-1.876A5.761,5.761,0,0,1,97.5-17.631a6.922,6.922,0,0,1,1.959-.315h7.786v4.316H99.493a1.8,1.8,0,0,0-1.312.44,1.724,1.724,0,0,0-.448,1.287v5.811a1.823,1.823,0,0,0,.44,1.328,1.724,1.724,0,0,0,1.287.448h7.786a1.743,1.743,0,0,0,1.312-.448,1.794,1.794,0,0,0,.432-1.295V-25.533h4.316Zm22.645.116a6.674,6.674,0,0,1-.315,1.934,5.78,5.78,0,0,1-1.021,1.926A5.693,5.693,0,0,1,132.771-.6a5.879,5.879,0,0,1-2.764.6h-7.786a6.674,6.674,0,0,1-1.934-.315,5.78,5.78,0,0,1-1.926-1.021,5.693,5.693,0,0,1-1.486-1.843,5.879,5.879,0,0,1-.6-2.764,6.756,6.756,0,0,1,.315-1.942,5.765,5.765,0,0,1,1.021-1.934,5.693,5.693,0,0,1,1.843-1.486,5.879,5.879,0,0,1,2.764-.6h7.786v4.117h-7.786a1.729,1.729,0,0,0-1.361.54,1.934,1.934,0,0,0-.481,1.336,1.639,1.639,0,0,0,.556,1.32,1.971,1.971,0,0,0,1.32.473h7.753a1.743,1.743,0,0,0,1.361-.531,1.9,1.9,0,0,0,.481-1.328V-12a1.769,1.769,0,0,0-.523-1.345,1.837,1.837,0,0,0-1.32-.5h-9.479v-4.1h9.479a6.674,6.674,0,0,1,1.934.315,5.78,5.78,0,0,1,1.926,1.021,5.693,5.693,0,0,1,1.486,1.843,5.879,5.879,0,0,1,.6,2.764Z" transform="translate(46.389 37.627)" fill="#fff"/>
  <path id="Path_629" data-name="Path 629" d="M11.823-4.41a3.982,3.982,0,0,1-1.554,3.328A6.278,6.278,0,0,1,6.3.126,7.2,7.2,0,0,1,2.6-.924,4.225,4.225,0,0,1,1.155-2.467,4.529,4.529,0,0,1,.588-4.746l2.646-.126A1.993,1.993,0,0,0,4.2-3.108a3.839,3.839,0,0,0,2.142.63q2.625,0,2.625-1.848,0-1.512-1.785-1.785L4.746-6.363a5.157,5.157,0,0,1-2.9-1.3A3.916,3.916,0,0,1,.777-10.626,3.957,3.957,0,0,1,2.31-13.818a5.9,5.9,0,0,1,3.874-1.26,5.707,5.707,0,0,1,3.77,1.187,3.792,3.792,0,0,1,1.428,3.056l-2.6.126a2.18,2.18,0,0,0-2.457-1.827,3.266,3.266,0,0,0-2.005.546A1.589,1.589,0,0,0,3.591-10.7a1.439,1.439,0,0,0,.525,1.176,2.543,2.543,0,0,0,1.3.536l2.394.252Q11.823-8.19,11.823-4.41ZM23.247,0h-2.73V-7.665a1.855,1.855,0,0,0-.42-1.407,1.7,1.7,0,0,0-1.176-.378L16.464-8.421V0h-2.73V-11.991h2.037l.63,1.428,3.36-1.554a3.348,3.348,0,0,1,2.447,1.04,4.111,4.111,0,0,1,1.039,3.035ZM34.23,0H32.4l-.84-1.449L28.644.126a3.271,3.271,0,0,1-3.276-1.764A6.539,6.539,0,0,1,24.791-3.5a13.319,13.319,0,0,1-.158-2.079q0-1.082.021-1.6t.105-1.2A5.8,5.8,0,0,1,25-9.513a5.084,5.084,0,0,1,.451-.955,2.511,2.511,0,0,1,.714-.788,4.245,4.245,0,0,1,2.457-.651H31.5l2.73-.168ZM31.5-3.822V-9.45H29.421a1.646,1.646,0,0,0-1.607.882,5.985,5.985,0,0,0-.451,2.635,5.1,5.1,0,0,0,.431,2.467,1.743,1.743,0,0,0,1.628.714Zm15.267-2.5q0,4.683-2.415,5.985a5.089,5.089,0,0,1-2.415.525l-2.016-1.3V3.57h-2.73V-11.907h5.376q2.436,0,3.318,1.375A7.944,7.944,0,0,1,46.767-6.321Zm-2.73.42q0-3.549-2.268-3.549H39.921v5.565l1.848,1.2a1.959,1.959,0,0,0,1.743-.766A4.424,4.424,0,0,0,44.037-5.9Zm7.791,3.087a1.938,1.938,0,0,1,.336,1.365,2.076,2.076,0,0,1-.325,1.386,1.982,1.982,0,0,1-1.376.336,2.028,2.028,0,0,1-1.386-.336,2.028,2.028,0,0,1-.336-1.386,1.982,1.982,0,0,1,.336-1.375,2.076,2.076,0,0,1,1.386-.326A1.938,1.938,0,0,1,51.828-2.814Z" transform="translate(40.214 82.338)" fill="#f91d56"/>
  <path id="Path_630" data-name="Path 630" d="M11.172-13.65a5.076,5.076,0,0,1,1.3,3.78,5.138,5.138,0,0,1-1.291,3.79A4.927,4.927,0,0,1,7.539-4.788H4.662V0H1.743V-14.952h5.8A4.867,4.867,0,0,1,11.172-13.65ZM9.555-9.87q0-2.478-2.163-2.478H4.662v4.935h2.73A2.151,2.151,0,0,0,9-7.98,2.64,2.64,0,0,0,9.555-9.87Zm11.529-2.079-.756,2.688a1.909,1.909,0,0,0-.714-.126,5.389,5.389,0,0,0-2.583.9V0H14.3V-11.991h2.037l.63,1.05,2.9-1.2q.21-.021.567-.021A1.1,1.1,0,0,1,21.084-11.949ZM29.4-5.418V-6.51a5.01,5.01,0,0,0-.451-2.373,1.955,1.955,0,0,0-1.88-.819q-2.31,0-2.31,3.108V-5.5q0,3.339,2.31,3.339a1.888,1.888,0,0,0,1.953-1.113A5.43,5.43,0,0,0,29.4-5.418Zm2.73-.63q0,3.885-1.47,5.208A5.14,5.14,0,0,1,27.069.294q-3,0-4.053-1.764a8.824,8.824,0,0,1-.987-4.578,8.159,8.159,0,0,1,.987-4.347Q24.108-12.159,27-12.159t4.011,1.543A7.725,7.725,0,0,1,32.13-6.048ZM39.438,0h-1.7a2.971,2.971,0,0,1-2.363-.924,3.237,3.237,0,0,1-.808-2.205v-6.3H33.411v-2.079h1.155V-13.86H37.3v2.352h1.932v2.079H37.3V-3.3q0,.987.945.987h1.2ZM50.694-5.355H43.7a4.342,4.342,0,0,0,.514,2.394,2.353,2.353,0,0,0,2.069.756,1.747,1.747,0,0,0,1.491-.641,2.065,2.065,0,0,0,.483-1.229h2.457a4.145,4.145,0,0,1-1.208,3.3A4.691,4.691,0,0,1,46.315.273a6.79,6.79,0,0,1-3.076-.567q-2.247-1.155-2.247-6.132a6.21,6.21,0,0,1,1.281-4.337,5.092,5.092,0,0,1,3.906-1.376q4.557,0,4.557,5.061Q50.736-6.531,50.694-5.355Zm-6.93-1.869h4.494a3.133,3.133,0,0,0-.525-2.016,1.972,1.972,0,0,0-1.607-.63,2.327,2.327,0,0,0-1.722.641A2.738,2.738,0,0,0,43.764-7.224ZM59.346-4.389l2.478-.021q-.021.168-.042.609t-.031.6q-.01.158-.053.494a2.8,2.8,0,0,1-.094.493l-.137.409A3.128,3.128,0,0,1,59.409-.084a6.67,6.67,0,0,1-2.236.378,5.638,5.638,0,0,1-2.111-.378,4.048,4.048,0,0,1-1.491-.966q-1.239-1.3-1.239-4.882t1.239-4.882a4.048,4.048,0,0,1,1.491-.966,5.608,5.608,0,0,1,2.1-.378,4.773,4.773,0,0,1,3.444,1.134,4.171,4.171,0,0,1,1.176,3.15H59.3a1.845,1.845,0,0,0-.462-1.375A2.461,2.461,0,0,0,57.131-9.7a1.7,1.7,0,0,0-1.659.777,5.166,5.166,0,0,0-.41,2.331V-5.5q0,2.5.966,3.066a2.17,2.17,0,0,0,1.155.273A4.121,4.121,0,0,0,58.348-2.3,1.081,1.081,0,0,0,59-2.772a2.071,2.071,0,0,0,.263-.661A6.56,6.56,0,0,0,59.346-4.389ZM69.237,0h-1.7a2.971,2.971,0,0,1-2.363-.924,3.237,3.237,0,0,1-.808-2.205v-6.3H63.21v-2.079h1.155V-13.86H67.1v2.352h1.932v2.079H67.1V-3.3q0,.987.945.987h1.2Zm5.145-2.814a1.938,1.938,0,0,1,.336,1.365,2.076,2.076,0,0,1-.326,1.386,1.982,1.982,0,0,1-1.376.336,2.028,2.028,0,0,1-1.386-.336,2.028,2.028,0,0,1-.336-1.386,1.982,1.982,0,0,1,.336-1.375,2.076,2.076,0,0,1,1.386-.326A1.938,1.938,0,0,1,74.382-2.814Z" transform="translate(108.725 82.338)" fill="#f91d56"/>
  <path id="Path_631" data-name="Path 631" d="M0,0H218.418V92.381H0Z" fill="none"/>
  <path id="Path_632" data-name="Path 632" d="M3.2-1.521a1.24,1.24,0,0,1-.055.387A1,1,0,0,1,3-.845a.952.952,0,0,1-.208.205,1.162,1.162,0,0,1-.239.133,1.184,1.184,0,0,1-.243.071A1.27,1.27,0,0,1,2.1-.415H1.409A1.249,1.249,0,0,1,1.2-.436,1.189,1.189,0,0,1,.953-.507,1.191,1.191,0,0,1,.713-.64.94.94,0,0,1,.5-.845a1,1,0,0,1-.146-.289A1.24,1.24,0,0,1,.3-1.521V-1.98a1.232,1.232,0,0,1,.055-.385A1.014,1.014,0,0,1,.5-2.655a.928.928,0,0,1,.209-.206,1.191,1.191,0,0,1,.24-.133A1.189,1.189,0,0,1,1.2-3.065a1.249,1.249,0,0,1,.214-.021H2.1a1.27,1.27,0,0,1,.215.021,1.184,1.184,0,0,1,.243.071,1.191,1.191,0,0,1,.24.133A.907.907,0,0,1,3-2.655a1.033,1.033,0,0,1,.145.291A1.232,1.232,0,0,1,3.2-1.98ZM2.529-1.99a.583.583,0,0,1-.033.205.478.478,0,0,1-.088.15.476.476,0,0,1-.125.1.628.628,0,0,1-.14.059l.515.439a.633.633,0,0,0,.117-.2.8.8,0,0,0,.046-.289V-1.98a.644.644,0,0,0-.354-.63.749.749,0,0,0-.134-.052q-.066-.018-.12-.028T2.1-2.705H1.409l-.078,0a.787.787,0,0,0-.142.027.9.9,0,0,0-.17.067.58.58,0,0,0-.164.126.651.651,0,0,0-.123.2.8.8,0,0,0-.049.3v.459a.8.8,0,0,0,.049.3.651.651,0,0,0,.123.2.58.58,0,0,0,.164.126.892.892,0,0,0,.171.067A.811.811,0,0,0,1.333-.8l.081,0H2.1l.078,0a.71.71,0,0,0,.139-.026l-.725-.63H1.523v-.386H2a.133.133,0,0,0,.151-.149v-.156H1.384v1.072H1v-1.26a.183.183,0,0,1,.056-.134.183.183,0,0,1,.134-.056h.964a.361.361,0,0,1,.159.033.373.373,0,0,1,.116.085.362.362,0,0,1,.072.118.377.377,0,0,1,.024.132Z" transform="translate(198.082 42.358)" fill="#fff"/>
</svg>
