<svg xmlns="http://www.w3.org/2000/svg" xmlns:xlink="http://www.w3.org/1999/xlink" width="194.277" height="191.189" viewBox="0 0 194.277 191.189">
  <defs>
    <clipPath id="clip-path">
      <rect id="Rectangle_232" data-name="Rectangle 232" width="192.114" height="191.19" fill="none"/>
    </clipPath>
  </defs>
  <g id="Group_673" data-name="Group 673">
    <g id="Group_302" data-name="Group 302" clip-path="url(#clip-path)">
      <path id="Path_84" data-name="Path 84" d="M48.247,22.851h-30.4A11.426,11.426,0,1,1,17.846,0h30.4a11.426,11.426,0,1,1,0,22.851" transform="translate(-2.281)" fill="#f7ad5e"/>
      <path id="Path_85" data-name="Path 85" d="M44.222,66.137H17.846a11.426,11.426,0,1,1,0-22.851H44.222a11.426,11.426,0,1,1,0,22.851" transform="translate(-2.281 -15.377)" fill="#ed8776"/>
      <path id="Path_86" data-name="Path 86" d="M63.17,109.423H17.846a11.426,11.426,0,1,1,0-22.851H63.17a11.426,11.426,0,1,1,0,22.851" transform="translate(-2.281 -30.755)" fill="#f91d56"/>
      <path id="Path_87" data-name="Path 87" d="M39.878,152.71H17.845a11.426,11.426,0,1,1,0-22.851H39.878a11.426,11.426,0,1,1,0,22.851" transform="translate(-2.28 -46.133)" fill="#cc1209"/>
      <path id="Path_88" data-name="Path 88" d="M53.02,196H17.845a11.426,11.426,0,1,1,0-22.851H53.02a11.426,11.426,0,1,1,0,22.851" transform="translate(-2.28 -61.51)" fill="#e85200"/>
      <path id="Path_89" data-name="Path 89" d="M95.895,239.282H17.845a11.426,11.426,0,1,1,0-22.851h78.05a11.426,11.426,0,1,1,0,22.851" transform="translate(-2.28 -76.887)" fill="#fab600"/>
      <path id="Path_90" data-name="Path 90" d="M53.512,282.568H17.846a11.426,11.426,0,1,1,0-22.851H53.512a11.426,11.426,0,1,1,0,22.851" transform="translate(-2.281 -92.265)" fill="#ffec00"/>
    </g>
  </g>
  <path id="Path_612" data-name="Path 612" d="M1.958-2.642V0H.723V-7.109h2.72a2.752,2.752,0,0,1,1.892.62,2.084,2.084,0,0,1,.7,1.641,2.015,2.015,0,0,1-.686,1.626,2.885,2.885,0,0,1-1.921.581Zm0-.991H3.442a1.462,1.462,0,0,0,1.006-.31,1.14,1.14,0,0,0,.347-.9,1.23,1.23,0,0,0-.352-.92,1.355,1.355,0,0,0-.967-.354H1.958ZM9.326.1A2.455,2.455,0,0,1,7.5-.613,2.577,2.577,0,0,1,6.8-2.5v-.146A3.17,3.17,0,0,1,7.1-4.065a2.323,2.323,0,0,1,.857-.969,2.265,2.265,0,0,1,1.23-.347,2.074,2.074,0,0,1,1.667.688,2.911,2.911,0,0,1,.588,1.948v.479H7.993A1.587,1.587,0,0,0,8.43-1.23a1.312,1.312,0,0,0,.964.381,1.607,1.607,0,0,0,1.328-.659l.64.61a2.136,2.136,0,0,1-.847.735A2.652,2.652,0,0,1,9.326.1ZM9.185-4.429a1,1,0,0,0-.789.342,1.772,1.772,0,0,0-.383.952h2.261v-.088a1.442,1.442,0,0,0-.317-.9A.992.992,0,0,0,9.185-4.429ZM15.522,0a1.831,1.831,0,0,1-.137-.493A1.847,1.847,0,0,1,14,.1a1.864,1.864,0,0,1-1.3-.454,1.453,1.453,0,0,1-.5-1.123,1.5,1.5,0,0,1,.627-1.3,3.041,3.041,0,0,1,1.794-.452h.728v-.347a.925.925,0,0,0-.229-.657.91.91,0,0,0-.7-.247,1.045,1.045,0,0,0-.664.2.627.627,0,0,0-.259.515H12.31a1.317,1.317,0,0,1,.288-.813,1.919,1.919,0,0,1,.784-.593,2.753,2.753,0,0,1,1.106-.215,2.217,2.217,0,0,1,1.479.466A1.663,1.663,0,0,1,16.533-3.6v2.383a2.7,2.7,0,0,0,.2,1.138V0Zm-1.3-.854a1.35,1.35,0,0,0,.662-.171,1.142,1.142,0,0,0,.466-.459v-1h-.64a1.749,1.749,0,0,0-.991.229.743.743,0,0,0-.332.649.693.693,0,0,0,.227.544A.879.879,0,0,0,14.219-.854Zm5.728,0a1.073,1.073,0,0,0,.737-.259A.884.884,0,0,0,21-1.748h1.118a1.743,1.743,0,0,1-.308.92,2.018,2.018,0,0,1-.781.676A2.328,2.328,0,0,1,19.961.1,2.253,2.253,0,0,1,18.2-.62,2.847,2.847,0,0,1,17.554-2.6v-.122A2.8,2.8,0,0,1,18.2-4.656a2.232,2.232,0,0,1,1.758-.725,2.171,2.171,0,0,1,1.536.549,1.968,1.968,0,0,1,.623,1.443H21a1.087,1.087,0,0,0-.31-.747,1,1,0,0,0-.74-.293,1.044,1.044,0,0,0-.889.417,2.13,2.13,0,0,0-.317,1.267v.19a2.166,2.166,0,0,0,.31,1.282A1.043,1.043,0,0,0,19.946-.85ZM24.18-4.707a1.857,1.857,0,0,1,1.47-.674q1.689,0,1.714,1.929V0H26.177V-3.408a1.043,1.043,0,0,0-.237-.774.968.968,0,0,0-.7-.227,1.143,1.143,0,0,0-1.064.635V0H22.993V-7.5H24.18Z" transform="translate(13.627 12.729)" fill="#fff"/>
  <path id="Path_613" data-name="Path 613" d="M6.147-2.314A2.567,2.567,0,0,1,5.308-.54,2.863,2.863,0,0,1,3.359.1a2.772,2.772,0,0,1-1.5-.4,2.644,2.644,0,0,1-1-1.145A4.132,4.132,0,0,1,.5-3.174v-.664A4.162,4.162,0,0,1,.854-5.61,2.686,2.686,0,0,1,1.877-6.792a2.853,2.853,0,0,1,1.541-.415,2.741,2.741,0,0,1,1.895.64,2.672,2.672,0,0,1,.835,1.807H4.917A1.756,1.756,0,0,0,4.47-5.867a1.477,1.477,0,0,0-1.052-.339,1.443,1.443,0,0,0-1.238.588,2.939,2.939,0,0,0-.442,1.726v.63A3.117,3.117,0,0,0,2.151-1.5,1.37,1.37,0,0,0,3.359-.9a1.6,1.6,0,0,0,1.094-.327,1.706,1.706,0,0,0,.464-1.089Zm.767-.376a3.115,3.115,0,0,1,.308-1.4,2.247,2.247,0,0,1,.864-.957,2.435,2.435,0,0,1,1.279-.334,2.308,2.308,0,0,1,1.736.688,2.708,2.708,0,0,1,.72,1.826l0,.278a3.143,3.143,0,0,1-.3,1.4,2.22,2.22,0,0,1-.859.952A2.453,2.453,0,0,1,9.375.1a2.292,2.292,0,0,1-1.79-.745,2.852,2.852,0,0,1-.671-1.985Zm1.187.1a2.129,2.129,0,0,0,.337,1.277,1.1,1.1,0,0,0,.938.461,1.083,1.083,0,0,0,.935-.469,2.351,2.351,0,0,0,.334-1.372A2.1,2.1,0,0,0,10.3-3.96a1.1,1.1,0,0,0-.935-.469,1.089,1.089,0,0,0-.923.461A2.307,2.307,0,0,0,8.1-2.588ZM15.6-4.2a2.936,2.936,0,0,0-.483-.039,1.088,1.088,0,0,0-1.1.625V0H12.827V-5.283H13.96l.029.591a1.337,1.337,0,0,1,1.191-.688,1.111,1.111,0,0,1,.42.068ZM19.355,0a1.831,1.831,0,0,1-.137-.493A1.847,1.847,0,0,1,17.832.1a1.864,1.864,0,0,1-1.3-.454,1.453,1.453,0,0,1-.5-1.123,1.5,1.5,0,0,1,.627-1.3,3.041,3.041,0,0,1,1.794-.452h.728v-.347a.925.925,0,0,0-.229-.657.91.91,0,0,0-.7-.247,1.045,1.045,0,0,0-.664.2.627.627,0,0,0-.259.515H16.143a1.317,1.317,0,0,1,.288-.813,1.919,1.919,0,0,1,.784-.593,2.753,2.753,0,0,1,1.106-.215,2.217,2.217,0,0,1,1.479.466A1.663,1.663,0,0,1,20.366-3.6v2.383a2.7,2.7,0,0,0,.2,1.138V0Zm-1.3-.854a1.35,1.35,0,0,0,.662-.171,1.142,1.142,0,0,0,.466-.459v-1h-.64a1.749,1.749,0,0,0-.991.229.743.743,0,0,0-.332.649.693.693,0,0,0,.227.544A.879.879,0,0,0,18.052-.854ZM22.871,0H21.685V-7.5h1.187Z" transform="translate(14.425 40.635)" fill="#fff"/>
  <path id="Path_614" data-name="Path 614" d="M1.167-7.588l.352.249A2.085,2.085,0,0,0,1.064-6.1v.625H.483v-.547a2.119,2.119,0,0,1,.183-.864A2.057,2.057,0,0,1,1.167-7.588Zm1.226,0,.352.249A2.085,2.085,0,0,0,2.29-6.1v.625H1.709v-.547a2.119,2.119,0,0,1,.183-.864A2.057,2.057,0,0,1,2.393-7.588ZM7.91-1.748A1.151,1.151,0,0,0,7.5-2.683a4.383,4.383,0,0,0-1.519-.654,5.322,5.322,0,0,1-1.611-.676,1.6,1.6,0,0,1-.723-1.357A1.59,1.59,0,0,1,4.314-6.7a2.757,2.757,0,0,1,1.716-.51A2.847,2.847,0,0,1,7.3-6.934a2.073,2.073,0,0,1,.867.762,2,2,0,0,1,.308,1.089H7.866a1.487,1.487,0,0,0-.5-1.169A1.942,1.942,0,0,0,6.03-6.694a2.11,2.11,0,0,0-1.3.364,1.135,1.135,0,0,0-.483.95,1.074,1.074,0,0,0,.435.884,4.031,4.031,0,0,0,1.392.6,6.529,6.529,0,0,1,1.45.542,2.067,2.067,0,0,1,.742.671,1.68,1.68,0,0,1,.249.923A1.607,1.607,0,0,1,7.844-.41,2.859,2.859,0,0,1,6.074.1,3.47,3.47,0,0,1,4.695-.171a2.107,2.107,0,0,1-.952-.752,1.941,1.941,0,0,1-.325-1.108h.6A1.419,1.419,0,0,0,4.58-.845,2.377,2.377,0,0,0,6.074-.41,2.215,2.215,0,0,0,7.407-.776,1.145,1.145,0,0,0,7.91-1.748Zm1.44-.972a3.109,3.109,0,0,1,.3-1.372,2.252,2.252,0,0,1,.835-.95A2.249,2.249,0,0,1,11.7-5.381a2.173,2.173,0,0,1,1.709.74,2.851,2.851,0,0,1,.654,1.96v.122a3.136,3.136,0,0,1-.3,1.379,2.206,2.206,0,0,1-.833.945A2.283,2.283,0,0,1,11.714.1a2.175,2.175,0,0,1-1.707-.74A2.844,2.844,0,0,1,9.351-2.6Zm.586.161A2.4,2.4,0,0,0,10.427-1,1.574,1.574,0,0,0,11.714-.4,1.569,1.569,0,0,0,13-1a2.476,2.476,0,0,0,.491-1.6V-2.72a2.688,2.688,0,0,0-.225-1.108,1.8,1.8,0,0,0-.63-.779,1.609,1.609,0,0,0-.928-.276,1.561,1.561,0,0,0-1.274.613,2.48,2.48,0,0,0-.493,1.6ZM15.693,0V-4.8h-.874v-.479h.874v-.64a1.739,1.739,0,0,1,.413-1.245,1.51,1.51,0,0,1,1.15-.435,2.231,2.231,0,0,1,.62.083l-.044.488A2.279,2.279,0,0,0,17.3-7.09a.957.957,0,0,0-.752.3,1.236,1.236,0,0,0-.269.852v.654h1.26V-4.8h-1.26V0Zm3.8-6.636v1.353h1.094V-4.8H19.492v3.521a1.1,1.1,0,0,0,.159.654.615.615,0,0,0,.53.215,3.635,3.635,0,0,0,.474-.049l.024.479A1.894,1.894,0,0,1,20.054.1a1.042,1.042,0,0,1-.874-.349,1.643,1.643,0,0,1-.273-1.028V-4.8h-.972v-.479h.972V-6.636ZM23.843.1a2.293,2.293,0,0,1-1.218-.332,2.263,2.263,0,0,1-.847-.925,2.885,2.885,0,0,1-.3-1.331V-2.7a3.109,3.109,0,0,1,.3-1.372,2.35,2.35,0,0,1,.823-.959,2.03,2.03,0,0,1,1.143-.349,1.908,1.908,0,0,1,1.526.657,2.664,2.664,0,0,1,.564,1.794V-2.6h-3.77v.112a2.212,2.212,0,0,0,.515,1.5,1.639,1.639,0,0,0,1.3.6,1.9,1.9,0,0,0,.828-.171,1.836,1.836,0,0,0,.652-.547l.366.278A2.132,2.132,0,0,1,23.843.1Zm-.107-4.98a1.461,1.461,0,0,0-1.111.483,2.233,2.233,0,0,0-.549,1.3h3.169v-.063A1.939,1.939,0,0,0,24.81-4.4,1.347,1.347,0,0,0,23.735-4.883Zm5.669.1a2.182,2.182,0,0,0-.4-.034,1.427,1.427,0,0,0-.925.305,1.671,1.671,0,0,0-.54.886V0h-.581V-5.283h.571l.01.84a1.554,1.554,0,0,1,1.489-.937.961.961,0,0,1,.386.063ZM34.712-.4A1.543,1.543,0,0,0,35.735-.74a1.211,1.211,0,0,0,.447-.891h.562a1.654,1.654,0,0,1-.3.881,1.9,1.9,0,0,1-.74.623A2.229,2.229,0,0,1,34.712.1a2.041,2.041,0,0,1-1.648-.723,2.921,2.921,0,0,1-.608-1.943v-.176a3.3,3.3,0,0,1,.273-1.382,2.107,2.107,0,0,1,.784-.928,2.163,2.163,0,0,1,1.194-.327,2.037,2.037,0,0,1,1.433.518,1.887,1.887,0,0,1,.6,1.362h-.562a1.437,1.437,0,0,0-.447-1,1.447,1.447,0,0,0-1.028-.381,1.457,1.457,0,0,0-1.228.571,2.585,2.585,0,0,0-.437,1.6v.171a2.527,2.527,0,0,0,.437,1.577A1.467,1.467,0,0,0,34.712-.4ZM37.588-2.72a3.109,3.109,0,0,1,.3-1.372,2.252,2.252,0,0,1,.835-.95,2.249,2.249,0,0,1,1.223-.339,2.173,2.173,0,0,1,1.709.74,2.851,2.851,0,0,1,.654,1.96v.122a3.136,3.136,0,0,1-.3,1.379,2.206,2.206,0,0,1-.833.945A2.283,2.283,0,0,1,39.951.1a2.175,2.175,0,0,1-1.707-.74,2.844,2.844,0,0,1-.657-1.96Zm.586.161A2.4,2.4,0,0,0,38.665-1,1.574,1.574,0,0,0,39.951-.4,1.569,1.569,0,0,0,41.233-1a2.476,2.476,0,0,0,.491-1.6V-2.72A2.688,2.688,0,0,0,41.5-3.828a1.8,1.8,0,0,0-.63-.779,1.609,1.609,0,0,0-.928-.276,1.561,1.561,0,0,0-1.274.613,2.48,2.48,0,0,0-.493,1.6ZM44.165,0h-.586V-7.5h.586ZM45.43-2.72a3.109,3.109,0,0,1,.3-1.372,2.252,2.252,0,0,1,.835-.95,2.249,2.249,0,0,1,1.223-.339,2.173,2.173,0,0,1,1.709.74,2.851,2.851,0,0,1,.654,1.96v.122a3.136,3.136,0,0,1-.3,1.379,2.206,2.206,0,0,1-.833.945A2.283,2.283,0,0,1,47.793.1a2.175,2.175,0,0,1-1.707-.74A2.844,2.844,0,0,1,45.43-2.6Zm.586.161A2.4,2.4,0,0,0,46.506-1,1.574,1.574,0,0,0,47.793-.4,1.569,1.569,0,0,0,49.075-1a2.476,2.476,0,0,0,.491-1.6V-2.72a2.688,2.688,0,0,0-.225-1.108,1.8,1.8,0,0,0-.63-.779,1.609,1.609,0,0,0-.928-.276,1.561,1.561,0,0,0-1.274.613,2.48,2.48,0,0,0-.493,1.6Zm8.735,1.89A1.9,1.9,0,0,1,53.066.1a1.635,1.635,0,0,1-1.284-.491,2.149,2.149,0,0,1-.449-1.453V-5.283h.581v3.364q0,1.509,1.221,1.509a1.5,1.5,0,0,0,1.606-1.05V-5.283h.586V0h-.566Zm4.536-4.116a2.182,2.182,0,0,0-.4-.034,1.427,1.427,0,0,0-.925.305,1.671,1.671,0,0,0-.54.886V0h-.581V-5.283h.571l.01.84a1.554,1.554,0,0,1,1.489-.937.961.961,0,0,1,.386.063Zm4.087,3.442a.833.833,0,0,0-.349-.7,2.692,2.692,0,0,0-1.052-.413A4.747,4.747,0,0,1,60.881-2.8a1.454,1.454,0,0,1-.576-.471,1.176,1.176,0,0,1-.188-.674,1.257,1.257,0,0,1,.522-1.033,2.11,2.11,0,0,1,1.338-.408,2.172,2.172,0,0,1,1.418.437,1.4,1.4,0,0,1,.535,1.14h-.586a.946.946,0,0,0-.388-.771,1.527,1.527,0,0,0-.979-.308,1.528,1.528,0,0,0-.925.256.791.791,0,0,0-.349.667.721.721,0,0,0,.291.613,3.073,3.073,0,0,0,1.06.4,4.98,4.98,0,0,1,1.152.386,1.492,1.492,0,0,1,.569.493,1.262,1.262,0,0,1,.186.7A1.266,1.266,0,0,1,63.42-.3a2.305,2.305,0,0,1-1.409.4,2.367,2.367,0,0,1-1.5-.447,1.375,1.375,0,0,1-.574-1.13h.586a1.016,1.016,0,0,0,.432.8A1.766,1.766,0,0,0,62.012-.4,1.66,1.66,0,0,0,63-.664.806.806,0,0,0,63.374-1.343Z" transform="translate(123.656 9.498)" fill="#1d1d1b"/>
  <path id="Path_615" data-name="Path 615" d="M1.318-5.283l.02.9a2.1,2.1,0,0,1,.742-.745,1.929,1.929,0,0,1,.981-.256A1.585,1.585,0,0,1,4.326-4.9a2.158,2.158,0,0,1,.42,1.436V0H4.165V-3.472a1.614,1.614,0,0,0-.3-1.055,1.176,1.176,0,0,0-.945-.347,1.478,1.478,0,0,0-.959.339,1.988,1.988,0,0,0-.618.916V0H.762V-5.283ZM5.933-2.72a3.109,3.109,0,0,1,.3-1.372,2.252,2.252,0,0,1,.835-.95,2.249,2.249,0,0,1,1.223-.339A2.173,2.173,0,0,1,10-4.641a2.851,2.851,0,0,1,.654,1.96v.122a3.136,3.136,0,0,1-.3,1.379,2.206,2.206,0,0,1-.833.945A2.283,2.283,0,0,1,8.3.1a2.175,2.175,0,0,1-1.707-.74A2.844,2.844,0,0,1,5.933-2.6Zm.586.161A2.4,2.4,0,0,0,7.009-1,1.574,1.574,0,0,0,8.3-.4,1.569,1.569,0,0,0,9.578-1a2.476,2.476,0,0,0,.491-1.6V-2.72a2.688,2.688,0,0,0-.225-1.108,1.8,1.8,0,0,0-.63-.779,1.609,1.609,0,0,0-.928-.276,1.561,1.561,0,0,0-1.274.613,2.48,2.48,0,0,0-.493,1.6Zm6.245-4.077v1.353h1.094V-4.8H12.764v3.521a1.1,1.1,0,0,0,.159.654.615.615,0,0,0,.53.215,3.635,3.635,0,0,0,.474-.049l.024.479A1.894,1.894,0,0,1,13.325.1a1.042,1.042,0,0,1-.874-.349,1.643,1.643,0,0,1-.273-1.028V-4.8h-.972v-.479h.972V-6.636ZM20.835,0a2.763,2.763,0,0,1-.112-.737,2.038,2.038,0,0,1-.784.618A2.4,2.4,0,0,1,18.931.1,1.771,1.771,0,0,1,17.7-.327,1.384,1.384,0,0,1,17.227-1.4a1.414,1.414,0,0,1,.642-1.221,3.085,3.085,0,0,1,1.79-.449h1.06v-.6a1.157,1.157,0,0,0-.349-.891,1.443,1.443,0,0,0-1.018-.325,1.593,1.593,0,0,0-1.011.313.929.929,0,0,0-.4.752l-.586,0a1.359,1.359,0,0,1,.586-1.091,2.256,2.256,0,0,1,1.44-.461,2.058,2.058,0,0,1,1.394.442A1.586,1.586,0,0,1,21.3-3.706v2.5A3.1,3.1,0,0,0,21.46-.059V0ZM19-.42A1.962,1.962,0,0,0,20.046-.7a1.666,1.666,0,0,0,.671-.757V-2.622H19.673a2.618,2.618,0,0,0-1.367.32.96.96,0,0,0-.493.852.945.945,0,0,0,.33.737A1.242,1.242,0,0,0,19-.42Zm7.021-.923a.833.833,0,0,0-.349-.7,2.692,2.692,0,0,0-1.052-.413A4.747,4.747,0,0,1,23.528-2.8a1.454,1.454,0,0,1-.576-.471,1.176,1.176,0,0,1-.188-.674,1.257,1.257,0,0,1,.522-1.033,2.11,2.11,0,0,1,1.338-.408,2.172,2.172,0,0,1,1.418.437,1.4,1.4,0,0,1,.535,1.14h-.586a.946.946,0,0,0-.388-.771,1.527,1.527,0,0,0-.979-.308,1.528,1.528,0,0,0-.925.256.791.791,0,0,0-.349.667.721.721,0,0,0,.291.613,3.073,3.073,0,0,0,1.06.4,4.98,4.98,0,0,1,1.152.386,1.492,1.492,0,0,1,.569.493,1.262,1.262,0,0,1,.186.7A1.266,1.266,0,0,1,26.067-.3a2.305,2.305,0,0,1-1.409.4,2.367,2.367,0,0,1-1.5-.447,1.375,1.375,0,0,1-.574-1.13h.586a1.016,1.016,0,0,0,.432.8A1.766,1.766,0,0,0,24.658-.4a1.66,1.66,0,0,0,.986-.269A.806.806,0,0,0,26.021-1.343ZM30.771,0V-4.8H29.9v-.479h.874v-.64a1.739,1.739,0,0,1,.413-1.245,1.51,1.51,0,0,1,1.15-.435,2.231,2.231,0,0,1,.62.083l-.044.488a2.279,2.279,0,0,0-.532-.059.957.957,0,0,0-.752.3,1.236,1.236,0,0,0-.269.852v.654h1.26V-4.8h-1.26V0Zm6.289-.669A1.9,1.9,0,0,1,35.376.1a1.635,1.635,0,0,1-1.284-.491,2.149,2.149,0,0,1-.449-1.453V-5.283h.581v3.364q0,1.509,1.221,1.509a1.5,1.5,0,0,0,1.606-1.05V-5.283h.586V0H37.07Zm2.651-4.614.02.9a2.1,2.1,0,0,1,.742-.745,1.929,1.929,0,0,1,.981-.256A1.585,1.585,0,0,1,42.72-4.9a2.158,2.158,0,0,1,.42,1.436V0h-.581V-3.472a1.614,1.614,0,0,0-.3-1.055,1.176,1.176,0,0,0-.945-.347,1.478,1.478,0,0,0-.959.339,1.988,1.988,0,0,0-.618.916V0h-.581V-5.283Zm4.346-.083-.347-.254a2.131,2.131,0,0,0,.454-1.24V-7.5h.576v.493A2.109,2.109,0,0,1,44.058-5.366Zm1.191,0L44.9-5.62a2.131,2.131,0,0,0,.454-1.24V-7.5h.576v.493A2.109,2.109,0,0,1,45.249-5.366Z" transform="translate(146.649 24.197)" fill="#1d1d1b"/>
  <path id="Path_616" data-name="Path 616" d="M1.167-7.588l.352.249A2.085,2.085,0,0,0,1.064-6.1v.625H.483v-.547a2.119,2.119,0,0,1,.183-.864A2.057,2.057,0,0,1,1.167-7.588Zm1.226,0,.352.249A2.085,2.085,0,0,0,2.29-6.1v.625H1.709v-.547a2.119,2.119,0,0,1,.183-.864A2.057,2.057,0,0,1,2.393-7.588ZM5.2-1.919l.22,1.1L5.688-1.87,7.231-7.109h.542L9.3-1.87,9.561-.806l.234-1.113,1.284-5.19h.615L9.873,0H9.3L7.686-5.562l-.181-.7-.176.7L5.679,0H5.1L3.286-7.109H3.9ZM14.761.1a2.293,2.293,0,0,1-1.218-.332A2.263,2.263,0,0,1,12.7-1.16a2.885,2.885,0,0,1-.3-1.331V-2.7a3.109,3.109,0,0,1,.3-1.372,2.35,2.35,0,0,1,.823-.959,2.03,2.03,0,0,1,1.143-.349,1.908,1.908,0,0,1,1.526.657,2.664,2.664,0,0,1,.564,1.794V-2.6h-3.77v.112a2.212,2.212,0,0,0,.515,1.5,1.639,1.639,0,0,0,1.3.6,1.9,1.9,0,0,0,.828-.171,1.836,1.836,0,0,0,.652-.547l.366.278A2.132,2.132,0,0,1,14.761.1Zm-.107-4.98a1.461,1.461,0,0,0-1.111.483,2.233,2.233,0,0,0-.549,1.3h3.169v-.063a1.939,1.939,0,0,0-.435-1.24A1.347,1.347,0,0,0,14.653-4.883ZM21.216,0A2.763,2.763,0,0,1,21.1-.737a2.038,2.038,0,0,1-.784.618A2.4,2.4,0,0,1,19.312.1a1.771,1.771,0,0,1-1.233-.425A1.384,1.384,0,0,1,17.607-1.4a1.414,1.414,0,0,1,.642-1.221,3.085,3.085,0,0,1,1.79-.449H21.1v-.6a1.157,1.157,0,0,0-.349-.891,1.443,1.443,0,0,0-1.018-.325,1.593,1.593,0,0,0-1.011.313.929.929,0,0,0-.4.752l-.586,0a1.359,1.359,0,0,1,.586-1.091,2.256,2.256,0,0,1,1.44-.461,2.058,2.058,0,0,1,1.394.442,1.586,1.586,0,0,1,.525,1.233v2.5a3.1,3.1,0,0,0,.161,1.147V0ZM19.38-.42A1.962,1.962,0,0,0,20.427-.7,1.666,1.666,0,0,0,21.1-1.46V-2.622H20.054a2.618,2.618,0,0,0-1.367.32.96.96,0,0,0-.493.852.945.945,0,0,0,.33.737A1.242,1.242,0,0,0,19.38-.42Zm5.112-2.241-.669.645V0h-.586V-7.5h.586v4.8l.552-.6L26.4-5.283h.737L24.893-3.057,27.329,0h-.7Zm3.56-2.705-.347-.254a2.131,2.131,0,0,0,.454-1.24V-7.5h.576v.493A2.109,2.109,0,0,1,28.052-5.366Zm1.191,0L28.9-5.62a2.131,2.131,0,0,0,.454-1.24V-7.5h.576v.493A2.109,2.109,0,0,1,29.243-5.366Z" transform="translate(164.351 38.898)" fill="#1d1d1b"/>
  <path id="Path_617" data-name="Path 617" d="M1.958-2.642V0H.723V-7.109h2.72a2.752,2.752,0,0,1,1.892.62,2.084,2.084,0,0,1,.7,1.641,2.015,2.015,0,0,1-.686,1.626,2.885,2.885,0,0,1-1.921.581Zm0-.991H3.442a1.462,1.462,0,0,0,1.006-.31,1.14,1.14,0,0,0,.347-.9,1.23,1.23,0,0,0-.352-.92,1.355,1.355,0,0,0-.967-.354H1.958ZM8.262,0H7.075V-5.283H8.262ZM7-6.655a.63.63,0,0,1,.173-.454.655.655,0,0,1,.5-.181.663.663,0,0,1,.5.181.625.625,0,0,1,.176.454.61.61,0,0,1-.176.447.668.668,0,0,1-.5.178.66.66,0,0,1-.5-.178A.615.615,0,0,1,7-6.655Zm3.652,1.372.034.61a1.9,1.9,0,0,1,1.538-.708q1.65,0,1.68,1.89V0H12.72V-3.423a1.088,1.088,0,0,0-.217-.745.914.914,0,0,0-.71-.242,1.143,1.143,0,0,0-1.069.649V0H9.536V-5.283Zm6.177,3.018-.527.542V0H15.117V-7.5H16.3v4.326l.371-.464,1.46-1.646h1.426L17.6-3.081,19.771,0H18.4Zm5.806-.278H20.073V-3.5h2.563ZM26.382-4.2a2.936,2.936,0,0,0-.483-.039,1.088,1.088,0,0,0-1.1.625V0H23.613V-5.283h1.133l.029.591a1.337,1.337,0,0,1,1.191-.688,1.111,1.111,0,0,1,.42.068ZM29.458.1a2.455,2.455,0,0,1-1.829-.71,2.577,2.577,0,0,1-.7-1.892v-.146a3.17,3.17,0,0,1,.305-1.414,2.323,2.323,0,0,1,.857-.969,2.265,2.265,0,0,1,1.23-.347,2.074,2.074,0,0,1,1.667.688,2.911,2.911,0,0,1,.588,1.948v.479H28.125a1.587,1.587,0,0,0,.437,1.035,1.312,1.312,0,0,0,.964.381,1.607,1.607,0,0,0,1.328-.659l.64.61a2.136,2.136,0,0,1-.847.735A2.652,2.652,0,0,1,29.458.1Zm-.142-4.526a1,1,0,0,0-.789.342,1.772,1.772,0,0,0-.383.952h2.261v-.088a1.442,1.442,0,0,0-.317-.9A.992.992,0,0,0,29.316-4.429Zm2.959,1.748a3.141,3.141,0,0,1,.566-1.96,1.815,1.815,0,0,1,1.519-.74,1.724,1.724,0,0,1,1.357.586V-7.5H36.9V0H35.83l-.059-.547A1.749,1.749,0,0,1,34.351.1a1.8,1.8,0,0,1-1.5-.747A3.256,3.256,0,0,1,32.275-2.681Zm1.187.1a2.2,2.2,0,0,0,.31,1.257,1.006,1.006,0,0,0,.881.452,1.121,1.121,0,0,0,1.064-.649V-3.774a1.1,1.1,0,0,0-1.055-.635,1.013,1.013,0,0,0-.889.457A2.449,2.449,0,0,0,33.462-2.578Z" transform="translate(13.97 68.539)" fill="#fff"/>
  <path id="Path_618" data-name="Path 618" d="M3.335-2.739H1.958V0H.723V-7.109h2.5a2.91,2.91,0,0,1,1.9.552,1.951,1.951,0,0,1,.669,1.6,2,2,0,0,1-.344,1.194,2.19,2.19,0,0,1-.959.74l1.6,2.964V0H4.761ZM1.958-3.73h1.27A1.412,1.412,0,0,0,4.2-4.045a1.1,1.1,0,0,0,.352-.862,1.169,1.169,0,0,0-.325-.884,1.379,1.379,0,0,0-.969-.322h-1.3ZM9.175.1a2.455,2.455,0,0,1-1.829-.71,2.577,2.577,0,0,1-.7-1.892v-.146a3.17,3.17,0,0,1,.305-1.414,2.323,2.323,0,0,1,.857-.969,2.265,2.265,0,0,1,1.23-.347,2.074,2.074,0,0,1,1.667.688,2.911,2.911,0,0,1,.588,1.948v.479H7.842A1.587,1.587,0,0,0,8.279-1.23a1.312,1.312,0,0,0,.964.381,1.607,1.607,0,0,0,1.328-.659l.64.61a2.136,2.136,0,0,1-.847.735A2.652,2.652,0,0,1,9.175.1ZM9.033-4.429a1,1,0,0,0-.789.342,1.772,1.772,0,0,0-.383.952h2.261v-.088a1.442,1.442,0,0,0-.317-.9A.992.992,0,0,0,9.033-4.429Zm2.959,1.748a3.141,3.141,0,0,1,.566-1.96,1.815,1.815,0,0,1,1.519-.74,1.724,1.724,0,0,1,1.357.586V-7.5h1.187V0H15.547l-.059-.547A1.749,1.749,0,0,1,14.067.1a1.8,1.8,0,0,1-1.5-.747A3.256,3.256,0,0,1,11.992-2.681Zm1.187.1a2.2,2.2,0,0,0,.31,1.257,1.006,1.006,0,0,0,.881.452,1.121,1.121,0,0,0,1.064-.649V-3.774a1.1,1.1,0,0,0-1.055-.635,1.013,1.013,0,0,0-.889.457A2.449,2.449,0,0,0,13.179-2.578Z" transform="translate(15.782 96.447)" fill="#fff"/>
  <path id="Path_619" data-name="Path 619" d="M6.4-3.369a4.362,4.362,0,0,1-.361,1.833A2.732,2.732,0,0,1,5-.325,2.841,2.841,0,0,1,3.457.1,2.847,2.847,0,0,1,1.917-.325a2.774,2.774,0,0,1-1.045-1.2A4.225,4.225,0,0,1,.5-3.33v-.4A4.324,4.324,0,0,1,.867-5.566a2.771,2.771,0,0,1,1.04-1.218,2.832,2.832,0,0,1,1.541-.422,2.857,2.857,0,0,1,1.541.417,2.736,2.736,0,0,1,1.038,1.2A4.315,4.315,0,0,1,6.4-3.765ZM5.161-3.74a3.108,3.108,0,0,0-.447-1.812,1.462,1.462,0,0,0-1.267-.63,1.457,1.457,0,0,0-1.252.627,3.048,3.048,0,0,0-.461,1.775v.41A3.084,3.084,0,0,0,2.19-1.558a1.47,1.47,0,0,0,1.267.64,1.453,1.453,0,0,0,1.262-.625,3.151,3.151,0,0,0,.442-1.826ZM10.278-4.2a2.936,2.936,0,0,0-.483-.039,1.088,1.088,0,0,0-1.1.625V0H7.51V-5.283H8.643l.029.591a1.337,1.337,0,0,1,1.191-.688,1.111,1.111,0,0,1,.42.068ZM14.038,0A1.831,1.831,0,0,1,13.9-.493,1.847,1.847,0,0,1,12.515.1a1.864,1.864,0,0,1-1.3-.454,1.453,1.453,0,0,1-.5-1.123,1.5,1.5,0,0,1,.627-1.3,3.041,3.041,0,0,1,1.794-.452h.728v-.347a.925.925,0,0,0-.229-.657.91.91,0,0,0-.7-.247,1.045,1.045,0,0,0-.664.2.627.627,0,0,0-.259.515H10.825a1.317,1.317,0,0,1,.288-.813,1.919,1.919,0,0,1,.784-.593A2.753,2.753,0,0,1,13-5.381a2.217,2.217,0,0,1,1.479.466A1.663,1.663,0,0,1,15.049-3.6v2.383a2.7,2.7,0,0,0,.2,1.138V0Zm-1.3-.854a1.35,1.35,0,0,0,.662-.171,1.142,1.142,0,0,0,.466-.459v-1h-.64a1.749,1.749,0,0,0-.991.229A.743.743,0,0,0,11.9-1.6a.693.693,0,0,0,.227.544A.879.879,0,0,0,12.734-.854Zm4.658-4.429.034.61a1.9,1.9,0,0,1,1.538-.708q1.65,0,1.68,1.89V0H19.458V-3.423a1.088,1.088,0,0,0-.217-.745.914.914,0,0,0-.71-.242,1.143,1.143,0,0,0-1.069.649V0H16.274V-5.283Zm4.253,2.6a3.09,3.09,0,0,1,.579-1.965,1.857,1.857,0,0,1,1.536-.735,1.74,1.74,0,0,1,1.421.63l.054-.532H26.3V-.161a2.129,2.129,0,0,1-.647,1.641,2.464,2.464,0,0,1-1.746.6,2.814,2.814,0,0,1-1.135-.242,2.017,2.017,0,0,1-.842-.632L22.5.493a1.7,1.7,0,0,0,1.348.649,1.311,1.311,0,0,0,.933-.32,1.226,1.226,0,0,0,.342-.94V-.474A1.747,1.747,0,0,1,23.75.1,1.853,1.853,0,0,1,22.234-.64,3.19,3.19,0,0,1,21.646-2.681Zm1.182.1a2.127,2.127,0,0,0,.325,1.252,1.044,1.044,0,0,0,.9.457,1.142,1.142,0,0,0,1.064-.615V-3.809a1.125,1.125,0,0,0-1.055-.6,1.048,1.048,0,0,0-.911.464A2.382,2.382,0,0,0,22.827-2.578ZM29.849.1a2.455,2.455,0,0,1-1.829-.71,2.577,2.577,0,0,1-.7-1.892v-.146a3.17,3.17,0,0,1,.305-1.414,2.323,2.323,0,0,1,.857-.969,2.265,2.265,0,0,1,1.23-.347,2.074,2.074,0,0,1,1.667.688,2.911,2.911,0,0,1,.588,1.948v.479H28.516a1.587,1.587,0,0,0,.437,1.035,1.312,1.312,0,0,0,.964.381,1.607,1.607,0,0,0,1.328-.659l.64.61a2.136,2.136,0,0,1-.847.735A2.652,2.652,0,0,1,29.849.1Zm-.142-4.526a1,1,0,0,0-.789.342,1.772,1.772,0,0,0-.383.952H30.8v-.088a1.442,1.442,0,0,0-.317-.9A.992.992,0,0,0,29.707-4.429Z" transform="translate(13.282 124.354)" fill="#fff"/>
  <path id="Path_620" data-name="Path 620" d="M3.042-3.74,4.678-7.109H6.045L3.662-2.617V0H2.422V-2.617L.034-7.109H1.406ZM9.028.1A2.455,2.455,0,0,1,7.2-.613,2.577,2.577,0,0,1,6.5-2.5v-.146A3.17,3.17,0,0,1,6.8-4.065a2.323,2.323,0,0,1,.857-.969,2.265,2.265,0,0,1,1.23-.347,2.074,2.074,0,0,1,1.667.688,2.911,2.911,0,0,1,.588,1.948v.479H7.7A1.587,1.587,0,0,0,8.132-1.23,1.312,1.312,0,0,0,9.1-.85a1.607,1.607,0,0,0,1.328-.659l.64.61a2.136,2.136,0,0,1-.847.735A2.652,2.652,0,0,1,9.028.1ZM8.887-4.429a1,1,0,0,0-.789.342,1.772,1.772,0,0,0-.383.952H9.976v-.088a1.442,1.442,0,0,0-.317-.9A.992.992,0,0,0,8.887-4.429ZM13.33,0H12.144V-7.5H13.33Zm2.554,0H14.7V-7.5h1.187Zm1.069-2.69a3.115,3.115,0,0,1,.308-1.4,2.247,2.247,0,0,1,.864-.957A2.435,2.435,0,0,1,19.4-5.381a2.308,2.308,0,0,1,1.736.688,2.708,2.708,0,0,1,.72,1.826l0,.278a3.143,3.143,0,0,1-.3,1.4,2.22,2.22,0,0,1-.859.952A2.453,2.453,0,0,1,19.414.1a2.292,2.292,0,0,1-1.79-.745,2.852,2.852,0,0,1-.671-1.985Zm1.187.1a2.129,2.129,0,0,0,.337,1.277,1.1,1.1,0,0,0,.938.461,1.083,1.083,0,0,0,.935-.469,2.351,2.351,0,0,0,.334-1.372,2.1,2.1,0,0,0-.344-1.27,1.1,1.1,0,0,0-.935-.469,1.089,1.089,0,0,0-.923.461A2.307,2.307,0,0,0,18.14-2.588Zm9.37.952.84-3.647h1.157L28.066,0H27.09L25.957-3.628,24.844,0h-.977L22.422-5.283h1.157l.854,3.608,1.084-3.608h.894ZM32.6-2.544H30.039V-3.5H32.6Zm.757-.146a3.115,3.115,0,0,1,.308-1.4,2.247,2.247,0,0,1,.864-.957,2.435,2.435,0,0,1,1.279-.334,2.308,2.308,0,0,1,1.736.688,2.708,2.708,0,0,1,.72,1.826l0,.278a3.143,3.143,0,0,1-.3,1.4,2.22,2.22,0,0,1-.859.952A2.453,2.453,0,0,1,35.82.1a2.292,2.292,0,0,1-1.79-.745,2.852,2.852,0,0,1-.671-1.985Zm1.187.1a2.129,2.129,0,0,0,.337,1.277,1.1,1.1,0,0,0,.938.461,1.083,1.083,0,0,0,.935-.469A2.351,2.351,0,0,0,37.09-2.69a2.1,2.1,0,0,0-.344-1.27,1.1,1.1,0,0,0-.935-.469,1.089,1.089,0,0,0-.923.461A2.307,2.307,0,0,0,34.546-2.588Zm7.5-1.611a2.936,2.936,0,0,0-.483-.039,1.088,1.088,0,0,0-1.1.625V0H39.272V-5.283h1.133l.029.591a1.337,1.337,0,0,1,1.191-.688,1.111,1.111,0,0,1,.42.068ZM45.8,0a1.831,1.831,0,0,1-.137-.493A1.847,1.847,0,0,1,44.277.1a1.864,1.864,0,0,1-1.3-.454,1.453,1.453,0,0,1-.5-1.123,1.5,1.5,0,0,1,.627-1.3A3.041,3.041,0,0,1,44.9-3.228h.728v-.347a.925.925,0,0,0-.229-.657.91.91,0,0,0-.7-.247,1.045,1.045,0,0,0-.664.2.627.627,0,0,0-.259.515H42.588a1.317,1.317,0,0,1,.288-.813,1.919,1.919,0,0,1,.784-.593,2.753,2.753,0,0,1,1.106-.215,2.217,2.217,0,0,1,1.479.466A1.663,1.663,0,0,1,46.812-3.6v2.383a2.7,2.7,0,0,0,.2,1.138V0ZM44.5-.854a1.35,1.35,0,0,0,.662-.171,1.142,1.142,0,0,0,.466-.459v-1h-.64a1.749,1.749,0,0,0-.991.229.743.743,0,0,0-.332.649.693.693,0,0,0,.227.544A.879.879,0,0,0,44.5-.854Zm4.658-4.429.034.61a1.9,1.9,0,0,1,1.538-.708q1.65,0,1.68,1.89V0H51.221V-3.423A1.088,1.088,0,0,0,51-4.167a.914.914,0,0,0-.71-.242,1.143,1.143,0,0,0-1.069.649V0H48.037V-5.283Zm4.253,2.6a3.09,3.09,0,0,1,.579-1.965,1.857,1.857,0,0,1,1.536-.735,1.74,1.74,0,0,1,1.421.63L57-5.283h1.069V-.161a2.129,2.129,0,0,1-.647,1.641,2.464,2.464,0,0,1-1.746.6,2.814,2.814,0,0,1-1.135-.242,2.017,2.017,0,0,1-.842-.632l.562-.713a1.7,1.7,0,0,0,1.348.649,1.311,1.311,0,0,0,.933-.32,1.226,1.226,0,0,0,.342-.94V-.474A1.747,1.747,0,0,1,55.513.1,1.853,1.853,0,0,1,54-.64,3.19,3.19,0,0,1,53.408-2.681Zm1.182.1a2.127,2.127,0,0,0,.325,1.252,1.044,1.044,0,0,0,.9.457,1.142,1.142,0,0,0,1.064-.615V-3.809a1.125,1.125,0,0,0-1.055-.6,1.048,1.048,0,0,0-.911.464A2.382,2.382,0,0,0,54.59-2.578ZM61.611.1a2.455,2.455,0,0,1-1.829-.71,2.577,2.577,0,0,1-.7-1.892v-.146a3.17,3.17,0,0,1,.305-1.414,2.323,2.323,0,0,1,.857-.969,2.265,2.265,0,0,1,1.23-.347,2.074,2.074,0,0,1,1.667.688,2.911,2.911,0,0,1,.588,1.948v.479H60.278a1.587,1.587,0,0,0,.437,1.035,1.312,1.312,0,0,0,.964.381,1.607,1.607,0,0,0,1.328-.659l.64.61a2.136,2.136,0,0,1-.847.735A2.652,2.652,0,0,1,61.611.1ZM61.47-4.429a1,1,0,0,0-.789.342,1.772,1.772,0,0,0-.383.952h2.261v-.088a1.442,1.442,0,0,0-.317-.9A.992.992,0,0,0,61.47-4.429Z" transform="translate(14.657 152.26)" fill="#fff"/>
  <path id="Path_621" data-name="Path 621" d="M3.042-3.74,4.678-7.109H6.045L3.662-2.617V0H2.422V-2.617L.034-7.109H1.406ZM9.028.1A2.455,2.455,0,0,1,7.2-.613,2.577,2.577,0,0,1,6.5-2.5v-.146A3.17,3.17,0,0,1,6.8-4.065a2.323,2.323,0,0,1,.857-.969,2.265,2.265,0,0,1,1.23-.347,2.074,2.074,0,0,1,1.667.688,2.911,2.911,0,0,1,.588,1.948v.479H7.7A1.587,1.587,0,0,0,8.132-1.23,1.312,1.312,0,0,0,9.1-.85a1.607,1.607,0,0,0,1.328-.659l.64.61a2.136,2.136,0,0,1-.847.735A2.652,2.652,0,0,1,9.028.1ZM8.887-4.429a1,1,0,0,0-.789.342,1.772,1.772,0,0,0-.383.952H9.976v-.088a1.442,1.442,0,0,0-.317-.9A.992.992,0,0,0,8.887-4.429ZM13.33,0H12.144V-7.5H13.33Zm2.554,0H14.7V-7.5h1.187Zm1.069-2.69a3.115,3.115,0,0,1,.308-1.4,2.247,2.247,0,0,1,.864-.957A2.435,2.435,0,0,1,19.4-5.381a2.308,2.308,0,0,1,1.736.688,2.708,2.708,0,0,1,.72,1.826l0,.278a3.143,3.143,0,0,1-.3,1.4,2.22,2.22,0,0,1-.859.952A2.453,2.453,0,0,1,19.414.1a2.292,2.292,0,0,1-1.79-.745,2.852,2.852,0,0,1-.671-1.985Zm1.187.1a2.129,2.129,0,0,0,.337,1.277,1.1,1.1,0,0,0,.938.461,1.083,1.083,0,0,0,.935-.469,2.351,2.351,0,0,0,.334-1.372,2.1,2.1,0,0,0-.344-1.27,1.1,1.1,0,0,0-.935-.469,1.089,1.089,0,0,0-.923.461A2.307,2.307,0,0,0,18.14-2.588Zm9.37.952.84-3.647h1.157L28.066,0H27.09L25.957-3.628,24.844,0h-.977L22.422-5.283h1.157l.854,3.608,1.084-3.608h.894Z" transform="translate(16.468 180.164)" fill="#1d1d1b"/>
  <path id="Path_622" data-name="Path 622" d="M1.167-7.588l.352.249A2.085,2.085,0,0,0,1.064-6.1v.625H.483v-.547a2.119,2.119,0,0,1,.183-.864A2.057,2.057,0,0,1,1.167-7.588Zm1.226,0,.352.249A2.085,2.085,0,0,0,2.29-6.1v.625H1.709v-.547a2.119,2.119,0,0,1,.183-.864A2.057,2.057,0,0,1,2.393-7.588Zm4.15,4.629H4.478V0H3.872V-7.109h2.31a2.634,2.634,0,0,1,1.777.552A1.929,1.929,0,0,1,8.6-5.015a1.928,1.928,0,0,1-.4,1.206,2.047,2.047,0,0,1-1.074.723L8.9-.063V0h-.64ZM4.478-3.472H6.318A1.707,1.707,0,0,0,7.534-3.9a1.456,1.456,0,0,0,.459-1.113,1.462,1.462,0,0,0-.479-1.167A1.985,1.985,0,0,0,6.172-6.6H4.478ZM12.144.1a2.293,2.293,0,0,1-1.218-.332,2.263,2.263,0,0,1-.847-.925,2.885,2.885,0,0,1-.3-1.331V-2.7a3.109,3.109,0,0,1,.3-1.372,2.35,2.35,0,0,1,.823-.959,2.03,2.03,0,0,1,1.143-.349,1.908,1.908,0,0,1,1.526.657,2.664,2.664,0,0,1,.564,1.794V-2.6h-3.77v.112a2.212,2.212,0,0,0,.515,1.5,1.639,1.639,0,0,0,1.3.6A1.9,1.9,0,0,0,13-.566a1.836,1.836,0,0,0,.652-.547l.366.278A2.132,2.132,0,0,1,12.144.1Zm-.107-4.98a1.461,1.461,0,0,0-1.111.483,2.233,2.233,0,0,0-.549,1.3h3.169v-.063A1.939,1.939,0,0,0,13.11-4.4,1.347,1.347,0,0,0,12.036-4.883ZM15.029-2.69a3.185,3.185,0,0,1,.549-1.96,1.768,1.768,0,0,1,1.492-.73,1.837,1.837,0,0,1,1.631.845V-7.5h.581V0h-.547l-.024-.7a1.887,1.887,0,0,1-1.65.8,1.762,1.762,0,0,1-1.472-.735,3.2,3.2,0,0,1-.559-1.985Zm.591.1a2.755,2.755,0,0,0,.405,1.594,1.311,1.311,0,0,0,1.143.583A1.573,1.573,0,0,0,18.7-1.362v-2.48a1.561,1.561,0,0,0-1.523-1.03,1.327,1.327,0,0,0-1.147.579A2.944,2.944,0,0,0,15.62-2.588Zm4.966-.1a3.185,3.185,0,0,1,.549-1.96,1.768,1.768,0,0,1,1.492-.73,1.837,1.837,0,0,1,1.631.845V-7.5h.581V0h-.547l-.024-.7a1.887,1.887,0,0,1-1.65.8,1.762,1.762,0,0,1-1.472-.735,3.2,3.2,0,0,1-.559-1.985Zm.591.1a2.755,2.755,0,0,0,.405,1.594,1.311,1.311,0,0,0,1.143.583,1.573,1.573,0,0,0,1.533-.952v-2.48a1.561,1.561,0,0,0-1.523-1.03,1.327,1.327,0,0,0-1.147.579A2.944,2.944,0,0,0,21.177-2.588ZM28.423.1A2.293,2.293,0,0,1,27.2-.234a2.263,2.263,0,0,1-.847-.925,2.885,2.885,0,0,1-.3-1.331V-2.7a3.109,3.109,0,0,1,.3-1.372,2.35,2.35,0,0,1,.823-.959,2.03,2.03,0,0,1,1.143-.349,1.908,1.908,0,0,1,1.526.657,2.664,2.664,0,0,1,.564,1.794V-2.6h-3.77v.112a2.212,2.212,0,0,0,.515,1.5,1.639,1.639,0,0,0,1.3.6,1.9,1.9,0,0,0,.828-.171,1.836,1.836,0,0,0,.652-.547l.366.278A2.132,2.132,0,0,1,28.423.1Zm-.107-4.98A1.461,1.461,0,0,0,27.2-4.4a2.233,2.233,0,0,0-.549,1.3h3.169v-.063A1.939,1.939,0,0,0,29.39-4.4,1.347,1.347,0,0,0,28.315-4.883Zm5.669.1a2.182,2.182,0,0,0-.4-.034,1.427,1.427,0,0,0-.925.305,1.671,1.671,0,0,0-.54.886V0h-.581V-5.283h.571l.01.84a1.554,1.554,0,0,1,1.489-.937A.961.961,0,0,1,34-5.317ZM39.292-.4A1.543,1.543,0,0,0,40.315-.74a1.211,1.211,0,0,0,.447-.891h.562a1.654,1.654,0,0,1-.3.881,1.9,1.9,0,0,1-.74.623A2.229,2.229,0,0,1,39.292.1a2.041,2.041,0,0,1-1.648-.723,2.921,2.921,0,0,1-.608-1.943v-.176a3.3,3.3,0,0,1,.273-1.382,2.107,2.107,0,0,1,.784-.928,2.163,2.163,0,0,1,1.194-.327,2.037,2.037,0,0,1,1.433.518,1.887,1.887,0,0,1,.6,1.362h-.562a1.437,1.437,0,0,0-.447-1,1.447,1.447,0,0,0-1.028-.381,1.457,1.457,0,0,0-1.228.571,2.585,2.585,0,0,0-.437,1.6v.171a2.527,2.527,0,0,0,.437,1.577A1.467,1.467,0,0,0,39.292-.4ZM42.168-2.72a3.109,3.109,0,0,1,.3-1.372,2.252,2.252,0,0,1,.835-.95,2.249,2.249,0,0,1,1.223-.339,2.173,2.173,0,0,1,1.709.74,2.851,2.851,0,0,1,.654,1.96v.122a3.136,3.136,0,0,1-.3,1.379,2.206,2.206,0,0,1-.833.945A2.283,2.283,0,0,1,44.531.1a2.175,2.175,0,0,1-1.707-.74,2.844,2.844,0,0,1-.657-1.96Zm.586.161A2.4,2.4,0,0,0,43.245-1,1.574,1.574,0,0,0,44.531-.4,1.569,1.569,0,0,0,45.813-1a2.476,2.476,0,0,0,.491-1.6V-2.72a2.688,2.688,0,0,0-.225-1.108,1.8,1.8,0,0,0-.63-.779,1.609,1.609,0,0,0-.928-.276,1.561,1.561,0,0,0-1.274.613,2.48,2.48,0,0,0-.493,1.6ZM48.745,0h-.586V-7.5h.586ZM50.01-2.72a3.109,3.109,0,0,1,.3-1.372,2.252,2.252,0,0,1,.835-.95,2.249,2.249,0,0,1,1.223-.339,2.173,2.173,0,0,1,1.709.74,2.851,2.851,0,0,1,.654,1.96v.122a3.136,3.136,0,0,1-.3,1.379,2.206,2.206,0,0,1-.833.945A2.283,2.283,0,0,1,52.373.1a2.175,2.175,0,0,1-1.707-.74A2.844,2.844,0,0,1,50.01-2.6Zm.586.161A2.4,2.4,0,0,0,51.086-1,1.574,1.574,0,0,0,52.373-.4,1.569,1.569,0,0,0,53.655-1a2.476,2.476,0,0,0,.491-1.6V-2.72a2.688,2.688,0,0,0-.225-1.108,1.8,1.8,0,0,0-.63-.779,1.609,1.609,0,0,0-.928-.276,1.561,1.561,0,0,0-1.274.613,2.48,2.48,0,0,0-.493,1.6Zm8.735,1.89A1.9,1.9,0,0,1,57.646.1a1.635,1.635,0,0,1-1.284-.491,2.149,2.149,0,0,1-.449-1.453V-5.283h.581v3.364q0,1.509,1.221,1.509a1.5,1.5,0,0,0,1.606-1.05V-5.283h.586V0h-.566Zm4.536-4.116a2.182,2.182,0,0,0-.4-.034,1.427,1.427,0,0,0-.925.305,1.671,1.671,0,0,0-.54.886V0h-.581V-5.283H62l.01.84A1.554,1.554,0,0,1,63.5-5.381a.961.961,0,0,1,.386.063Zm4.087,3.442a.833.833,0,0,0-.349-.7,2.692,2.692,0,0,0-1.052-.413A4.747,4.747,0,0,1,65.461-2.8a1.454,1.454,0,0,1-.576-.471A1.176,1.176,0,0,1,64.7-3.94a1.257,1.257,0,0,1,.522-1.033,2.11,2.11,0,0,1,1.338-.408,2.172,2.172,0,0,1,1.418.437,1.4,1.4,0,0,1,.535,1.14h-.586a.946.946,0,0,0-.388-.771,1.527,1.527,0,0,0-.979-.308,1.528,1.528,0,0,0-.925.256.791.791,0,0,0-.349.667.721.721,0,0,0,.291.613,3.073,3.073,0,0,0,1.06.4,4.98,4.98,0,0,1,1.152.386,1.492,1.492,0,0,1,.569.493,1.262,1.262,0,0,1,.186.7A1.266,1.266,0,0,1,68-.3a2.305,2.305,0,0,1-1.409.4,2.367,2.367,0,0,1-1.5-.447,1.375,1.375,0,0,1-.574-1.13h.586a1.016,1.016,0,0,0,.432.8A1.766,1.766,0,0,0,66.592-.4a1.66,1.66,0,0,0,.986-.269A.806.806,0,0,0,67.954-1.343Z" transform="translate(117.494 67.248)" fill="#1d1d1b"/>
  <path id="Path_623" data-name="Path 623" d="M1.416,0H.83V-7.5h.586ZM5.049.1A2.293,2.293,0,0,1,3.831-.234a2.263,2.263,0,0,1-.847-.925,2.885,2.885,0,0,1-.3-1.331V-2.7a3.109,3.109,0,0,1,.3-1.372A2.35,2.35,0,0,1,3.8-5.032a2.03,2.03,0,0,1,1.143-.349,1.908,1.908,0,0,1,1.526.657A2.664,2.664,0,0,1,7.031-2.93V-2.6H3.262v.112a2.212,2.212,0,0,0,.515,1.5,1.639,1.639,0,0,0,1.3.6A1.9,1.9,0,0,0,5.9-.566a1.836,1.836,0,0,0,.652-.547l.366.278A2.132,2.132,0,0,1,5.049.1Zm-.107-4.98A1.461,1.461,0,0,0,3.831-4.4a2.233,2.233,0,0,0-.549,1.3H6.45v-.063A1.939,1.939,0,0,0,6.016-4.4,1.347,1.347,0,0,0,4.941-4.883Zm6.392,3.54a.833.833,0,0,0-.349-.7,2.692,2.692,0,0,0-1.052-.413A4.747,4.747,0,0,1,8.84-2.8a1.454,1.454,0,0,1-.576-.471,1.176,1.176,0,0,1-.188-.674A1.257,1.257,0,0,1,8.6-4.973a2.11,2.11,0,0,1,1.338-.408,2.172,2.172,0,0,1,1.418.437A1.4,1.4,0,0,1,11.89-3.8H11.3a.946.946,0,0,0-.388-.771,1.527,1.527,0,0,0-.979-.308,1.528,1.528,0,0,0-.925.256.791.791,0,0,0-.349.667.721.721,0,0,0,.291.613,3.073,3.073,0,0,0,1.06.4,4.98,4.98,0,0,1,1.152.386,1.492,1.492,0,0,1,.569.493,1.262,1.262,0,0,1,.186.7A1.266,1.266,0,0,1,11.379-.3,2.305,2.305,0,0,1,9.971.1a2.367,2.367,0,0,1-1.5-.447A1.375,1.375,0,0,1,7.9-1.479h.586a1.016,1.016,0,0,0,.432.8A1.766,1.766,0,0,0,9.971-.4a1.66,1.66,0,0,0,.986-.269A.806.806,0,0,0,11.333-1.343Zm5.063,0a.833.833,0,0,0-.349-.7A2.692,2.692,0,0,0,15-2.454,4.747,4.747,0,0,1,13.9-2.8a1.454,1.454,0,0,1-.576-.471,1.176,1.176,0,0,1-.188-.674,1.257,1.257,0,0,1,.522-1.033A2.11,2.11,0,0,1,15-5.381a2.172,2.172,0,0,1,1.418.437,1.4,1.4,0,0,1,.535,1.14h-.586a.946.946,0,0,0-.388-.771A1.527,1.527,0,0,0,15-4.883a1.528,1.528,0,0,0-.925.256.791.791,0,0,0-.349.667.721.721,0,0,0,.291.613,3.073,3.073,0,0,0,1.06.4,4.98,4.98,0,0,1,1.152.386,1.492,1.492,0,0,1,.569.493,1.262,1.262,0,0,1,.186.7A1.266,1.266,0,0,1,16.443-.3a2.305,2.305,0,0,1-1.409.4,2.367,2.367,0,0,1-1.5-.447,1.375,1.375,0,0,1-.574-1.13h.586a1.016,1.016,0,0,0,.432.8A1.766,1.766,0,0,0,15.034-.4a1.66,1.66,0,0,0,.986-.269A.806.806,0,0,0,16.4-1.343ZM21.309-4.39a2.063,2.063,0,0,1,.737-.732,1.932,1.932,0,0,1,.981-.259,1.585,1.585,0,0,1,1.265.479,2.158,2.158,0,0,1,.42,1.436V0h-.581V-3.472a1.614,1.614,0,0,0-.3-1.055,1.176,1.176,0,0,0-.945-.347,1.478,1.478,0,0,0-.959.339,1.988,1.988,0,0,0-.618.916V0h-.581V-7.5h.581ZM29.551,0a2.763,2.763,0,0,1-.112-.737,2.038,2.038,0,0,1-.784.618A2.4,2.4,0,0,1,27.646.1a1.771,1.771,0,0,1-1.233-.425A1.384,1.384,0,0,1,25.942-1.4a1.414,1.414,0,0,1,.642-1.221,3.085,3.085,0,0,1,1.79-.449h1.06v-.6a1.157,1.157,0,0,0-.349-.891,1.443,1.443,0,0,0-1.018-.325,1.593,1.593,0,0,0-1.011.313.929.929,0,0,0-.4.752l-.586,0a1.359,1.359,0,0,1,.586-1.091,2.256,2.256,0,0,1,1.44-.461,2.058,2.058,0,0,1,1.394.442,1.586,1.586,0,0,1,.525,1.233v2.5a3.1,3.1,0,0,0,.161,1.147V0ZM27.715-.42A1.962,1.962,0,0,0,28.762-.7a1.666,1.666,0,0,0,.671-.757V-2.622H28.389a2.618,2.618,0,0,0-1.367.32.96.96,0,0,0-.493.852.945.945,0,0,0,.33.737A1.242,1.242,0,0,0,27.715-.42Zm6.3-4.365a2.182,2.182,0,0,0-.4-.034,1.427,1.427,0,0,0-.925.305,1.671,1.671,0,0,0-.54.886V0h-.581V-5.283h.571l.01.84a1.554,1.554,0,0,1,1.489-.937.961.961,0,0,1,.386.063ZM38.1-1.343a.833.833,0,0,0-.349-.7A2.692,2.692,0,0,0,36.7-2.454,4.747,4.747,0,0,1,35.608-2.8a1.454,1.454,0,0,1-.576-.471,1.176,1.176,0,0,1-.188-.674,1.257,1.257,0,0,1,.522-1.033A2.11,2.11,0,0,1,36.7-5.381a2.172,2.172,0,0,1,1.418.437,1.4,1.4,0,0,1,.535,1.14h-.586a.946.946,0,0,0-.388-.771,1.527,1.527,0,0,0-.979-.308,1.528,1.528,0,0,0-.925.256.791.791,0,0,0-.349.667.721.721,0,0,0,.291.613,3.073,3.073,0,0,0,1.06.4,4.98,4.98,0,0,1,1.152.386,1.492,1.492,0,0,1,.569.493,1.262,1.262,0,0,1,.186.7A1.266,1.266,0,0,1,38.147-.3a2.305,2.305,0,0,1-1.409.4,2.367,2.367,0,0,1-1.5-.447,1.375,1.375,0,0,1-.574-1.13h.586a1.016,1.016,0,0,0,.432.8A1.766,1.766,0,0,0,36.738-.4a1.66,1.66,0,0,0,.986-.269A.806.806,0,0,0,38.1-1.343Zm2.48-3.047a2.063,2.063,0,0,1,.737-.732,1.932,1.932,0,0,1,.981-.259,1.585,1.585,0,0,1,1.265.479,2.158,2.158,0,0,1,.42,1.436V0H43.4V-3.472a1.614,1.614,0,0,0-.3-1.055,1.176,1.176,0,0,0-.945-.347,1.478,1.478,0,0,0-.959.339,1.988,1.988,0,0,0-.618.916V0H40V-7.5h.581Zm11.592,1.8a3.182,3.182,0,0,1-.547,1.96A1.747,1.747,0,0,1,50.156.1a1.9,1.9,0,0,1-1.67-.82L48.462,0h-.547V-7.5H48.5v2.983a1.836,1.836,0,0,1,1.65-.864,1.763,1.763,0,0,1,1.482.715,3.22,3.22,0,0,1,.544,1.99Zm-.586-.1A2.752,2.752,0,0,0,51.182-4.3a1.321,1.321,0,0,0-1.143-.569,1.608,1.608,0,0,0-.952.276,1.677,1.677,0,0,0-.591.808v2.383a1.566,1.566,0,0,0,1.553,1,1.312,1.312,0,0,0,1.13-.571A2.942,2.942,0,0,0,51.587-2.69ZM56.86-.669A1.9,1.9,0,0,1,55.176.1a1.635,1.635,0,0,1-1.284-.491,2.149,2.149,0,0,1-.449-1.453V-5.283h.581v3.364q0,1.509,1.221,1.509a1.5,1.5,0,0,0,1.606-1.05V-5.283h.586V0H56.87Zm3-5.967v1.353h1.094V-4.8H59.863v3.521a1.1,1.1,0,0,0,.159.654.615.615,0,0,0,.53.215,3.635,3.635,0,0,0,.474-.049l.024.479A1.894,1.894,0,0,1,60.425.1a1.042,1.042,0,0,1-.874-.349,1.643,1.643,0,0,1-.273-1.028V-4.8h-.972v-.479h.972V-6.636Zm7.9,5.293a.833.833,0,0,0-.349-.7,2.692,2.692,0,0,0-1.052-.413A4.747,4.747,0,0,1,65.271-2.8a1.454,1.454,0,0,1-.576-.471,1.176,1.176,0,0,1-.188-.674,1.257,1.257,0,0,1,.522-1.033,2.11,2.11,0,0,1,1.338-.408,2.172,2.172,0,0,1,1.418.437A1.4,1.4,0,0,1,68.32-3.8h-.586a.946.946,0,0,0-.388-.771,1.527,1.527,0,0,0-.979-.308,1.528,1.528,0,0,0-.925.256.791.791,0,0,0-.349.667.721.721,0,0,0,.291.613,3.073,3.073,0,0,0,1.06.4,4.98,4.98,0,0,1,1.152.386,1.492,1.492,0,0,1,.569.493,1.262,1.262,0,0,1,.186.7A1.266,1.266,0,0,1,67.81-.3,2.305,2.305,0,0,1,66.4.1a2.367,2.367,0,0,1-1.5-.447,1.375,1.375,0,0,1-.574-1.13h.586a1.016,1.016,0,0,0,.432.8A1.766,1.766,0,0,0,66.4-.4a1.66,1.66,0,0,0,.986-.269A.806.806,0,0,0,67.764-1.343Zm2.808-5.293v1.353h1.094V-4.8H70.571v3.521a1.1,1.1,0,0,0,.159.654.615.615,0,0,0,.53.215,3.635,3.635,0,0,0,.474-.049l.024.479A1.894,1.894,0,0,1,71.133.1a1.042,1.042,0,0,1-.874-.349,1.643,1.643,0,0,1-.273-1.028V-4.8h-.972v-.479h.972V-6.636ZM73.53,0h-.586V-5.283h.586Zm-.688-6.812a.4.4,0,0,1,.107-.281.382.382,0,0,1,.293-.115.39.39,0,0,1,.3.115.391.391,0,0,1,.11.281.382.382,0,0,1-.11.278.394.394,0,0,1-.3.112.386.386,0,0,1-.293-.112A.387.387,0,0,1,72.842-6.812ZM75.771,0h-.586V-7.5h.586Zm2.241,0h-.586V-7.5h.586Z" transform="translate(106.383 81.949)" fill="#1d1d1b"/>
  <path id="Path_624" data-name="Path 624" d="M.527-2.69a3.185,3.185,0,0,1,.549-1.96,1.768,1.768,0,0,1,1.492-.73A1.837,1.837,0,0,1,4.2-4.536V-7.5H4.78V0H4.233L4.209-.7a1.887,1.887,0,0,1-1.65.8A1.762,1.762,0,0,1,1.086-.637,3.2,3.2,0,0,1,.527-2.622Zm.591.1A2.755,2.755,0,0,0,1.523-.994,1.311,1.311,0,0,0,2.666-.41,1.573,1.573,0,0,0,4.2-1.362v-2.48a1.561,1.561,0,0,0-1.523-1.03,1.327,1.327,0,0,0-1.147.579A2.944,2.944,0,0,0,1.118-2.588Zm7.642-2.2a2.182,2.182,0,0,0-.4-.034,1.427,1.427,0,0,0-.925.305,1.671,1.671,0,0,0-.54.886V0H6.318V-5.283H6.89l.01.84a1.554,1.554,0,0,1,1.489-.937.961.961,0,0,1,.386.063ZM12.822,0a2.763,2.763,0,0,1-.112-.737,2.038,2.038,0,0,1-.784.618A2.4,2.4,0,0,1,10.918.1,1.771,1.771,0,0,1,9.685-.327,1.384,1.384,0,0,1,9.214-1.4a1.414,1.414,0,0,1,.642-1.221,3.085,3.085,0,0,1,1.79-.449h1.06v-.6a1.157,1.157,0,0,0-.349-.891,1.443,1.443,0,0,0-1.018-.325,1.593,1.593,0,0,0-1.011.313.929.929,0,0,0-.4.752l-.586,0a1.359,1.359,0,0,1,.586-1.091,2.256,2.256,0,0,1,1.44-.461,2.058,2.058,0,0,1,1.394.442,1.586,1.586,0,0,1,.525,1.233v2.5a3.1,3.1,0,0,0,.161,1.147V0ZM10.986-.42A1.962,1.962,0,0,0,12.034-.7a1.666,1.666,0,0,0,.671-.757V-2.622H11.66a2.618,2.618,0,0,0-1.367.32A.96.96,0,0,0,9.8-1.45a.945.945,0,0,0,.33.737A1.242,1.242,0,0,0,10.986-.42Zm5.122-.8.088.454.117-.479,1.27-4.043h.5l1.255,4.009.137.557.112-.513,1.084-4.053h.605L19.736,0h-.5L17.881-4.189l-.063-.288-.063.293L16.421,0h-.5L14.39-5.283h.6ZM26.86.1a2.293,2.293,0,0,1-1.218-.332,2.263,2.263,0,0,1-.847-.925,2.885,2.885,0,0,1-.3-1.331V-2.7a3.109,3.109,0,0,1,.3-1.372,2.35,2.35,0,0,1,.823-.959,2.03,2.03,0,0,1,1.143-.349,1.908,1.908,0,0,1,1.526.657,2.664,2.664,0,0,1,.564,1.794V-2.6h-3.77v.112a2.212,2.212,0,0,0,.515,1.5,1.639,1.639,0,0,0,1.3.6,1.9,1.9,0,0,0,.828-.171,1.836,1.836,0,0,0,.652-.547l.366.278A2.132,2.132,0,0,1,26.86.1Zm-.107-4.98a1.461,1.461,0,0,0-1.111.483,2.233,2.233,0,0,0-.549,1.3h3.169v-.063a1.939,1.939,0,0,0-.435-1.24A1.347,1.347,0,0,0,26.753-4.883Zm4.9,4.043L33.2-5.283h.63L31.572.9l-.117.273a1.419,1.419,0,0,1-1.343.962,1.639,1.639,0,0,1-.449-.068l0-.483.3.029a1.082,1.082,0,0,0,.7-.212,1.612,1.612,0,0,0,.452-.73l.259-.713L29.375-5.283h.64ZM36.777.1a2.293,2.293,0,0,1-1.218-.332,2.263,2.263,0,0,1-.847-.925,2.885,2.885,0,0,1-.3-1.331V-2.7a3.109,3.109,0,0,1,.3-1.372,2.35,2.35,0,0,1,.823-.959,2.03,2.03,0,0,1,1.143-.349,1.908,1.908,0,0,1,1.526.657A2.664,2.664,0,0,1,38.76-2.93V-2.6H34.99v.112a2.212,2.212,0,0,0,.515,1.5,1.639,1.639,0,0,0,1.3.6,1.9,1.9,0,0,0,.828-.171,1.836,1.836,0,0,0,.652-.547l.366.278A2.132,2.132,0,0,1,36.777.1Zm-.107-4.98a1.461,1.461,0,0,0-1.111.483,2.233,2.233,0,0,0-.549,1.3h3.169v-.063a1.939,1.939,0,0,0-.435-1.24A1.347,1.347,0,0,0,36.67-4.883Zm3.076-.483L39.4-5.62a2.131,2.131,0,0,0,.454-1.24V-7.5h.576v.493A2.109,2.109,0,0,1,39.746-5.366Zm1.191,0-.347-.254a2.131,2.131,0,0,0,.454-1.24V-7.5h.576v.493A2.109,2.109,0,0,1,40.938-5.366Z" transform="translate(151.331 96.648)" fill="#1d1d1b"/>
  <path id="Path_625" data-name="Path 625" d="M1.167-7.588l.352.249A2.085,2.085,0,0,0,1.064-6.1v.625H.483v-.547a2.119,2.119,0,0,1,.183-.864A2.057,2.057,0,0,1,1.167-7.588Zm1.226,0,.352.249A2.085,2.085,0,0,0,2.29-6.1v.625H1.709v-.547a2.119,2.119,0,0,1,.183-.864A2.057,2.057,0,0,1,2.393-7.588ZM6.03-.879l.039.151.044-.151L8.35-7.109h.659L6.362,0H5.786L3.14-7.109h.654ZM10.571,0H9.985V-5.283h.586ZM9.883-6.812a.4.4,0,0,1,.107-.281.382.382,0,0,1,.293-.115.39.39,0,0,1,.3.115.391.391,0,0,1,.11.281.382.382,0,0,1-.11.278.394.394,0,0,1-.3.112.386.386,0,0,1-.293-.112A.387.387,0,0,1,9.883-6.812Zm5.439,5.469a.833.833,0,0,0-.349-.7,2.692,2.692,0,0,0-1.052-.413A4.747,4.747,0,0,1,12.83-2.8a1.454,1.454,0,0,1-.576-.471,1.176,1.176,0,0,1-.188-.674,1.257,1.257,0,0,1,.522-1.033,2.11,2.11,0,0,1,1.338-.408,2.172,2.172,0,0,1,1.418.437,1.4,1.4,0,0,1,.535,1.14h-.586a.946.946,0,0,0-.388-.771,1.527,1.527,0,0,0-.979-.308A1.528,1.528,0,0,0,13-4.626a.791.791,0,0,0-.349.667.721.721,0,0,0,.291.613,3.073,3.073,0,0,0,1.06.4,4.98,4.98,0,0,1,1.152.386,1.492,1.492,0,0,1,.569.493,1.262,1.262,0,0,1,.186.7A1.266,1.266,0,0,1,15.369-.3,2.305,2.305,0,0,1,13.96.1a2.367,2.367,0,0,1-1.5-.447,1.375,1.375,0,0,1-.574-1.13h.586a1.016,1.016,0,0,0,.432.8A1.766,1.766,0,0,0,13.96-.4a1.66,1.66,0,0,0,.986-.269A.806.806,0,0,0,15.322-1.343ZM17.876,0H17.29V-5.283h.586Zm-.688-6.812a.4.4,0,0,1,.107-.281.382.382,0,0,1,.293-.115.39.39,0,0,1,.3.115.391.391,0,0,1,.11.281.382.382,0,0,1-.11.278.394.394,0,0,1-.3.112.386.386,0,0,1-.293-.112A.387.387,0,0,1,17.188-6.812Zm6.528,4.224a3.182,3.182,0,0,1-.547,1.96A1.747,1.747,0,0,1,21.7.1a1.9,1.9,0,0,1-1.67-.82L20,0h-.547V-7.5h.581v2.983a1.836,1.836,0,0,1,1.65-.864,1.763,1.763,0,0,1,1.482.715,3.22,3.22,0,0,1,.544,1.99Zm-.586-.1A2.752,2.752,0,0,0,22.725-4.3a1.321,1.321,0,0,0-1.143-.569,1.608,1.608,0,0,0-.952.276,1.677,1.677,0,0,0-.591.808v2.383a1.566,1.566,0,0,0,1.553,1,1.312,1.312,0,0,0,1.13-.571A2.942,2.942,0,0,0,23.13-2.69ZM25.659,0h-.586V-5.283h.586Zm-.688-6.812a.4.4,0,0,1,.107-.281.382.382,0,0,1,.293-.115.39.39,0,0,1,.3.115.391.391,0,0,1,.11.281.382.382,0,0,1-.11.278.394.394,0,0,1-.3.112.386.386,0,0,1-.293-.112A.387.387,0,0,1,24.971-6.812ZM27.9,0h-.586V-7.5H27.9Zm2.241,0h-.586V-5.283h.586Zm-.688-6.812a.4.4,0,0,1,.107-.281.382.382,0,0,1,.293-.115.39.39,0,0,1,.3.115.391.391,0,0,1,.11.281.382.382,0,0,1-.11.278.394.394,0,0,1-.3.112.386.386,0,0,1-.293-.112A.387.387,0,0,1,29.453-6.812Zm3.184.176v1.353H33.73V-4.8H32.637v3.521A1.1,1.1,0,0,0,32.8-.63a.615.615,0,0,0,.53.215A3.635,3.635,0,0,0,33.8-.464l.024.479A1.894,1.894,0,0,1,33.2.1a1.042,1.042,0,0,1-.874-.349,1.643,1.643,0,0,1-.273-1.028V-4.8h-.972v-.479h.972V-6.636Zm3.979,5.8,1.543-4.443h.63L36.533.9l-.117.273a1.419,1.419,0,0,1-1.343.962,1.639,1.639,0,0,1-.449-.068l0-.483.3.029a1.082,1.082,0,0,0,.7-.212,1.612,1.612,0,0,0,.452-.73l.259-.713L34.336-5.283h.64Zm2.993-4.526-.347-.254a2.131,2.131,0,0,0,.454-1.24V-7.5h.576v.493A2.109,2.109,0,0,1,39.609-5.366Zm1.191,0-.347-.254a2.131,2.131,0,0,0,.454-1.24V-7.5h.576v.493A2.109,2.109,0,0,1,40.8-5.366Z" transform="translate(147.335 169.723)" fill="#1d1d1b"/>
  <path id="Path_626" data-name="Path 626" d="M1.167-7.588l.352.249A2.085,2.085,0,0,0,1.064-6.1v.625H.483v-.547a2.119,2.119,0,0,1,.183-.864A2.057,2.057,0,0,1,1.167-7.588Zm1.226,0,.352.249A2.085,2.085,0,0,0,2.29-6.1v.625H1.709v-.547a2.119,2.119,0,0,1,.183-.864A2.057,2.057,0,0,1,2.393-7.588ZM7.8-3.32H4.487V0h-.6V-7.109h4.4V-6.6h-3.8v2.764H7.8ZM12.544,0a2.763,2.763,0,0,1-.112-.737,2.038,2.038,0,0,1-.784.618A2.4,2.4,0,0,1,10.64.1,1.771,1.771,0,0,1,9.407-.327,1.384,1.384,0,0,1,8.936-1.4a1.414,1.414,0,0,1,.642-1.221,3.085,3.085,0,0,1,1.79-.449h1.06v-.6a1.157,1.157,0,0,0-.349-.891,1.443,1.443,0,0,0-1.018-.325,1.593,1.593,0,0,0-1.011.313.929.929,0,0,0-.4.752l-.586,0a1.359,1.359,0,0,1,.586-1.091,2.256,2.256,0,0,1,1.44-.461,2.058,2.058,0,0,1,1.394.442,1.586,1.586,0,0,1,.525,1.233v2.5a3.1,3.1,0,0,0,.161,1.147V0ZM10.708-.42A1.962,1.962,0,0,0,11.755-.7a1.666,1.666,0,0,0,.671-.757V-2.622H11.382a2.618,2.618,0,0,0-1.367.32.96.96,0,0,0-.493.852.945.945,0,0,0,.33.737A1.242,1.242,0,0,0,10.708-.42ZM15.1-5.283l.02.859a1.956,1.956,0,0,1,.732-.718,2.009,2.009,0,0,1,.977-.239,1.482,1.482,0,0,1,1.587,1.025,1.984,1.984,0,0,1,.757-.759,2.1,2.1,0,0,1,1.045-.266q1.7,0,1.733,1.855V0h-.586V-3.481a1.575,1.575,0,0,0-.305-1.05,1.242,1.242,0,0,0-.979-.342,1.556,1.556,0,0,0-1.064.408,1.441,1.441,0,0,0-.483.969V0h-.586V-3.525a1.447,1.447,0,0,0-.32-1.013,1.273,1.273,0,0,0-.969-.334,1.474,1.474,0,0,0-.947.315,1.847,1.847,0,0,0-.586.935V0h-.586V-5.283ZM24.082,0H23.5V-5.283h.586Zm-.688-6.812a.4.4,0,0,1,.107-.281.382.382,0,0,1,.293-.115.39.39,0,0,1,.3.115.391.391,0,0,1,.11.281.382.382,0,0,1-.11.278.394.394,0,0,1-.3.112.386.386,0,0,1-.293-.112A.387.387,0,0,1,23.394-6.812ZM26.323,0h-.586V-7.5h.586Zm2.241,0h-.586V-5.283h.586Zm-.688-6.812a.4.4,0,0,1,.107-.281.382.382,0,0,1,.293-.115.39.39,0,0,1,.3.115.391.391,0,0,1,.11.281.382.382,0,0,1-.11.278.394.394,0,0,1-.3.112.386.386,0,0,1-.293-.112A.387.387,0,0,1,27.876-6.812ZM33.486,0a2.763,2.763,0,0,1-.112-.737,2.038,2.038,0,0,1-.784.618A2.4,2.4,0,0,1,31.582.1a1.771,1.771,0,0,1-1.233-.425A1.384,1.384,0,0,1,29.878-1.4a1.414,1.414,0,0,1,.642-1.221,3.085,3.085,0,0,1,1.79-.449h1.06v-.6a1.157,1.157,0,0,0-.349-.891A1.443,1.443,0,0,0,32-4.888a1.593,1.593,0,0,0-1.011.313.929.929,0,0,0-.4.752l-.586,0a1.359,1.359,0,0,1,.586-1.091,2.256,2.256,0,0,1,1.44-.461,2.058,2.058,0,0,1,1.394.442,1.586,1.586,0,0,1,.525,1.233v2.5a3.1,3.1,0,0,0,.161,1.147V0ZM31.65-.42A1.962,1.962,0,0,0,32.7-.7a1.666,1.666,0,0,0,.671-.757V-2.622H32.324a2.618,2.618,0,0,0-1.367.32.96.96,0,0,0-.493.852.945.945,0,0,0,.33.737A1.242,1.242,0,0,0,31.65-.42Zm6.3-4.365a2.182,2.182,0,0,0-.4-.034,1.427,1.427,0,0,0-.925.305,1.671,1.671,0,0,0-.54.886V0h-.581V-5.283h.571l.01.84a1.554,1.554,0,0,1,1.489-.937.961.961,0,0,1,.386.063Zm4.263-1.851v1.353h1.094V-4.8H42.212v3.521a1.1,1.1,0,0,0,.159.654.615.615,0,0,0,.53.215,3.635,3.635,0,0,0,.474-.049L43.4.015A1.894,1.894,0,0,1,42.773.1,1.042,1.042,0,0,1,41.9-.251a1.643,1.643,0,0,1-.273-1.028V-4.8h-.972v-.479h.972V-6.636ZM44.1-2.72a3.109,3.109,0,0,1,.3-1.372,2.252,2.252,0,0,1,.835-.95,2.249,2.249,0,0,1,1.223-.339,2.173,2.173,0,0,1,1.709.74,2.851,2.851,0,0,1,.654,1.96v.122a3.136,3.136,0,0,1-.3,1.379,2.206,2.206,0,0,1-.833.945A2.283,2.283,0,0,1,46.46.1a2.175,2.175,0,0,1-1.707-.74A2.844,2.844,0,0,1,44.1-2.6Zm.586.161A2.4,2.4,0,0,0,45.173-1,1.574,1.574,0,0,0,46.46-.4,1.569,1.569,0,0,0,47.742-1a2.476,2.476,0,0,0,.491-1.6V-2.72a2.688,2.688,0,0,0-.225-1.108,1.8,1.8,0,0,0-.63-.779,1.609,1.609,0,0,0-.928-.276,1.561,1.561,0,0,0-1.274.613,2.48,2.48,0,0,0-.493,1.6ZM53.105,0H52.52V-7.5h.586Zm4.922,0a2.763,2.763,0,0,1-.112-.737,2.038,2.038,0,0,1-.784.618A2.4,2.4,0,0,1,56.123.1,1.771,1.771,0,0,1,54.89-.327,1.384,1.384,0,0,1,54.419-1.4a1.414,1.414,0,0,1,.642-1.221,3.085,3.085,0,0,1,1.79-.449h1.06v-.6a1.157,1.157,0,0,0-.349-.891,1.443,1.443,0,0,0-1.018-.325,1.593,1.593,0,0,0-1.011.313.929.929,0,0,0-.4.752l-.586,0a1.359,1.359,0,0,1,.586-1.091,2.256,2.256,0,0,1,1.44-.461,2.058,2.058,0,0,1,1.394.442,1.586,1.586,0,0,1,.525,1.233v2.5a3.1,3.1,0,0,0,.161,1.147V0ZM56.191-.42A1.962,1.962,0,0,0,57.239-.7a1.666,1.666,0,0,0,.671-.757V-2.622H56.865A2.618,2.618,0,0,0,55.5-2.3.96.96,0,0,0,55-1.45a.945.945,0,0,0,.33.737A1.242,1.242,0,0,0,56.191-.42ZM64.3-2.588a3.182,3.182,0,0,1-.547,1.96A1.747,1.747,0,0,1,62.285.1a1.9,1.9,0,0,1-1.67-.82L60.591,0h-.547V-7.5h.581v2.983a1.836,1.836,0,0,1,1.65-.864,1.763,1.763,0,0,1,1.482.715,3.22,3.22,0,0,1,.544,1.99Zm-.586-.1A2.752,2.752,0,0,0,63.311-4.3a1.321,1.321,0,0,0-1.143-.569,1.608,1.608,0,0,0-.952.276,1.677,1.677,0,0,0-.591.808v2.383a1.566,1.566,0,0,0,1.553,1,1.312,1.312,0,0,0,1.13-.571A2.942,2.942,0,0,0,63.716-2.69Zm5.039,1.348a.833.833,0,0,0-.349-.7,2.692,2.692,0,0,0-1.052-.413A4.747,4.747,0,0,1,66.262-2.8a1.454,1.454,0,0,1-.576-.471A1.176,1.176,0,0,1,65.5-3.94a1.257,1.257,0,0,1,.522-1.033,2.11,2.11,0,0,1,1.338-.408,2.172,2.172,0,0,1,1.418.437,1.4,1.4,0,0,1,.535,1.14h-.586a.946.946,0,0,0-.388-.771,1.527,1.527,0,0,0-.979-.308,1.528,1.528,0,0,0-.925.256.791.791,0,0,0-.349.667.721.721,0,0,0,.291.613,3.073,3.073,0,0,0,1.06.4,4.98,4.98,0,0,1,1.152.386,1.492,1.492,0,0,1,.569.493,1.262,1.262,0,0,1,.186.7A1.266,1.266,0,0,1,68.8-.3a2.305,2.305,0,0,1-1.409.4,2.367,2.367,0,0,1-1.5-.447,1.375,1.375,0,0,1-.574-1.13h.586a1.016,1.016,0,0,0,.432.8A1.766,1.766,0,0,0,67.393-.4a1.66,1.66,0,0,0,.986-.269A.806.806,0,0,0,68.755-1.343Zm1.816-4.023-.347-.254a2.131,2.131,0,0,0,.454-1.24V-7.5h.576v.493A2.109,2.109,0,0,1,70.571-5.366Zm1.191,0-.347-.254a2.131,2.131,0,0,0,.454-1.24V-7.5h.576v.493A2.109,2.109,0,0,1,71.763-5.366Z" transform="translate(109.299 184.428)" fill="#1d1d1b"/>
</svg>
