<svg xmlns="http://www.w3.org/2000/svg" width="204.794" height="190.738" viewBox="0 0 204.794 190.738">
  <path id="Path_612" data-name="Path 612" d="M254.16,129.634H114.518c-4.407,0-8.013-2.748-8.013-6.106v-1.478c0-3.358,3.606-6.106,8.013-6.106H254.16c4.407,0,8.013,2.748,8.013,6.106v1.478c0,3.359-3.607,6.106-8.013,6.106" transform="translate(-57.38 -53.375)" fill="#f91d56"/>
  <path id="Path_613" data-name="Path 613" d="M195.759,68.946H114.493c-4.407,0-8.013-2.748-8.013-6.106V61.361c0-3.358,3.606-6.106,8.013-6.106h81.266c4.407,0,8.014,2.748,8.014,6.106V62.84c0,3.359-3.607,6.106-8.014,6.106" transform="translate(-57.373 -25.371)" fill="#f91d56"/>
  <path id="Path_614" data-name="Path 614" d="M156.866,38.6H114.518c-4.407,0-8.014-2.748-8.014-6.106V31.018c0-3.358,3.607-6.106,8.014-6.106h42.348c4.408,0,8.014,2.748,8.014,6.106V32.5c0,3.359-3.607,6.106-8.014,6.106" transform="translate(-57.38 -11.369)" fill="#f91d56"/>
  <path id="Path_633" data-name="Path 633" d="M3.616-2.1a2.714,2.714,0,0,1-.4,1.618A1.418,1.418,0,0,1,1.993.068,1.437,1.437,0,0,1,.778-.463,2.6,2.6,0,0,1,.359-2.037V-2.9a2.673,2.673,0,0,1,.4-1.61,1.432,1.432,0,0,1,1.225-.537A1.44,1.44,0,0,1,3.2-4.522a2.592,2.592,0,0,1,.412,1.565Zm-.831-.93a2.106,2.106,0,0,0-.191-1.027.653.653,0,0,0-.608-.326.653.653,0,0,0-.6.309,1.946,1.946,0,0,0-.2.966v1.128A2.16,2.16,0,0,0,1.381-.937a.654.654,0,0,0,.612.342.643.643,0,0,0,.591-.316,2.032,2.032,0,0,0,.2-.99Z" transform="translate(54.078 5.943)" fill="#f91d56"/>
  <path id="Path_634" data-name="Path 634" transform="translate(57.312 4.998)" fill="#fff"/>
  <path id="Path_635" data-name="Path 635" d="M1.333-2.868h.506a.905.905,0,0,0,.607-.2.707.707,0,0,0,.224-.564.771.771,0,0,0-.186-.552.75.75,0,0,0-.569-.2.793.793,0,0,0-.55.193.645.645,0,0,0-.215.5H.318a1.257,1.257,0,0,1,.2-.7,1.366,1.366,0,0,1,.567-.49A1.848,1.848,0,0,1,1.9-5.045a1.712,1.712,0,0,1,1.171.374A1.313,1.313,0,0,1,3.5-3.63,1.058,1.058,0,0,1,3.286-3a1.34,1.34,0,0,1-.552.446,1.221,1.221,0,0,1,.624.441,1.207,1.207,0,0,1,.214.718,1.337,1.337,0,0,1-.46,1.066A1.785,1.785,0,0,1,1.9.068,1.771,1.771,0,0,1,.728-.314,1.261,1.261,0,0,1,.27-1.333H1.1a.7.7,0,0,0,.22.533.836.836,0,0,0,.593.205A.862.862,0,0,0,2.522-.8a.769.769,0,0,0,.222-.595A.777.777,0,0,0,2.512-2a.994.994,0,0,0-.69-.212H1.333Z" transform="translate(54.078 21.67)" fill="#fff"/>
  <path id="Path_621" data-name="Path 621" d="M.595-2.468l.27-2.509H3.538v.718H1.555L1.418-3.069a1.537,1.537,0,0,1,.779-.2A1.386,1.386,0,0,1,3.3-2.813,1.8,1.8,0,0,1,3.7-1.589,1.658,1.658,0,0,1,3.261-.381a1.6,1.6,0,0,1-1.2.449A1.672,1.672,0,0,1,.928-.32,1.4,1.4,0,0,1,.441-1.343h.8a.877.877,0,0,0,.26.555.79.79,0,0,0,.554.193.714.714,0,0,0,.6-.273,1.18,1.18,0,0,0,.214-.745,1.043,1.043,0,0,0-.236-.719A.825.825,0,0,0,1.982-2.6a1.08,1.08,0,0,0-.383.06,1.084,1.084,0,0,0-.342.234Z" transform="translate(54.078 37.936)" fill="#fff"/>
  <path id="Path_622" data-name="Path 622" d="M3.616-2.1a2.714,2.714,0,0,1-.4,1.618A1.418,1.418,0,0,1,1.993.068,1.437,1.437,0,0,1,.778-.463,2.6,2.6,0,0,1,.359-2.037V-2.9a2.673,2.673,0,0,1,.4-1.61,1.432,1.432,0,0,1,1.225-.537A1.44,1.44,0,0,1,3.2-4.522a2.592,2.592,0,0,1,.412,1.565Zm-.831-.93a2.106,2.106,0,0,0-.191-1.027.653.653,0,0,0-.608-.326.653.653,0,0,0-.6.309,1.946,1.946,0,0,0-.2.966v1.128A2.16,2.16,0,0,0,1.381-.937a.654.654,0,0,0,.612.342.643.643,0,0,0,.591-.316,2.032,2.032,0,0,0,.2-.99Z" transform="translate(54.078 54.734)" fill="#f91d56"/>
  <path id="Path_623" data-name="Path 623" transform="translate(57.312 53.789)" fill="#fff"/>
  <path id="Path_624" data-name="Path 624" d="M3.507-3.664a1.157,1.157,0,0,1-.188.651,1.3,1.3,0,0,1-.513.449,1.42,1.42,0,0,1,.6.5,1.25,1.25,0,0,1,.21.711A1.306,1.306,0,0,1,3.172-.316,1.744,1.744,0,0,1,1.989.068,1.751,1.751,0,0,1,.8-.318,1.3,1.3,0,0,1,.355-1.357a1.265,1.265,0,0,1,.212-.718,1.361,1.361,0,0,1,.595-.489,1.3,1.3,0,0,1-.508-.449,1.165,1.165,0,0,1-.186-.651,1.3,1.3,0,0,1,.41-1.008,1.585,1.585,0,0,1,1.107-.373A1.59,1.59,0,0,1,3.1-4.672,1.3,1.3,0,0,1,3.507-3.664ZM2.786-1.4a.82.82,0,0,0-.22-.6.775.775,0,0,0-.583-.227A.767.767,0,0,0,1.4-2a.826.826,0,0,0-.217.6A.8.8,0,0,0,1.4-.813a.786.786,0,0,0,.59.219.789.789,0,0,0,.586-.212A.8.8,0,0,0,2.786-1.4ZM2.68-3.633a.772.772,0,0,0-.188-.535.645.645,0,0,0-.506-.21.65.65,0,0,0-.5.2.773.773,0,0,0-.185.545.769.769,0,0,0,.186.543.653.653,0,0,0,.5.2.653.653,0,0,0,.5-.2A.769.769,0,0,0,2.68-3.633Z" transform="translate(54.078 71.004)" fill="#fff"/>
  <path id="Path_636" data-name="Path 636" d="M.623-.889a.612.612,0,0,0,.315.473,1.2,1.2,0,0,0,.609.157A1.164,1.164,0,0,0,2.121-.4.492.492,0,0,0,2.38-.868a.5.5,0,0,0-.123-.346.922.922,0,0,0-.3-.22,4.386,4.386,0,0,0-.49-.182,5.688,5.688,0,0,1-.56-.21A1.131,1.131,0,0,1,.525-2.1a.771.771,0,0,1-.189-.451L.329-2.639a.881.881,0,0,1,.13-.452.959.959,0,0,1,.4-.36,1.456,1.456,0,0,1,.675-.14,1.549,1.549,0,0,1,.4.046,1.459,1.459,0,0,1,.27.095q.1.049.119.063l-.133.322q-.021-.014-.1-.056a1.258,1.258,0,0,0-.228-.084,1.169,1.169,0,0,0-.322-.042,1.017,1.017,0,0,0-.574.157.5.5,0,0,0-.238.438.454.454,0,0,0,.217.406,2.852,2.852,0,0,0,.665.28,5.225,5.225,0,0,1,.609.238,1.132,1.132,0,0,1,.4.318.833.833,0,0,1,.164.536.9.9,0,0,1-.312.7A1.325,1.325,0,0,1,1.547.1a1.608,1.608,0,0,1-.69-.136A1.055,1.055,0,0,1,.417-.392a.963.963,0,0,1-.165-.5Zm3.619-1.33L3.878-1.9V0H3.486V-4.9h.392v2.555l1.4-1.295.28.273-1.036.9Q5-1.673,6.055,0H5.586ZM7.406,1.169A.7.7,0,0,0,7.875.441V-.343a.763.763,0,0,1-.4.325,1.6,1.6,0,0,1-.574.1,1.283,1.283,0,0,1-.949-.333,1.334,1.334,0,0,1-.332-.983V-3.507H6v2.345a.854.854,0,0,0,.245.668.947.947,0,0,0,.658.22A1.073,1.073,0,0,0,7.6-.49a.817.817,0,0,0,.266-.672V-2.541a4.329,4.329,0,0,1,.021-.5.639.639,0,0,1,.13-.308.688.688,0,0,1,.36-.22l.105.266q-.238.1-.238.49V.427a1.174,1.174,0,0,1-.168.672,1.035,1.035,0,0,1-.567.371ZM9.268-2.422a1.009,1.009,0,0,1,.6-1.008,1.621,1.621,0,0,1,.686-.133,1.975,1.975,0,0,1,.5.063,1.246,1.246,0,0,1,.409.182V-4.9h.392V0l-.385.035a7.086,7.086,0,0,1-.714.049,2.308,2.308,0,0,1-.486-.049,1.905,1.905,0,0,1-.451-.161.955.955,0,0,1-.4-.371,1.151,1.151,0,0,1-.147-.6Zm2.191-.553a1.935,1.935,0,0,0-.434-.171,1.838,1.838,0,0,0-.483-.066,1.016,1.016,0,0,0-.64.192.735.735,0,0,0-.249.619v1.309q0,.819,1.127.819a4.678,4.678,0,0,0,.679-.063Zm.924.553a1.009,1.009,0,0,1,.6-1.008,1.621,1.621,0,0,1,.686-.133,1.975,1.975,0,0,1,.5.063,1.246,1.246,0,0,1,.409.182V-4.9h.392V0l-.385.035a7.086,7.086,0,0,1-.714.049A2.308,2.308,0,0,1,13.38.035a1.905,1.905,0,0,1-.451-.161.955.955,0,0,1-.4-.371,1.151,1.151,0,0,1-.147-.6Zm2.191-.553a1.935,1.935,0,0,0-.434-.171,1.838,1.838,0,0,0-.483-.066,1.016,1.016,0,0,0-.64.192.735.735,0,0,0-.249.619v1.309q0,.819,1.127.819a4.678,4.678,0,0,0,.679-.063ZM18.151,0q-.756.077-1.092.077A2.178,2.178,0,0,1,15.89-.2a1.073,1.073,0,0,1-.434-.987v-.581a.936.936,0,0,1,.483-.931,1.28,1.28,0,0,1,.588-.119,2.155,2.155,0,0,1,.665.109,1.9,1.9,0,0,1,.567.284.835.835,0,0,0-.224-.612,1.217,1.217,0,0,0-.861-.227l.021-.3a1.81,1.81,0,0,1,.99.213.873.873,0,0,1,.392.508,3.2,3.2,0,0,1,.073.756Zm-.392-2.121a4.628,4.628,0,0,0-.612-.231,2.089,2.089,0,0,0-.6-.1.625.625,0,0,0-.707.707v.609a.733.733,0,0,0,.315.662,1.632,1.632,0,0,0,.9.207,5.265,5.265,0,0,0,.707-.056Z" transform="translate(11.358 21.834)" fill="#1d1d1b"/>
  <path id="Path_637" data-name="Path 637" d="M3.941-1.47A1.327,1.327,0,0,1,3.423-.361,2.093,2.093,0,0,1,2.1.042,2.4,2.4,0,0,1,.868-.308,1.408,1.408,0,0,1,.385-.822,1.51,1.51,0,0,1,.2-1.582l.882-.042a.664.664,0,0,0,.322.588,1.28,1.28,0,0,0,.714.21q.875,0,.875-.616,0-.5-.595-.6l-.812-.084a1.719,1.719,0,0,1-.966-.434,1.305,1.305,0,0,1-.357-.987A1.319,1.319,0,0,1,.77-4.606a1.967,1.967,0,0,1,1.292-.42,1.9,1.9,0,0,1,1.257.4,1.264,1.264,0,0,1,.476,1.019l-.868.042a.727.727,0,0,0-.819-.609A1.089,1.089,0,0,0,1.439-4a.53.53,0,0,0-.242.43.48.48,0,0,0,.175.392A.848.848,0,0,0,1.806-3l.8.084A1.342,1.342,0,0,1,3.941-1.47ZM6.965-2.639,8.68,0H7.546L6.37-1.883l-.679.91V0H4.718V-4.984h.973V-2.2L7.574-4.984h.98Zm5.81-2.345-1.5,2.94V0h-.966V-2.044l-1.5-2.94H9.87L10.8-2.975l.917-2.009Zm4.361,2.471.007.539a4.071,4.071,0,0,1-.126.861,1.448,1.448,0,0,1-.385.637A1.878,1.878,0,0,1,15.246,0a2.7,2.7,0,0,1-1.47-.284,1.176,1.176,0,0,1-.4-1.025V-4.984h1.939a1.779,1.779,0,0,1,1.316.476,1.568,1.568,0,0,1,.455.938A8.949,8.949,0,0,1,17.136-2.513ZM15.953-1.176a.869.869,0,0,0,.172-.444,7.278,7.278,0,0,0,.038-.886,6.911,6.911,0,0,0-.038-.871.851.851,0,0,0-.172-.431.886.886,0,0,0-.728-.308H14.35v2.758a.4.4,0,0,0,.189.385,1.519,1.519,0,0,0,.675.105A.9.9,0,0,0,15.953-1.176Zm5.8-1.337.007.539a4.071,4.071,0,0,1-.126.861,1.448,1.448,0,0,1-.385.637A1.878,1.878,0,0,1,19.859,0a2.7,2.7,0,0,1-1.47-.284,1.176,1.176,0,0,1-.4-1.025V-4.984h1.939a1.779,1.779,0,0,1,1.316.476,1.568,1.568,0,0,1,.455.938A8.949,8.949,0,0,1,21.749-2.513ZM20.566-1.176a.869.869,0,0,0,.171-.444,7.278,7.278,0,0,0,.039-.886,6.911,6.911,0,0,0-.039-.871.851.851,0,0,0-.171-.431.886.886,0,0,0-.728-.308h-.875v2.758a.4.4,0,0,0,.189.385,1.519,1.519,0,0,0,.675.105A.9.9,0,0,0,20.566-1.176ZM26.383,0H25.368l-.28-.861H23.415L23.142,0H22.127l1.6-4.564a.776.776,0,0,1,.234-.329.54.54,0,0,1,.319-.091.506.506,0,0,1,.3.084.709.709,0,0,1,.206.336ZM24.864-1.68l-.588-1.974L23.66-1.68Z" transform="translate(1.975 38.09)" fill="#1d1d1b"/>
  <path id="Path_638" data-name="Path 638" d="M.805.154A1.324,1.324,0,0,1,.613.144.562.562,0,0,1,.469.1.283.283,0,0,1,.343-.021Q.343-.1.42-.1a.542.542,0,0,1,.2.049A.443.443,0,0,0,.805,0a.4.4,0,0,0,.284-.126.825.825,0,0,0,.2-.329,2.172,2.172,0,0,0,.14-.707,2.561,2.561,0,0,0-.1-.693,3.387,3.387,0,0,0-.259-.658Q1.036-2.59.952-2.744.777-3.094.686-3.29a3.124,3.124,0,0,1-.161-.434,2.274,2.274,0,0,1-.1-.679A1.356,1.356,0,0,1,.5-4.847a.912.912,0,0,1,.234-.368.565.565,0,0,1,.392-.161.436.436,0,0,1,.2.067q.119.066.119.129t-.042.056A.271.271,0,0,1,1.3-5.159a.246.246,0,0,0-.119-.035.4.4,0,0,0-.284.119.7.7,0,0,0-.178.294,1.013,1.013,0,0,0-.049.322,2.4,2.4,0,0,0,.07.563,2.806,2.806,0,0,0,.189.543l.245.511.07.147q.147.3.228.5a2.812,2.812,0,0,1,.137.441,2.765,2.765,0,0,1,.077.63A1.838,1.838,0,0,1,1.47-.3a.917.917,0,0,1-.28.329A.644.644,0,0,1,.805.154ZM4.151.112A.082.082,0,0,1,4.067.063Q4.06.021,3.9-.525l-.245-.854q-.385-1.33-.5-1.645l-.042-.119q-.007.014-.024.042l-.059.091q-.084.154-.14.238l-.1.161V-.119a.44.44,0,0,1-.021.165.09.09,0,0,1-.091.046A.1.1,0,0,1,2.587.042a.433.433,0,0,1-.025-.175V-2.247q0-.413.021-1.344L2.6-4.935a1.983,1.983,0,0,1,.014-.245q.021-.084.077-.084.1,0,.126.049a.661.661,0,0,1,.028.252L2.828-3.8l-.014.847h.007q.133-.294.378-.882l.259-.651q.392-.973.5-.973a.13.13,0,0,1,.084.028.093.093,0,0,1,.035.077.765.765,0,0,1-.112.28l-.07.126q-.119.28-.35.84-.28.679-.3.714a.163.163,0,0,0,.007.084q.14.357.315.882t.287.91l.242.854q.122.434.171.623a.293.293,0,0,1,.014.049.09.09,0,0,1-.038.077A.145.145,0,0,1,4.151.112ZM5.229.084a.081.081,0,0,1-.07-.053.242.242,0,0,1-.028-.115q0-.224.021-.672l.014-.679a2.822,2.822,0,0,0-.021-.287A1.76,1.76,0,0,1,5.117-2a1.791,1.791,0,0,0-.042-.329,2,2,0,0,1-.042-.322,2.583,2.583,0,0,0-.07-.4.782.782,0,0,1-.028-.1.224.224,0,0,0-.014-.053q-.028-.2-.091-.483A10.336,10.336,0,0,0,4.6-4.718a1.916,1.916,0,0,1-.1-.455.1.1,0,0,1,.042-.08.159.159,0,0,1,.1-.031l.084.056a9.777,9.777,0,0,0,.189,1.124,4.056,4.056,0,0,0,.252.927q.014-.035.07-.609.049-.511.14-1.015.084-.462.2-.462a.356.356,0,0,1,.056,0,.063.063,0,0,1,.035.017.081.081,0,0,1,.014.056.474.474,0,0,1-.028.147l-.028.14L5.439-3.857q-.035.2-.063.5t-.028.521a.8.8,0,0,0,.007.112.96.96,0,0,1,.007.119L5.32-2.5v.056l.014.273.014.147q.021.28.021.42,0,1.106-.014,1.414l.021.021a.029.029,0,0,0,.007.021v.028a.258.258,0,0,1-.038.144A.128.128,0,0,1,5.229.084ZM6.9.014a.373.373,0,0,1-.168-.042Q6.65-.07,6.65-.126a.348.348,0,0,1,.056-.14.237.237,0,0,0,.049-.14l-.021-.616L6.685-2.933,6.671-3.78q-.007-.777-.035-.973a.83.83,0,0,0-.056-.175.648.648,0,0,1-.049-.189q0-.168.532-.168H7.1a.866.866,0,0,1,.616.245,1.629,1.629,0,0,1,.364.6,3.808,3.808,0,0,1,.168.721q.028.21.049.644v.217a4.261,4.261,0,0,1-.115.942,4.544,4.544,0,0,1-.326.949,1.965,1.965,0,0,1-.326.5,2.35,2.35,0,0,1-.381.354A.6.6,0,0,1,6.9.014Zm.105-.357a1.419,1.419,0,0,0,.462-.389A2.14,2.14,0,0,0,7.791-1.3a3.5,3.5,0,0,0,.175-.591,5.717,5.717,0,0,0,.1-.62q.021-.252.021-.483,0-2.044-1.127-2.044-.147,0-.147.077,0,.245.028.581t.028.581q0,.385.056,1.337.049.826.049,1.33v.784ZM9.569.014A.373.373,0,0,1,9.4-.028q-.084-.042-.084-.1a.348.348,0,0,1,.056-.14.237.237,0,0,0,.049-.14L9.4-1.022,9.352-2.933,9.338-3.78q-.007-.777-.035-.973a.83.83,0,0,0-.056-.175A.648.648,0,0,1,9.2-5.117q0-.168.532-.168h.035a.866.866,0,0,1,.616.245,1.629,1.629,0,0,1,.364.6,3.808,3.808,0,0,1,.168.721q.028.21.049.644v.217a4.261,4.261,0,0,1-.115.942,4.544,4.544,0,0,1-.326.949,1.965,1.965,0,0,1-.325.5,2.35,2.35,0,0,1-.382.354A.6.6,0,0,1,9.569.014Zm.1-.357a1.419,1.419,0,0,0,.462-.389,2.14,2.14,0,0,0,.322-.564,3.5,3.5,0,0,0,.175-.591,5.717,5.717,0,0,0,.1-.62q.021-.252.021-.483,0-2.044-1.127-2.044-.147,0-.147.077,0,.245.028.581t.028.581q0,.385.056,1.337.049.826.049,1.33v.784ZM13.265,0a.135.135,0,0,1-.094-.035.11.11,0,0,1-.038-.084v-.917q0-.084-.357-.154a3.176,3.176,0,0,0-.588-.07q-.014,0-.046.1T12.1-1q-.091.364-.182.777l-.035.154a.066.066,0,0,1-.07.056.162.162,0,0,1-.1-.035.1.1,0,0,1-.045-.084l.007-.014V-.154l.077-.35q.084-.329.147-.644.07-.357.105-.462.056-.231.224-1.155L12.264-3q.182-1.078.252-1.358.035-.168.126-.5a1.668,1.668,0,0,1,.1-.28q.063-.119.1-.119a.183.183,0,0,1,.161.07,4.155,4.155,0,0,1,.109.693q.073.63.129,1.274l.091,1.162q0,.3.042.91t.042.917V-.2a.441.441,0,0,1-.021.14Q13.37,0,13.265,0Zm-.28-1.351q.14,0,.14-.07,0-.434-.049-1.187t-.105-1.326q-.014-.245-.056-.539l-.028-.273s0-.021-.014-.077l-.014-.084a2.922,2.922,0,0,0-.108.427q-.052.273-.108.644-.168,1.043-.287,1.568l-.063.238a2.035,2.035,0,0,0-.1.532v.042a2.332,2.332,0,0,0,.707.1h.042A.155.155,0,0,0,12.985-1.351Z" transform="translate(17.476 53.648)" fill="#1d1d1b"/>
  <path id="Path_639" data-name="Path 639" d="M3.989-1.248a1.357,1.357,0,0,1-.058.412,1.2,1.2,0,0,1-.154.321,1.045,1.045,0,0,1-.222.236A1.3,1.3,0,0,1,3.29-.12a1.362,1.362,0,0,1-.28.091A1.339,1.339,0,0,1,2.741,0H.335V-.889h2.4a.371.371,0,0,0,.273-.092A.361.361,0,0,0,3.1-1.248.325.325,0,0,0,2.741-1.6H1.364a1.107,1.107,0,0,1-.5-.1,1.02,1.02,0,0,1-.333-.256.977.977,0,0,1-.185-.332,1.1,1.1,0,0,1-.056-.332,1.074,1.074,0,0,1,.106-.5,1,1,0,0,1,.267-.33,1.046,1.046,0,0,1,.349-.183,1.229,1.229,0,0,1,.352-.056H3.548v.889H1.371a.3.3,0,0,0-.108.015A.127.127,0,0,0,1.2-2.75a.114.114,0,0,0-.022.055.483.483,0,0,0,0,.056.2.2,0,0,0,.021.085.107.107,0,0,0,.043.044.137.137,0,0,0,.058.015l.063,0H2.741a1.258,1.258,0,0,1,.581.123,1.156,1.156,0,0,1,.386.309,1.227,1.227,0,0,1,.214.405A1.4,1.4,0,0,1,3.989-1.248ZM8.952,0H7.67L5.879-1.729a.413.413,0,0,1-.14-.342.463.463,0,0,1,.05-.179.417.417,0,0,1,.118-.142L7.53-3.7H8.952L6.86-2.017ZM5.513,0H4.625V-5.257h.889Zm8.012.355a1.357,1.357,0,0,1-.058.412,1.2,1.2,0,0,1-.154.321,1.045,1.045,0,0,1-.222.236,1.3,1.3,0,0,1-.265.159,1.37,1.37,0,0,1-.279.091,1.315,1.315,0,0,1-.267.029h-1.6V.714h1.6a.354.354,0,0,0,.267-.092.369.369,0,0,0,.089-.267v-4.05h.889ZM12.281,0h-1.6a1.428,1.428,0,0,1-.408-.065,1.207,1.207,0,0,1-.405-.214,1.169,1.169,0,0,1-.311-.386,1.256,1.256,0,0,1-.123-.583V-3.695h.889v2.447a.361.361,0,0,0,.092.267.371.371,0,0,0,.273.092h1.6Zm6.146-1.248a1.357,1.357,0,0,1-.058.412,1.2,1.2,0,0,1-.154.321,1.045,1.045,0,0,1-.222.236,1.3,1.3,0,0,1-.265.159,1.362,1.362,0,0,1-.28.091A1.339,1.339,0,0,1,17.179,0h-1.6a1.341,1.341,0,0,1-.41-.058,1.174,1.174,0,0,1-.32-.156,1.078,1.078,0,0,1-.236-.224A1.3,1.3,0,0,1,14.451-.7a1.362,1.362,0,0,1-.091-.28,1.325,1.325,0,0,1-.029-.265v-1.2a1.233,1.233,0,0,1,.125-.579,1.2,1.2,0,0,1,.311-.386,1.186,1.186,0,0,1,.405-.214,1.425,1.425,0,0,1,.4-.065h1.6v.889h-1.6a.37.37,0,0,0-.27.091.355.355,0,0,0-.092.265v1.2a.375.375,0,0,0,.091.273.355.355,0,0,0,.265.092h1.6a.359.359,0,0,0,.27-.092.369.369,0,0,0,.089-.267V-5.257h.889Zm4.9,0a1.357,1.357,0,0,1-.058.412,1.2,1.2,0,0,1-.154.321,1.045,1.045,0,0,1-.222.236,1.3,1.3,0,0,1-.265.159,1.362,1.362,0,0,1-.28.091A1.339,1.339,0,0,1,22.08,0h-1.6a1.341,1.341,0,0,1-.41-.058,1.174,1.174,0,0,1-.32-.156,1.078,1.078,0,0,1-.236-.224A1.3,1.3,0,0,1,19.353-.7a1.362,1.362,0,0,1-.091-.28,1.324,1.324,0,0,1-.029-.265v-1.2a1.233,1.233,0,0,1,.125-.579,1.2,1.2,0,0,1,.311-.386,1.186,1.186,0,0,1,.405-.214,1.425,1.425,0,0,1,.4-.065h1.6v.889h-1.6a.37.37,0,0,0-.27.091.355.355,0,0,0-.092.265v1.2a.375.375,0,0,0,.091.273.355.355,0,0,0,.265.092h1.6a.359.359,0,0,0,.27-.092.369.369,0,0,0,.089-.267V-5.257h.889Zm4.662.024a1.374,1.374,0,0,1-.065.4,1.19,1.19,0,0,1-.21.4,1.172,1.172,0,0,1-.379.306A1.21,1.21,0,0,1,26.766,0h-1.6a1.374,1.374,0,0,1-.4-.065,1.19,1.19,0,0,1-.4-.21,1.172,1.172,0,0,1-.306-.379,1.21,1.21,0,0,1-.123-.569,1.391,1.391,0,0,1,.065-.4,1.187,1.187,0,0,1,.21-.4,1.172,1.172,0,0,1,.379-.306,1.21,1.21,0,0,1,.569-.123h1.6V-1.6h-1.6a.356.356,0,0,0-.28.111.4.4,0,0,0-.1.275.337.337,0,0,0,.115.272.406.406,0,0,0,.272.1h1.6a.359.359,0,0,0,.28-.109.392.392,0,0,0,.1-.273V-2.471a.364.364,0,0,0-.108-.277.378.378,0,0,0-.272-.1H24.814v-.844h1.952a1.374,1.374,0,0,1,.4.065,1.19,1.19,0,0,1,.4.21,1.172,1.172,0,0,1,.306.379,1.21,1.21,0,0,1,.123.569Z" transform="translate(-0.291 70.764)" fill="#1d1d1b"/>
  <path id="Path_640" data-name="Path 640" d="M.827-.321Q.841-.39,1-.451t.39-.13L1.9-.731q.28-.082.54-.185a3.176,3.176,0,0,0,.475-.232.9.9,0,0,0,.318-.3q0-.1-.133-.157A1.718,1.718,0,0,0,2.745-1.7q-.222-.038-.506-.062t-.581-.068q-.3-.044-.581-.109a2.007,2.007,0,0,1-.506-.185,1.034,1.034,0,0,1-.355-.3.75.75,0,0,1-.133-.451A1.3,1.3,0,0,1,.2-3.408a2.351,2.351,0,0,1,.311-.509,3.237,3.237,0,0,1,.444-.458,3.511,3.511,0,0,1,.523-.369A2.929,2.929,0,0,1,2.02-4.99a1.614,1.614,0,0,1,.5-.089q.062,0,.13,0a.49.49,0,0,1,.12.007.146.146,0,0,1,.085.051.189.189,0,0,1,.034.123.314.314,0,0,1-.13.284.559.559,0,0,1-.314.085l-.267-.191a.816.816,0,0,0-.345.089,2.205,2.205,0,0,0-.383.236,3.235,3.235,0,0,0-.379.338,3.056,3.056,0,0,0-.325.4,2.291,2.291,0,0,0-.226.41.974.974,0,0,0-.085.369A.553.553,0,0,0,.571-2.5a.911.911,0,0,0,.355.232,2.344,2.344,0,0,0,.509.126q.287.041.581.068L2.6-2.02a2.785,2.785,0,0,1,.509.085,1.032,1.032,0,0,1,.355.164.334.334,0,0,1,.133.28.2.2,0,0,1-.031.25,1.23,1.23,0,0,1-.328.28,4.6,4.6,0,0,1-.526.28q-.3.14-.625.253t-.622.191a3.368,3.368,0,0,1-.513.1A.151.151,0,0,1,.844-.178Q.8-.219.827-.321ZM3.965-4.546a.218.218,0,0,1,.079-.13.214.214,0,0,1,.14-.055.123.123,0,0,1,.079.031.3.3,0,0,1,.065.075.847.847,0,0,1,.048.089.192.192,0,0,1,.021.079L4.662-2.1a1.94,1.94,0,0,0,.174-.263q.133-.222.314-.52t.39-.619a5.639,5.639,0,0,1,.407-.557A1.654,1.654,0,0,1,6.3-4.392q.157-.1.246.038-.308.492-.54.831T5.6-2.943q-.174.243-.294.417T5.1-2.191a2.211,2.211,0,0,0-.15.335,3.805,3.805,0,0,0-.116.414A.06.06,0,0,0,4.85-1.4a.28.28,0,0,0,.1.041,1.265,1.265,0,0,0,.243.038q.164.014.451.027t.725.021q.437.007,1.073.007a.435.435,0,0,1-.051.2.192.192,0,0,1-.188.1H4.751a2.554,2.554,0,0,1,.079.379,2.948,2.948,0,0,1,.024.373q0,.123-.044.126t-.195,0l-.017,0-.024,0Q4.56-.137,4.532-.26T4.478-.52Q4.45-.656,4.426-.783T4.4-.964q-.007-.068-.027-.294t-.048-.52q-.027-.294-.055-.629t-.055-.632q-.027-.3-.048-.516l-.027-.294a.558.558,0,0,0-.01-.079q-.01-.058-.027-.126T4.071-4.19q-.01-.068-.017-.1a.242.242,0,0,0-.017-.048q-.017-.041-.031-.082t-.027-.079A.188.188,0,0,1,3.965-4.546ZM8.771-.171a1.577,1.577,0,0,1,.075-.482q.075-.236.164-.475T9.164-1.6a1.43,1.43,0,0,0,.044-.5q-.2-.219-.437-.475T8.3-3.107a6.5,6.5,0,0,1-.431-.574,3.3,3.3,0,0,1-.321-.6.028.028,0,0,1-.007-.021v-.027A.108.108,0,0,1,7.6-4.443a.316.316,0,0,1,.13-.027q.178.212.379.482t.414.537q.212.267.431.509a2.978,2.978,0,0,0,.431.4h.089a2.028,2.028,0,0,0,.1-.236q.068-.188.167-.448T9.946-3.8q.109-.314.208-.619t.171-.571q.072-.267.106-.437.007-.014.041-.014a.2.2,0,0,1,.167.092.257.257,0,0,1,.051.188q-.185.649-.3,1.066t-.2.68q-.079.263-.133.424t-.113.3q-.058.144-.12.318L9.659-1.9q-.1.291-.253.745T9.03,0L8.993,0l-.044,0A.157.157,0,0,1,8.771-.171Zm3.172.034a.635.635,0,0,1,.171-.352q.171-.215.424-.489t.554-.595a7.212,7.212,0,0,0,.554-.667,4.375,4.375,0,0,0,.424-.7,1.637,1.637,0,0,0,.171-.708.506.506,0,0,0-.1-.318.923.923,0,0,0-.263-.229,1.441,1.441,0,0,0-.362-.15,3.584,3.584,0,0,0-.407-.085q-.205-.031-.39-.041t-.314-.01l-.089,0-.113.007q-.058,0-.106.01l-.055.007-.089.082q0,.014,0,.116t-.007.232q0,.13,0,.267v.212q0,.69.051,1.371t.051,1.371q0,.041,0,.089a.412.412,0,0,1,0,.092A.132.132,0,0,1,12-.55a.125.125,0,0,1-.092.031.182.182,0,0,1-.082-.021.085.085,0,0,1-.048-.068l-.267-3.6a.608.608,0,0,1-.072.038l-.106.051q-.055.027-.106.058a.2.2,0,0,1-.065.031l-.024,0-.024,0a.223.223,0,0,1-.079-.017.074.074,0,0,1-.044-.079.291.291,0,0,1,.044-.167.522.522,0,0,1,.116-.12q.072-.055.154-.109a.733.733,0,0,0,.154-.14.667.667,0,0,0,.116-.215,1.028,1.028,0,0,0,.044-.328q.137,0,.171.048a.232.232,0,0,1,.041.113q.007.065.017.13t.1.092q.191-.007.461,0a5.676,5.676,0,0,1,.567.044,4.693,4.693,0,0,1,.588.113,1.971,1.971,0,0,1,.52.212,1.076,1.076,0,0,1,.362.345.852.852,0,0,1,.12.509,3.462,3.462,0,0,1-.338,1.012,6.4,6.4,0,0,1-.588.933,9.636,9.636,0,0,1-.731.858q-.393.41-.783.786l-.021,0-.021,0a.139.139,0,0,1-.1-.041A.139.139,0,0,1,11.942-.137Zm3.883,0A.635.635,0,0,1,16-.489q.171-.215.424-.489t.554-.595a7.212,7.212,0,0,0,.554-.667,4.375,4.375,0,0,0,.424-.7,1.637,1.637,0,0,0,.171-.708.506.506,0,0,0-.1-.318.923.923,0,0,0-.263-.229,1.441,1.441,0,0,0-.362-.15,3.584,3.584,0,0,0-.407-.085q-.205-.031-.39-.041t-.314-.01l-.089,0-.113.007q-.058,0-.106.01l-.055.007-.089.082q0,.014,0,.116t-.007.232q0,.13,0,.267v.212q0,.69.051,1.371t.051,1.371q0,.041,0,.089a.412.412,0,0,1,0,.092.132.132,0,0,1-.038.075.125.125,0,0,1-.092.031.182.182,0,0,1-.082-.021.085.085,0,0,1-.048-.068l-.267-3.6a.608.608,0,0,1-.072.038l-.106.051q-.055.027-.106.058a.2.2,0,0,1-.065.031l-.024,0L15-4.02a.223.223,0,0,1-.079-.017.074.074,0,0,1-.044-.079.291.291,0,0,1,.044-.167.522.522,0,0,1,.116-.12q.072-.055.154-.109a.733.733,0,0,0,.154-.14.667.667,0,0,0,.116-.215A1.028,1.028,0,0,0,15.5-5.2q.137,0,.171.048a.232.232,0,0,1,.041.113q.007.065.017.13t.1.092q.191-.007.461,0a5.676,5.676,0,0,1,.567.044,4.694,4.694,0,0,1,.588.113,1.971,1.971,0,0,1,.52.212,1.076,1.076,0,0,1,.362.345.852.852,0,0,1,.12.509,3.462,3.462,0,0,1-.338,1.012,6.4,6.4,0,0,1-.588.933,9.636,9.636,0,0,1-.731.858Q16.4-.376,16.01,0l-.021,0-.021,0a.139.139,0,0,1-.1-.041A.139.139,0,0,1,15.825-.137Zm2.96-.041a2.136,2.136,0,0,0,.034-.246q.014-.15.038-.4t.055-.608q.031-.362.085-.882t.126-1.22q.072-.7.188-1.63a.083.083,0,0,1,.065-.082.466.466,0,0,1,.106-.014.156.156,0,0,1,.123.055.694.694,0,0,1,.085.123q.038.068.072.144a.518.518,0,0,0,.075.123q.068.157.14.362l.154.438q.082.232.164.468t.164.458q.082.222.154.41t.133.311a.888.888,0,0,0,.212-.058q.137-.051.294-.1a2.742,2.742,0,0,1,.308-.075.633.633,0,0,1,.253,0,.171.171,0,0,1,.133.12.493.493,0,0,1-.051.3.229.229,0,0,1-.089-.017l-.082-.034-.085-.034a.274.274,0,0,0-.1-.017.71.71,0,0,0-.154.038l-.256.082q-.137.044-.239.089t-.1.065L21.26-.157,21.082.1a2.133,2.133,0,0,1-.195-.455q-.079-.256-.147-.513t-.14-.479a1.32,1.32,0,0,0-.181-.373,1.758,1.758,0,0,1-.342.116,2.991,2.991,0,0,0-.383.12,1.028,1.028,0,0,0-.318.191.51.51,0,0,0-.161.325q-.014.082-.024.219t-.024.26q-.021.15-.034.308ZM19.571-4.2l-.014.116q-.007.116-.021.27t-.031.314q-.017.161-.024.27-.034.383-.072.755a7.588,7.588,0,0,0-.038.762,1.225,1.225,0,0,0,.277-.034,1.72,1.72,0,0,0,.284-.092,1.167,1.167,0,0,0,.25-.144.637.637,0,0,0,.174-.195q-.055-.239-.12-.5T20.1-3.2q-.075-.263-.164-.516T19.742-4.2a.351.351,0,0,0-.048-.031Q19.653-4.259,19.571-4.2Z" transform="translate(8.31 5.441)" fill="#1d1d1b"/>
  <path id="Path_615" data-name="Path 615" d="M117.949,342.213h-3.431c-4.407,0-8.014-2.748-8.014-6.106v-1.478c0-3.358,3.607-6.106,8.014-6.106h3.431c4.407,0,8.014,2.748,8.014,6.106v1.478c0,3.359-3.607,6.106-8.014,6.106" transform="translate(-57.38 -151.475)" fill="#f91d56"/>
  <path id="Path_616" data-name="Path 616" d="M137.383,281.457h-22.89c-4.407,0-8.013-2.748-8.013-6.106v-1.478c0-3.358,3.606-6.106,8.013-6.106h22.89c4.408,0,8.014,2.748,8.014,6.106v1.478c0,3.359-3.607,6.106-8.014,6.106" transform="translate(-57.373 -123.438)" fill="#f91d56"/>
  <path id="Path_617" data-name="Path 617" d="M156.841,311.835H114.493c-4.407,0-8.014-2.748-8.014-6.106V304.25c0-3.358,3.607-6.106,8.014-6.106h42.348c4.407,0,8.014,2.748,8.014,6.106v1.478c0,3.359-3.607,6.106-8.014,6.106" transform="translate(-57.371 -137.459)" fill="#f91d56"/>
  <path id="Path_618" data-name="Path 618" d="M156.841,251.079H114.493c-4.407,0-8.014-2.748-8.014-6.106v-1.478c0-3.358,3.607-6.106,8.014-6.106h42.348c4.407,0,8.014,2.748,8.014,6.106v1.478c0,3.359-3.607,6.106-8.014,6.106" transform="translate(-57.371 -109.422)" fill="#f91d56"/>
  <path id="Path_619" data-name="Path 619" d="M117.949,220.667h-3.431c-4.407,0-8.014-2.748-8.014-6.106v-1.478c0-3.358,3.607-6.106,8.014-6.106h3.431c4.407,0,8.014,2.748,8.014,6.106v1.478c0,3.359-3.607,6.106-8.014,6.106" transform="translate(-57.38 -95.387)" fill="#f91d56"/>
  <path id="Path_620" data-name="Path 620" d="M137.383,190.324h-22.89c-4.407,0-8.013-2.748-8.013-6.106v-1.478c0-3.358,3.606-6.106,8.013-6.106h22.89c4.408,0,8.014,2.748,8.014,6.106v1.478c0,3.359-3.607,6.106-8.014,6.106" transform="translate(-57.373 -81.383)" fill="#f91d56"/>
  <path id="Path_625" data-name="Path 625" d="M3.616-2.1a2.714,2.714,0,0,1-.4,1.618A1.418,1.418,0,0,1,1.993.068,1.437,1.437,0,0,1,.778-.463,2.6,2.6,0,0,1,.359-2.037V-2.9a2.673,2.673,0,0,1,.4-1.61,1.432,1.432,0,0,1,1.225-.537A1.44,1.44,0,0,1,3.2-4.522a2.592,2.592,0,0,1,.412,1.565Zm-.831-.93a2.106,2.106,0,0,0-.191-1.027.653.653,0,0,0-.608-.326.653.653,0,0,0-.6.309,1.946,1.946,0,0,0-.2.966v1.128A2.16,2.16,0,0,0,1.381-.937a.654.654,0,0,0,.612.342.643.643,0,0,0,.591-.316,2.032,2.032,0,0,0,.2-.99Z" transform="translate(54.078 87.27)" fill="#f91d56"/>
  <path id="Path_626" data-name="Path 626" transform="translate(57.312 86.324)" fill="#fff"/>
  <path id="Path_627" data-name="Path 627" d="M3.719,0H.373V-.571L2.03-2.379a4.128,4.128,0,0,0,.511-.668,1.083,1.083,0,0,0,.152-.538.818.818,0,0,0-.2-.574.694.694,0,0,0-.538-.219.8.8,0,0,0-.625.246.968.968,0,0,0-.222.673H.277a1.628,1.628,0,0,1,.207-.819,1.424,1.424,0,0,1,.591-.566,1.882,1.882,0,0,1,.887-.2,1.683,1.683,0,0,1,1.143.364,1.264,1.264,0,0,1,.419,1.007,1.708,1.708,0,0,1-.21.781,4.441,4.441,0,0,1-.689.928L1.408-.663H3.719Z" transform="translate(54.078 103.539)" fill="#fff"/>
  <path id="Path_628" data-name="Path 628" d="M2.622,0H1.794V-4l-1.22.417v-.7l1.941-.714h.106Z" transform="translate(54.078 119.797)" fill="#fff"/>
  <path id="Path_629" data-name="Path 629" d="M1.333-2.868h.506a.905.905,0,0,0,.607-.2.707.707,0,0,0,.224-.564.771.771,0,0,0-.186-.552.75.75,0,0,0-.569-.2.793.793,0,0,0-.55.193.645.645,0,0,0-.215.5H.318a1.257,1.257,0,0,1,.2-.7,1.366,1.366,0,0,1,.567-.49A1.848,1.848,0,0,1,1.9-5.045a1.712,1.712,0,0,1,1.171.374A1.313,1.313,0,0,1,3.5-3.63,1.058,1.058,0,0,1,3.286-3a1.34,1.34,0,0,1-.552.446,1.221,1.221,0,0,1,.624.441,1.207,1.207,0,0,1,.214.718,1.337,1.337,0,0,1-.46,1.066A1.785,1.785,0,0,1,1.9.068,1.771,1.771,0,0,1,.728-.314,1.261,1.261,0,0,1,.27-1.333H1.1a.7.7,0,0,0,.22.533.836.836,0,0,0,.593.205A.862.862,0,0,0,2.522-.8a.769.769,0,0,0,.222-.595A.777.777,0,0,0,2.512-2a.994.994,0,0,0-.69-.212H1.333Z" transform="translate(54.078 136.066)" fill="#fff"/>
  <path id="Path_630" data-name="Path 630" d="M3.719,0H.373V-.571L2.03-2.379a4.128,4.128,0,0,0,.511-.668,1.083,1.083,0,0,0,.152-.538.818.818,0,0,0-.2-.574.694.694,0,0,0-.538-.219.8.8,0,0,0-.625.246.968.968,0,0,0-.222.673H.277a1.628,1.628,0,0,1,.207-.819,1.424,1.424,0,0,1,.591-.566,1.882,1.882,0,0,1,.887-.2,1.683,1.683,0,0,1,1.143.364,1.264,1.264,0,0,1,.419,1.007,1.708,1.708,0,0,1-.21.781,4.441,4.441,0,0,1-.689.928L1.408-.663H3.719Z" transform="translate(54.078 152.332)" fill="#fff"/>
  <path id="Path_631" data-name="Path 631" d="M1.333-2.868h.506a.905.905,0,0,0,.607-.2.707.707,0,0,0,.224-.564.771.771,0,0,0-.186-.552.75.75,0,0,0-.569-.2.793.793,0,0,0-.55.193.645.645,0,0,0-.215.5H.318a1.257,1.257,0,0,1,.2-.7,1.366,1.366,0,0,1,.567-.49A1.848,1.848,0,0,1,1.9-5.045a1.712,1.712,0,0,1,1.171.374A1.313,1.313,0,0,1,3.5-3.63,1.058,1.058,0,0,1,3.286-3a1.34,1.34,0,0,1-.552.446,1.221,1.221,0,0,1,.624.441,1.207,1.207,0,0,1,.214.718,1.337,1.337,0,0,1-.46,1.066A1.785,1.785,0,0,1,1.9.068,1.771,1.771,0,0,1,.728-.314,1.261,1.261,0,0,1,.27-1.333H1.1a.7.7,0,0,0,.22.533.836.836,0,0,0,.593.205A.862.862,0,0,0,2.522-.8a.769.769,0,0,0,.222-.595A.777.777,0,0,0,2.512-2a.994.994,0,0,0-.69-.212H1.333Z" transform="translate(54.078 168.602)" fill="#fff"/>
  <path id="Path_632" data-name="Path 632" d="M2.622,0H1.794V-4l-1.22.417v-.7l1.941-.714h.106Z" transform="translate(54.078 184.867)" fill="#fff"/>
  <path id="Path_641" data-name="Path 641" d="M1.234-.586v-.3H.641V0L3.1-.008v-1.8l-1.836-.43v-.7H2.531v.7h.586V-3.523H.641V-1.68l1.852.43v.664ZM7.117,0,5.555-1.82l1.484-1.7H6.188l-1.2,1.492V-5.281H4.4V0h.594V-1.547h.117L6.2,0Zm3.516-3.523V1.438H8.156V.883h1.852V0H8.172V-3.523H8.75V-.578h1.258V-3.523Zm3.172,0V-5.281h.586V0H11.914V-3.523Zm0,2.945V-2.961H12.539V-.586Zm3.758-2.945V-5.281h.586V0H15.672V-3.523Zm0,2.945V-2.961H16.3V-.586Zm3.719-1.5v-.883H19.43v-.562h2.477V0H19.445V-2.078Zm0,.57H20.023v.93h1.258Z" transform="translate(10.298 86.93)" fill="#1d1d1b"/>
  <path id="Path_642" data-name="Path 642" d="M2.639-4.508A1.208,1.208,0,0,0,2.2-4.97a1.17,1.17,0,0,0-.619-.168A.852.852,0,0,0,1-4.924a.74.74,0,0,0-.241.584v.035a1.017,1.017,0,0,0,.49.805,5.031,5.031,0,0,0,.472.3q.262.15.525.322a3.869,3.869,0,0,1,.476.364,1.531,1.531,0,0,1,.35.472,1.387,1.387,0,0,1,.137.616v.07A1.328,1.328,0,0,1,2.754-.294,1.643,1.643,0,0,1,1.638.1,1.543,1.543,0,0,1,.28-.623V-1a1.576,1.576,0,0,0,.535.648A1.49,1.49,0,0,0,1.694-.1,1.339,1.339,0,0,0,2.6-.441a1.13,1.13,0,0,0,.385-.9v-.042a1.183,1.183,0,0,0-.182-.641A1.584,1.584,0,0,0,2.352-2.5q-.273-.185-.6-.388t-.6-.378A1.576,1.576,0,0,1,.707-3.7a1.008,1.008,0,0,1-.182-.581v-.049A.914.914,0,0,1,.84-5.082a1.183,1.183,0,0,1,.777-.259,1.236,1.236,0,0,1,1.022.476ZM4.011-5.25h.224v1.925L6.454-5.25h.28l-2.4,2.093L7.35,0H7.042l-2.8-2.919V0H4.011ZM8.764,0H8.533V-2.1l-1.6-3.15h.252l1.477,2.9,1.449-2.9h.21L8.764-2.1ZM10.99-5.25h.224a2.472,2.472,0,0,1,1.9.773,2.625,2.625,0,0,1,.721,1.855A2.62,2.62,0,0,1,13.115-.77a2.475,2.475,0,0,1-1.9.77H10.99Zm.28.21h-.056V-.217h.056a2.183,2.183,0,0,0,1.676-.707,2.411,2.411,0,0,0,.655-1.7,2.436,2.436,0,0,0-.655-1.7A2.173,2.173,0,0,0,11.27-5.04Zm3.4-.21H14.9a2.472,2.472,0,0,1,1.9.773,2.625,2.625,0,0,1,.721,1.855A2.62,2.62,0,0,1,16.8-.77,2.475,2.475,0,0,1,14.9,0h-.224Zm.28.21H14.9V-.217h.056a2.183,2.183,0,0,0,1.676-.707,2.411,2.411,0,0,0,.655-1.7,2.436,2.436,0,0,0-.655-1.7A2.173,2.173,0,0,0,14.952-5.04Zm4.676-.336L22.253,0h-.245l-.994-2H18.207l-.98,2H17.01Zm-.021.483L18.3-2.2H20.93Z" transform="translate(5.879 103.973)" fill="#1d1d1b"/>
  <path id="Path_643" data-name="Path 643" d="M3.879-1.261A1.315,1.315,0,0,1,3.8-.8a1.123,1.123,0,0,1-.205.35,1.174,1.174,0,0,1-.308.25,1.862,1.862,0,0,1-.381.162,2.537,2.537,0,0,1-.426.089,3.607,3.607,0,0,1-.441.027,3.19,3.19,0,0,1-.52-.038A2.009,2.009,0,0,1,1.094-.08,2.4,2.4,0,0,1,.685-.3Q.482-.431.232-.622l.673-.55a1.2,1.2,0,0,0,.244.316,2.082,2.082,0,0,0,.316.244,1.642,1.642,0,0,0,.318.157.787.787,0,0,0,.25.055q.079,0,.178-.005t.2-.021a1.36,1.36,0,0,0,.2-.046.645.645,0,0,0,.176-.084.405.405,0,0,0,.123-.133A.382.382,0,0,0,2.96-.882a.351.351,0,0,0-.06-.2.582.582,0,0,0-.156-.152.981.981,0,0,0-.219-.109q-.123-.044-.248-.079t-.241-.06q-.116-.026-.2-.05L1.5-1.625q-.174-.046-.345-.106a2.393,2.393,0,0,1-.326-.142,1.179,1.179,0,0,1-.273-.2.871.871,0,0,1-.188-.27A.879.879,0,0,1,.3-2.7a1.244,1.244,0,0,1,.152-.641,1.193,1.193,0,0,1,.4-.414,1.709,1.709,0,0,1,.567-.22,3.219,3.219,0,0,1,.646-.065A2.615,2.615,0,0,1,2.543-4a2.741,2.741,0,0,1,.485.137,2.49,2.49,0,0,1,.441.22,1.409,1.409,0,0,1,.342.3l-.673.554a1.192,1.192,0,0,0-.2-.352,1.209,1.209,0,0,0-.263-.241,1.091,1.091,0,0,0-.291-.138.966.966,0,0,0-.275-.044q-.123,0-.277.01a1.074,1.074,0,0,0-.289.058.584.584,0,0,0-.229.145.37.37,0,0,0-.094.268.379.379,0,0,0,.056.21.533.533,0,0,0,.149.15.931.931,0,0,0,.21.106q.118.043.241.075t.239.056q.116.024.208.051.157.044.333.091t.347.106a2.729,2.729,0,0,1,.33.14,1.124,1.124,0,0,1,.279.2.9.9,0,0,1,.191.272A.87.87,0,0,1,3.879-1.261ZM5.763,0H4.607V-5.4H5.763v3.544a6.922,6.922,0,0,0,.559-.451q.275-.246.525-.518t.463-.555a5.227,5.227,0,0,0,.374-.567H8.47a6.592,6.592,0,0,1-.567.8,8.212,8.212,0,0,1-.714.767L8.483,0H7.208L6.289-1.647q-.256.174-.526.321Zm6.853-3.948L11.18-.475Q10.934.12,10.632.7a12.732,12.732,0,0,1-.655,1.119l-.451-.273q.085-.154.2-.355T9.957.776q.113-.215.208-.426a2.946,2.946,0,0,0,.147-.385L8.586-3.948H9.741l1.172,2.669.9-2.669ZM16.928,0h-.444l-.513-.858a1.418,1.418,0,0,1-.207.39,1.428,1.428,0,0,1-.3.3,1.386,1.386,0,0,1-.379.193,1.379,1.379,0,0,1-.436.068,1.938,1.938,0,0,1-.807-.161,1.756,1.756,0,0,1-.6-.439,1.926,1.926,0,0,1-.376-.655,2.454,2.454,0,0,1-.13-.807,2.454,2.454,0,0,1,.13-.807,1.908,1.908,0,0,1,.376-.653,1.767,1.767,0,0,1,.6-.437,1.938,1.938,0,0,1,.807-.161,1.5,1.5,0,0,1,.634.133,1.257,1.257,0,0,1,.494.417V-5.4h1.155ZM15.765-1.969a2.44,2.44,0,0,0-.021-.3A2.5,2.5,0,0,0,15.68-2.6a2.04,2.04,0,0,0-.116-.325,1.2,1.2,0,0,0-.176-.28.82.82,0,0,0-.243-.2.664.664,0,0,0-.316-.073.764.764,0,0,0-.338.07.77.77,0,0,0-.246.188,1.042,1.042,0,0,0-.169.272,1.8,1.8,0,0,0-.1.321,2.617,2.617,0,0,0-.053.337q-.015.169-.015.32t.015.32a2.617,2.617,0,0,0,.053.337,1.843,1.843,0,0,0,.1.323,1.034,1.034,0,0,0,.169.273.77.77,0,0,0,.246.188.764.764,0,0,0,.338.07.8.8,0,0,0,.342-.068.758.758,0,0,0,.251-.186,1.026,1.026,0,0,0,.171-.27,1.737,1.737,0,0,0,.1-.321,2.669,2.669,0,0,0,.053-.34Q15.765-1.815,15.765-1.969ZM21.87,0h-.444l-.513-.858a1.418,1.418,0,0,1-.207.39,1.428,1.428,0,0,1-.3.3,1.386,1.386,0,0,1-.379.193,1.379,1.379,0,0,1-.436.068,1.938,1.938,0,0,1-.807-.161,1.756,1.756,0,0,1-.6-.439,1.926,1.926,0,0,1-.376-.655,2.454,2.454,0,0,1-.13-.807,2.454,2.454,0,0,1,.13-.807,1.908,1.908,0,0,1,.376-.653,1.767,1.767,0,0,1,.6-.437,1.938,1.938,0,0,1,.807-.161,1.5,1.5,0,0,1,.634.133,1.257,1.257,0,0,1,.494.417V-5.4H21.87ZM20.708-1.969a2.44,2.44,0,0,0-.021-.3,2.5,2.5,0,0,0-.065-.332,2.04,2.04,0,0,0-.116-.325,1.2,1.2,0,0,0-.176-.28.82.82,0,0,0-.243-.2.664.664,0,0,0-.316-.073.764.764,0,0,0-.338.07.77.77,0,0,0-.246.188,1.042,1.042,0,0,0-.169.272,1.8,1.8,0,0,0-.1.321,2.617,2.617,0,0,0-.053.337q-.015.169-.015.32t.015.32a2.617,2.617,0,0,0,.053.337,1.843,1.843,0,0,0,.1.323,1.034,1.034,0,0,0,.169.273.77.77,0,0,0,.246.188.764.764,0,0,0,.338.07.8.8,0,0,0,.342-.068.758.758,0,0,0,.251-.186,1.026,1.026,0,0,0,.171-.27,1.737,1.737,0,0,0,.1-.321,2.669,2.669,0,0,0,.053-.34Q20.708-1.815,20.708-1.969ZM26.809,0H25.654V-.472a1.281,1.281,0,0,1-.494.415,1.479,1.479,0,0,1-.634.135,1.938,1.938,0,0,1-.807-.161,1.756,1.756,0,0,1-.6-.439,1.926,1.926,0,0,1-.376-.655,2.454,2.454,0,0,1-.13-.807,2.454,2.454,0,0,1,.13-.807,1.926,1.926,0,0,1,.376-.655,1.756,1.756,0,0,1,.6-.439,1.938,1.938,0,0,1,.807-.161,1.379,1.379,0,0,1,.436.068,1.386,1.386,0,0,1,.379.193,1.409,1.409,0,0,1,.3.3,1.444,1.444,0,0,1,.207.391l.513-.858h.444ZM25.647-1.982q0-.154-.015-.325a2.612,2.612,0,0,0-.053-.338,1.748,1.748,0,0,0-.1-.32,1.026,1.026,0,0,0-.171-.27.758.758,0,0,0-.251-.186.8.8,0,0,0-.342-.068.764.764,0,0,0-.338.07.77.77,0,0,0-.246.188,1.042,1.042,0,0,0-.169.272,1.8,1.8,0,0,0-.1.321A2.617,2.617,0,0,0,23.8-2.3q-.015.169-.015.32t.015.321a2.612,2.612,0,0,0,.053.338,1.8,1.8,0,0,0,.1.321,1.042,1.042,0,0,0,.169.272.77.77,0,0,0,.246.188.764.764,0,0,0,.338.07.664.664,0,0,0,.316-.073.82.82,0,0,0,.243-.2,1.2,1.2,0,0,0,.176-.28,2.04,2.04,0,0,0,.116-.325,2.492,2.492,0,0,0,.065-.333A2.481,2.481,0,0,0,25.647-1.982Z" transform="translate(0.898 120.578)" fill="#1d1d1b"/>
  <path id="Path_644" data-name="Path 644" d="M2.906-.612a.286.286,0,0,0-.11-.24.722.722,0,0,0-.29-.125,2.43,2.43,0,0,0-.41-.05q-.23-.01-.469-.018t-.469-.026a1.757,1.757,0,0,1-.41-.079.71.71,0,0,1-.29-.173.424.424,0,0,1-.11-.309.493.493,0,0,1,.11-.331.766.766,0,0,1,.289-.205,1.531,1.531,0,0,1,.4-.105,3.568,3.568,0,0,1,.46-.029,3.826,3.826,0,0,1,.715.063,2.2,2.2,0,0,1,.615.212.081.081,0,0,1,.04.037.151.151,0,0,1,.013.045.1.1,0,0,1-.023.067.067.067,0,0,1-.053.029.034.034,0,0,1-.023-.006,2.55,2.55,0,0,0-.564-.2,3.073,3.073,0,0,0-.708-.075,2.935,2.935,0,0,0-.387.025A1.416,1.416,0,0,0,.9-2.023a.62.62,0,0,0-.233.152.338.338,0,0,0-.088.239.261.261,0,0,0,.11.226.748.748,0,0,0,.29.116,2.565,2.565,0,0,0,.41.045l.469.018q.239.009.469.031a1.747,1.747,0,0,1,.41.085.7.7,0,0,1,.29.182.449.449,0,0,1,.11.318.433.433,0,0,1-.111.3.791.791,0,0,1-.3.2A1.8,1.8,0,0,1,2.307,0a3.615,3.615,0,0,1-.5.034q-.158,0-.341-.007A3.318,3.318,0,0,1,1.1-.013,2.053,2.053,0,0,1,.749-.1.975.975,0,0,1,.454-.255.1.1,0,0,1,.413-.331.1.1,0,0,1,.435-.4.067.067,0,0,1,.489-.425a.048.048,0,0,1,.035.012A1.2,1.2,0,0,0,.79-.275a1.807,1.807,0,0,0,.3.082,2.694,2.694,0,0,0,.331.04q.173.01.357.01A3.946,3.946,0,0,0,2.2-.166a1.646,1.646,0,0,0,.36-.076.679.679,0,0,0,.25-.144A.3.3,0,0,0,2.906-.612Zm3.205.439a.1.1,0,0,1,.026.041l.012.044a.08.08,0,0,1-.028.064A.112.112,0,0,1,6.047,0,.07.07,0,0,1,6-.01a.241.241,0,0,1-.045-.037L4.611-1.26l-.445.249v.882a.119.119,0,0,1-.038.1A.125.125,0,0,1,4.049,0a.127.127,0,0,1-.078-.031.117.117,0,0,1-.04-.1V-3.135a.1.1,0,0,1,.042-.088.143.143,0,0,1,.081-.029.117.117,0,0,1,.076.029.108.108,0,0,1,.035.088V-1.2L6-2.268a.084.084,0,0,1,.038-.009.079.079,0,0,1,.063.029.094.094,0,0,1,.025.062.088.088,0,0,1-.05.07L4.79-1.351Zm2,.979a1.647,1.647,0,0,0,.5-.066A.672.672,0,0,0,8.937.523a.927.927,0,0,0,.173-.4A3.156,3.156,0,0,0,9.161-.5a.512.512,0,0,1-.105.205.675.675,0,0,1-.174.144,1.006,1.006,0,0,1-.22.094A1.841,1.841,0,0,1,8.42,0a2.332,2.332,0,0,1-.242.025Q8.06.029,7.96.029a2.125,2.125,0,0,1-.533-.057.752.752,0,0,1-.352-.193A.792.792,0,0,1,6.88-.58a2.163,2.163,0,0,1-.06-.554v-.9q0-.038,0-.076a.228.228,0,0,1,.015-.067.123.123,0,0,1,.034-.048.093.093,0,0,1,.063-.019A.1.1,0,0,1,7-2.225a.117.117,0,0,1,.035.048.228.228,0,0,1,.015.067q0,.038,0,.076v.9a2.593,2.593,0,0,0,.037.478.637.637,0,0,0,.136.3A.538.538,0,0,0,7.5-.19a1.828,1.828,0,0,0,.456.047,2.935,2.935,0,0,0,.357-.023,1.672,1.672,0,0,0,.362-.085.991.991,0,0,0,.3-.17A.556.556,0,0,0,9.161-.7v-1.33a.664.664,0,0,1,0-.076.262.262,0,0,1,.016-.067.123.123,0,0,1,.034-.048.084.084,0,0,1,.057-.019.1.1,0,0,1,.067.019.13.13,0,0,1,.037.048.2.2,0,0,1,.016.067q0,.038,0,.076V-.595a3.322,3.322,0,0,1-.072.753A1.149,1.149,0,0,1,9.1.643.838.838,0,0,1,8.7.9a1.987,1.987,0,0,1-.589.076A2.742,2.742,0,0,1,7.695.952,1.71,1.71,0,0,1,7.411.886.86.86,0,0,1,7.219.8Q7.143.747,7.087.7A.076.076,0,0,1,7.063.647.108.108,0,0,1,7.085.579.082.082,0,0,1,7.154.551.091.091,0,0,1,7.2.568a1.323,1.323,0,0,0,.13.083.941.941,0,0,0,.182.076,1.688,1.688,0,0,0,.252.056A2.31,2.31,0,0,0,8.109.806ZM11.476.029a2.225,2.225,0,0,1-.5-.054,1.093,1.093,0,0,1-.413-.186.918.918,0,0,1-.281-.352,1.286,1.286,0,0,1-.1-.551,1.567,1.567,0,0,1,.086-.555.884.884,0,0,1,.252-.368,1.013,1.013,0,0,1,.407-.2,2.2,2.2,0,0,1,.552-.063,3.34,3.34,0,0,1,.533.037,2.144,2.144,0,0,1,.376.092,1.167,1.167,0,0,1,.252.122,1.21,1.21,0,0,1,.157.122V-3.056q0-.038,0-.076a.2.2,0,0,1,.013-.067.112.112,0,0,1,.034-.047.1.1,0,0,1,.066-.018.118.118,0,0,1,.067.016.1.1,0,0,1,.035.042.193.193,0,0,1,.015.063q0,.037,0,.081v2.9a.166.166,0,0,1-.037.126A.116.116,0,0,1,12.914,0a.128.128,0,0,1-.085-.029.159.159,0,0,1-.035-.123V-.56a.515.515,0,0,1-.114.218.768.768,0,0,1-.195.157,1.262,1.262,0,0,1-.248.107,2.066,2.066,0,0,1-.271.066A2.619,2.619,0,0,1,11.7.021Q11.575.029,11.476.029Zm0-.173a3.776,3.776,0,0,0,.384-.028,1.97,1.97,0,0,0,.4-.089,1.134,1.134,0,0,0,.337-.179.566.566,0,0,0,.2-.3V-1.793a1.381,1.381,0,0,0-.171-.111,1.464,1.464,0,0,0-.261-.11,2.3,2.3,0,0,0-.375-.083,3.546,3.546,0,0,0-.511-.032,1.735,1.735,0,0,0-.482.059.791.791,0,0,0-.331.183.729.729,0,0,0-.19.316,1.545,1.545,0,0,0-.06.458,1.135,1.135,0,0,0,.083.464.763.763,0,0,0,.227.3.9.9,0,0,0,.338.16A1.717,1.717,0,0,0,11.476-.144Zm3.5.173a2.225,2.225,0,0,1-.5-.054,1.093,1.093,0,0,1-.413-.186.918.918,0,0,1-.281-.352,1.286,1.286,0,0,1-.1-.551,1.567,1.567,0,0,1,.086-.555.884.884,0,0,1,.252-.368,1.013,1.013,0,0,1,.407-.2,2.2,2.2,0,0,1,.552-.063,3.34,3.34,0,0,1,.533.037,2.144,2.144,0,0,1,.376.092,1.167,1.167,0,0,1,.252.122,1.21,1.21,0,0,1,.157.122V-3.056q0-.038,0-.076a.2.2,0,0,1,.013-.067.112.112,0,0,1,.034-.047.1.1,0,0,1,.066-.018.118.118,0,0,1,.067.016.1.1,0,0,1,.035.042.193.193,0,0,1,.015.063q0,.037,0,.081v2.9a.166.166,0,0,1-.037.126A.116.116,0,0,1,16.416,0a.128.128,0,0,1-.085-.029A.159.159,0,0,1,16.3-.152V-.56a.515.515,0,0,1-.114.218.768.768,0,0,1-.195.157,1.262,1.262,0,0,1-.248.107,2.066,2.066,0,0,1-.271.066A2.619,2.619,0,0,1,15.2.021Q15.077.029,14.978.029Zm0-.173a3.776,3.776,0,0,0,.384-.028,1.97,1.97,0,0,0,.4-.089A1.134,1.134,0,0,0,16.1-.439a.566.566,0,0,0,.2-.3V-1.793a1.381,1.381,0,0,0-.171-.111,1.464,1.464,0,0,0-.261-.11,2.3,2.3,0,0,0-.375-.083,3.546,3.546,0,0,0-.511-.032,1.735,1.735,0,0,0-.482.059.791.791,0,0,0-.331.183.729.729,0,0,0-.19.316,1.545,1.545,0,0,0-.06.458A1.135,1.135,0,0,0,14-.649a.763.763,0,0,0,.227.3.9.9,0,0,0,.338.16A1.717,1.717,0,0,0,14.978-.144Zm2.646-.513a.387.387,0,0,0,.072.237.525.525,0,0,0,.2.158,1.11,1.11,0,0,0,.306.089,2.51,2.51,0,0,0,.388.028,2.548,2.548,0,0,0,.457-.037A2.084,2.084,0,0,0,19.4-.272a1.319,1.319,0,0,0,.252-.122,1.279,1.279,0,0,0,.17-.127V-1.11q-.293-.041-.606-.078a5.449,5.449,0,0,0-.633-.037,2.76,2.76,0,0,0-.4.026.946.946,0,0,0-.3.091.457.457,0,0,0-.187.174A.54.54,0,0,0,17.623-.656ZM18.868-2.13q-.281,0-.48.015t-.341.038a2.432,2.432,0,0,0-.239.05q-.1.026-.17.053a.084.084,0,0,1-.064-.035.117.117,0,0,1-.029-.076.058.058,0,0,1,.035-.056.92.92,0,0,1,.11-.038,2.2,2.2,0,0,1,.243-.054q.157-.028.39-.048t.549-.021a2.293,2.293,0,0,1,.3.019,1.21,1.21,0,0,1,.277.069.939.939,0,0,1,.243.138.776.776,0,0,1,.193.227,1.244,1.244,0,0,1,.127.337,2.031,2.031,0,0,1,.047.464v.844q0,.035,0,.07a.211.211,0,0,1-.016.066A.127.127,0,0,1,20-.019.1.1,0,0,1,19.935,0a.092.092,0,0,1-.092-.062.417.417,0,0,1-.025-.155v-.2a1.118,1.118,0,0,1-.152.152,1.039,1.039,0,0,1-.237.145,1.65,1.65,0,0,1-.343.108,2.288,2.288,0,0,1-.472.042,2.86,2.86,0,0,1-.479-.038,1.406,1.406,0,0,1-.39-.12.7.7,0,0,1-.261-.212.519.519,0,0,1-.1-.315.657.657,0,0,1,.089-.356.659.659,0,0,1,.248-.229,1.165,1.165,0,0,1,.371-.122,2.811,2.811,0,0,1,.458-.035q.185,0,.371.013t.353.038a2.87,2.87,0,0,1,.306.062,1.093,1.093,0,0,1,.233.086,1.22,1.22,0,0,0-.079-.48.7.7,0,0,0-.211-.283.719.719,0,0,0-.3-.135A1.842,1.842,0,0,0,18.868-2.13Z" transform="translate(5.033 133.994)" fill="#1d1d1b"/>
  <path id="Path_645" data-name="Path 645" d="M.546-3.689a1.243,1.243,0,0,1,.343-.98A1.671,1.671,0,0,1,2-4.97a1.294,1.294,0,0,1,.868.28,1.609,1.609,0,0,1,.476.854l-.651.49H2.352l.756-.567a1.2,1.2,0,0,0-.424-.658A1.181,1.181,0,0,0,2-4.76a2.7,2.7,0,0,0-.473.035,1.338,1.338,0,0,0-.385.136.644.644,0,0,0-.29.326,1.442,1.442,0,0,0-.1.574.7.7,0,0,0,.283.546,2.624,2.624,0,0,0,.689.406q.406.168.815.343a2.276,2.276,0,0,1,.693.448.85.85,0,0,1,.284.63A1.41,1.41,0,0,1,3.174-.273,1.657,1.657,0,0,1,1.988.07,1.843,1.843,0,0,1,.91-.206a1.429,1.429,0,0,1-.539-.858l.2-.084a1.244,1.244,0,0,0,.479.787,1.719,1.719,0,0,0,.942.221,1.589,1.589,0,0,0,1-.259,1.112,1.112,0,0,0,.326-.917.7.7,0,0,0-.283-.546,2.609,2.609,0,0,0-.693-.406q-.41-.168-.816-.343A2.287,2.287,0,0,1,.83-3.059.85.85,0,0,1,.546-3.689ZM4.83-4.9V0H4.62V-4.9Zm2.877,0L5.355-2.562,7.931,0h-.3L5.054-2.562,7.406-4.9Zm1.162,0H11.7L9.954-2.1V0h-.21V-2.1L7.994-4.9h.245l1.61,2.569L11.326-4.69H8.869ZM13.125,0h-.672V-4.9h.672a2.259,2.259,0,0,1,1.708.742,2.416,2.416,0,0,1,.7,1.708,2.416,2.416,0,0,1-.7,1.708A2.259,2.259,0,0,1,13.125,0Zm0-.21a2.066,2.066,0,0,0,1.557-.675,2.205,2.205,0,0,0,.641-1.565,2.205,2.205,0,0,0-.641-1.564,2.066,2.066,0,0,0-1.557-.676h-.462V-.21ZM17.276,0H16.6V-4.9h.672a2.259,2.259,0,0,1,1.708.742,2.416,2.416,0,0,1,.7,1.708,2.416,2.416,0,0,1-.7,1.708A2.259,2.259,0,0,1,17.276,0Zm0-.21a2.066,2.066,0,0,0,1.557-.675,2.205,2.205,0,0,0,.641-1.565,2.205,2.205,0,0,0-.641-1.564,2.066,2.066,0,0,0-1.557-.676h-.462V-.21Zm3.6,0h2.576L21.973-4.291,20.412,0h-.224l1.785-4.907L23.758,0H20.881Z" transform="translate(5.172 151.129)" fill="#1d1d1b"/>
  <path id="Path_646" data-name="Path 646" d="M2.961-4.9v.616H1.722q-.707,0-.707.574a.621.621,0,0,0,.312.521,3.9,3.9,0,0,0,.844.409,3.076,3.076,0,0,1,.406.186,1.828,1.828,0,0,1,.336.248.947.947,0,0,1,.252.4,1.691,1.691,0,0,1,.084.556A1.314,1.314,0,0,1,3.1-.766a1.187,1.187,0,0,1-.378.434,1.912,1.912,0,0,1-.473.238,1.649,1.649,0,0,1-.472.088Q1.68,0,1.5,0H.406V-.616H1.477a1.381,1.381,0,0,0,.777-.2.657.657,0,0,0,.3-.585.646.646,0,0,0-.084-.333.764.764,0,0,0-.241-.248,2.462,2.462,0,0,0-.322-.182q-.165-.077-.4-.161l-.1-.035a1.441,1.441,0,0,1-1.1-1.372,1.038,1.038,0,0,1,.378-.878A1.575,1.575,0,0,1,1.68-4.9ZM7.014-.875V0H6.342V-.875A1.487,1.487,0,0,0,6-1.992a1.99,1.99,0,0,0-1.319-.332V0H4.018V-4.9h.658v2q.518.014.616.028L6.279-4.9h.714L5.887-2.723A1.749,1.749,0,0,1,7.014-.875ZM10.85-4.9v.35a3.781,3.781,0,0,1-.319,1.564A2.353,2.353,0,0,1,9.6-1.9V0H8.946V-1.89a2.383,2.383,0,0,1-.938-1.06,3.552,3.552,0,0,1-.329-1.536V-4.9h.672v.35a3.315,3.315,0,0,0,.207,1.235,1.784,1.784,0,0,0,.717.844,2.308,2.308,0,0,0,.917-2.079V-4.9Zm4.172,2.45a2.469,2.469,0,0,1-.647,1.81A2.389,2.389,0,0,1,12.607,0h-.952V-4.9h.952a2.389,2.389,0,0,1,1.767.641A2.469,2.469,0,0,1,15.022-2.45ZM12.691-.616a1.447,1.447,0,0,0,1.194-.515,2.091,2.091,0,0,0,.43-1.319,2.091,2.091,0,0,0-.43-1.319,1.447,1.447,0,0,0-1.194-.514h-.378V-.616ZM19.3-2.45a2.469,2.469,0,0,1-.647,1.81A2.389,2.389,0,0,1,16.884,0h-.952V-4.9h.952a2.389,2.389,0,0,1,1.767.641A2.469,2.469,0,0,1,19.3-2.45ZM16.968-.616a1.447,1.447,0,0,0,1.194-.515,2.091,2.091,0,0,0,.431-1.319,2.091,2.091,0,0,0-.431-1.319,1.447,1.447,0,0,0-1.194-.514H16.59V-.616ZM20.762,0h-.623V-3.08a1.841,1.841,0,0,1,.486-1.288A1.625,1.625,0,0,1,21.882-4.9h1.6V0h-.658V-4.284h-.945a1.109,1.109,0,0,0-.816.3,1.3,1.3,0,0,0-.3.959v.6a1.471,1.471,0,0,1,1.12-.413h.637v.616h-.637a1.875,1.875,0,0,0-.662.1,1.139,1.139,0,0,0-.458.336Z" transform="translate(5.06 168.986)" fill="#1d1d1b"/>
  <path id="Path_647" data-name="Path 647" d="M2.94-.49A.472.472,0,0,1,2.8-.144.472.472,0,0,1,2.45,0H.49V-.49H2.38v-.98H.98a.472.472,0,0,1-.347-.144A.472.472,0,0,1,.49-1.96v-.98a.472.472,0,0,1,.143-.347A.472.472,0,0,1,.98-3.43H2.94v.49H1.05v.98h1.4a.472.472,0,0,1,.347.144.472.472,0,0,1,.143.347ZM7.175-3.43,5.621-1.981v.07H6.51a.472.472,0,0,1,.346.144A.472.472,0,0,1,7-1.421V0H6.44V-1.47H4.62V0H4.06V-3.43h.56v1.869L6.482-3.43ZM10.92-1.47a.472.472,0,0,1-.144.346.472.472,0,0,1-.347.143h-.7V0H9.17V-.98h-.7a.472.472,0,0,1-.346-.143A.472.472,0,0,1,7.98-1.47V-3.43h.56v1.96h1.82V-3.43h.56Zm4.06.98a.47.47,0,0,1-.147.343A.47.47,0,0,1,14.49,0H12.04V-2.45l.49-.49h-.49v-.49h2.45a.47.47,0,0,1,.343.147.47.47,0,0,1,.147.343Zm-.56,0V-2.94H12.6V-.07l.42-.42Zm4.725,0A.47.47,0,0,1,19-.147.47.47,0,0,1,18.655,0H16.2V-2.45l.49-.49H16.2v-.49h2.45A.47.47,0,0,1,19-3.283a.47.47,0,0,1,.147.343Zm-.56,0V-2.94h-1.82V-.07l.42-.42ZM23.31,0h-.56V-.98H20.93V0h-.56V-2.94a.472.472,0,0,1,.144-.347.472.472,0,0,1,.347-.144h2.45Zm-.56-1.47V-2.94H20.93v1.89l.42-.42Z" transform="translate(5.103 183.93)" fill="#1d1d1b"/>
</svg>
