<svg xmlns="http://www.w3.org/2000/svg" width="51.002" height="25.906" viewBox="0 0 51.002 25.906">
  <path id="Path_648" data-name="Path 648" d="M28.147,0h-4.7V-6.359H6.938V0H2.24V-12.954a13.66,13.66,0,0,1,.976-5.221,12.185,12.185,0,0,1,2.71-4.1,12.337,12.337,0,0,1,4.1-2.674,13.65,13.65,0,0,1,5.167-.958H25.781a2.371,2.371,0,0,1,.921.181,2.328,2.328,0,0,1,.759.506,2.328,2.328,0,0,1,.506.759,2.371,2.371,0,0,1,.181.921ZM6.938-11.057H23.45V-21.21H15.194q-.217,0-.912.063a9.269,9.269,0,0,0-1.608.316,10.061,10.061,0,0,0-1.924.777,6.758,6.758,0,0,0-1.861,1.445,7.4,7.4,0,0,0-1.4,2.3,9.06,9.06,0,0,0-.551,3.351Zm46.3,4.589a7.263,7.263,0,0,1-.343,2.1,6.29,6.29,0,0,1-1.111,2.1A6.2,6.2,0,0,1,49.782-.65,6.4,6.4,0,0,1,46.774,0H38.3a7.262,7.262,0,0,1-2.1-.343,6.29,6.29,0,0,1-2.1-1.111A6.2,6.2,0,0,1,32.483-3.46a6.4,6.4,0,0,1-.65-3.008,7.352,7.352,0,0,1,.343-2.114,6.273,6.273,0,0,1,1.111-2.1A6.2,6.2,0,0,1,35.293-12.3a6.4,6.4,0,0,1,3.008-.65h8.473v4.48H38.3a1.882,1.882,0,0,0-1.481.587A2.1,2.1,0,0,0,36.3-6.432,1.784,1.784,0,0,0,36.9-5a2.145,2.145,0,0,0,1.436.515h8.437a1.9,1.9,0,0,0,1.481-.578A2.071,2.071,0,0,0,48.779-6.5v-6.558a1.925,1.925,0,0,0-.569-1.463,2,2,0,0,0-1.436-.542H36.458V-19.53H46.774a7.262,7.262,0,0,1,2.1.343,6.29,6.29,0,0,1,2.1,1.111,6.2,6.2,0,0,1,1.617,2.005,6.4,6.4,0,0,1,.65,3.008Z" transform="translate(-2.24 25.906)"/>
</svg>
