<svg xmlns="http://www.w3.org/2000/svg" width="38.114" height="25.131" viewBox="0 0 38.114 25.131">
  <path id="Path_649" data-name="Path 649" d="M21.805,0H16.73l-1.4-4.305H6.965L5.6,0H.525l7.98-22.82a3.878,3.878,0,0,1,1.172-1.645,2.7,2.7,0,0,1,1.592-.455,2.53,2.53,0,0,1,1.523.42,3.547,3.547,0,0,1,1.033,1.68Zm-7.6-8.4-2.94-9.87L8.19-8.4ZM38.64,0H35.6l-1.4-2.415L29.33.21q-4.06,0-5.46-2.94a10.9,10.9,0,0,1-.962-3.1,22.2,22.2,0,0,1-.262-3.465q0-1.8.035-2.66t.175-1.995a9.662,9.662,0,0,1,.4-1.908,8.473,8.473,0,0,1,.753-1.592A4.186,4.186,0,0,1,25.2-18.76,7.075,7.075,0,0,1,29.3-19.845h4.8l4.55-.28ZM34.09-6.37v-9.38H30.625a2.744,2.744,0,0,0-2.677,1.47,9.975,9.975,0,0,0-.753,4.392,8.5,8.5,0,0,0,.718,4.112,2.9,2.9,0,0,0,2.712,1.19Z" transform="translate(-0.525 24.92)"/>
</svg>
