<svg xmlns="http://www.w3.org/2000/svg" xmlns:xlink="http://www.w3.org/1999/xlink" width="560.819" height="70.25" viewBox="0 0 560.819 70.25">
  <defs>
    <linearGradient id="linear-gradient" y1="0.5" x2="1" y2="0.5" gradientUnits="objectBoundingBox">
      <stop offset="0" stop-color="#a2f0f7"/>
      <stop offset="1" stop-color="#9fefe1"/>
    </linearGradient>
  </defs>
  <g id="Group_501" data-name="Group 501" transform="translate(-93 -1410.75)">
    <path id="Path_174" data-name="Path 174" d="M.719,0V-5.687H2.4a2.187,2.187,0,0,1,1.387.377A1.336,1.336,0,0,1,4.258-4.2a1.259,1.259,0,0,1-.24.768,1.312,1.312,0,0,1-.658.467,1.366,1.366,0,0,1,.8.488,1.362,1.362,0,0,1,.3.875A1.48,1.48,0,0,1,3.975-.424,1.993,1.993,0,0,1,2.621,0ZM1.2-2.734V-.406H2.641a1.439,1.439,0,0,0,.979-.314,1.1,1.1,0,0,0,.361-.873,1.058,1.058,0,0,0-.346-.834,1.389,1.389,0,0,0-.955-.307Zm0-.4H2.512a1.476,1.476,0,0,0,.932-.283.965.965,0,0,0,.33-.791.948.948,0,0,0-.342-.807A1.7,1.7,0,0,0,2.4-5.277H1.2ZM6.035,0H5.566V-6h.469ZM9.973,0a2.211,2.211,0,0,1-.09-.59A1.63,1.63,0,0,1,9.256-.1a1.92,1.92,0,0,1-.807.174,1.417,1.417,0,0,1-.986-.34,1.107,1.107,0,0,1-.377-.859A1.131,1.131,0,0,1,7.6-2.1a2.468,2.468,0,0,1,1.432-.359h.848v-.48A.926.926,0,0,0,9.6-3.65a1.154,1.154,0,0,0-.814-.26,1.275,1.275,0,0,0-.809.25.743.743,0,0,0-.32.6l-.469,0a1.087,1.087,0,0,1,.469-.873A1.8,1.8,0,0,1,8.809-4.3a1.646,1.646,0,0,1,1.115.354,1.268,1.268,0,0,1,.42.986v2a2.481,2.481,0,0,0,.129.918V0ZM8.5-.336a1.569,1.569,0,0,0,.838-.227,1.333,1.333,0,0,0,.537-.605V-2.1H9.043a2.1,2.1,0,0,0-1.094.256.768.768,0,0,0-.395.682.756.756,0,0,0,.264.59A.993.993,0,0,0,8.5-.336Zm4.648.02a1.234,1.234,0,0,0,.818-.275.969.969,0,0,0,.357-.713h.449a1.323,1.323,0,0,1-.242.705,1.517,1.517,0,0,1-.592.5,1.784,1.784,0,0,1-.791.18A1.633,1.633,0,0,1,11.834-.5a2.337,2.337,0,0,1-.486-1.555V-2.2A2.642,2.642,0,0,1,11.566-3.3a1.686,1.686,0,0,1,.627-.742,1.731,1.731,0,0,1,.955-.262,1.63,1.63,0,0,1,1.146.414,1.51,1.51,0,0,1,.482,1.09h-.449a1.149,1.149,0,0,0-.357-.8,1.157,1.157,0,0,0-.822-.3,1.165,1.165,0,0,0-.982.457,2.068,2.068,0,0,0-.35,1.281v.137a2.022,2.022,0,0,0,.35,1.262A1.173,1.173,0,0,0,13.152-.316Zm3.563-1.812-.535.516V0h-.469V-6h.469v3.84l.441-.477,1.617-1.59h.59L17.035-2.445,18.984,0h-.559ZM2.941,7.4H1.715L1.414,9H1.027l.3-1.6h-1V7.035H1.395l.324-1.723H.629V4.938h1.16L2.1,3.313h.387L2.176,4.938h1.23l.309-1.625h.391L3.8,4.938h.895v.375H3.727L3.4,7.035h1V7.4H3.332L3.031,9H2.641Zm-1.16-.363h1.23l.324-1.723H2.105Zm6.836-.406a3.148,3.148,0,0,1-.441,1.826,1.492,1.492,0,0,1-1.3.623,1.507,1.507,0,0,1-1.293-.611,3.031,3.031,0,0,1-.461-1.779V5.668a3.09,3.09,0,0,1,.445-1.816,1.5,1.5,0,0,1,1.3-.617,1.511,1.511,0,0,1,1.289.6,2.977,2.977,0,0,1,.461,1.756Zm-.469-1.02A2.776,2.776,0,0,0,7.83,4.133a1.064,1.064,0,0,0-.963-.5,1.065,1.065,0,0,0-.953.488,2.686,2.686,0,0,0-.328,1.441V6.68a2.771,2.771,0,0,0,.33,1.488,1.07,1.07,0,0,0,.959.516,1.054,1.054,0,0,0,.947-.5A2.782,2.782,0,0,0,8.148,6.7Zm4.9,1.02a3.148,3.148,0,0,1-.441,1.826,1.492,1.492,0,0,1-1.3.623,1.507,1.507,0,0,1-1.293-.611,3.031,3.031,0,0,1-.461-1.779V5.668A3.09,3.09,0,0,1,10,3.852a1.5,1.5,0,0,1,1.3-.617,1.511,1.511,0,0,1,1.289.6,2.977,2.977,0,0,1,.461,1.756Zm-.469-1.02a2.776,2.776,0,0,0-.318-1.477,1.064,1.064,0,0,0-.963-.5,1.065,1.065,0,0,0-.953.488,2.686,2.686,0,0,0-.328,1.441V6.68a2.771,2.771,0,0,0,.33,1.488,1.07,1.07,0,0,0,.959.516,1.054,1.054,0,0,0,.947-.5A2.782,2.782,0,0,0,12.582,6.7Zm4.9,1.02a3.148,3.148,0,0,1-.441,1.826,1.492,1.492,0,0,1-1.3.623,1.507,1.507,0,0,1-1.293-.611,3.031,3.031,0,0,1-.461-1.779V5.668a3.09,3.09,0,0,1,.445-1.816,1.5,1.5,0,0,1,1.3-.617,1.511,1.511,0,0,1,1.289.6,2.977,2.977,0,0,1,.461,1.756Zm-.469-1.02A2.776,2.776,0,0,0,16.7,4.133a1.176,1.176,0,0,0-1.916-.012,2.686,2.686,0,0,0-.328,1.441V6.68a2.771,2.771,0,0,0,.33,1.488,1.07,1.07,0,0,0,.959.516,1.054,1.054,0,0,0,.947-.5A2.782,2.782,0,0,0,17.016,6.7Zm4.9,1.02a3.148,3.148,0,0,1-.441,1.826,1.671,1.671,0,0,1-2.594.012,3.031,3.031,0,0,1-.461-1.779V5.668a3.09,3.09,0,0,1,.445-1.816,1.686,1.686,0,0,1,2.59-.021,2.977,2.977,0,0,1,.461,1.756Zm-.469-1.02a2.776,2.776,0,0,0-.318-1.477,1.176,1.176,0,0,0-1.916-.012,2.686,2.686,0,0,0-.328,1.441V6.68a2.771,2.771,0,0,0,.33,1.488,1.07,1.07,0,0,0,.959.516,1.054,1.054,0,0,0,.947-.5A2.782,2.782,0,0,0,21.449,6.7Zm4.9,1.02a3.148,3.148,0,0,1-.441,1.826,1.671,1.671,0,0,1-2.594.012,3.031,3.031,0,0,1-.461-1.779V5.668A3.09,3.09,0,0,1,23.3,3.852a1.686,1.686,0,0,1,2.59-.021,2.977,2.977,0,0,1,.461,1.756Zm-.469-1.02a2.776,2.776,0,0,0-.318-1.477,1.176,1.176,0,0,0-1.916-.012,2.686,2.686,0,0,0-.328,1.441V6.68a2.771,2.771,0,0,0,.33,1.488,1.07,1.07,0,0,0,.959.516,1.054,1.054,0,0,0,.947-.5A2.782,2.782,0,0,0,25.883,6.7Zm4.9,1.02a3.148,3.148,0,0,1-.441,1.826,1.671,1.671,0,0,1-2.594.012,3.031,3.031,0,0,1-.461-1.779V5.668a3.09,3.09,0,0,1,.445-1.816,1.686,1.686,0,0,1,2.59-.021,2.977,2.977,0,0,1,.461,1.756Zm-.469-1.02A2.776,2.776,0,0,0,30,4.133a1.176,1.176,0,0,0-1.916-.012,2.686,2.686,0,0,0-.328,1.441V6.68a2.771,2.771,0,0,0,.33,1.488,1.07,1.07,0,0,0,.959.516,1.054,1.054,0,0,0,.947-.5A2.782,2.782,0,0,0,30.316,6.7Z" transform="translate(93 1417)"/>
    <path id="Path_175" data-name="Path 175" d="M1.548-1.343,1.7-.571l.188-.738L2.97-4.977H3.35L4.416-1.309,4.6-.564l.164-.779.9-3.633h.431L4.819,0h-.4L3.288-3.893l-.126-.492-.123.492L1.883,0h-.4L.208-4.977H.639ZM7.215-3.073a1.444,1.444,0,0,1,.516-.513,1.352,1.352,0,0,1,.687-.181,1.109,1.109,0,0,1,.885.335,1.511,1.511,0,0,1,.294,1V0H9.191V-2.43a1.13,1.13,0,0,0-.21-.738.823.823,0,0,0-.661-.243,1.035,1.035,0,0,0-.672.238,1.392,1.392,0,0,0-.432.641V0H6.809V-5.25h.407ZM11.108,0H10.7V-3.7h.41Zm-.482-4.768a.277.277,0,0,1,.075-.2.267.267,0,0,1,.205-.08.273.273,0,0,1,.207.08.273.273,0,0,1,.077.2.268.268,0,0,1-.077.195.276.276,0,0,1-.207.079.27.27,0,0,1-.205-.079A.271.271,0,0,1,10.626-4.768Zm2.229.123V-3.7h.766v.335h-.766V-.9a.771.771,0,0,0,.111.458.431.431,0,0,0,.371.15,2.545,2.545,0,0,0,.332-.034l.017.335a1.326,1.326,0,0,1-.437.058.729.729,0,0,1-.612-.244A1.15,1.15,0,0,1,12.445-.9V-3.363h-.68V-3.7h.68v-.947ZM15.9.068a1.605,1.605,0,0,1-.853-.232,1.584,1.584,0,0,1-.593-.648,2.019,2.019,0,0,1-.212-.931V-1.89a2.176,2.176,0,0,1,.207-.96,1.645,1.645,0,0,1,.576-.672,1.421,1.421,0,0,1,.8-.244,1.335,1.335,0,0,1,1.068.46,1.865,1.865,0,0,1,.395,1.256v.229H14.649v.079A1.549,1.549,0,0,0,15.01-.7a1.147,1.147,0,0,0,.907.419A1.333,1.333,0,0,0,16.5-.4a1.285,1.285,0,0,0,.456-.383l.256.195A1.492,1.492,0,0,1,15.9.068Zm-.075-3.486a1.022,1.022,0,0,0-.778.338,1.563,1.563,0,0,0-.385.909h2.218v-.044a1.357,1.357,0,0,0-.3-.868A.943.943,0,0,0,15.825-3.418ZM2.574,6.6H1.5L1.237,8H.9l.263-1.4H.291V6.281h.93L1.5,4.773H.55V4.445H1.565l.27-1.422h.338L1.9,4.445H2.98l.27-1.422h.342l-.27,1.422H4.1v.328H3.261L2.977,6.281h.872V6.6H2.916L2.652,8H2.311ZM1.559,6.281H2.635l.284-1.507H1.842Zm5.882-.6H5.12V8H4.7V3.023H7.783v.359H5.12V5.317H7.441Zm3.938,0H9.058V8h-.42V3.023H11.72v.359H9.058V5.317h2.321Zm3.938,0H13V8h-.42V3.023h3.083v.359H13V5.317h2.321Zm3.938,0H16.933V8h-.42V3.023H19.6v.359H16.933V5.317h2.321Zm3.938,0H20.87V8h-.42V3.023h3.083v.359H20.87V5.317h2.321Zm3.938,0H24.808V8h-.42V3.023H27.47v.359H24.808V5.317h2.321Z" transform="translate(156 1416)"/>
    <path id="Path_176" data-name="Path 176" d="M4.824-.676a1.61,1.61,0,0,1-.783.555,3.389,3.389,0,0,1-1.193.2A2.216,2.216,0,0,1,1.66-.242a2.132,2.132,0,0,1-.8-.906A3.071,3.071,0,0,1,.566-2.492v-.719a2.747,2.747,0,0,1,.6-1.869A2.022,2.022,0,0,1,2.77-5.766a2.133,2.133,0,0,1,1.414.447A1.846,1.846,0,0,1,4.82-4.086H4.34a1.469,1.469,0,0,0-.51-.947,1.644,1.644,0,0,0-1.057-.322,1.546,1.546,0,0,0-1.262.566,2.454,2.454,0,0,0-.465,1.6v.672a2.805,2.805,0,0,0,.221,1.146A1.749,1.749,0,0,0,1.9-.6a1.674,1.674,0,0,0,.947.273,2.644,2.644,0,0,0,1.066-.2,1.149,1.149,0,0,0,.43-.3V-2.293H2.816V-2.7H4.824ZM8.031-3.828a1.746,1.746,0,0,0-.316-.027,1.142,1.142,0,0,0-.74.244,1.337,1.337,0,0,0-.432.709V0H6.078V-4.227h.457l.008.672A1.243,1.243,0,0,1,7.734-4.3a.769.769,0,0,1,.309.051ZM10.406.078a1.835,1.835,0,0,1-.975-.266,1.81,1.81,0,0,1-.678-.74,2.308,2.308,0,0,1-.242-1.064V-2.16a2.487,2.487,0,0,1,.236-1.1,1.88,1.88,0,0,1,.658-.768A1.624,1.624,0,0,1,10.32-4.3a1.526,1.526,0,0,1,1.221.525,2.131,2.131,0,0,1,.451,1.436v.262H8.977v.09a1.77,1.77,0,0,0,.412,1.2,1.311,1.311,0,0,0,1.037.479,1.523,1.523,0,0,0,.662-.137,1.468,1.468,0,0,0,.521-.437l.293.223A1.705,1.705,0,0,1,10.406.078ZM10.32-3.906a1.169,1.169,0,0,0-.889.387A1.787,1.787,0,0,0,8.992-2.48h2.535v-.051a1.551,1.551,0,0,0-.348-.992A1.077,1.077,0,0,0,10.32-3.906ZM14.539.078a1.835,1.835,0,0,1-.975-.266,1.81,1.81,0,0,1-.678-.74,2.308,2.308,0,0,1-.242-1.064V-2.16a2.487,2.487,0,0,1,.236-1.1,1.88,1.88,0,0,1,.658-.768,1.624,1.624,0,0,1,.914-.279,1.526,1.526,0,0,1,1.221.525,2.131,2.131,0,0,1,.451,1.436v.262H13.109v.09a1.77,1.77,0,0,0,.412,1.2,1.311,1.311,0,0,0,1.037.479,1.523,1.523,0,0,0,.662-.137,1.468,1.468,0,0,0,.521-.437l.293.223A1.705,1.705,0,0,1,14.539.078Zm-.086-3.984a1.169,1.169,0,0,0-.889.387,1.787,1.787,0,0,0-.439,1.039H15.66v-.051a1.551,1.551,0,0,0-.348-.992A1.077,1.077,0,0,0,14.453-3.906Zm3.027-.32L17.5-3.5a1.678,1.678,0,0,1,.594-.6,1.543,1.543,0,0,1,.785-.205,1.268,1.268,0,0,1,1.012.383,1.727,1.727,0,0,1,.336,1.148V0h-.465V-2.777a1.291,1.291,0,0,0-.24-.844.941.941,0,0,0-.756-.277,1.182,1.182,0,0,0-.768.271,1.59,1.59,0,0,0-.494.732V0h-.465V-4.227ZM2.941,7.4H1.715L1.414,9H1.027l.3-1.6h-1V7.035H1.395l.324-1.723H.629V4.938h1.16L2.1,3.313h.387L2.176,4.938h1.23l.309-1.625h.391L3.8,4.938h.895v.375H3.727L3.4,7.035h1V7.4H3.332L3.031,9H2.641Zm-1.16-.363h1.23l.324-1.723H2.105Zm6.277.133h.887v.395H8.059V9H7.59V7.563H4.914V7.3L7.547,3.313h.512Zm-2.57,0h2.1V3.918l-.207.359ZM9.8,9V3.313h1.68a2.187,2.187,0,0,1,1.387.377A1.336,1.336,0,0,1,13.344,4.8a1.259,1.259,0,0,1-.24.768,1.312,1.312,0,0,1-.658.467,1.378,1.378,0,0,1,1.1,1.363,1.48,1.48,0,0,1-.486,1.178A1.993,1.993,0,0,1,11.707,9Zm.48-2.734V8.594h1.441a1.439,1.439,0,0,0,.979-.314,1.1,1.1,0,0,0,.361-.873,1.058,1.058,0,0,0-.346-.834,1.389,1.389,0,0,0-.955-.307Zm0-.4H11.6a1.476,1.476,0,0,0,.932-.283.965.965,0,0,0,.33-.791.948.948,0,0,0-.342-.807,1.7,1.7,0,0,0-1.033-.26h-1.2Zm7.563.41h-2.66v2.32h3.059V9H14.707V3.313h3.52v.41H15.188V5.867h2.66ZM22.637,9H19.074V8.641L21.023,6.43a5.116,5.116,0,0,0,.672-.922,1.537,1.537,0,0,0,.188-.707,1.149,1.149,0,0,0-.316-.854,1.181,1.181,0,0,0-.871-.314A1.229,1.229,0,0,0,19.768,4a1.317,1.317,0,0,0-.354.953h-.465a1.787,1.787,0,0,1,.217-.875,1.56,1.56,0,0,1,.617-.619,1.832,1.832,0,0,1,.912-.225,1.72,1.72,0,0,1,1.221.41,1.454,1.454,0,0,1,.439,1.117,1.9,1.9,0,0,1-.248.871,6.475,6.475,0,0,1-.873,1.18L19.648,8.605h2.988Zm1.055,0V3.313h1.68a2.187,2.187,0,0,1,1.387.377A1.336,1.336,0,0,1,27.23,4.8a1.259,1.259,0,0,1-.24.768,1.312,1.312,0,0,1-.658.467,1.378,1.378,0,0,1,1.1,1.363,1.48,1.48,0,0,1-.486,1.178A1.993,1.993,0,0,1,25.594,9Zm.48-2.734V8.594h1.441a1.439,1.439,0,0,0,.979-.314,1.1,1.1,0,0,0,.361-.873,1.058,1.058,0,0,0-.346-.834,1.389,1.389,0,0,0-.955-.307Zm0-.4h1.313a1.476,1.476,0,0,0,.932-.283.965.965,0,0,0,.33-.791.948.948,0,0,0-.342-.807,1.7,1.7,0,0,0-1.033-.26h-1.2Zm7.555.48H29.074V9h-.48V3.313h3.523v.41H29.074V5.934h2.652Z" transform="translate(220 1417)"/>
    <path id="Path_177" data-name="Path 177" d="M4.006-4.618H2.3V0H1.88V-4.618H.178v-.359H4.006ZM6.768-.468A1.329,1.329,0,0,1,5.588.068a1.144,1.144,0,0,1-.9-.344,1.5,1.5,0,0,1-.314-1.017V-3.7h.407v2.355q0,1.056.854,1.056a1.047,1.047,0,0,0,1.125-.735V-3.7h.41V0h-.4ZM9.943-3.35a1.528,1.528,0,0,0-.277-.024,1,1,0,0,0-.648.214,1.17,1.17,0,0,0-.378.62V0H8.234V-3.7h.4l.007.588a1.088,1.088,0,0,1,1.042-.656.673.673,0,0,1,.27.044Zm.482,1.466a2.226,2.226,0,0,1,.385-1.376,1.247,1.247,0,0,1,1.051-.508A1.291,1.291,0,0,1,13-3.2l.021-.5H13.4v5.12h-.41V-.458a1.35,1.35,0,0,1-1.138.526,1.24,1.24,0,0,1-1.039-.513,2.234,2.234,0,0,1-.39-1.384Zm.414.072a1.923,1.923,0,0,0,.289,1.126.927.927,0,0,0,.8.408,1.11,1.11,0,0,0,1.063-.639V-2.728a1.2,1.2,0,0,0-.426-.511,1.118,1.118,0,0,0-.631-.179.935.935,0,0,0-.807.408A2.059,2.059,0,0,0,10.838-1.812ZM16.871-.468a1.329,1.329,0,0,1-1.179.537,1.144,1.144,0,0,1-.9-.344,1.5,1.5,0,0,1-.314-1.017V-3.7h.407v2.355q0,1.056.854,1.056a1.047,1.047,0,0,0,1.125-.735V-3.7h.41V0h-.4ZM18.112-1.9a2.176,2.176,0,0,1,.207-.96,1.576,1.576,0,0,1,.584-.665,1.574,1.574,0,0,1,.856-.238,1.521,1.521,0,0,1,1.2.518,2,2,0,0,1,.458,1.372v.085a2.2,2.2,0,0,1-.207.966,1.544,1.544,0,0,1-.583.661,1.6,1.6,0,0,1-.858.232,1.523,1.523,0,0,1-1.195-.518,1.991,1.991,0,0,1-.46-1.372Zm.41.113A1.678,1.678,0,0,0,18.865-.7a1.1,1.1,0,0,0,.9.426,1.1,1.1,0,0,0,.9-.426,1.733,1.733,0,0,0,.344-1.123V-1.9a1.881,1.881,0,0,0-.157-.776,1.263,1.263,0,0,0-.441-.545,1.127,1.127,0,0,0-.649-.193,1.093,1.093,0,0,0-.892.429,1.736,1.736,0,0,0-.345,1.123ZM22.716,0h-.41V-3.7h.41Zm-.482-4.768a.277.277,0,0,1,.075-.2.267.267,0,0,1,.205-.08.273.273,0,0,1,.207.08.273.273,0,0,1,.077.2.268.268,0,0,1-.077.195.276.276,0,0,1-.207.079.27.27,0,0,1-.205-.079A.271.271,0,0,1,22.234-4.768ZM26.042-.94a.583.583,0,0,0-.244-.489,1.885,1.885,0,0,0-.737-.289,3.323,3.323,0,0,1-.764-.239,1.018,1.018,0,0,1-.4-.33.823.823,0,0,1-.132-.472.88.88,0,0,1,.366-.723,1.477,1.477,0,0,1,.937-.285,1.52,1.52,0,0,1,.993.306.982.982,0,0,1,.374.8h-.41a.662.662,0,0,0-.272-.54,1.069,1.069,0,0,0-.685-.215,1.07,1.07,0,0,0-.648.179.554.554,0,0,0-.244.467.5.5,0,0,0,.2.429,2.151,2.151,0,0,0,.742.279,3.486,3.486,0,0,1,.807.27,1.045,1.045,0,0,1,.4.345.884.884,0,0,1,.13.489.886.886,0,0,1-.378.749,1.614,1.614,0,0,1-.986.28A1.657,1.657,0,0,1,24.04-.244a.963.963,0,0,1-.4-.791h.41a.711.711,0,0,0,.3.559,1.236,1.236,0,0,0,.737.2,1.162,1.162,0,0,0,.69-.188A.564.564,0,0,0,26.042-.94ZM28.8.068a1.605,1.605,0,0,1-.853-.232,1.584,1.584,0,0,1-.593-.648,2.019,2.019,0,0,1-.212-.931V-1.89a2.176,2.176,0,0,1,.207-.96,1.645,1.645,0,0,1,.576-.672,1.421,1.421,0,0,1,.8-.244,1.335,1.335,0,0,1,1.068.46,1.865,1.865,0,0,1,.395,1.256v.229H27.552v.079A1.549,1.549,0,0,0,27.913-.7a1.147,1.147,0,0,0,.907.419A1.333,1.333,0,0,0,29.4-.4a1.285,1.285,0,0,0,.456-.383l.256.195A1.492,1.492,0,0,1,28.8.068Zm-.075-3.486a1.022,1.022,0,0,0-.778.338,1.563,1.563,0,0,0-.385.909h2.218v-.044a1.357,1.357,0,0,0-.3-.868A.943.943,0,0,0,28.728-3.418ZM2.574,6.6H1.5L1.237,8H.9l.263-1.4H.291V6.281h.93L1.5,4.773H.55V4.445H1.565l.27-1.422h.338L1.9,4.445H2.98l.27-1.422h.342l-.27,1.422H4.1v.328H3.261L2.977,6.281h.872V6.6H2.916L2.652,8H2.311ZM1.559,6.281H2.635l.284-1.507H1.842ZM7.6,3.259,5.479,8H5.052L7.164,3.372H4.334V3.023H7.6Zm3.879,0L9.358,8H8.931l2.112-4.628H8.213V3.023h3.271Zm3.722,2.355H12.879v2.03h2.676V8h-3.1V3.023h3.08v.359H12.879V5.259h2.328ZM16.44,8V3.023h1.47a1.913,1.913,0,0,1,1.213.33,1.169,1.169,0,0,1,.414.972,1.1,1.1,0,0,1-.21.672,1.148,1.148,0,0,1-.576.408A1.206,1.206,0,0,1,19.715,6.6a1.3,1.3,0,0,1-.426,1.031A1.744,1.744,0,0,1,18.1,8Zm.42-2.393V7.645h1.261a1.259,1.259,0,0,0,.856-.275.959.959,0,0,0,.316-.764.926.926,0,0,0-.3-.73,1.216,1.216,0,0,0-.836-.268Zm0-.352h1.148a1.292,1.292,0,0,0,.815-.248.844.844,0,0,0,.289-.692.83.83,0,0,0-.3-.706,1.486,1.486,0,0,0-.9-.227H16.861Zm6.617.359H21.15v2.03h2.676V8h-3.1V3.023h3.08v.359H21.15V5.259h2.328ZM27.668,8H24.551V7.686l1.706-1.935a4.476,4.476,0,0,0,.588-.807,1.345,1.345,0,0,0,.164-.619,1.006,1.006,0,0,0-.277-.747A1.034,1.034,0,0,0,25.97,3.3a1.076,1.076,0,0,0-.812.321,1.152,1.152,0,0,0-.309.834h-.407a1.563,1.563,0,0,1,.19-.766,1.365,1.365,0,0,1,.54-.542,1.6,1.6,0,0,1,.8-.2,1.5,1.5,0,0,1,1.068.359,1.272,1.272,0,0,1,.385.978,1.659,1.659,0,0,1-.217.762,5.665,5.665,0,0,1-.764,1.032L25.054,7.655h2.615Z" transform="translate(283 1416)"/>
    <path id="Path_178" data-name="Path 178" d="M1.053-.355H3.51V0H.629V-4.977h.424ZM4.679,0h-.41V-3.7h.41ZM4.2-4.768a.277.277,0,0,1,.075-.2.267.267,0,0,1,.205-.08.273.273,0,0,1,.207.08.273.273,0,0,1,.077.2.268.268,0,0,1-.077.195.276.276,0,0,1-.207.079.27.27,0,0,1-.205-.079A.271.271,0,0,1,4.2-4.768ZM5.626-1.883A2.226,2.226,0,0,1,6.01-3.259a1.24,1.24,0,0,1,1.044-.508,1.286,1.286,0,0,1,1.148.6L8.224-3.7h.383V-.075a1.566,1.566,0,0,1-.4,1.131,1.431,1.431,0,0,1-1.083.417A1.646,1.646,0,0,1,6.386,1.3a1.431,1.431,0,0,1-.552-.46L6.063.595A1.3,1.3,0,0,0,7.1,1.128a1.05,1.05,0,0,0,.8-.3,1.205,1.205,0,0,0,.3-.839V-.479A1.322,1.322,0,0,1,7.048.068,1.233,1.233,0,0,1,6.016-.444a2.234,2.234,0,0,1-.39-1.384Zm.414.072A1.929,1.929,0,0,0,6.323-.7a.918.918,0,0,0,.8.408,1.093,1.093,0,0,0,1.07-.677V-2.683a1.167,1.167,0,0,0-.414-.542,1.115,1.115,0,0,0-.649-.186.929.929,0,0,0-.8.405A2.061,2.061,0,0,0,6.04-1.812Zm4.04-1.261a1.444,1.444,0,0,1,.516-.513,1.352,1.352,0,0,1,.687-.181,1.109,1.109,0,0,1,.885.335,1.511,1.511,0,0,1,.294,1V0h-.407V-2.43a1.13,1.13,0,0,0-.21-.738.823.823,0,0,0-.661-.243,1.035,1.035,0,0,0-.672.238,1.392,1.392,0,0,0-.432.641V0H9.673V-5.25h.407ZM14.15-4.645V-3.7h.766v.335H14.15V-.9a.771.771,0,0,0,.111.458.431.431,0,0,0,.371.15,2.545,2.545,0,0,0,.332-.034l.017.335a1.326,1.326,0,0,1-.437.058.729.729,0,0,1-.612-.244A1.15,1.15,0,0,1,13.74-.9V-3.363h-.68V-3.7h.68v-.947ZM17.562,0V-4.977h1.47a1.913,1.913,0,0,1,1.213.33,1.169,1.169,0,0,1,.414.972,1.1,1.1,0,0,1-.21.672,1.148,1.148,0,0,1-.576.408,1.2,1.2,0,0,1,.7.427,1.192,1.192,0,0,1,.265.766A1.3,1.3,0,0,1,20.41-.371,1.744,1.744,0,0,1,19.226,0Zm.42-2.393V-.355h1.261A1.259,1.259,0,0,0,20.1-.631a.959.959,0,0,0,.316-.764.926.926,0,0,0-.3-.73,1.216,1.216,0,0,0-.836-.268Zm0-.352H19.13a1.292,1.292,0,0,0,.815-.248.844.844,0,0,0,.289-.692.83.83,0,0,0-.3-.706,1.486,1.486,0,0,0-.9-.227H17.982ZM22.213,0H21.8V-5.25h.41ZM25.7-.468a1.329,1.329,0,0,1-1.179.537,1.144,1.144,0,0,1-.9-.344,1.5,1.5,0,0,1-.314-1.017V-3.7h.407v2.355q0,1.056.854,1.056A1.047,1.047,0,0,0,25.7-1.022V-3.7h.41V0h-.4Zm2.9.537a1.605,1.605,0,0,1-.853-.232,1.584,1.584,0,0,1-.593-.648,2.019,2.019,0,0,1-.212-.931V-1.89a2.176,2.176,0,0,1,.207-.96,1.645,1.645,0,0,1,.576-.672,1.421,1.421,0,0,1,.8-.244,1.335,1.335,0,0,1,1.068.46,1.865,1.865,0,0,1,.395,1.256v.229H27.351v.079A1.549,1.549,0,0,0,27.711-.7a1.147,1.147,0,0,0,.907.419A1.333,1.333,0,0,0,29.2-.4a1.285,1.285,0,0,0,.456-.383l.256.195A1.492,1.492,0,0,1,28.6.068Zm-.075-3.486a1.022,1.022,0,0,0-.778.338,1.563,1.563,0,0,0-.385.909h2.218v-.044a1.357,1.357,0,0,0-.3-.868A.943.943,0,0,0,28.526-3.418ZM2.574,6.6H1.5L1.237,8H.9l.263-1.4H.291V6.281h.93L1.5,4.773H.55V4.445H1.565l.27-1.422h.338L1.9,4.445H2.98l.27-1.422h.342l-.27,1.422H4.1v.328H3.261L2.977,6.281h.872V6.6H2.916L2.652,8H2.311ZM1.559,6.281H2.635l.284-1.507H1.842ZM7.472,4.305A1.137,1.137,0,0,1,7.246,5a1.313,1.313,0,0,1-.595.449,1.457,1.457,0,0,1,.69.475,1.188,1.188,0,0,1,.26.759,1.269,1.269,0,0,1-.434,1.013,1.7,1.7,0,0,1-1.148.374A1.706,1.706,0,0,1,4.865,7.7a1.27,1.27,0,0,1-.432-1.015,1.223,1.223,0,0,1,.25-.755,1.386,1.386,0,0,1,.684-.479A1.27,1.27,0,0,1,4.778,5a1.161,1.161,0,0,1-.219-.692,1.271,1.271,0,0,1,.4-.984,1.5,1.5,0,0,1,1.054-.366,1.5,1.5,0,0,1,1.058.369A1.268,1.268,0,0,1,7.472,4.305Zm-.28,2.379A.983.983,0,0,0,6.86,5.92a1.217,1.217,0,0,0-.848-.3,1.217,1.217,0,0,0-.844.294.984.984,0,0,0-.328.769.961.961,0,0,0,.318.757,1.251,1.251,0,0,0,.861.282,1.248,1.248,0,0,0,.851-.28A.955.955,0,0,0,7.191,6.684ZM7.062,4.3a.95.95,0,0,0-.3-.713A1.041,1.041,0,0,0,6.012,3.3a1.048,1.048,0,0,0-.754.275A.953.953,0,0,0,4.97,4.3a.913.913,0,0,0,.289.7,1.072,1.072,0,0,0,.757.267A1.071,1.071,0,0,0,6.769,5,.909.909,0,0,0,7.062,4.3ZM11.32,5.676H9V8h-.42V3.023h3.083v.359H9V5.317H11.32Zm3.938,0H12.937V8h-.42V3.023H15.6v.359H12.937V5.317h2.321Zm4.037.25a2.754,2.754,0,0,1-.386,1.6,1.462,1.462,0,0,1-2.27.01,2.652,2.652,0,0,1-.4-1.557V5.084a2.7,2.7,0,0,1,.39-1.589,1.475,1.475,0,0,1,2.266-.019,2.605,2.605,0,0,1,.4,1.536Zm-.41-.892a2.429,2.429,0,0,0-.279-1.292,1.029,1.029,0,0,0-1.677-.01,2.351,2.351,0,0,0-.287,1.261V5.97a2.425,2.425,0,0,0,.289,1.3.936.936,0,0,0,.839.451.922.922,0,0,0,.829-.441,2.435,2.435,0,0,0,.285-1.292Zm4.19.643H20.754V8h-.42V3.023h3.083v.359H20.754V5.317h2.321Zm3.968-1.371A1.137,1.137,0,0,1,26.817,5a1.313,1.313,0,0,1-.595.449,1.457,1.457,0,0,1,.69.475,1.188,1.188,0,0,1,.26.759,1.269,1.269,0,0,1-.434,1.013,1.961,1.961,0,0,1-2.3,0A1.27,1.27,0,0,1,24,6.681a1.223,1.223,0,0,1,.25-.755,1.386,1.386,0,0,1,.684-.479A1.27,1.27,0,0,1,24.35,5a1.161,1.161,0,0,1-.219-.692,1.271,1.271,0,0,1,.4-.984,1.7,1.7,0,0,1,2.112,0A1.268,1.268,0,0,1,27.043,4.305Zm-.28,2.379a.983.983,0,0,0-.332-.764,1.355,1.355,0,0,0-1.692-.005.984.984,0,0,0-.328.769.961.961,0,0,0,.318.757,1.444,1.444,0,0,0,1.712,0A.955.955,0,0,0,26.763,6.684ZM26.633,4.3a.95.95,0,0,0-.3-.713,1.154,1.154,0,0,0-1.507-.01.953.953,0,0,0-.289.723.913.913,0,0,0,.289.7,1.2,1.2,0,0,0,1.511,0A.909.909,0,0,0,26.633,4.3Z" transform="translate(346 1416)"/>
    <path id="Path_179" data-name="Path 179" d="M1.186-4.977,3.021-.584,4.864-4.977h.561V0H5V-2.167l.034-2.222L3.186,0H2.861L1.015-4.372l.034,2.191V0H.629V-4.977ZM8.022.068a1.605,1.605,0,0,1-.853-.232,1.584,1.584,0,0,1-.593-.648,2.019,2.019,0,0,1-.212-.931V-1.89a2.176,2.176,0,0,1,.207-.96,1.645,1.645,0,0,1,.576-.672,1.421,1.421,0,0,1,.8-.244,1.335,1.335,0,0,1,1.068.46A1.865,1.865,0,0,1,9.41-2.051v.229H6.771v.079A1.549,1.549,0,0,0,7.132-.7a1.147,1.147,0,0,0,.907.419A1.333,1.333,0,0,0,8.618-.4a1.285,1.285,0,0,0,.456-.383l.256.195A1.492,1.492,0,0,1,8.022.068ZM7.947-3.418a1.022,1.022,0,0,0-.778.338,1.563,1.563,0,0,0-.385.909H9v-.044a1.357,1.357,0,0,0-.3-.868A.943.943,0,0,0,7.947-3.418Zm2.1,1.535a2.229,2.229,0,0,1,.385-1.372,1.238,1.238,0,0,1,1.044-.511,1.286,1.286,0,0,1,1.142.591V-5.25h.407V0h-.383l-.017-.492a1.321,1.321,0,0,1-1.155.561,1.233,1.233,0,0,1-1.031-.514,2.241,2.241,0,0,1-.391-1.389Zm.414.072A1.929,1.929,0,0,0,10.739-.7a.918.918,0,0,0,.8.408,1.1,1.1,0,0,0,1.073-.667V-2.69a1.093,1.093,0,0,0-1.066-.721.929.929,0,0,0-.8.405A2.061,2.061,0,0,0,10.456-1.812ZM15.894,0V-4.977h1.47a1.913,1.913,0,0,1,1.213.33,1.169,1.169,0,0,1,.414.972A1.1,1.1,0,0,1,18.78-3a1.148,1.148,0,0,1-.576.408,1.2,1.2,0,0,1,.7.427,1.192,1.192,0,0,1,.265.766,1.3,1.3,0,0,1-.426,1.031A1.744,1.744,0,0,1,17.558,0Zm.42-2.393V-.355h1.261a1.259,1.259,0,0,0,.856-.275.959.959,0,0,0,.316-.764.926.926,0,0,0-.3-.73,1.216,1.216,0,0,0-.836-.268Zm0-.352h1.148a1.292,1.292,0,0,0,.815-.248.844.844,0,0,0,.289-.692.83.83,0,0,0-.3-.706,1.486,1.486,0,0,0-.9-.227H16.314ZM20.545,0h-.41V-5.25h.41Zm3.49-.468a1.329,1.329,0,0,1-1.179.537,1.144,1.144,0,0,1-.9-.344,1.5,1.5,0,0,1-.314-1.017V-3.7h.407v2.355q0,1.056.854,1.056a1.047,1.047,0,0,0,1.125-.735V-3.7h.41V0h-.4Zm2.9.537a1.605,1.605,0,0,1-.853-.232,1.584,1.584,0,0,1-.593-.648,2.019,2.019,0,0,1-.212-.931V-1.89a2.176,2.176,0,0,1,.207-.96,1.645,1.645,0,0,1,.576-.672,1.421,1.421,0,0,1,.8-.244,1.335,1.335,0,0,1,1.068.46,1.865,1.865,0,0,1,.395,1.256v.229H25.683v.079A1.549,1.549,0,0,0,26.043-.7a1.147,1.147,0,0,0,.907.419A1.333,1.333,0,0,0,27.53-.4a1.285,1.285,0,0,0,.456-.383l.256.195A1.492,1.492,0,0,1,26.934.068Zm-.075-3.486a1.022,1.022,0,0,0-.778.338,1.563,1.563,0,0,0-.385.909h2.218v-.044a1.357,1.357,0,0,0-.3-.868A.943.943,0,0,0,26.858-3.418ZM2.574,6.6H1.5L1.237,8H.9l.263-1.4H.291V6.281h.93L1.5,4.773H.55V4.445H1.565l.27-1.422h.338L1.9,4.445H2.98l.27-1.422h.342l-.27,1.422H4.1v.328H3.261L2.977,6.281h.872V6.6H2.916L2.652,8H2.311ZM1.559,6.281H2.635l.284-1.507H1.842ZM7.6,3.259,5.479,8H5.052L7.164,3.372H4.334V3.023H7.6Zm3.879,0L9.358,8H8.931l2.112-4.628H8.213V3.023h3.271Zm3.661,3.346H12.886L12.373,8h-.441l1.883-4.977h.4L16.1,8h-.437Zm-2.129-.359h2l-1-2.71ZM19.6,4.305A1.137,1.137,0,0,1,19.376,5a1.313,1.313,0,0,1-.595.449,1.457,1.457,0,0,1,.69.475,1.188,1.188,0,0,1,.26.759A1.269,1.269,0,0,1,19.3,7.694a1.961,1.961,0,0,1-2.3,0,1.27,1.27,0,0,1-.432-1.015,1.223,1.223,0,0,1,.25-.755,1.386,1.386,0,0,1,.684-.479A1.27,1.27,0,0,1,16.909,5a1.161,1.161,0,0,1-.219-.692,1.271,1.271,0,0,1,.4-.984,1.7,1.7,0,0,1,2.112,0A1.268,1.268,0,0,1,19.6,4.305Zm-.28,2.379a.983.983,0,0,0-.332-.764A1.355,1.355,0,0,0,17.3,5.915a.984.984,0,0,0-.328.769.961.961,0,0,0,.318.757,1.444,1.444,0,0,0,1.712,0A.955.955,0,0,0,19.322,6.684ZM19.192,4.3a.95.95,0,0,0-.3-.713,1.154,1.154,0,0,0-1.507-.01A.953.953,0,0,0,17.1,4.3a.913.913,0,0,0,.289.7A1.2,1.2,0,0,0,18.9,5,.909.909,0,0,0,19.192,4.3Zm4.266,1.313H21.13v2.03h2.676V8h-3.1V3.023h3.08v.359H21.13V5.259h2.328ZM24.691,8V3.023h1.47a1.913,1.913,0,0,1,1.213.33,1.169,1.169,0,0,1,.414.972,1.1,1.1,0,0,1-.21.672A1.148,1.148,0,0,1,27,5.406,1.206,1.206,0,0,1,27.966,6.6a1.3,1.3,0,0,1-.426,1.031A1.744,1.744,0,0,1,26.356,8Zm.42-2.393V7.645h1.261a1.259,1.259,0,0,0,.856-.275.959.959,0,0,0,.316-.764.926.926,0,0,0-.3-.73,1.216,1.216,0,0,0-.836-.268Zm0-.352H26.26a1.292,1.292,0,0,0,.815-.248.844.844,0,0,0,.289-.692.83.83,0,0,0-.3-.706,1.486,1.486,0,0,0-.9-.227H25.112Z" transform="translate(409 1416)"/>
    <path id="Path_180" data-name="Path 180" d="M.719,0V-5.687h1.59a2.473,2.473,0,0,1,1.254.318,2.2,2.2,0,0,1,.865.912,2.873,2.873,0,0,1,.311,1.352v.523A2.873,2.873,0,0,1,4.43-1.23a2.2,2.2,0,0,1-.869.91A2.548,2.548,0,0,1,2.273,0ZM1.2-5.277V-.406H2.277A1.856,1.856,0,0,0,3.719-1a2.3,2.3,0,0,0,.543-1.611v-.5a2.247,2.247,0,0,0-.535-1.57,1.825,1.825,0,0,0-1.41-.594ZM8.516,0a2.211,2.211,0,0,1-.09-.59A1.63,1.63,0,0,1,7.8-.1a1.92,1.92,0,0,1-.807.174,1.417,1.417,0,0,1-.986-.34,1.107,1.107,0,0,1-.377-.859A1.131,1.131,0,0,1,6.143-2.1a2.468,2.468,0,0,1,1.432-.359h.848v-.48a.926.926,0,0,0-.279-.713,1.154,1.154,0,0,0-.814-.26,1.275,1.275,0,0,0-.809.25.743.743,0,0,0-.32.6l-.469,0A1.087,1.087,0,0,1,6.2-3.936,1.8,1.8,0,0,1,7.352-4.3a1.646,1.646,0,0,1,1.115.354,1.268,1.268,0,0,1,.42.986v2a2.481,2.481,0,0,0,.129.918V0ZM7.047-.336a1.569,1.569,0,0,0,.838-.227,1.333,1.333,0,0,0,.537-.605V-2.1H7.586a2.1,2.1,0,0,0-1.094.256A.768.768,0,0,0,6.1-1.16a.756.756,0,0,0,.264.59A.993.993,0,0,0,7.047-.336Zm5.039-3.492a1.746,1.746,0,0,0-.316-.027,1.142,1.142,0,0,0-.74.244A1.337,1.337,0,0,0,10.6-2.9V0h-.465V-4.227h.457l.008.672a1.243,1.243,0,0,1,1.191-.75.769.769,0,0,1,.309.051Zm1.742,1.7-.535.516V0h-.469V-6h.469v3.84l.441-.477,1.617-1.59h.59L14.148-2.445,16.1,0h-.559ZM18.8,0V-5.687h1.68a2.187,2.187,0,0,1,1.387.377A1.336,1.336,0,0,1,22.336-4.2a1.259,1.259,0,0,1-.24.768,1.312,1.312,0,0,1-.658.467,1.366,1.366,0,0,1,.8.488,1.362,1.362,0,0,1,.3.875,1.48,1.48,0,0,1-.486,1.178A1.993,1.993,0,0,1,20.7,0Zm.48-2.734V-.406h1.441A1.439,1.439,0,0,0,21.7-.721a1.1,1.1,0,0,0,.361-.873,1.058,1.058,0,0,0-.346-.834,1.389,1.389,0,0,0-.955-.307Zm0-.4H20.59a1.476,1.476,0,0,0,.932-.283.965.965,0,0,0,.33-.791.948.948,0,0,0-.342-.807,1.7,1.7,0,0,0-1.033-.26h-1.2ZM24.113,0h-.469V-6h.469ZM28.1-.535a1.519,1.519,0,0,1-1.348.613,1.308,1.308,0,0,1-1.027-.393,1.719,1.719,0,0,1-.359-1.162v-2.75h.465v2.691q0,1.207.977,1.207a1.2,1.2,0,0,0,1.285-.84V-4.227h.469V0h-.453Zm3.313.613a1.835,1.835,0,0,1-.975-.266,1.81,1.81,0,0,1-.678-.74,2.308,2.308,0,0,1-.242-1.064V-2.16a2.487,2.487,0,0,1,.236-1.1,1.88,1.88,0,0,1,.658-.768,1.624,1.624,0,0,1,.914-.279,1.526,1.526,0,0,1,1.221.525A2.131,2.131,0,0,1,33-2.344v.262H29.984v.09a1.77,1.77,0,0,0,.412,1.2,1.311,1.311,0,0,0,1.037.479A1.523,1.523,0,0,0,32.1-.453a1.468,1.468,0,0,0,.521-.437l.293.223A1.705,1.705,0,0,1,31.414.078Zm-.086-3.984a1.169,1.169,0,0,0-.889.387A1.787,1.787,0,0,0,30-2.48h2.535v-.051a1.551,1.551,0,0,0-.348-.992A1.077,1.077,0,0,0,31.328-3.906ZM2.941,7.4H1.715L1.414,9H1.027l.3-1.6h-1V7.035H1.395l.324-1.723H.629V4.938h1.16L2.1,3.313h.387L2.176,4.938h1.23l.309-1.625h.391L3.8,4.938h.895v.375H3.727L3.4,7.035h1V7.4H3.332L3.031,9H2.641Zm-1.16-.363h1.23l.324-1.723H2.105Zm6.277.133h.887v.395H8.059V9H7.59V7.563H4.914V7.3L7.547,3.313h.512Zm-2.57,0h2.1V3.918l-.207.359Zm7.637-3.586L10.7,9h-.488l2.414-5.289H9.387v-.4h3.738Zm3.688-.312v.41h-.055a2.141,2.141,0,0,0-1.605.6A2.5,2.5,0,0,0,14.5,5.945a1.586,1.586,0,0,1,.6-.5,1.824,1.824,0,0,1,.813-.178,1.491,1.491,0,0,1,1.193.518,2.008,2.008,0,0,1,.443,1.354,2.344,2.344,0,0,1-.207,1,1.577,1.577,0,0,1-1.477.941,1.673,1.673,0,0,1-1.328-.592,2.254,2.254,0,0,1-.512-1.529V6.488a3.605,3.605,0,0,1,.7-2.365A2.462,2.462,0,0,1,16.7,3.27Zm-.973,2.4a1.44,1.44,0,0,0-.83.264,1.265,1.265,0,0,0-.514.67V7a1.859,1.859,0,0,0,.381,1.211,1.216,1.216,0,0,0,.99.469,1.069,1.069,0,0,0,.885-.434,1.726,1.726,0,0,0,.338-1.094,1.632,1.632,0,0,0-.338-1.078A1.125,1.125,0,0,0,15.84,5.668Zm6.078.961a3.148,3.148,0,0,1-.441,1.826,1.671,1.671,0,0,1-2.594.012,3.031,3.031,0,0,1-.461-1.779V5.668a3.09,3.09,0,0,1,.445-1.816,1.686,1.686,0,0,1,2.59-.021,2.977,2.977,0,0,1,.461,1.756Zm-.469-1.02a2.776,2.776,0,0,0-.318-1.477,1.176,1.176,0,0,0-1.916-.012,2.686,2.686,0,0,0-.328,1.441V6.68a2.771,2.771,0,0,0,.33,1.488,1.07,1.07,0,0,0,.959.516,1.054,1.054,0,0,0,.947-.5A2.782,2.782,0,0,0,21.449,6.7ZM23.105,9V3.313h1.68a2.187,2.187,0,0,1,1.387.377A1.336,1.336,0,0,1,26.645,4.8a1.259,1.259,0,0,1-.24.768,1.312,1.312,0,0,1-.658.467,1.378,1.378,0,0,1,1.1,1.363,1.48,1.48,0,0,1-.486,1.178A1.993,1.993,0,0,1,25.008,9Zm.48-2.734V8.594h1.441a1.439,1.439,0,0,0,.979-.314,1.1,1.1,0,0,0,.361-.873,1.058,1.058,0,0,0-.346-.834,1.389,1.389,0,0,0-.955-.307Zm0-.4H24.9a1.476,1.476,0,0,0,.932-.283.965.965,0,0,0,.33-.791.948.948,0,0,0-.342-.807,1.7,1.7,0,0,0-1.033-.26h-1.2ZM31.387,9H27.824V8.641L29.773,6.43a5.116,5.116,0,0,0,.672-.922,1.537,1.537,0,0,0,.188-.707,1.149,1.149,0,0,0-.316-.854,1.181,1.181,0,0,0-.871-.314A1.229,1.229,0,0,0,28.518,4a1.317,1.317,0,0,0-.354.953H27.7a1.787,1.787,0,0,1,.217-.875,1.56,1.56,0,0,1,.617-.619,1.832,1.832,0,0,1,.912-.225,1.72,1.72,0,0,1,1.221.41,1.454,1.454,0,0,1,.439,1.117,1.9,1.9,0,0,1-.248.871,6.475,6.475,0,0,1-.873,1.18L28.4,8.605h2.988Z" transform="translate(472 1417)"/>
    <path id="Path_181" data-name="Path 181" d="M2.488-2.071H1.042V0H.619V-4.977H2.235a1.844,1.844,0,0,1,1.244.386,1.35,1.35,0,0,1,.448,1.08,1.35,1.35,0,0,1-.28.844A1.433,1.433,0,0,1,2.9-2.16L4.139-.044V0H3.691ZM1.042-2.43H2.331a1.2,1.2,0,0,0,.851-.3A1.019,1.019,0,0,0,3.5-3.51a1.023,1.023,0,0,0-.335-.817,1.389,1.389,0,0,0-.94-.291H1.042ZM6.409.068a1.605,1.605,0,0,1-.853-.232,1.584,1.584,0,0,1-.593-.648,2.019,2.019,0,0,1-.212-.931V-1.89a2.176,2.176,0,0,1,.207-.96,1.645,1.645,0,0,1,.576-.672,1.421,1.421,0,0,1,.8-.244,1.335,1.335,0,0,1,1.068.46A1.865,1.865,0,0,1,7.8-2.051v.229H5.158v.079A1.549,1.549,0,0,0,5.518-.7a1.147,1.147,0,0,0,.907.419A1.333,1.333,0,0,0,7.005-.4a1.285,1.285,0,0,0,.456-.383l.256.195A1.492,1.492,0,0,1,6.409.068ZM6.333-3.418a1.022,1.022,0,0,0-.778.338,1.563,1.563,0,0,0-.385.909H7.39v-.044a1.357,1.357,0,0,0-.3-.868A.943.943,0,0,0,6.333-3.418Zm2.1,1.535a2.229,2.229,0,0,1,.385-1.372,1.238,1.238,0,0,1,1.044-.511A1.286,1.286,0,0,1,11-3.175V-5.25h.407V0h-.383l-.017-.492A1.321,1.321,0,0,1,9.851.068,1.233,1.233,0,0,1,8.82-.446a2.241,2.241,0,0,1-.391-1.389Zm.414.072A1.929,1.929,0,0,0,9.126-.7a.918.918,0,0,0,.8.408A1.1,1.1,0,0,0,11-.954V-2.69a1.093,1.093,0,0,0-1.066-.721.929.929,0,0,0-.8.405A2.061,2.061,0,0,0,8.842-1.812ZM2.574,6.6H1.5L1.237,8H.9l.263-1.4H.291V6.281h.93L1.5,4.773H.55V4.445H1.565l.27-1.422h.338L1.9,4.445H2.98l.27-1.422h.342l-.27,1.422H4.1v.328H3.261L2.977,6.281h.872V6.6H2.916L2.652,8H2.311ZM1.559,6.281H2.635l.284-1.507H1.842Zm5.889-.667H5.12v2.03H7.8V8H4.7V3.023h3.08v.359H5.12V5.259H7.448ZM8.682,8V3.023h1.47a1.913,1.913,0,0,1,1.213.33,1.169,1.169,0,0,1,.414.972,1.1,1.1,0,0,1-.21.672,1.148,1.148,0,0,1-.576.408A1.206,1.206,0,0,1,11.956,6.6a1.3,1.3,0,0,1-.426,1.031A1.744,1.744,0,0,1,10.346,8ZM9.1,5.607V7.645h1.261a1.259,1.259,0,0,0,.856-.275.959.959,0,0,0,.316-.764.926.926,0,0,0-.3-.73,1.216,1.216,0,0,0-.836-.268Zm0-.352H10.25a1.292,1.292,0,0,0,.815-.248.844.844,0,0,0,.289-.692.83.83,0,0,0-.3-.706,1.486,1.486,0,0,0-.9-.227H9.1Zm6.774-2L13.75,8h-.427l2.112-4.628h-2.83V3.023h3.271Zm3.879,0L17.63,8H17.2l2.112-4.628h-2.83V3.023h3.271Zm3.879,0L21.509,8h-.427l2.112-4.628h-2.83V3.023h3.271Zm3.879,0L25.389,8h-.427l2.112-4.628h-2.83V3.023h3.271Z" transform="translate(535 1416)"/>
    <path id="Path_182" data-name="Path 182" d="M4.221-.591a1.409,1.409,0,0,1-.685.485A2.965,2.965,0,0,1,2.492.068a1.939,1.939,0,0,1-1.039-.28A1.865,1.865,0,0,1,.749-1,2.687,2.687,0,0,1,.5-2.181V-2.81a2.4,2.4,0,0,1,.523-1.635,1.77,1.77,0,0,1,1.4-.6,1.866,1.866,0,0,1,1.237.391,1.615,1.615,0,0,1,.557,1.078H3.8A1.286,1.286,0,0,0,3.351-4.4a1.439,1.439,0,0,0-.925-.282,1.353,1.353,0,0,0-1.1.5,2.147,2.147,0,0,0-.407,1.4V-2.2a2.455,2.455,0,0,0,.193,1,1.531,1.531,0,0,0,.554.675,1.465,1.465,0,0,0,.829.239,2.313,2.313,0,0,0,.933-.171A1,1,0,0,0,3.8-.721V-2.006H2.464v-.355H4.221ZM7.027-3.35a1.528,1.528,0,0,0-.277-.024A1,1,0,0,0,6.1-3.16a1.17,1.17,0,0,0-.378.62V0H5.318V-3.7h.4l.007.588a1.088,1.088,0,0,1,1.042-.656.673.673,0,0,1,.27.044ZM9.871,0a1.934,1.934,0,0,1-.079-.516,1.426,1.426,0,0,1-.549.432,1.68,1.68,0,0,1-.706.152,1.24,1.24,0,0,1-.863-.3.969.969,0,0,1-.33-.752.99.99,0,0,1,.449-.854A2.16,2.16,0,0,1,9.047-2.15h.742v-.42a.81.81,0,0,0-.244-.624,1.01,1.01,0,0,0-.713-.227,1.115,1.115,0,0,0-.708.219.65.65,0,0,0-.28.526l-.41,0a.951.951,0,0,1,.41-.764,1.579,1.579,0,0,1,1.008-.323,1.441,1.441,0,0,1,.976.309,1.11,1.11,0,0,1,.367.863v1.75a2.171,2.171,0,0,0,.113.8V0ZM8.586-.294a1.373,1.373,0,0,0,.733-.2,1.167,1.167,0,0,0,.47-.53v-.813H9.058a1.833,1.833,0,0,0-.957.224.672.672,0,0,0-.345.6A.661.661,0,0,0,7.986-.5.869.869,0,0,0,8.586-.294Zm2.536-1.589a2.229,2.229,0,0,1,.385-1.372,1.238,1.238,0,0,1,1.044-.511,1.286,1.286,0,0,1,1.142.591V-5.25H14.1V0h-.383L13.7-.492a1.321,1.321,0,0,1-1.155.561,1.233,1.233,0,0,1-1.031-.514,2.241,2.241,0,0,1-.391-1.389Zm.414.072A1.929,1.929,0,0,0,11.819-.7a.918.918,0,0,0,.8.408,1.1,1.1,0,0,0,1.073-.667V-2.69a1.093,1.093,0,0,0-1.066-.721.929.929,0,0,0-.8.405A2.061,2.061,0,0,0,11.536-1.812ZM15.634,0h-.41V-3.7h.41Zm-.482-4.768a.277.277,0,0,1,.075-.2.267.267,0,0,1,.205-.08.273.273,0,0,1,.207.08.273.273,0,0,1,.077.2.268.268,0,0,1-.077.195.276.276,0,0,1-.207.079.27.27,0,0,1-.205-.079A.271.271,0,0,1,15.152-4.768ZM18.177.068a1.605,1.605,0,0,1-.853-.232,1.584,1.584,0,0,1-.593-.648,2.019,2.019,0,0,1-.212-.931V-1.89a2.176,2.176,0,0,1,.207-.96,1.645,1.645,0,0,1,.576-.672,1.421,1.421,0,0,1,.8-.244,1.335,1.335,0,0,1,1.068.46,1.865,1.865,0,0,1,.395,1.256v.229H16.926v.079A1.549,1.549,0,0,0,17.286-.7a1.147,1.147,0,0,0,.907.419,1.333,1.333,0,0,0,.579-.12,1.285,1.285,0,0,0,.456-.383l.256.195A1.492,1.492,0,0,1,18.177.068ZM18.1-3.418a1.022,1.022,0,0,0-.778.338,1.563,1.563,0,0,0-.385.909h2.218v-.044a1.357,1.357,0,0,0-.3-.868A.943.943,0,0,0,18.1-3.418ZM20.75-3.7l.014.632a1.469,1.469,0,0,1,.52-.521,1.35,1.35,0,0,1,.687-.179,1.109,1.109,0,0,1,.885.335,1.511,1.511,0,0,1,.294,1V0h-.407V-2.43a1.13,1.13,0,0,0-.21-.738.823.823,0,0,0-.661-.243,1.035,1.035,0,0,0-.672.238,1.392,1.392,0,0,0-.432.641V0h-.407V-3.7Zm4.091-.947V-3.7h.766v.335h-.766V-.9a.771.771,0,0,0,.111.458.431.431,0,0,0,.371.15,2.545,2.545,0,0,0,.332-.034l.017.335a1.326,1.326,0,0,1-.437.058.729.729,0,0,1-.612-.244A1.15,1.15,0,0,1,24.432-.9V-3.363h-.68V-3.7h.68v-.947ZM2.574,6.6H1.5L1.237,8H.9l.263-1.4H.291V6.281h.93L1.5,4.773H.55V4.445H1.565l.27-1.422h.338L1.9,4.445H2.98l.27-1.422h.342l-.27,1.422H4.1v.328H3.261L2.977,6.281h.872V6.6H2.916L2.652,8H2.311ZM1.559,6.281H2.635l.284-1.507H1.842Zm5.828.325H5.127L4.614,8H4.173L6.057,3.023h.4L8.34,8H7.9ZM5.257,6.247h2l-1-2.71ZM12.028,8H8.911V7.686l1.706-1.935a4.476,4.476,0,0,0,.588-.807,1.345,1.345,0,0,0,.164-.619,1.006,1.006,0,0,0-.277-.747,1.034,1.034,0,0,0-.762-.275,1.076,1.076,0,0,0-.812.321,1.152,1.152,0,0,0-.309.834H8.8a1.563,1.563,0,0,1,.19-.766,1.365,1.365,0,0,1,.54-.542,1.6,1.6,0,0,1,.8-.2,1.5,1.5,0,0,1,1.068.359,1.272,1.272,0,0,1,.385.978,1.659,1.659,0,0,1-.217.762A5.666,5.666,0,0,1,10.8,6.086L9.413,7.655h2.615Zm3.664-2.324H13.371V8h-.42V3.023h3.083v.359H13.371V5.317h2.321Zm4.037.25a2.754,2.754,0,0,1-.386,1.6,1.462,1.462,0,0,1-2.27.01,2.652,2.652,0,0,1-.4-1.557V5.084a2.7,2.7,0,0,1,.39-1.589,1.475,1.475,0,0,1,2.266-.019,2.605,2.605,0,0,1,.4,1.536Zm-.41-.892a2.429,2.429,0,0,0-.279-1.292,1.029,1.029,0,0,0-1.677-.01,2.351,2.351,0,0,0-.287,1.261V5.97a2.425,2.425,0,0,0,.289,1.3.936.936,0,0,0,.839.451.922.922,0,0,0,.829-.441,2.435,2.435,0,0,0,.285-1.292Zm4.19.643H21.188V8h-.42V3.023h3.083v.359H21.188V5.317h2.321Zm4.1-2.417L25.484,8h-.427l2.112-4.628h-2.83V3.023H27.61ZM32.231,6.6H31.158L30.9,8h-.338l.263-1.4h-.872V6.281h.93l.284-1.507h-.954V4.445h1.015l.27-1.422h.338l-.27,1.422h1.077l.27-1.422h.342l-.27,1.422h.783v.328h-.844l-.284,1.507h.872V6.6h-.933L32.31,8h-.342Zm-1.015-.318h1.077l.284-1.507H31.5ZM36.75,5.7a1.54,1.54,0,0,1-.543.5,1.454,1.454,0,0,1-.7.176,1.308,1.308,0,0,1-.749-.219,1.432,1.432,0,0,1-.5-.6,2,2,0,0,1-.178-.844,2.078,2.078,0,0,1,.19-.9,1.489,1.489,0,0,1,.53-.627,1.53,1.53,0,0,1,1.95.3,2.341,2.341,0,0,1,.417,1.489v.369a3.062,3.062,0,0,1-.574,2.023,2.172,2.172,0,0,1-1.753.677h-.075l0-.355H34.9a1.819,1.819,0,0,0,1.357-.506A2.165,2.165,0,0,0,36.75,5.7Zm-1.2.321a1.2,1.2,0,0,0,.737-.244,1.32,1.32,0,0,0,.463-.634V4.9a1.919,1.919,0,0,0-.316-1.177,1.013,1.013,0,0,0-.853-.419.973.973,0,0,0-.8.391,1.535,1.535,0,0,0-.311.986,1.5,1.5,0,0,0,.3.952A.943.943,0,0,0,35.554,6.018Zm5.424-.342H38.657V8h-.42V3.023H41.32v.359H38.657V5.317h2.321Zm3.944-.062H42.595v2.03h2.676V8h-3.1V3.023h3.08v.359H42.595V5.259h2.328Zm3.975.062H46.577V8h-.42V3.023h3.083v.359H46.577V5.317H48.9Zm3.944-.062H50.514v2.03H53.19V8h-3.1V3.023h3.08v.359H50.514V5.259h2.328ZM55.819,8h-.41V3.516l-1.354.5V3.635l1.7-.629h.068Z" transform="translate(598 1416)"/>
    <circle id="Ellipse_50" data-name="Ellipse 50" cx="24.5" cy="24.5" r="24.5" transform="translate(93 1432)"/>
    <ellipse id="Ellipse_51" data-name="Ellipse 51" cx="25" cy="24.5" rx="25" ry="24.5" transform="translate(156 1432)" fill="#fff"/>
    <circle id="Ellipse_52" data-name="Ellipse 52" cx="24.5" cy="24.5" r="24.5" transform="translate(220 1432)" fill="#4be2bf"/>
    <circle id="Ellipse_53" data-name="Ellipse 53" cx="24.5" cy="24.5" r="24.5" transform="translate(283 1432)" fill="#77ebe2"/>
    <circle id="Ellipse_54" data-name="Ellipse 54" cx="24.5" cy="24.5" r="24.5" transform="translate(346 1432)" fill="#8ff0f8"/>
    <circle id="Ellipse_55" data-name="Ellipse 55" cx="24.5" cy="24.5" r="24.5" transform="translate(409 1432)" fill="#77a8eb"/>
    <circle id="Ellipse_56" data-name="Ellipse 56" cx="24.5" cy="24.5" r="24.5" transform="translate(472 1432)" fill="#4760b2"/>
    <circle id="Ellipse_57" data-name="Ellipse 57" cx="24.5" cy="24.5" r="24.5" transform="translate(535 1432)" fill="#eb7777"/>
    <circle id="Ellipse_59" data-name="Ellipse 59" cx="24.5" cy="24.5" r="24.5" transform="translate(598 1432)" fill="url(#linear-gradient)"/>
  </g>
</svg>
