<svg xmlns="http://www.w3.org/2000/svg" width="206.258" height="100.894" viewBox="0 0 206.258 100.894">
  <g id="Group_508" data-name="Group 508" transform="translate(-15351.991 -12992.385)">
    <line id="Line_68" data-name="Line 68" x2="8.256" transform="translate(15457.85 13085.704)" fill="#292c64"/>
    <line id="Line_69" data-name="Line 69" x2="8.256" transform="translate(15457.85 13085.704)" fill="none" stroke="#000" stroke-linecap="round" stroke-miterlimit="10" stroke-width="2"/>
    <line id="Line_70" data-name="Line 70" y1="6.47" x2="4.547" transform="translate(15466.106 13079.233)" fill="#292c64"/>
    <line id="Line_71" data-name="Line 71" y1="6.47" x2="4.547" transform="translate(15466.106 13079.233)" fill="none" stroke="#000" stroke-linecap="round" stroke-miterlimit="10" stroke-width="2"/>
    <line id="Line_72" data-name="Line 72" x2="13.956" y2="0.114" transform="translate(15394.575 13028.961)" fill="#292c64"/>
    <line id="Line_73" data-name="Line 73" x2="13.956" y2="0.114" transform="translate(15394.575 13028.961)" fill="none" stroke="#000" stroke-linecap="round" stroke-miterlimit="10" stroke-width="2"/>
    <line id="Line_74" data-name="Line 74" x2="4.595" y2="6.712" transform="translate(15390.134 13022.584)" fill="#292c64"/>
    <line id="Line_75" data-name="Line 75" x2="4.482" y2="6.252" transform="translate(15390.134 13022.584)" fill="none" stroke="#000" stroke-linecap="round" stroke-miterlimit="10" stroke-width="2"/>
    <line id="Line_76" data-name="Line 76" x1="9.559" y2="1.524" transform="translate(15488.827 13004.278)" fill="#292c64"/>
    <line id="Line_77" data-name="Line 77" x1="9.559" y2="1.524" transform="translate(15488.827 13004.278)" fill="none" stroke="#000" stroke-linecap="round" stroke-miterlimit="10" stroke-width="2"/>
    <line id="Line_78" data-name="Line 78" x1="7.683" y1="1.117" transform="translate(15495.669 13041.536)" fill="#292c64"/>
    <line id="Line_79" data-name="Line 79" x1="7.683" y1="1.117" transform="translate(15495.669 13041.536)" fill="none" stroke="#000" stroke-linecap="round" stroke-miterlimit="10" stroke-width="2"/>
    <path id="Path_209" data-name="Path 209" d="M4.32-.646a1.653,1.653,0,0,1-.749.533A3.054,3.054,0,0,1,2.485.068,2.142,2.142,0,0,1,1.377-.215a1.89,1.89,0,0,1-.743-.812A2.84,2.84,0,0,1,.362-2.259v-.39A2.634,2.634,0,0,1,.9-4.411,1.873,1.873,0,0,1,2.41-5.045a1.987,1.987,0,0,1,1.319.41,1.768,1.768,0,0,1,.588,1.183H3.469a.954.954,0,0,0-1.042-.9,1.022,1.022,0,0,0-.884.419A2.135,2.135,0,0,0,1.23-2.7v.383a2.027,2.027,0,0,0,.34,1.253,1.121,1.121,0,0,0,.945.446,1.246,1.246,0,0,0,.943-.3V-1.9H2.434v-.656H4.32Zm.714-1.237a2.181,2.181,0,0,1,.215-.979,1.573,1.573,0,0,1,.6-.67,1.7,1.7,0,0,1,.9-.234,1.615,1.615,0,0,1,1.215.482,1.9,1.9,0,0,1,.5,1.278l0,.195a2.2,2.2,0,0,1-.21.978,1.554,1.554,0,0,1-.6.667,1.717,1.717,0,0,1-.9.236A1.6,1.6,0,0,1,5.5-.453a2,2,0,0,1-.47-1.389Zm.831.072A1.49,1.49,0,0,0,6.1-.918a.767.767,0,0,0,.656.323.758.758,0,0,0,.655-.328,1.646,1.646,0,0,0,.234-.96,1.471,1.471,0,0,0-.241-.889A.769.769,0,0,0,6.75-3.1a.762.762,0,0,0-.646.323A1.615,1.615,0,0,0,5.865-1.812ZM9.03-1.876a2.163,2.163,0,0,1,.405-1.376,1.3,1.3,0,0,1,1.075-.514,1.218,1.218,0,0,1,.995.441l.038-.373h.749V-.113a1.49,1.49,0,0,1-.453,1.148,1.725,1.725,0,0,1-1.222.42,1.969,1.969,0,0,1-.795-.169,1.412,1.412,0,0,1-.59-.443l.393-.5A1.187,1.187,0,0,0,10.568.8a.917.917,0,0,0,.653-.224.858.858,0,0,0,.239-.658v-.25a1.223,1.223,0,0,1-.957.4A1.3,1.3,0,0,1,9.442-.448,2.233,2.233,0,0,1,9.03-1.876Zm.827.072a1.489,1.489,0,0,0,.227.877.731.731,0,0,0,.631.32.8.8,0,0,0,.745-.431V-2.666a.788.788,0,0,0-.738-.42.734.734,0,0,0-.637.325A1.667,1.667,0,0,0,9.857-1.8ZM13-1.876A2.163,2.163,0,0,1,13.4-3.252a1.3,1.3,0,0,1,1.075-.514,1.218,1.218,0,0,1,.995.441l.038-.373h.749V-.113a1.49,1.49,0,0,1-.453,1.148,1.725,1.725,0,0,1-1.222.42,1.969,1.969,0,0,1-.795-.169A1.412,1.412,0,0,1,13.2.844l.393-.5A1.187,1.187,0,0,0,14.537.8a.917.917,0,0,0,.653-.224.858.858,0,0,0,.239-.658v-.25a1.223,1.223,0,0,1-.957.4A1.3,1.3,0,0,1,13.41-.448,2.233,2.233,0,0,1,13-1.876Zm.827.072a1.489,1.489,0,0,0,.227.877.731.731,0,0,0,.631.32.8.8,0,0,0,.745-.431V-2.666a.788.788,0,0,0-.738-.42.734.734,0,0,0-.637.325A1.667,1.667,0,0,0,13.826-1.8ZM18,0h-.831V-5.25H18Zm2.533.068a1.718,1.718,0,0,1-1.28-.5,1.8,1.8,0,0,1-.49-1.324v-.1a2.219,2.219,0,0,1,.214-.99,1.626,1.626,0,0,1,.6-.678,1.586,1.586,0,0,1,.861-.243,1.452,1.452,0,0,1,1.167.482,2.038,2.038,0,0,1,.412,1.364v.335H19.6a1.111,1.111,0,0,0,.306.725.918.918,0,0,0,.675.267,1.125,1.125,0,0,0,.93-.461l.448.427a1.5,1.5,0,0,1-.593.514A1.857,1.857,0,0,1,20.528.068Zm-.1-3.168a.7.7,0,0,0-.552.239,1.24,1.24,0,0,0-.268.667h1.583v-.062a1.01,1.01,0,0,0-.222-.631A.694.694,0,0,0,20.429-3.1Zm4.3,2.1a.377.377,0,0,0-.183-.338,1.945,1.945,0,0,0-.607-.205,3.119,3.119,0,0,1-.708-.226.944.944,0,0,1-.622-.872.984.984,0,0,1,.4-.8,1.594,1.594,0,0,1,1.025-.321,1.659,1.659,0,0,1,1.072.328,1.041,1.041,0,0,1,.408.851h-.831a.512.512,0,0,0-.178-.4.681.681,0,0,0-.472-.159.736.736,0,0,0-.446.126.4.4,0,0,0-.173.338.337.337,0,0,0,.161.3,2.209,2.209,0,0,0,.649.214A3.074,3.074,0,0,1,25-1.912a1.087,1.087,0,0,1,.414.357.911.911,0,0,1,.135.506.964.964,0,0,1-.414.808,1.763,1.763,0,0,1-1.083.309,1.912,1.912,0,0,1-.81-.164,1.333,1.333,0,0,1-.554-.451,1.068,1.068,0,0,1-.2-.619h.807a.585.585,0,0,0,.222.453.863.863,0,0,0,.543.159.84.84,0,0,0,.5-.125A.386.386,0,0,0,24.729-1Zm3.127-.878a2.181,2.181,0,0,1,.215-.979,1.573,1.573,0,0,1,.6-.67,1.7,1.7,0,0,1,.9-.234,1.615,1.615,0,0,1,1.215.482,1.9,1.9,0,0,1,.5,1.278l0,.195a2.2,2.2,0,0,1-.21.978,1.554,1.554,0,0,1-.6.667,1.717,1.717,0,0,1-.9.236,1.6,1.6,0,0,1-1.253-.521,2,2,0,0,1-.47-1.389Zm.831.072a1.49,1.49,0,0,0,.236.894.767.767,0,0,0,.656.323.758.758,0,0,0,.655-.328,1.646,1.646,0,0,0,.234-.96,1.471,1.471,0,0,0-.241-.889.769.769,0,0,0-.655-.328.762.762,0,0,0-.646.323A1.615,1.615,0,0,0,28.687-1.812Zm4.563.759L34.033-3.7h.858L33.609,0h-.721L31.6-3.7h.861ZM37.037.068a1.718,1.718,0,0,1-1.28-.5,1.8,1.8,0,0,1-.49-1.324v-.1a2.219,2.219,0,0,1,.214-.99,1.626,1.626,0,0,1,.6-.678,1.586,1.586,0,0,1,.861-.243,1.452,1.452,0,0,1,1.167.482,2.038,2.038,0,0,1,.412,1.364v.335H36.1a1.111,1.111,0,0,0,.306.725.918.918,0,0,0,.675.267,1.125,1.125,0,0,0,.93-.461l.448.427a1.5,1.5,0,0,1-.593.514A1.857,1.857,0,0,1,37.037.068Zm-.1-3.168a.7.7,0,0,0-.552.239,1.24,1.24,0,0,0-.268.667H37.7v-.062a1.01,1.01,0,0,0-.222-.631A.694.694,0,0,0,36.938-3.1Zm4.163.161a2.055,2.055,0,0,0-.338-.027.762.762,0,0,0-.769.438V0h-.831V-3.7h.793l.021.414a.936.936,0,0,1,.834-.482.778.778,0,0,1,.294.048Z" transform="translate(15351.711 13007.892)"/>
    <path id="Path_210" data-name="Path 210" d="M.28-1.876A2.163,2.163,0,0,1,.685-3.252,1.3,1.3,0,0,1,1.76-3.767a1.218,1.218,0,0,1,.995.441L2.792-3.7h.749V-.113a1.49,1.49,0,0,1-.453,1.148,1.725,1.725,0,0,1-1.222.42,1.969,1.969,0,0,1-.795-.169A1.412,1.412,0,0,1,.482.844l.393-.5A1.187,1.187,0,0,0,1.818.8.917.917,0,0,0,2.471.576.858.858,0,0,0,2.71-.082v-.25a1.223,1.223,0,0,1-.957.4A1.3,1.3,0,0,1,.692-.448,2.233,2.233,0,0,1,.28-1.876Zm.827.072a1.489,1.489,0,0,0,.227.877.731.731,0,0,0,.631.32.8.8,0,0,0,.745-.431V-2.666a.788.788,0,0,0-.738-.42.734.734,0,0,0-.637.325A1.667,1.667,0,0,0,1.107-1.8ZM5.277,0H4.447V-5.25h.831ZM8.391,0a1.282,1.282,0,0,1-.1-.345,1.293,1.293,0,0,1-.971.414A1.3,1.3,0,0,1,6.416-.25a1.017,1.017,0,0,1-.352-.786A1.05,1.05,0,0,1,6.5-1.943a2.128,2.128,0,0,1,1.256-.316h.509V-2.5a.648.648,0,0,0-.161-.46.637.637,0,0,0-.489-.173.732.732,0,0,0-.465.142.439.439,0,0,0-.181.361H6.142a.922.922,0,0,1,.2-.569,1.343,1.343,0,0,1,.549-.415,1.927,1.927,0,0,1,.774-.15A1.552,1.552,0,0,1,8.7-3.44a1.164,1.164,0,0,1,.4.918V-.854a1.89,1.89,0,0,0,.14.8V0ZM7.479-.6a.945.945,0,0,0,.463-.12.8.8,0,0,0,.326-.321v-.7H7.82a1.224,1.224,0,0,0-.694.161.52.52,0,0,0-.232.455.485.485,0,0,0,.159.381A.615.615,0,0,0,7.479-.6ZM12.042-1a.377.377,0,0,0-.183-.338,1.945,1.945,0,0,0-.607-.205,3.119,3.119,0,0,1-.708-.226.944.944,0,0,1-.622-.872.984.984,0,0,1,.4-.8,1.594,1.594,0,0,1,1.025-.321,1.659,1.659,0,0,1,1.072.328,1.041,1.041,0,0,1,.408.851H12a.512.512,0,0,0-.178-.4.681.681,0,0,0-.472-.159.736.736,0,0,0-.446.126.4.4,0,0,0-.173.338.337.337,0,0,0,.161.3,2.209,2.209,0,0,0,.649.214,3.074,3.074,0,0,1,.767.256,1.087,1.087,0,0,1,.414.357.911.911,0,0,1,.135.506.964.964,0,0,1-.414.808,1.763,1.763,0,0,1-1.083.309,1.912,1.912,0,0,1-.81-.164A1.333,1.333,0,0,1,10-.547a1.068,1.068,0,0,1-.2-.619h.807a.585.585,0,0,0,.222.453.863.863,0,0,0,.543.159.84.84,0,0,0,.5-.125A.386.386,0,0,0,12.042-1Zm3.613,0a.377.377,0,0,0-.183-.338,1.945,1.945,0,0,0-.607-.205,3.119,3.119,0,0,1-.708-.226.944.944,0,0,1-.622-.872.984.984,0,0,1,.4-.8,1.594,1.594,0,0,1,1.025-.321,1.659,1.659,0,0,1,1.072.328,1.041,1.041,0,0,1,.408.851h-.831a.512.512,0,0,0-.178-.4.681.681,0,0,0-.472-.159.736.736,0,0,0-.446.126.4.4,0,0,0-.173.338.337.337,0,0,0,.161.3,2.209,2.209,0,0,0,.649.214,3.074,3.074,0,0,1,.767.256,1.087,1.087,0,0,1,.414.357.911.911,0,0,1,.135.506.964.964,0,0,1-.414.808,1.763,1.763,0,0,1-1.083.309,1.912,1.912,0,0,1-.81-.164,1.333,1.333,0,0,1-.554-.451,1.068,1.068,0,0,1-.2-.619h.807a.585.585,0,0,0,.222.453.863.863,0,0,0,.543.159.84.84,0,0,0,.5-.125A.386.386,0,0,0,15.654-1ZM18.823.068a1.718,1.718,0,0,1-1.28-.5,1.8,1.8,0,0,1-.49-1.324v-.1a2.219,2.219,0,0,1,.214-.99,1.626,1.626,0,0,1,.6-.678,1.586,1.586,0,0,1,.861-.243,1.452,1.452,0,0,1,1.167.482,2.038,2.038,0,0,1,.412,1.364v.335H17.89a1.111,1.111,0,0,0,.306.725.918.918,0,0,0,.675.267,1.125,1.125,0,0,0,.93-.461l.448.427a1.5,1.5,0,0,1-.593.514A1.857,1.857,0,0,1,18.823.068Zm-.1-3.168a.7.7,0,0,0-.552.239,1.24,1.24,0,0,0-.268.667h1.583v-.062a1.01,1.01,0,0,0-.222-.631A.694.694,0,0,0,18.724-3.1Zm4.3,2.1a.377.377,0,0,0-.183-.338,1.945,1.945,0,0,0-.607-.205,3.119,3.119,0,0,1-.708-.226.944.944,0,0,1-.622-.872.984.984,0,0,1,.4-.8,1.594,1.594,0,0,1,1.025-.321,1.659,1.659,0,0,1,1.072.328,1.041,1.041,0,0,1,.408.851h-.831a.512.512,0,0,0-.178-.4.681.681,0,0,0-.472-.159.736.736,0,0,0-.446.126.4.4,0,0,0-.173.338.337.337,0,0,0,.161.3,2.209,2.209,0,0,0,.649.214,3.074,3.074,0,0,1,.767.256,1.087,1.087,0,0,1,.414.357.911.911,0,0,1,.135.506.964.964,0,0,1-.414.808,1.763,1.763,0,0,1-1.083.309,1.912,1.912,0,0,1-.81-.164,1.333,1.333,0,0,1-.554-.451,1.068,1.068,0,0,1-.2-.619h.807a.585.585,0,0,0,.222.453.863.863,0,0,0,.543.159.84.84,0,0,0,.5-.125A.386.386,0,0,0,23.023-1Z" transform="translate(15351.711 13021.731)"/>
    <path id="Path_220" data-name="Path 220" d="M4.32-.646a1.653,1.653,0,0,1-.749.533A3.054,3.054,0,0,1,2.485.068,2.142,2.142,0,0,1,1.377-.215a1.89,1.89,0,0,1-.743-.812A2.84,2.84,0,0,1,.362-2.259v-.39A2.634,2.634,0,0,1,.9-4.411,1.873,1.873,0,0,1,2.41-5.045a1.987,1.987,0,0,1,1.319.41,1.768,1.768,0,0,1,.588,1.183H3.469a.954.954,0,0,0-1.042-.9,1.022,1.022,0,0,0-.884.419A2.135,2.135,0,0,0,1.23-2.7v.383a2.027,2.027,0,0,0,.34,1.253,1.121,1.121,0,0,0,.945.446,1.246,1.246,0,0,0,.943-.3V-1.9H2.434v-.656H4.32Zm.714-1.237a2.181,2.181,0,0,1,.215-.979,1.573,1.573,0,0,1,.6-.67,1.7,1.7,0,0,1,.9-.234,1.615,1.615,0,0,1,1.215.482,1.9,1.9,0,0,1,.5,1.278l0,.195a2.2,2.2,0,0,1-.21.978,1.554,1.554,0,0,1-.6.667,1.717,1.717,0,0,1-.9.236A1.6,1.6,0,0,1,5.5-.453a2,2,0,0,1-.47-1.389Zm.831.072A1.49,1.49,0,0,0,6.1-.918a.767.767,0,0,0,.656.323.758.758,0,0,0,.655-.328,1.646,1.646,0,0,0,.234-.96,1.471,1.471,0,0,0-.241-.889A.769.769,0,0,0,6.75-3.1a.762.762,0,0,0-.646.323A1.615,1.615,0,0,0,5.865-1.812ZM9.03-1.876a2.163,2.163,0,0,1,.405-1.376,1.3,1.3,0,0,1,1.075-.514,1.218,1.218,0,0,1,.995.441l.038-.373h.749V-.113a1.49,1.49,0,0,1-.453,1.148,1.725,1.725,0,0,1-1.222.42,1.969,1.969,0,0,1-.795-.169,1.412,1.412,0,0,1-.59-.443l.393-.5A1.187,1.187,0,0,0,10.568.8a.917.917,0,0,0,.653-.224.858.858,0,0,0,.239-.658v-.25a1.223,1.223,0,0,1-.957.4A1.3,1.3,0,0,1,9.442-.448,2.233,2.233,0,0,1,9.03-1.876Zm.827.072a1.489,1.489,0,0,0,.227.877.731.731,0,0,0,.631.32.8.8,0,0,0,.745-.431V-2.666a.788.788,0,0,0-.738-.42.734.734,0,0,0-.637.325A1.667,1.667,0,0,0,9.857-1.8ZM13-1.876A2.163,2.163,0,0,1,13.4-3.252a1.3,1.3,0,0,1,1.075-.514,1.218,1.218,0,0,1,.995.441l.038-.373h.749V-.113a1.49,1.49,0,0,1-.453,1.148,1.725,1.725,0,0,1-1.222.42,1.969,1.969,0,0,1-.795-.169A1.412,1.412,0,0,1,13.2.844l.393-.5A1.187,1.187,0,0,0,14.537.8a.917.917,0,0,0,.653-.224.858.858,0,0,0,.239-.658v-.25a1.223,1.223,0,0,1-.957.4A1.3,1.3,0,0,1,13.41-.448,2.233,2.233,0,0,1,13-1.876Zm.827.072a1.489,1.489,0,0,0,.227.877.731.731,0,0,0,.631.32.8.8,0,0,0,.745-.431V-2.666a.788.788,0,0,0-.738-.42.734.734,0,0,0-.637.325A1.667,1.667,0,0,0,13.826-1.8ZM18,0h-.831V-5.25H18Zm2.533.068a1.718,1.718,0,0,1-1.28-.5,1.8,1.8,0,0,1-.49-1.324v-.1a2.219,2.219,0,0,1,.214-.99,1.626,1.626,0,0,1,.6-.678,1.586,1.586,0,0,1,.861-.243,1.452,1.452,0,0,1,1.167.482,2.038,2.038,0,0,1,.412,1.364v.335H19.6a1.111,1.111,0,0,0,.306.725.918.918,0,0,0,.675.267,1.125,1.125,0,0,0,.93-.461l.448.427a1.5,1.5,0,0,1-.593.514A1.857,1.857,0,0,1,20.528.068Zm-.1-3.168a.7.7,0,0,0-.552.239,1.24,1.24,0,0,0-.268.667h1.583v-.062a1.01,1.01,0,0,0-.222-.631A.694.694,0,0,0,20.429-3.1Zm4.3,2.1a.377.377,0,0,0-.183-.338,1.945,1.945,0,0,0-.607-.205,3.119,3.119,0,0,1-.708-.226.944.944,0,0,1-.622-.872.984.984,0,0,1,.4-.8,1.594,1.594,0,0,1,1.025-.321,1.659,1.659,0,0,1,1.072.328,1.041,1.041,0,0,1,.408.851h-.831a.512.512,0,0,0-.178-.4.681.681,0,0,0-.472-.159.736.736,0,0,0-.446.126.4.4,0,0,0-.173.338.337.337,0,0,0,.161.3,2.209,2.209,0,0,0,.649.214A3.074,3.074,0,0,1,25-1.912a1.087,1.087,0,0,1,.414.357.911.911,0,0,1,.135.506.964.964,0,0,1-.414.808,1.763,1.763,0,0,1-1.083.309,1.912,1.912,0,0,1-.81-.164,1.333,1.333,0,0,1-.554-.451,1.068,1.068,0,0,1-.2-.619h.807a.585.585,0,0,0,.222.453.863.863,0,0,0,.543.159.84.84,0,0,0,.5-.125A.386.386,0,0,0,24.729-1ZM28.9,0h-.831V-3.7H28.9Zm-.882-4.659a.441.441,0,0,1,.121-.318.458.458,0,0,1,.347-.126.464.464,0,0,1,.349.126.437.437,0,0,1,.123.318.427.427,0,0,1-.123.313.468.468,0,0,1-.349.125.462.462,0,0,1-.347-.125A.431.431,0,0,1,28.014-4.659Zm2.557.96.024.427a1.33,1.33,0,0,1,1.077-.5q1.155,0,1.176,1.323V0h-.831V-2.4a.762.762,0,0,0-.152-.521.64.64,0,0,0-.5-.169.8.8,0,0,0-.749.455V0h-.831V-3.7ZM35.766-1a.377.377,0,0,0-.183-.338,1.945,1.945,0,0,0-.607-.205,3.119,3.119,0,0,1-.708-.226.944.944,0,0,1-.622-.872.984.984,0,0,1,.4-.8,1.594,1.594,0,0,1,1.025-.321,1.659,1.659,0,0,1,1.072.328,1.041,1.041,0,0,1,.408.851h-.831a.512.512,0,0,0-.178-.4.681.681,0,0,0-.472-.159.736.736,0,0,0-.446.126.4.4,0,0,0-.173.338.337.337,0,0,0,.161.3,2.209,2.209,0,0,0,.649.214,3.074,3.074,0,0,1,.767.256,1.087,1.087,0,0,1,.414.357.911.911,0,0,1,.135.506.964.964,0,0,1-.414.808,1.763,1.763,0,0,1-1.083.309,1.912,1.912,0,0,1-.81-.164,1.333,1.333,0,0,1-.554-.451,1.068,1.068,0,0,1-.2-.619h.807a.585.585,0,0,0,.222.453.863.863,0,0,0,.543.159.84.84,0,0,0,.5-.125A.386.386,0,0,0,35.766-1ZM38.346-4.6v.9H39v.615h-.653v2.064a.455.455,0,0,0,.084.306.388.388,0,0,0,.3.094,1.279,1.279,0,0,0,.291-.034V-.01a2.046,2.046,0,0,1-.547.079q-.957,0-.957-1.056v-2.1h-.608V-3.7h.608v-.9ZM41.262.068a1.718,1.718,0,0,1-1.28-.5,1.8,1.8,0,0,1-.49-1.324v-.1a2.219,2.219,0,0,1,.214-.99,1.626,1.626,0,0,1,.6-.678,1.586,1.586,0,0,1,.861-.243,1.452,1.452,0,0,1,1.167.482,2.038,2.038,0,0,1,.412,1.364v.335H40.329a1.111,1.111,0,0,0,.306.725.918.918,0,0,0,.675.267,1.125,1.125,0,0,0,.93-.461l.448.427a1.5,1.5,0,0,1-.593.514A1.857,1.857,0,0,1,41.262.068Zm-.1-3.168a.7.7,0,0,0-.552.239,1.24,1.24,0,0,0-.268.667h1.583v-.062a1.01,1.01,0,0,0-.222-.631A.694.694,0,0,0,41.163-3.1ZM45.6,0a1.282,1.282,0,0,1-.1-.345,1.293,1.293,0,0,1-.971.414,1.3,1.3,0,0,1-.909-.318,1.017,1.017,0,0,1-.352-.786,1.05,1.05,0,0,1,.439-.907,2.128,2.128,0,0,1,1.256-.316h.509V-2.5a.648.648,0,0,0-.161-.46.637.637,0,0,0-.489-.173.732.732,0,0,0-.465.142.439.439,0,0,0-.181.361H43.35a.922.922,0,0,1,.2-.569,1.343,1.343,0,0,1,.549-.415,1.927,1.927,0,0,1,.774-.15,1.552,1.552,0,0,1,1.036.326,1.164,1.164,0,0,1,.4.918V-.854a1.89,1.89,0,0,0,.14.8V0Zm-.913-.6a.945.945,0,0,0,.463-.12.8.8,0,0,0,.326-.321v-.7h-.448a1.224,1.224,0,0,0-.694.161.52.52,0,0,0-.232.455.485.485,0,0,0,.159.381A.615.615,0,0,0,44.687-.6Zm2.334-1.278a2.2,2.2,0,0,1,.4-1.372,1.27,1.27,0,0,1,1.063-.518,1.207,1.207,0,0,1,.95.41V-5.25h.831V0h-.752l-.041-.383a1.224,1.224,0,0,1-.995.451,1.263,1.263,0,0,1-1.051-.523A2.279,2.279,0,0,1,47.021-1.876Zm.831.072a1.539,1.539,0,0,0,.217.88.7.7,0,0,0,.617.316.784.784,0,0,0,.745-.455V-2.642a.772.772,0,0,0-.738-.444.709.709,0,0,0-.622.32A1.714,1.714,0,0,0,47.852-1.8Z" transform="translate(15504.04 13002.19)"/>
    <path id="Path_219" data-name="Path 219" d="M.27-1.883a2.181,2.181,0,0,1,.215-.979,1.573,1.573,0,0,1,.6-.67,1.7,1.7,0,0,1,.9-.234A1.615,1.615,0,0,1,3.2-3.285a1.9,1.9,0,0,1,.5,1.278l0,.195a2.2,2.2,0,0,1-.21.978,1.554,1.554,0,0,1-.6.667,1.717,1.717,0,0,1-.9.236A1.6,1.6,0,0,1,.74-.453,2,2,0,0,1,.27-1.842Zm.831.072a1.49,1.49,0,0,0,.236.894.767.767,0,0,0,.656.323.758.758,0,0,0,.655-.328,1.646,1.646,0,0,0,.234-.96,1.471,1.471,0,0,0-.241-.889A.769.769,0,0,0,1.986-3.1a.762.762,0,0,0-.646.323A1.615,1.615,0,0,0,1.1-1.812ZM4.7,0V-3.083H4.139V-3.7H4.7v-.338a1.27,1.27,0,0,1,.342-.95A1.309,1.309,0,0,1,6-5.322a1.92,1.92,0,0,1,.465.062l-.021.649a1.636,1.636,0,0,0-.318-.027.533.533,0,0,0-.595.612V-3.7h.752v.615H5.534V0ZM8.49-1.876A2.163,2.163,0,0,1,8.9-3.252,1.3,1.3,0,0,1,9.97-3.767a1.218,1.218,0,0,1,.995.441L11-3.7h.749V-.113A1.49,1.49,0,0,1,11.3,1.036a1.725,1.725,0,0,1-1.222.42,1.969,1.969,0,0,1-.795-.169,1.412,1.412,0,0,1-.59-.443l.393-.5A1.187,1.187,0,0,0,10.028.8a.917.917,0,0,0,.653-.224.858.858,0,0,0,.239-.658v-.25a1.223,1.223,0,0,1-.957.4A1.3,1.3,0,0,1,8.9-.448,2.233,2.233,0,0,1,8.49-1.876Zm.827.072a1.489,1.489,0,0,0,.227.877.731.731,0,0,0,.631.32.8.8,0,0,0,.745-.431V-2.666a.788.788,0,0,0-.738-.42.734.734,0,0,0-.637.325A1.667,1.667,0,0,0,9.317-1.8ZM13.487,0h-.831V-5.25h.831ZM16.6,0a1.282,1.282,0,0,1-.1-.345,1.293,1.293,0,0,1-.971.414,1.3,1.3,0,0,1-.909-.318,1.017,1.017,0,0,1-.352-.786,1.05,1.05,0,0,1,.439-.907,2.128,2.128,0,0,1,1.256-.316h.509V-2.5a.648.648,0,0,0-.161-.46.637.637,0,0,0-.489-.173.732.732,0,0,0-.465.142.439.439,0,0,0-.181.361h-.831a.922.922,0,0,1,.2-.569,1.343,1.343,0,0,1,.549-.415,1.927,1.927,0,0,1,.774-.15,1.552,1.552,0,0,1,1.036.326,1.164,1.164,0,0,1,.4.918V-.854a1.89,1.89,0,0,0,.14.8V0Zm-.913-.6a.945.945,0,0,0,.463-.12.8.8,0,0,0,.326-.321v-.7H16.03a1.224,1.224,0,0,0-.694.161.52.52,0,0,0-.232.455.485.485,0,0,0,.159.381A.615.615,0,0,0,15.688-.6ZM20.251-1a.377.377,0,0,0-.183-.338,1.945,1.945,0,0,0-.607-.205,3.119,3.119,0,0,1-.708-.226.944.944,0,0,1-.622-.872.984.984,0,0,1,.4-.8,1.594,1.594,0,0,1,1.025-.321,1.659,1.659,0,0,1,1.072.328,1.041,1.041,0,0,1,.408.851H20.21a.512.512,0,0,0-.178-.4.681.681,0,0,0-.472-.159.736.736,0,0,0-.446.126.4.4,0,0,0-.173.338.337.337,0,0,0,.161.3,2.209,2.209,0,0,0,.649.214,3.074,3.074,0,0,1,.767.256,1.087,1.087,0,0,1,.414.357.911.911,0,0,1,.135.506.964.964,0,0,1-.414.808,1.763,1.763,0,0,1-1.083.309,1.912,1.912,0,0,1-.81-.164,1.333,1.333,0,0,1-.554-.451,1.068,1.068,0,0,1-.2-.619h.807a.585.585,0,0,0,.222.453.863.863,0,0,0,.543.159.84.84,0,0,0,.5-.125A.386.386,0,0,0,20.251-1Zm3.613,0a.377.377,0,0,0-.183-.338,1.945,1.945,0,0,0-.607-.205,3.119,3.119,0,0,1-.708-.226.944.944,0,0,1-.622-.872.984.984,0,0,1,.4-.8,1.594,1.594,0,0,1,1.025-.321,1.659,1.659,0,0,1,1.072.328,1.041,1.041,0,0,1,.408.851h-.831a.512.512,0,0,0-.178-.4.681.681,0,0,0-.472-.159.736.736,0,0,0-.446.126.4.4,0,0,0-.173.338.337.337,0,0,0,.161.3,2.209,2.209,0,0,0,.649.214,3.074,3.074,0,0,1,.767.256,1.087,1.087,0,0,1,.414.357.911.911,0,0,1,.135.506.964.964,0,0,1-.414.808,1.763,1.763,0,0,1-1.083.309,1.912,1.912,0,0,1-.81-.164,1.333,1.333,0,0,1-.554-.451,1.068,1.068,0,0,1-.2-.619h.807a.585.585,0,0,0,.222.453.863.863,0,0,0,.543.159.84.84,0,0,0,.5-.125A.386.386,0,0,0,23.864-1ZM27.033.068a1.718,1.718,0,0,1-1.28-.5,1.8,1.8,0,0,1-.49-1.324v-.1a2.219,2.219,0,0,1,.214-.99,1.626,1.626,0,0,1,.6-.678,1.586,1.586,0,0,1,.861-.243,1.452,1.452,0,0,1,1.167.482,2.038,2.038,0,0,1,.412,1.364v.335H26.1a1.111,1.111,0,0,0,.306.725.918.918,0,0,0,.675.267,1.125,1.125,0,0,0,.93-.461l.448.427a1.5,1.5,0,0,1-.593.514A1.857,1.857,0,0,1,27.033.068Zm-.1-3.168a.7.7,0,0,0-.552.239,1.24,1.24,0,0,0-.268.667H27.7v-.062a1.01,1.01,0,0,0-.222-.631A.694.694,0,0,0,26.934-3.1Zm4.3,2.1a.377.377,0,0,0-.183-.338,1.945,1.945,0,0,0-.607-.205,3.119,3.119,0,0,1-.708-.226.944.944,0,0,1-.622-.872.984.984,0,0,1,.4-.8,1.594,1.594,0,0,1,1.025-.321,1.659,1.659,0,0,1,1.072.328,1.041,1.041,0,0,1,.408.851h-.831a.512.512,0,0,0-.178-.4.681.681,0,0,0-.472-.159.736.736,0,0,0-.446.126.4.4,0,0,0-.173.338.337.337,0,0,0,.161.3,2.209,2.209,0,0,0,.649.214,3.074,3.074,0,0,1,.767.256,1.087,1.087,0,0,1,.414.357.911.911,0,0,1,.135.506.964.964,0,0,1-.414.808,1.763,1.763,0,0,1-1.083.309,1.912,1.912,0,0,1-.81-.164,1.333,1.333,0,0,1-.554-.451,1.068,1.068,0,0,1-.2-.619H29.8a.585.585,0,0,0,.222.453.863.863,0,0,0,.543.159.84.84,0,0,0,.5-.125A.386.386,0,0,0,31.233-1Z" transform="translate(15504.04 13016.03)"/>
    <path id="Path_218" data-name="Path 218" d="M4.32-.646a1.653,1.653,0,0,1-.749.533A3.054,3.054,0,0,1,2.485.068,2.142,2.142,0,0,1,1.377-.215a1.89,1.89,0,0,1-.743-.812A2.84,2.84,0,0,1,.362-2.259v-.39A2.634,2.634,0,0,1,.9-4.411,1.873,1.873,0,0,1,2.41-5.045a1.987,1.987,0,0,1,1.319.41,1.768,1.768,0,0,1,.588,1.183H3.469a.954.954,0,0,0-1.042-.9,1.022,1.022,0,0,0-.884.419A2.135,2.135,0,0,0,1.23-2.7v.383a2.027,2.027,0,0,0,.34,1.253,1.121,1.121,0,0,0,.945.446,1.246,1.246,0,0,0,.943-.3V-1.9H2.434v-.656H4.32ZM6.074,0H5.243V-5.25h.831ZM9.188,0a1.282,1.282,0,0,1-.1-.345,1.293,1.293,0,0,1-.971.414A1.3,1.3,0,0,1,7.212-.25a1.017,1.017,0,0,1-.352-.786A1.05,1.05,0,0,1,7.3-1.943a2.128,2.128,0,0,1,1.256-.316h.509V-2.5a.648.648,0,0,0-.161-.46.637.637,0,0,0-.489-.173.732.732,0,0,0-.465.142.439.439,0,0,0-.181.361H6.938a.922.922,0,0,1,.2-.569,1.343,1.343,0,0,1,.549-.415,1.927,1.927,0,0,1,.774-.15A1.552,1.552,0,0,1,9.5-3.44a1.164,1.164,0,0,1,.4.918V-.854a1.89,1.89,0,0,0,.14.8V0ZM8.275-.6a.945.945,0,0,0,.463-.12.8.8,0,0,0,.326-.321v-.7H8.617a1.224,1.224,0,0,0-.694.161.52.52,0,0,0-.232.455.485.485,0,0,0,.159.381A.615.615,0,0,0,8.275-.6ZM12.838-1a.377.377,0,0,0-.183-.338,1.945,1.945,0,0,0-.607-.205,3.119,3.119,0,0,1-.708-.226.944.944,0,0,1-.622-.872.984.984,0,0,1,.4-.8,1.594,1.594,0,0,1,1.025-.321,1.659,1.659,0,0,1,1.072.328,1.041,1.041,0,0,1,.408.851H12.8a.512.512,0,0,0-.178-.4.681.681,0,0,0-.472-.159.736.736,0,0,0-.446.126.4.4,0,0,0-.173.338.337.337,0,0,0,.161.3,2.209,2.209,0,0,0,.649.214,3.074,3.074,0,0,1,.767.256,1.087,1.087,0,0,1,.414.357.911.911,0,0,1,.135.506.964.964,0,0,1-.414.808,1.763,1.763,0,0,1-1.083.309,1.912,1.912,0,0,1-.81-.164,1.333,1.333,0,0,1-.554-.451,1.068,1.068,0,0,1-.2-.619H11.4a.585.585,0,0,0,.222.453.863.863,0,0,0,.543.159.84.84,0,0,0,.5-.125A.386.386,0,0,0,12.838-1Zm3.613,0a.377.377,0,0,0-.183-.338,1.945,1.945,0,0,0-.607-.205,3.119,3.119,0,0,1-.708-.226.944.944,0,0,1-.622-.872.984.984,0,0,1,.4-.8,1.594,1.594,0,0,1,1.025-.321,1.659,1.659,0,0,1,1.072.328,1.041,1.041,0,0,1,.408.851H16.41a.512.512,0,0,0-.178-.4.681.681,0,0,0-.472-.159.736.736,0,0,0-.446.126.4.4,0,0,0-.173.338.337.337,0,0,0,.161.3,2.209,2.209,0,0,0,.649.214,3.074,3.074,0,0,1,.767.256,1.087,1.087,0,0,1,.414.357.911.911,0,0,1,.135.506.964.964,0,0,1-.414.808,1.763,1.763,0,0,1-1.083.309A1.912,1.912,0,0,1,14.96-.1a1.333,1.333,0,0,1-.554-.451,1.068,1.068,0,0,1-.2-.619h.807a.585.585,0,0,0,.222.453.863.863,0,0,0,.543.159.84.84,0,0,0,.5-.125A.386.386,0,0,0,16.451-1ZM19.619.068a1.718,1.718,0,0,1-1.28-.5,1.8,1.8,0,0,1-.49-1.324v-.1a2.219,2.219,0,0,1,.214-.99,1.626,1.626,0,0,1,.6-.678,1.586,1.586,0,0,1,.861-.243,1.452,1.452,0,0,1,1.167.482A2.038,2.038,0,0,1,21.1-1.921v.335H18.686a1.111,1.111,0,0,0,.306.725.918.918,0,0,0,.675.267,1.125,1.125,0,0,0,.93-.461l.448.427a1.5,1.5,0,0,1-.593.514A1.857,1.857,0,0,1,19.619.068ZM19.52-3.1a.7.7,0,0,0-.552.239,1.24,1.24,0,0,0-.268.667h1.583v-.062a1.01,1.01,0,0,0-.222-.631A.694.694,0,0,0,19.52-3.1ZM23.82-1a.377.377,0,0,0-.183-.338,1.945,1.945,0,0,0-.607-.205,3.119,3.119,0,0,1-.708-.226.944.944,0,0,1-.622-.872.984.984,0,0,1,.4-.8,1.594,1.594,0,0,1,1.025-.321,1.659,1.659,0,0,1,1.072.328,1.041,1.041,0,0,1,.408.851h-.831a.512.512,0,0,0-.178-.4.681.681,0,0,0-.472-.159.736.736,0,0,0-.446.126.4.4,0,0,0-.173.338.337.337,0,0,0,.161.3,2.209,2.209,0,0,0,.649.214,3.074,3.074,0,0,1,.767.256,1.087,1.087,0,0,1,.414.357.911.911,0,0,1,.135.506.964.964,0,0,1-.414.808A1.763,1.763,0,0,1,23.14.068,1.912,1.912,0,0,1,22.33-.1a1.333,1.333,0,0,1-.554-.451,1.068,1.068,0,0,1-.2-.619h.807a.585.585,0,0,0,.222.453.863.863,0,0,0,.543.159.84.84,0,0,0,.5-.125A.386.386,0,0,0,23.82-1Zm6.532-.14L30.939-3.7h.81L30.741,0h-.684l-.793-2.54L28.485,0H27.8L26.79-3.7h.81l.6,2.526L28.957-3.7h.625ZM33.188,0h-.831V-3.7h.831Zm-.882-4.659a.441.441,0,0,1,.121-.318.458.458,0,0,1,.347-.126.464.464,0,0,1,.349.126.437.437,0,0,1,.123.318.427.427,0,0,1-.123.313.468.468,0,0,1-.349.125.462.462,0,0,1-.347-.125A.431.431,0,0,1,32.307-4.659Zm2.827.062v.9h.653v.615h-.653v2.064a.455.455,0,0,0,.084.306.388.388,0,0,0,.3.094,1.279,1.279,0,0,0,.291-.034V-.01a2.046,2.046,0,0,1-.547.079Q34.3.068,34.3-.988v-2.1h-.608V-3.7H34.3v-.9Zm2.105,1.3a1.3,1.3,0,0,1,1.029-.472q1.183,0,1.2,1.35V0h-.831V-2.386a.73.73,0,0,0-.166-.542.678.678,0,0,0-.487-.159.8.8,0,0,0-.745.444V0h-.831V-5.25h.831Zm2.912,1.412a2.181,2.181,0,0,1,.215-.979,1.573,1.573,0,0,1,.6-.67,1.7,1.7,0,0,1,.9-.234,1.615,1.615,0,0,1,1.215.482,1.9,1.9,0,0,1,.5,1.278l0,.195a2.2,2.2,0,0,1-.21.978,1.554,1.554,0,0,1-.6.667,1.717,1.717,0,0,1-.9.236,1.6,1.6,0,0,1-1.253-.521,2,2,0,0,1-.47-1.389Zm.831.072a1.49,1.49,0,0,0,.236.894.767.767,0,0,0,.656.323.758.758,0,0,0,.655-.328,1.646,1.646,0,0,0,.234-.96,1.471,1.471,0,0,0-.241-.889.769.769,0,0,0-.655-.328.762.762,0,0,0-.646.323A1.615,1.615,0,0,0,40.981-1.812ZM46.532-.362a1.288,1.288,0,0,1-1.039.431,1.148,1.148,0,0,1-.911-.352A1.5,1.5,0,0,1,44.273-1.3V-3.7H45.1v2.386q0,.7.584.7a.821.821,0,0,0,.817-.434V-3.7h.831V0h-.783ZM49.222-4.6v.9h.653v.615h-.653v2.064a.455.455,0,0,0,.084.306.388.388,0,0,0,.3.094A1.279,1.279,0,0,0,49.9-.653V-.01a2.046,2.046,0,0,1-.547.079q-.957,0-.957-1.056v-2.1h-.608V-3.7h.608v-.9Z" transform="translate(15508.354 13042.696)"/>
    <path id="Path_217" data-name="Path 217" d="M2.023-1.876a2.163,2.163,0,0,1,.405-1.376A1.3,1.3,0,0,1,3.5-3.767a1.218,1.218,0,0,1,.995.441L4.536-3.7h.749V-.113a1.49,1.49,0,0,1-.453,1.148,1.725,1.725,0,0,1-1.222.42,1.969,1.969,0,0,1-.795-.169,1.412,1.412,0,0,1-.59-.443l.393-.5A1.187,1.187,0,0,0,3.562.8.917.917,0,0,0,4.214.576a.858.858,0,0,0,.239-.658v-.25a1.223,1.223,0,0,1-.957.4A1.3,1.3,0,0,1,2.435-.448,2.233,2.233,0,0,1,2.023-1.876Zm.827.072a1.489,1.489,0,0,0,.227.877.731.731,0,0,0,.631.32.8.8,0,0,0,.745-.431V-2.666a.788.788,0,0,0-.738-.42.734.734,0,0,0-.637.325A1.667,1.667,0,0,0,2.851-1.8Zm3.131-.079A2.181,2.181,0,0,1,6.2-2.863a1.573,1.573,0,0,1,.6-.67,1.7,1.7,0,0,1,.9-.234,1.615,1.615,0,0,1,1.215.482,1.9,1.9,0,0,1,.5,1.278l0,.195a2.2,2.2,0,0,1-.21.978,1.554,1.554,0,0,1-.6.667,1.717,1.717,0,0,1-.9.236A1.6,1.6,0,0,1,6.451-.453a2,2,0,0,1-.47-1.389Zm.831.072a1.49,1.49,0,0,0,.236.894A.767.767,0,0,0,7.7-.595a.758.758,0,0,0,.655-.328,1.646,1.646,0,0,0,.234-.96,1.471,1.471,0,0,0-.241-.889A.769.769,0,0,0,7.7-3.1a.762.762,0,0,0-.646.323A1.615,1.615,0,0,0,6.812-1.812Zm3.165-.065a2.163,2.163,0,0,1,.405-1.376,1.3,1.3,0,0,1,1.075-.514,1.218,1.218,0,0,1,.995.441l.038-.373h.749V-.113a1.49,1.49,0,0,1-.453,1.148,1.725,1.725,0,0,1-1.222.42,1.969,1.969,0,0,1-.795-.169,1.412,1.412,0,0,1-.59-.443l.393-.5A1.187,1.187,0,0,0,11.515.8a.917.917,0,0,0,.653-.224.858.858,0,0,0,.239-.658v-.25a1.223,1.223,0,0,1-.957.4,1.3,1.3,0,0,1-1.061-.516A2.233,2.233,0,0,1,9.977-1.876ZM10.8-1.8a1.489,1.489,0,0,0,.227.877.731.731,0,0,0,.631.32.8.8,0,0,0,.745-.431V-2.666a.788.788,0,0,0-.738-.42.734.734,0,0,0-.637.325A1.667,1.667,0,0,0,10.8-1.8Zm3.141-.072a2.163,2.163,0,0,1,.405-1.376,1.3,1.3,0,0,1,1.075-.514,1.218,1.218,0,0,1,.995.441l.038-.373h.749V-.113a1.49,1.49,0,0,1-.453,1.148,1.725,1.725,0,0,1-1.222.42,1.969,1.969,0,0,1-.795-.169,1.412,1.412,0,0,1-.59-.443l.393-.5A1.187,1.187,0,0,0,15.483.8a.917.917,0,0,0,.653-.224.858.858,0,0,0,.239-.658v-.25a1.223,1.223,0,0,1-.957.4,1.3,1.3,0,0,1-1.061-.516A2.233,2.233,0,0,1,13.945-1.876Zm.827.072A1.489,1.489,0,0,0,15-.928a.731.731,0,0,0,.631.32.8.8,0,0,0,.745-.431V-2.666a.788.788,0,0,0-.738-.42A.734.734,0,0,0,15-2.762,1.667,1.667,0,0,0,14.772-1.8ZM18.942,0h-.831V-5.25h.831Zm2.533.068a1.718,1.718,0,0,1-1.28-.5,1.8,1.8,0,0,1-.49-1.324v-.1a2.219,2.219,0,0,1,.214-.99,1.626,1.626,0,0,1,.6-.678,1.586,1.586,0,0,1,.861-.243,1.452,1.452,0,0,1,1.167.482,2.038,2.038,0,0,1,.412,1.364v.335H20.542a1.111,1.111,0,0,0,.306.725.918.918,0,0,0,.675.267,1.125,1.125,0,0,0,.93-.461l.448.427a1.5,1.5,0,0,1-.593.514A1.857,1.857,0,0,1,21.475.068Zm-.1-3.168a.7.7,0,0,0-.552.239,1.24,1.24,0,0,0-.268.667h1.583v-.062a1.01,1.01,0,0,0-.222-.631A.694.694,0,0,0,21.376-3.1Zm4.3,2.1a.377.377,0,0,0-.183-.338,1.945,1.945,0,0,0-.607-.205,3.119,3.119,0,0,1-.708-.226.944.944,0,0,1-.622-.872.984.984,0,0,1,.4-.8,1.594,1.594,0,0,1,1.025-.321,1.659,1.659,0,0,1,1.072.328,1.041,1.041,0,0,1,.408.851h-.831a.512.512,0,0,0-.178-.4.681.681,0,0,0-.472-.159.736.736,0,0,0-.446.126.4.4,0,0,0-.173.338.337.337,0,0,0,.161.3,2.209,2.209,0,0,0,.649.214,3.074,3.074,0,0,1,.767.256,1.087,1.087,0,0,1,.414.357.911.911,0,0,1,.135.506.964.964,0,0,1-.414.808A1.763,1.763,0,0,1,25,.068a1.912,1.912,0,0,1-.81-.164,1.333,1.333,0,0,1-.554-.451,1.068,1.068,0,0,1-.2-.619h.807a.585.585,0,0,0,.222.453.863.863,0,0,0,.543.159.84.84,0,0,0,.5-.125A.386.386,0,0,0,25.676-1Z" transform="translate(15508.354 13056.537)"/>
    <path id="Path_211" data-name="Path 211" d="M4.32-.646a1.653,1.653,0,0,1-.749.533A3.054,3.054,0,0,1,2.485.068,2.142,2.142,0,0,1,1.377-.215a1.89,1.89,0,0,1-.743-.812A2.84,2.84,0,0,1,.362-2.259v-.39A2.634,2.634,0,0,1,.9-4.411,1.873,1.873,0,0,1,2.41-5.045a1.987,1.987,0,0,1,1.319.41,1.768,1.768,0,0,1,.588,1.183H3.469a.954.954,0,0,0-1.042-.9,1.022,1.022,0,0,0-.884.419A2.135,2.135,0,0,0,1.23-2.7v.383a2.027,2.027,0,0,0,.34,1.253,1.121,1.121,0,0,0,.945.446,1.246,1.246,0,0,0,.943-.3V-1.9H2.434v-.656H4.32Zm.714-1.237a2.181,2.181,0,0,1,.215-.979,1.573,1.573,0,0,1,.6-.67,1.7,1.7,0,0,1,.9-.234,1.615,1.615,0,0,1,1.215.482,1.9,1.9,0,0,1,.5,1.278l0,.195a2.2,2.2,0,0,1-.21.978,1.554,1.554,0,0,1-.6.667,1.717,1.717,0,0,1-.9.236A1.6,1.6,0,0,1,5.5-.453a2,2,0,0,1-.47-1.389Zm.831.072A1.49,1.49,0,0,0,6.1-.918a.767.767,0,0,0,.656.323.758.758,0,0,0,.655-.328,1.646,1.646,0,0,0,.234-.96,1.471,1.471,0,0,0-.241-.889A.769.769,0,0,0,6.75-3.1a.762.762,0,0,0-.646.323A1.615,1.615,0,0,0,5.865-1.812ZM9.03-1.876a2.163,2.163,0,0,1,.405-1.376,1.3,1.3,0,0,1,1.075-.514,1.218,1.218,0,0,1,.995.441l.038-.373h.749V-.113a1.49,1.49,0,0,1-.453,1.148,1.725,1.725,0,0,1-1.222.42,1.969,1.969,0,0,1-.795-.169,1.412,1.412,0,0,1-.59-.443l.393-.5A1.187,1.187,0,0,0,10.568.8a.917.917,0,0,0,.653-.224.858.858,0,0,0,.239-.658v-.25a1.223,1.223,0,0,1-.957.4A1.3,1.3,0,0,1,9.442-.448,2.233,2.233,0,0,1,9.03-1.876Zm.827.072a1.489,1.489,0,0,0,.227.877.731.731,0,0,0,.631.32.8.8,0,0,0,.745-.431V-2.666a.788.788,0,0,0-.738-.42.734.734,0,0,0-.637.325A1.667,1.667,0,0,0,9.857-1.8ZM13-1.876A2.163,2.163,0,0,1,13.4-3.252a1.3,1.3,0,0,1,1.075-.514,1.218,1.218,0,0,1,.995.441l.038-.373h.749V-.113a1.49,1.49,0,0,1-.453,1.148,1.725,1.725,0,0,1-1.222.42,1.969,1.969,0,0,1-.795-.169A1.412,1.412,0,0,1,13.2.844l.393-.5A1.187,1.187,0,0,0,14.537.8a.917.917,0,0,0,.653-.224.858.858,0,0,0,.239-.658v-.25a1.223,1.223,0,0,1-.957.4A1.3,1.3,0,0,1,13.41-.448,2.233,2.233,0,0,1,13-1.876Zm.827.072a1.489,1.489,0,0,0,.227.877.731.731,0,0,0,.631.32.8.8,0,0,0,.745-.431V-2.666a.788.788,0,0,0-.738-.42.734.734,0,0,0-.637.325A1.667,1.667,0,0,0,13.826-1.8ZM18,0h-.831V-5.25H18Zm2.533.068a1.718,1.718,0,0,1-1.28-.5,1.8,1.8,0,0,1-.49-1.324v-.1a2.219,2.219,0,0,1,.214-.99,1.626,1.626,0,0,1,.6-.678,1.586,1.586,0,0,1,.861-.243,1.452,1.452,0,0,1,1.167.482,2.038,2.038,0,0,1,.412,1.364v.335H19.6a1.111,1.111,0,0,0,.306.725.918.918,0,0,0,.675.267,1.125,1.125,0,0,0,.93-.461l.448.427a1.5,1.5,0,0,1-.593.514A1.857,1.857,0,0,1,20.528.068Zm-.1-3.168a.7.7,0,0,0-.552.239,1.24,1.24,0,0,0-.268.667h1.583v-.062a1.01,1.01,0,0,0-.222-.631A.694.694,0,0,0,20.429-3.1Zm4.3,2.1a.377.377,0,0,0-.183-.338,1.945,1.945,0,0,0-.607-.205,3.119,3.119,0,0,1-.708-.226.944.944,0,0,1-.622-.872.984.984,0,0,1,.4-.8,1.594,1.594,0,0,1,1.025-.321,1.659,1.659,0,0,1,1.072.328,1.041,1.041,0,0,1,.408.851h-.831a.512.512,0,0,0-.178-.4.681.681,0,0,0-.472-.159.736.736,0,0,0-.446.126.4.4,0,0,0-.173.338.337.337,0,0,0,.161.3,2.209,2.209,0,0,0,.649.214A3.074,3.074,0,0,1,25-1.912a1.087,1.087,0,0,1,.414.357.911.911,0,0,1,.135.506.964.964,0,0,1-.414.808,1.763,1.763,0,0,1-1.083.309,1.912,1.912,0,0,1-.81-.164,1.333,1.333,0,0,1-.554-.451,1.068,1.068,0,0,1-.2-.619h.807a.585.585,0,0,0,.222.453.863.863,0,0,0,.543.159.84.84,0,0,0,.5-.125A.386.386,0,0,0,24.729-1Zm3.127-.878a2.181,2.181,0,0,1,.215-.979,1.573,1.573,0,0,1,.6-.67,1.7,1.7,0,0,1,.9-.234,1.615,1.615,0,0,1,1.215.482,1.9,1.9,0,0,1,.5,1.278l0,.195a2.2,2.2,0,0,1-.21.978,1.554,1.554,0,0,1-.6.667,1.717,1.717,0,0,1-.9.236,1.6,1.6,0,0,1-1.253-.521,2,2,0,0,1-.47-1.389Zm.831.072a1.49,1.49,0,0,0,.236.894.767.767,0,0,0,.656.323.758.758,0,0,0,.655-.328,1.646,1.646,0,0,0,.234-.96,1.471,1.471,0,0,0-.241-.889.769.769,0,0,0-.655-.328.762.762,0,0,0-.646.323A1.615,1.615,0,0,0,28.687-1.812Zm4.563.759L34.033-3.7h.858L33.609,0h-.721L31.6-3.7h.861ZM37.037.068a1.718,1.718,0,0,1-1.28-.5,1.8,1.8,0,0,1-.49-1.324v-.1a2.219,2.219,0,0,1,.214-.99,1.626,1.626,0,0,1,.6-.678,1.586,1.586,0,0,1,.861-.243,1.452,1.452,0,0,1,1.167.482,2.038,2.038,0,0,1,.412,1.364v.335H36.1a1.111,1.111,0,0,0,.306.725.918.918,0,0,0,.675.267,1.125,1.125,0,0,0,.93-.461l.448.427a1.5,1.5,0,0,1-.593.514A1.857,1.857,0,0,1,37.037.068Zm-.1-3.168a.7.7,0,0,0-.552.239,1.24,1.24,0,0,0-.268.667H37.7v-.062a1.01,1.01,0,0,0-.222-.631A.694.694,0,0,0,36.938-3.1Zm4.163.161a2.055,2.055,0,0,0-.338-.027.762.762,0,0,0-.769.438V0h-.831V-3.7h.793l.021.414a.936.936,0,0,1,.834-.482.778.778,0,0,1,.294.048Z" transform="translate(15397.58 13079.37)"/>
    <path id="Path_212" data-name="Path 212" d="M1.945-.595a.751.751,0,0,0,.516-.181.619.619,0,0,0,.219-.448h.783a1.22,1.22,0,0,1-.215.644A1.412,1.412,0,0,1,2.7-.106a1.63,1.63,0,0,1-.745.174,1.577,1.577,0,0,1-1.23-.5A1.993,1.993,0,0,1,.27-1.822v-.085A1.96,1.96,0,0,1,.721-3.259a1.562,1.562,0,0,1,1.23-.508,1.519,1.519,0,0,1,1.075.385,1.377,1.377,0,0,1,.436,1.01H2.68A.761.761,0,0,0,2.463-2.9.7.7,0,0,0,1.945-3.1a.731.731,0,0,0-.622.292,1.491,1.491,0,0,0-.222.887v.133a1.516,1.516,0,0,0,.217.9A.73.73,0,0,0,1.945-.595ZM3.934-1.883a2.181,2.181,0,0,1,.215-.979,1.573,1.573,0,0,1,.6-.67,1.7,1.7,0,0,1,.9-.234,1.615,1.615,0,0,1,1.215.482,1.9,1.9,0,0,1,.5,1.278l0,.195a2.2,2.2,0,0,1-.21.978,1.554,1.554,0,0,1-.6.667,1.717,1.717,0,0,1-.9.236A1.6,1.6,0,0,1,4.4-.453a2,2,0,0,1-.47-1.389Zm.831.072A1.49,1.49,0,0,0,5-.918a.767.767,0,0,0,.656.323.758.758,0,0,0,.655-.328,1.646,1.646,0,0,0,.234-.96A1.471,1.471,0,0,0,6.3-2.772.769.769,0,0,0,5.65-3.1.762.762,0,0,0,5-2.777,1.615,1.615,0,0,0,4.765-1.812ZM8.846-3.7l.024.427a1.33,1.33,0,0,1,1.077-.5q1.155,0,1.176,1.323V0h-.831V-2.4a.762.762,0,0,0-.152-.521.64.64,0,0,0-.5-.169.8.8,0,0,0-.749.455V0H8.063V-3.7Zm4.163-.9v.9h.653v.615h-.653v2.064a.455.455,0,0,0,.084.306.388.388,0,0,0,.3.094,1.279,1.279,0,0,0,.291-.034V-.01a2.046,2.046,0,0,1-.547.079q-.957,0-.957-1.056v-2.1H11.57V-3.7h.608v-.9Zm3.5,4.6a1.282,1.282,0,0,1-.1-.345,1.293,1.293,0,0,1-.971.414A1.3,1.3,0,0,1,14.53-.25a1.017,1.017,0,0,1-.352-.786,1.05,1.05,0,0,1,.439-.907,2.128,2.128,0,0,1,1.256-.316h.509V-2.5a.648.648,0,0,0-.161-.46.637.637,0,0,0-.489-.173.732.732,0,0,0-.465.142.439.439,0,0,0-.181.361h-.831a.922.922,0,0,1,.2-.569,1.343,1.343,0,0,1,.549-.415,1.927,1.927,0,0,1,.774-.15,1.552,1.552,0,0,1,1.036.326,1.164,1.164,0,0,1,.4.918V-.854a1.89,1.89,0,0,0,.14.8V0Zm-.913-.6a.945.945,0,0,0,.463-.12.8.8,0,0,0,.326-.321v-.7h-.448a1.224,1.224,0,0,0-.694.161.52.52,0,0,0-.232.455.485.485,0,0,0,.159.381A.615.615,0,0,0,15.593-.6Zm4.009,0a.751.751,0,0,0,.516-.181.619.619,0,0,0,.219-.448h.783a1.22,1.22,0,0,1-.215.644,1.412,1.412,0,0,1-.547.473,1.63,1.63,0,0,1-.745.174,1.577,1.577,0,0,1-1.23-.5,1.993,1.993,0,0,1-.455-1.388v-.085a1.96,1.96,0,0,1,.451-1.352,1.562,1.562,0,0,1,1.23-.508,1.519,1.519,0,0,1,1.075.385,1.377,1.377,0,0,1,.436,1.01h-.783A.761.761,0,0,0,20.12-2.9.7.7,0,0,0,19.6-3.1a.731.731,0,0,0-.622.292,1.491,1.491,0,0,0-.222.887v.133a1.516,1.516,0,0,0,.217.9A.73.73,0,0,0,19.6-.595Zm3.186-4v.9h.653v.615h-.653v2.064a.455.455,0,0,0,.084.306.388.388,0,0,0,.3.094,1.279,1.279,0,0,0,.291-.034V-.01a2.046,2.046,0,0,1-.547.079q-.957,0-.957-1.056v-2.1h-.608V-3.7h.608v-.9ZM26.7,0h-.831V-5.25H26.7Zm2.533.068a1.718,1.718,0,0,1-1.28-.5,1.8,1.8,0,0,1-.49-1.324v-.1a2.219,2.219,0,0,1,.214-.99,1.626,1.626,0,0,1,.6-.678,1.586,1.586,0,0,1,.861-.243,1.452,1.452,0,0,1,1.167.482,2.038,2.038,0,0,1,.412,1.364v.335H28.3a1.111,1.111,0,0,0,.306.725.918.918,0,0,0,.675.267,1.125,1.125,0,0,0,.93-.461l.448.427a1.5,1.5,0,0,1-.593.514A1.857,1.857,0,0,1,29.234.068Zm-.1-3.168a.7.7,0,0,0-.552.239,1.24,1.24,0,0,0-.268.667H29.9v-.062a1.01,1.01,0,0,0-.222-.631A.694.694,0,0,0,29.135-3.1Zm3-.6.024.427a1.33,1.33,0,0,1,1.077-.5q1.155,0,1.176,1.323V0h-.831V-2.4a.762.762,0,0,0-.152-.521.64.64,0,0,0-.5-.169.8.8,0,0,0-.749.455V0H31.35V-3.7ZM37.328-1a.377.377,0,0,0-.183-.338,1.945,1.945,0,0,0-.607-.205,3.119,3.119,0,0,1-.708-.226.944.944,0,0,1-.622-.872.984.984,0,0,1,.4-.8,1.594,1.594,0,0,1,1.025-.321,1.659,1.659,0,0,1,1.072.328,1.041,1.041,0,0,1,.408.851h-.831a.512.512,0,0,0-.178-.4.681.681,0,0,0-.472-.159.736.736,0,0,0-.446.126.4.4,0,0,0-.173.338.337.337,0,0,0,.161.3,2.209,2.209,0,0,0,.649.214,3.074,3.074,0,0,1,.767.256,1.087,1.087,0,0,1,.414.357.911.911,0,0,1,.135.506.964.964,0,0,1-.414.808,1.763,1.763,0,0,1-1.083.309,1.912,1.912,0,0,1-.81-.164,1.333,1.333,0,0,1-.554-.451,1.068,1.068,0,0,1-.2-.619h.807a.585.585,0,0,0,.222.453.863.863,0,0,0,.543.159.84.84,0,0,0,.5-.125A.386.386,0,0,0,37.328-1ZM40.5.068a1.718,1.718,0,0,1-1.28-.5,1.8,1.8,0,0,1-.49-1.324v-.1a2.219,2.219,0,0,1,.214-.99,1.626,1.626,0,0,1,.6-.678,1.586,1.586,0,0,1,.861-.243,1.452,1.452,0,0,1,1.167.482,2.038,2.038,0,0,1,.412,1.364v.335H39.563a1.111,1.111,0,0,0,.306.725.918.918,0,0,0,.675.267,1.125,1.125,0,0,0,.93-.461l.448.427a1.5,1.5,0,0,1-.593.514A1.857,1.857,0,0,1,40.5.068ZM40.4-3.1a.7.7,0,0,0-.552.239,1.24,1.24,0,0,0-.268.667h1.583v-.062a1.01,1.01,0,0,0-.222-.631A.694.694,0,0,0,40.4-3.1ZM44.7-1a.377.377,0,0,0-.183-.338,1.945,1.945,0,0,0-.607-.205,3.119,3.119,0,0,1-.708-.226.944.944,0,0,1-.622-.872.984.984,0,0,1,.4-.8,1.594,1.594,0,0,1,1.025-.321,1.659,1.659,0,0,1,1.072.328,1.041,1.041,0,0,1,.408.851h-.831a.512.512,0,0,0-.178-.4.681.681,0,0,0-.472-.159.736.736,0,0,0-.446.126.4.4,0,0,0-.173.338.337.337,0,0,0,.161.3,2.209,2.209,0,0,0,.649.214,3.074,3.074,0,0,1,.767.256,1.087,1.087,0,0,1,.414.357.911.911,0,0,1,.135.506.964.964,0,0,1-.414.808,1.763,1.763,0,0,1-1.083.309,1.912,1.912,0,0,1-.81-.164,1.333,1.333,0,0,1-.554-.451,1.068,1.068,0,0,1-.2-.619h.807a.585.585,0,0,0,.222.453.863.863,0,0,0,.543.159.84.84,0,0,0,.5-.125A.386.386,0,0,0,44.7-1Z" transform="translate(15397.58 13093.21)"/>
    <path id="Path_65" data-name="Path 65" d="M659.679,736.73a12.253,12.253,0,1,1-12.253-12.253,12.253,12.253,0,0,1,12.253,12.253" transform="translate(14824.966 12333.486)" fill="#f7ca16"/>
    <path id="Path_216" data-name="Path 216" d="M1.1-4.583l.5-4.659H6.57v1.333H2.888L2.634-5.7a2.854,2.854,0,0,1,1.447-.368,2.575,2.575,0,0,1,2.053.844,3.346,3.346,0,0,1,.733,2.272A3.079,3.079,0,0,1,6.056-.708,2.965,2.965,0,0,1,3.828.127a3.106,3.106,0,0,1-2.1-.72,2.6,2.6,0,0,1-.9-1.9H2.311a1.629,1.629,0,0,0,.482,1.031A1.467,1.467,0,0,0,3.821-1.1a1.326,1.326,0,0,0,1.108-.508A2.192,2.192,0,0,0,5.326-3a1.937,1.937,0,0,0-.438-1.336,1.532,1.532,0,0,0-1.206-.492,2.006,2.006,0,0,0-.711.111,2.014,2.014,0,0,0-.635.435Z" transform="translate(15468.116 13074.238)"/>
    <path id="Path_66" data-name="Path 66" d="M601.6,657.736a29.086,29.086,0,1,1-29.086-29.086A29.086,29.086,0,0,1,601.6,657.736" transform="translate(14861.018 12371.143)" fill="#d3eaea"/>
    <path id="Path_213" data-name="Path 213" d="M9.563,0H.958V-1.468L5.221-6.117A10.615,10.615,0,0,0,6.535-7.835,2.784,2.784,0,0,0,6.926-9.22,2.1,2.1,0,0,0,6.412-10.7a1.783,1.783,0,0,0-1.384-.562,2.056,2.056,0,0,0-1.608.633,2.489,2.489,0,0,0-.571,1.731H.712A4.186,4.186,0,0,1,1.244-11a3.662,3.662,0,0,1,1.521-1.455,4.84,4.84,0,0,1,2.281-.519,4.329,4.329,0,0,1,2.94.936A3.249,3.249,0,0,1,9.062-9.448,4.392,4.392,0,0,1,8.521-7.44,11.42,11.42,0,0,1,6.75-5.054L3.621-1.705H9.563Zm10.23,0h-8.6V-1.468l4.263-4.649a10.615,10.615,0,0,0,1.314-1.718,2.784,2.784,0,0,0,.391-1.384,2.1,2.1,0,0,0-.514-1.477,1.783,1.783,0,0,0-1.384-.562,2.056,2.056,0,0,0-1.608.633,2.489,2.489,0,0,0-.571,1.731H10.942a4.186,4.186,0,0,1,.532-2.1,3.662,3.662,0,0,1,1.521-1.455,4.84,4.84,0,0,1,2.281-.519,4.329,4.329,0,0,1,2.94.936,3.249,3.249,0,0,1,1.077,2.588,4.392,4.392,0,0,1-.541,2.008A11.42,11.42,0,0,1,16.98-5.054L13.852-1.705h5.941Z" transform="translate(15422.13 13034.013)"/>
    <path id="Path_67" data-name="Path 67" d="M683.414,685.9a10.458,10.458,0,1,1-10.458-10.458A10.458,10.458,0,0,1,683.414,685.9" transform="translate(14814.229 12352.755)" fill="#ebbdda"/>
    <path id="Path_215" data-name="Path 215" d="M5.455-3.041H6.516V-1.9H5.455V0H4.031V-1.9H.346L.3-2.766l3.68-5.766H5.455Zm-3.656,0H4.031V-6.6l-.105.188Z" transform="translate(15482.829 13041.583)"/>
    <path id="Path_68" data-name="Path 68" d="M670.908,629.75a13.3,13.3,0,1,1-13.3-13.3,13.3,13.3,0,0,1,13.3,13.3" transform="translate(14821.379 12375.938)" fill="#38afab"/>
    <path id="Path_214" data-name="Path 214" d="M5.491-9.287v1.276H5.3A3.062,3.062,0,0,0,3.231-7.3a2.975,2.975,0,0,0-.92,1.961,2.5,2.5,0,0,1,1.9-.781,2.366,2.366,0,0,1,1.933.863,3.4,3.4,0,0,1,.708,2.228A3.179,3.179,0,0,1,6.021-.746,2.859,2.859,0,0,1,3.847.127,2.793,2.793,0,0,1,1.6-.9a4.02,4.02,0,0,1-.86-2.679V-4.1A5.656,5.656,0,0,1,1.927-7.909,4.245,4.245,0,0,1,5.332-9.287ZM3.834-4.875a1.624,1.624,0,0,0-.93.286,1.67,1.67,0,0,0-.619.762v.47a2.767,2.767,0,0,0,.432,1.635,1.316,1.316,0,0,0,1.117.606,1.3,1.3,0,0,0,1.085-.514,2.141,2.141,0,0,0,.4-1.352,2.172,2.172,0,0,0-.406-1.365A1.3,1.3,0,0,0,3.834-4.875Z" transform="translate(15474.621 13009.903)"/>
  </g>
</svg>
