<svg xmlns="http://www.w3.org/2000/svg" xmlns:xlink="http://www.w3.org/1999/xlink" width="213.509" height="74.112" viewBox="0 0 213.509 74.112">
  <defs>
    <clipPath id="clip-path">
      <path id="Path_120" data-name="Path 120" d="M652.236,141.811a16.86,16.86,0,1,1,16.858,16.862,16.862,16.862,0,0,1-16.858-16.862m-15.1,0a31.957,31.957,0,1,0,31.958-31.958,31.957,31.957,0,0,0-31.958,31.958" transform="translate(-637.136 -109.853)" fill="none"/>
    </clipPath>
    <clipPath id="clip-path-2">
      <path id="Path_127" data-name="Path 127" d="M888.542,145.7A17.058,17.058,0,1,1,905.6,162.74,17.048,17.048,0,0,1,888.542,145.7m-15.277,0A32.332,32.332,0,1,0,905.6,113.414,32.31,32.31,0,0,0,873.265,145.7" transform="translate(-873.265 -113.414)" fill="none"/>
    </clipPath>
  </defs>
  <g id="Group_510" data-name="Group 510" transform="translate(-15379.968 -13320.297)">
    <path id="Path_117" data-name="Path 117" d="M791.337,166.174h2.145a3.7,3.7,0,0,1,0,7.407h-2.145a3.7,3.7,0,0,1,0-7.407" transform="translate(14662.887 13188.01)" fill="#9fd4d0"/>
    <path id="Path_232" data-name="Path 232" d="M2.663-1.1a.515.515,0,0,0-.2-.434,2.379,2.379,0,0,0-.713-.308,3.445,3.445,0,0,1-.82-.346,1.1,1.1,0,0,1-.583-.955,1.039,1.039,0,0,1,.42-.85A1.7,1.7,0,0,1,1.86-4.324a1.843,1.843,0,0,1,.794.164,1.3,1.3,0,0,1,.548.467,1.2,1.2,0,0,1,.2.672H2.663a.668.668,0,0,0-.209-.523.865.865,0,0,0-.6-.189.9.9,0,0,0-.564.155.517.517,0,0,0-.2.434.468.468,0,0,0,.217.391,2.5,2.5,0,0,0,.715.3,3.288,3.288,0,0,1,.8.337,1.272,1.272,0,0,1,.442.434A1.129,1.129,0,0,1,3.4-1.1,1.015,1.015,0,0,1,3-.256,1.773,1.773,0,0,1,1.887.059a2.084,2.084,0,0,1-.851-.171,1.43,1.43,0,0,1-.6-.473,1.179,1.179,0,0,1-.215-.7H.958a.69.69,0,0,0,.24.563,1.052,1.052,0,0,0,.688.2.914.914,0,0,0,.582-.157A.506.506,0,0,0,2.663-1.1ZM6.548-1.9H4.8V-.592H6.844V0H4.055V-4.266H6.823v.6H4.8V-2.49H6.548Zm2.367-.82.9-1.541h.855L9.378-2.15,10.7,0H9.832L8.915-1.564,8,0H7.134L8.455-2.15,7.163-4.266h.855Z" transform="translate(15406.066 13361.666)"/>
    <g id="Group_452" data-name="Group 452" transform="translate(15379.968 13328.161)" clip-path="url(#clip-path)">
      <rect id="Rectangle_352" data-name="Rectangle 352" width="9.552" height="7.407" transform="translate(76.71 9.743)" fill="#eabdd9"/>
      <path id="Path_118" data-name="Path 118" d="M669.6,141.523l13.18,29.6a32.405,32.405,0,1,1-26.361-59.207,30.949,30.949,0,0,1,13.18-2.8Z" transform="translate(-637.165 -109.463)" fill="#9fd4d0"/>
      <rect id="Rectangle_353" data-name="Rectangle 353" width="9.552" height="7.407" transform="translate(76.71 20.854)" fill="#9fd4d0"/>
      <path id="Path_119" data-name="Path 119" d="M706.334,142.279V109.874a32.4,32.4,0,0,1,32.405,32.405,31.744,31.744,0,0,1-19.225,29.6Z" transform="translate(-673.895 -109.864)" fill="#ebbdda"/>
      <text id="Female" transform="translate(87.456 14.758)" fill="#2b2664" font-size="8" font-family="MedulaOne-Regular, Medula One"><tspan x="0" y="0">Female</tspan></text>
      <text id="Male" transform="translate(87.456 24.871)" fill="#2b2664" font-size="7" font-family="MedulaOne-Regular, Medula One"><tspan x="0" y="0">Male</tspan></text>
    </g>
    <path id="Path_121" data-name="Path 121" d="M791.337,142.474h2.145a3.7,3.7,0,0,1,0,7.407h-2.145a3.7,3.7,0,0,1,0-7.407" transform="translate(14662.887 13200.46)" fill="#eabdd9"/>
    <path id="Path_235" data-name="Path 235" d="M2.41-1.506H.979V0H.361V-3.555H2.62v.5H.979V-2H2.41ZM4.214.049A1.227,1.227,0,0,1,3.3-.306a1.289,1.289,0,0,1-.35-.946v-.073A1.585,1.585,0,0,1,3.1-2.032a1.161,1.161,0,0,1,.428-.485,1.133,1.133,0,0,1,.615-.173,1.037,1.037,0,0,1,.834.344,1.456,1.456,0,0,1,.294.974v.239H3.547a.793.793,0,0,0,.219.518.656.656,0,0,0,.482.19.8.8,0,0,0,.664-.33l.32.305a1.068,1.068,0,0,1-.424.367A1.326,1.326,0,0,1,4.214.049ZM4.143-2.214a.5.5,0,0,0-.394.171.886.886,0,0,0-.192.476h1.13v-.044a.721.721,0,0,0-.159-.45A.5.5,0,0,0,4.143-2.214Zm2.148-.427.017.276A.951.951,0,0,1,7.07-2.69a.73.73,0,0,1,.725.405.937.937,0,0,1,.811-.405.824.824,0,0,1,.651.242,1.064,1.064,0,0,1,.219.713V0H8.882V-1.719a.525.525,0,0,0-.11-.369A.481.481,0,0,0,8.408-2.2a.494.494,0,0,0-.331.109.573.573,0,0,0-.179.284L7.9,0H7.307V-1.738A.423.423,0,0,0,6.831-2.2a.522.522,0,0,0-.505.291V0H5.732V-2.642ZM11.663,0a.916.916,0,0,1-.068-.247.923.923,0,0,1-.693.3.932.932,0,0,1-.649-.227A.726.726,0,0,1,10-.74a.75.75,0,0,1,.314-.648,1.52,1.52,0,0,1,.9-.226h.364v-.173a.463.463,0,0,0-.115-.328.455.455,0,0,0-.349-.123.523.523,0,0,0-.332.1.314.314,0,0,0-.129.258h-.593a.658.658,0,0,1,.144-.406.96.96,0,0,1,.392-.3,1.376,1.376,0,0,1,.553-.107,1.108,1.108,0,0,1,.74.233.831.831,0,0,1,.283.656V-.61a1.35,1.35,0,0,0,.1.569V0Zm-.652-.427a.675.675,0,0,0,.331-.085.571.571,0,0,0,.233-.229v-.5h-.32a.875.875,0,0,0-.5.115.372.372,0,0,0-.166.325.347.347,0,0,0,.114.272A.44.44,0,0,0,11.011-.427ZM13.42,0h-.593V-3.75h.593Zm1.809.049a1.227,1.227,0,0,1-.914-.355,1.289,1.289,0,0,1-.35-.946v-.073a1.585,1.585,0,0,1,.153-.707,1.161,1.161,0,0,1,.428-.485,1.133,1.133,0,0,1,.615-.173,1.037,1.037,0,0,1,.834.344,1.456,1.456,0,0,1,.294.974v.239H14.563a.793.793,0,0,0,.219.518.656.656,0,0,0,.482.19.8.8,0,0,0,.664-.33l.32.305a1.068,1.068,0,0,1-.424.367A1.326,1.326,0,0,1,15.229.049Zm-.071-2.263a.5.5,0,0,0-.394.171.886.886,0,0,0-.192.476H15.7v-.044a.721.721,0,0,0-.159-.45A.5.5,0,0,0,15.159-2.214Z" transform="translate(15462.203 13347.934)"/>
    <path id="Path_236" data-name="Path 236" d="M1.162-3.555,2.188-.83,3.21-3.555h.8V0H3.394V-1.172l.061-1.567L2.4,0H1.963L.916-2.737.977-1.172V0H.361V-3.555ZM6.26,0a.916.916,0,0,1-.068-.247.923.923,0,0,1-.693.3.932.932,0,0,1-.649-.227A.726.726,0,0,1,4.6-.74a.75.75,0,0,1,.314-.648,1.52,1.52,0,0,1,.9-.226h.364v-.173a.463.463,0,0,0-.115-.328.455.455,0,0,0-.349-.123.523.523,0,0,0-.332.1.314.314,0,0,0-.129.258H4.653A.658.658,0,0,1,4.8-2.286a.96.96,0,0,1,.392-.3,1.376,1.376,0,0,1,.553-.107,1.108,1.108,0,0,1,.74.233.831.831,0,0,1,.283.656V-.61a1.35,1.35,0,0,0,.1.569V0ZM5.608-.427a.675.675,0,0,0,.331-.085.571.571,0,0,0,.233-.229v-.5h-.32a.875.875,0,0,0-.5.115A.372.372,0,0,0,5.19-.8.347.347,0,0,0,5.3-.529.44.44,0,0,0,5.608-.427ZM8.018,0H7.424V-3.75h.593ZM9.827.049a1.227,1.227,0,0,1-.914-.355,1.289,1.289,0,0,1-.35-.946v-.073a1.585,1.585,0,0,1,.153-.707,1.161,1.161,0,0,1,.428-.485,1.133,1.133,0,0,1,.615-.173,1.037,1.037,0,0,1,.834.344,1.456,1.456,0,0,1,.294.974v.239H9.16a.793.793,0,0,0,.219.518.656.656,0,0,0,.482.19.8.8,0,0,0,.664-.33l.32.305a1.068,1.068,0,0,1-.424.367A1.326,1.326,0,0,1,9.827.049ZM9.756-2.214a.5.5,0,0,0-.394.171.886.886,0,0,0-.192.476H10.3v-.044a.721.721,0,0,0-.159-.45A.5.5,0,0,0,9.756-2.214Z" transform="translate(15462.203 13359.184)"/>
    <path id="Path_233" data-name="Path 233" d="M.34-1.41.494-2.844H2.021v.41H.889l-.078.68a.878.878,0,0,1,.445-.113.792.792,0,0,1,.632.26,1.029,1.029,0,0,1,.226.7.947.947,0,0,1-.25.69.912.912,0,0,1-.686.257A.956.956,0,0,1,.53-.183.8.8,0,0,1,.252-.768H.711A.5.5,0,0,0,.859-.45a.452.452,0,0,0,.316.11A.408.408,0,0,0,1.517-.5a.674.674,0,0,0,.122-.426A.6.6,0,0,0,1.5-1.333a.471.471,0,0,0-.371-.151.617.617,0,0,0-.219.034.62.62,0,0,0-.2.134ZM3.963-2.857v.393H3.9a.942.942,0,0,0-.637.219.915.915,0,0,0-.283.6.771.771,0,0,1,.584-.24.728.728,0,0,1,.595.266,1.046,1.046,0,0,1,.218.686.978.978,0,0,1-.255.7.88.88,0,0,1-.669.269.859.859,0,0,1-.69-.314A1.237,1.237,0,0,1,2.5-1.1v-.162a1.74,1.74,0,0,1,.364-1.172,1.306,1.306,0,0,1,1.048-.424ZM3.453-1.5a.5.5,0,0,0-.286.088.514.514,0,0,0-.19.234v.145a.851.851,0,0,0,.133.5.405.405,0,0,0,.344.187A.4.4,0,0,0,3.787-.5.659.659,0,0,0,3.91-.918a.668.668,0,0,0-.125-.42A.4.4,0,0,0,3.453-1.5Zm1.633,1a.271.271,0,0,1,.205.075.261.261,0,0,1,.072.188.252.252,0,0,1-.072.185.275.275,0,0,1-.205.073.276.276,0,0,1-.2-.072.248.248,0,0,1-.074-.186.261.261,0,0,1,.072-.188A.268.268,0,0,1,5.086-.5ZM7.77-2.58,6.633,0h-.5L7.27-2.463H5.8v-.381H7.77Zm.361.283A.571.571,0,0,1,8.3-2.72a.591.591,0,0,1,.436-.165.593.593,0,0,1,.438.165.585.585,0,0,1,.165.433v.141a.567.567,0,0,1-.165.42.589.589,0,0,1-.435.164A.608.608,0,0,1,8.3-1.724a.569.569,0,0,1-.171-.435Zm.332.15a.312.312,0,0,0,.075.218.255.255,0,0,0,.2.083.249.249,0,0,0,.2-.083.326.326,0,0,0,.074-.226V-2.3a.316.316,0,0,0-.075-.219.253.253,0,0,0-.2-.084.246.246,0,0,0-.2.085.33.33,0,0,0-.073.224ZM9.5-.7a.559.559,0,0,1,.17-.424.6.6,0,0,1,.434-.162.6.6,0,0,1,.435.162.578.578,0,0,1,.169.438v.139a.571.571,0,0,1-.163.419.586.586,0,0,1-.437.165.6.6,0,0,1-.44-.163A.575.575,0,0,1,9.5-.555Zm.332.152a.311.311,0,0,0,.077.218.256.256,0,0,0,.2.085.248.248,0,0,0,.2-.081.333.333,0,0,0,.071-.228V-.7A.309.309,0,0,0,10.3-.916.255.255,0,0,0,10.1-1a.254.254,0,0,0-.2.082.323.323,0,0,0-.075.227Zm-1,.332L8.59-.354,9.979-2.576l.244.141Z" transform="translate(15417.699 13339.993)"/>
    <path id="Path_234" data-name="Path 234" d="M1.818-1.014h.354v.381H1.818V0H1.344V-.633H.115L.1-.922,1.328-2.844h.49ZM.6-1.014h.744V-2.2l-.035.063Zm2.436-.625h.289a.517.517,0,0,0,.347-.113A.4.4,0,0,0,3.8-2.074a.44.44,0,0,0-.106-.315A.428.428,0,0,0,3.367-2.5a.453.453,0,0,0-.314.11A.369.369,0,0,0,2.93-2.1H2.455a.718.718,0,0,1,.116-.4.781.781,0,0,1,.324-.28,1.056,1.056,0,0,1,.466-.1.978.978,0,0,1,.669.214.751.751,0,0,1,.243.595.6.6,0,0,1-.122.36.766.766,0,0,1-.315.255.7.7,0,0,1,.356.252.69.69,0,0,1,.122.41.764.764,0,0,1-.263.609,1.02,1.02,0,0,1-.69.227A1.012,1.012,0,0,1,2.689-.18a.72.72,0,0,1-.262-.582H2.9a.4.4,0,0,0,.126.3.478.478,0,0,0,.339.117.493.493,0,0,0,.348-.117A.44.44,0,0,0,3.842-.8a.444.444,0,0,0-.133-.346.568.568,0,0,0-.395-.121H3.035ZM5.086-.5a.271.271,0,0,1,.205.075.261.261,0,0,1,.072.188.252.252,0,0,1-.072.185.275.275,0,0,1-.205.073.276.276,0,0,1-.2-.072.248.248,0,0,1-.074-.186.261.261,0,0,1,.072-.188A.268.268,0,0,1,5.086-.5Zm1.34-1.139h.289a.517.517,0,0,0,.347-.113.4.4,0,0,0,.128-.322.44.44,0,0,0-.106-.315A.428.428,0,0,0,6.758-2.5a.453.453,0,0,0-.314.11A.369.369,0,0,0,6.32-2.1H5.846a.718.718,0,0,1,.116-.4.781.781,0,0,1,.324-.28,1.056,1.056,0,0,1,.466-.1.978.978,0,0,1,.669.214.751.751,0,0,1,.243.595.6.6,0,0,1-.122.36.766.766,0,0,1-.315.255.7.7,0,0,1,.356.252.69.69,0,0,1,.122.41.764.764,0,0,1-.263.609,1.02,1.02,0,0,1-.69.227A1.012,1.012,0,0,1,6.08-.18a.72.72,0,0,1-.262-.582h.475a.4.4,0,0,0,.126.3.478.478,0,0,0,.339.117.493.493,0,0,0,.348-.117A.44.44,0,0,0,7.232-.8.444.444,0,0,0,7.1-1.143a.568.568,0,0,0-.395-.121H6.426ZM8.131-2.3A.571.571,0,0,1,8.3-2.72a.591.591,0,0,1,.436-.165.593.593,0,0,1,.438.165.585.585,0,0,1,.165.433v.141a.567.567,0,0,1-.165.42.589.589,0,0,1-.435.164A.608.608,0,0,1,8.3-1.724a.569.569,0,0,1-.171-.435Zm.332.15a.312.312,0,0,0,.075.218.255.255,0,0,0,.2.083.249.249,0,0,0,.2-.083.326.326,0,0,0,.074-.226V-2.3a.316.316,0,0,0-.075-.219.253.253,0,0,0-.2-.084.246.246,0,0,0-.2.085.33.33,0,0,0-.073.224ZM9.5-.7a.559.559,0,0,1,.17-.424.6.6,0,0,1,.434-.162.6.6,0,0,1,.435.162.578.578,0,0,1,.169.438v.139a.571.571,0,0,1-.163.419.586.586,0,0,1-.437.165.6.6,0,0,1-.44-.163A.575.575,0,0,1,9.5-.555Zm.332.152a.311.311,0,0,0,.077.218.256.256,0,0,0,.2.085.248.248,0,0,0,.2-.081.333.333,0,0,0,.071-.228V-.7A.309.309,0,0,0,10.3-.916.255.255,0,0,0,10.1-1a.254.254,0,0,0-.2.082.323.323,0,0,0-.075.227Zm-1,.332L8.59-.354,9.979-2.576l.244.141Z" transform="translate(15398.619 13382.838)"/>
    <path id="Path_122" data-name="Path 122" d="M1037.446,167.9h2.145a3.7,3.7,0,1,1,0,7.407h-2.145a3.7,3.7,0,0,1,0-7.407" transform="translate(14532.15 13187.691)" fill="#00a1bb"/>
    <path id="Path_123" data-name="Path 123" d="M1037.446,191.6h2.145a3.7,3.7,0,1,1,0,7.407h-2.145a3.7,3.7,0,0,1,0-7.407" transform="translate(14532.15 13175.242)" fill="#f9cd00"/>
    <text id="AGE" transform="translate(15517.945 13364.06)" font-size="6" font-family="Roboto-Medium, Roboto" font-weight="500"><tspan x="0" y="0">AGE</tspan></text>
    <g id="Group_453" data-name="Group 453" transform="translate(15490.664 13329.831)" clip-path="url(#clip-path-2)">
      <rect id="Rectangle_354" data-name="Rectangle 354" width="9.552" height="7.407" transform="translate(76.676 10.057)" fill="#90cdcf"/>
      <rect id="Rectangle_355" data-name="Rectangle 355" width="9.552" height="7.407" transform="translate(76.676 10.057)" fill="none" stroke="#fff" stroke-miterlimit="10" stroke-width="1"/>
      <path id="Path_124" data-name="Path 124" d="M934.755,146.509l-6.737-31.7a30.824,30.824,0,0,1,6.737-.708Z" transform="translate(-902.351 -113.781)" fill="#00a1bb"/>
      <rect id="Rectangle_356" data-name="Rectangle 356" width="9.552" height="7.407" transform="translate(76.676 21.167)" fill="#00a1bb"/>
      <rect id="Rectangle_357" data-name="Rectangle 357" width="9.552" height="7.407" transform="translate(76.676 21.167)" fill="none" stroke="#fff" stroke-miterlimit="10" stroke-width="1"/>
      <path id="Path_125" data-name="Path 125" d="M905.667,146.557l19.047-26.216a32.405,32.405,0,1,1-45.263,7.169A31.2,31.2,0,0,1,898.93,114.86Z" transform="translate(-873.262 -114.182)" fill="#f9cd00"/>
      <rect id="Rectangle_358" data-name="Rectangle 358" width="9.552" height="7.407" transform="translate(76.676 32.278)" fill="#d3eaea"/>
      <rect id="Rectangle_359" data-name="Rectangle 359" width="9.552" height="7.407" transform="translate(76.676 32.278)" fill="none" stroke="#fff" stroke-miterlimit="10" stroke-width="1"/>
      <path id="Path_126" data-name="Path 126" d="M942.39,146.509V114.1a31.049,31.049,0,0,1,19.047,6.189Z" transform="translate(-909.985 -113.781)" fill="#90cdcf"/>
      <text id="_25-34" data-name="25-34" transform="translate(87.421 15.072)" fill="#2b2664" font-size="8" font-family="MedulaOne-Regular, Medula One"><tspan x="0" y="0">25</tspan><tspan y="0" letter-spacing="-0.013em">-</tspan><tspan y="0">34</tspan></text>
      <text id="_18-24" data-name="18-24" transform="translate(87.421 26.185)" fill="#2b2664" font-size="8" font-family="MedulaOne-Regular, Medula One"><tspan x="0" y="0">1</tspan><tspan y="0" letter-spacing="-0.005em">8</tspan><tspan y="0" letter-spacing="-0.015em">-</tspan><tspan y="0">24</tspan></text>
      <text id="under_18" data-name="under 18" transform="translate(87.421 37.298)" fill="#2b2664" font-size="8" font-family="MedulaOne-Regular, Medula One"><tspan x="0" y="0">under 18</tspan></text>
    </g>
    <path id="Path_128" data-name="Path 128" d="M1038.1,144.2h2.145a3.7,3.7,0,0,1,0,7.407H1038.1a3.7,3.7,0,0,1,0-7.407" transform="translate(14531.805 13199.672)" fill="#90cdcf"/>
    <path id="Path_240" data-name="Path 240" d="M1.523-.207A.736.736,0,0,1,.93.039a.656.656,0,0,1-.521-.2A.856.856,0,0,1,.232-.744V-2.113H.707V-.75q0,.4.334.4A.469.469,0,0,0,1.508-.6V-2.113h.475V0H1.535ZM2.906-2.113l.014.244a.76.76,0,0,1,.615-.283q.66,0,.672.756V0H3.732V-1.369a.435.435,0,0,0-.087-.3.366.366,0,0,0-.284-.1.457.457,0,0,0-.428.26V0H2.459V-2.113ZM4.6-1.072a1.256,1.256,0,0,1,.227-.784.726.726,0,0,1,.607-.3.69.69,0,0,1,.543.234V-3h.475V0h-.43L6-.219a.7.7,0,0,1-.568.258.722.722,0,0,1-.6-.3A1.3,1.3,0,0,1,4.6-1.072Zm.475.041a.88.88,0,0,0,.124.5.4.4,0,0,0,.353.181.448.448,0,0,0,.426-.26v-.9a.441.441,0,0,0-.422-.254.405.405,0,0,0-.355.183A.98.98,0,0,0,5.076-1.031Zm2.8,1.07a.982.982,0,0,1-.731-.284A1.031,1.031,0,0,1,6.867-1v-.059a1.268,1.268,0,0,1,.122-.565.929.929,0,0,1,.343-.388.906.906,0,0,1,.492-.139.829.829,0,0,1,.667.275,1.164,1.164,0,0,1,.235.779v.191H7.346a.635.635,0,0,0,.175.414.525.525,0,0,0,.386.152A.643.643,0,0,0,8.438-.6l.256.244a.854.854,0,0,1-.339.294A1.061,1.061,0,0,1,7.879.039ZM7.822-1.771a.4.4,0,0,0-.315.137.709.709,0,0,0-.153.381h.9v-.035a.577.577,0,0,0-.127-.36A.4.4,0,0,0,7.822-1.771ZM10.2-1.68a1.174,1.174,0,0,0-.193-.016.435.435,0,0,0-.439.25V0H9.094V-2.113h.453l.012.236a.535.535,0,0,1,.477-.275.444.444,0,0,1,.168.027ZM12.752,0h-.473V-2.283l-.7.238v-.4l1.109-.408h.061Zm2.779-2.094a.661.661,0,0,1-.107.372.745.745,0,0,1-.293.257.812.812,0,0,1,.343.283.714.714,0,0,1,.12.406.746.746,0,0,1-.254.595,1,1,0,0,1-.676.22,1,1,0,0,1-.679-.221.745.745,0,0,1-.255-.594.723.723,0,0,1,.121-.41.778.778,0,0,1,.34-.279.741.741,0,0,1-.29-.257.666.666,0,0,1-.106-.372.74.74,0,0,1,.234-.576.905.905,0,0,1,.633-.213.908.908,0,0,1,.635.213A.74.74,0,0,1,15.531-2.094ZM15.119-.8a.469.469,0,0,0-.126-.341.443.443,0,0,0-.333-.13.438.438,0,0,0-.331.129.472.472,0,0,0-.124.342.457.457,0,0,0,.122.334.449.449,0,0,0,.337.125A.451.451,0,0,0,15-.461.459.459,0,0,0,15.119-.8Zm-.061-1.277a.441.441,0,0,0-.107-.306.368.368,0,0,0-.289-.12.372.372,0,0,0-.287.114.441.441,0,0,0-.105.312.44.44,0,0,0,.106.311.373.373,0,0,0,.288.115.373.373,0,0,0,.288-.115A.44.44,0,0,0,15.059-2.076Z" transform="translate(15577.883 13347.871)"/>
    <path id="Path_242" data-name="Path 242" d="M2.656,0H.266V-.408L1.45-1.7a2.949,2.949,0,0,0,.365-.477.773.773,0,0,0,.109-.385.584.584,0,0,0-.143-.41A.5.5,0,0,0,1.4-3.127a.571.571,0,0,0-.447.176.691.691,0,0,0-.159.481H.2a1.163,1.163,0,0,1,.148-.585,1.017,1.017,0,0,1,.422-.4A1.344,1.344,0,0,1,1.4-3.6a1.2,1.2,0,0,1,.817.26.9.9,0,0,1,.3.719,1.22,1.22,0,0,1-.15.558,3.172,3.172,0,0,1-.492.663l-.869.93h1.65Zm.61-1.763.193-1.792H5.369v.513H3.953l-.1.85a1.1,1.1,0,0,1,.557-.142.99.99,0,0,1,.79.325,1.287,1.287,0,0,1,.282.874,1.184,1.184,0,0,1-.312.863,1.141,1.141,0,0,1-.857.321A1.2,1.2,0,0,1,3.5-.228a1,1,0,0,1-.348-.731H3.73a.627.627,0,0,0,.186.4.564.564,0,0,0,.4.138.51.51,0,0,0,.426-.2.843.843,0,0,0,.153-.532.745.745,0,0,0-.168-.514.589.589,0,0,0-.464-.189.772.772,0,0,0-.273.043.774.774,0,0,0-.244.167Zm3.872.491H5.857V-1.75H7.139Zm1.073-.776h.361a.647.647,0,0,0,.433-.142.505.505,0,0,0,.16-.4.551.551,0,0,0-.133-.394.535.535,0,0,0-.406-.14.566.566,0,0,0-.393.138.461.461,0,0,0-.154.36H7.486a.9.9,0,0,1,.145-.5.976.976,0,0,1,.405-.35A1.32,1.32,0,0,1,8.619-3.6a1.223,1.223,0,0,1,.836.267.938.938,0,0,1,.3.743.755.755,0,0,1-.153.45.957.957,0,0,1-.394.319.872.872,0,0,1,.446.315A.862.862,0,0,1,9.81-1a.955.955,0,0,1-.328.762,1.275,1.275,0,0,1-.863.283,1.265,1.265,0,0,1-.84-.273.9.9,0,0,1-.327-.728h.593A.5.5,0,0,0,8.2-.571a.6.6,0,0,0,.424.146.616.616,0,0,0,.435-.146A.549.549,0,0,0,9.22-1a.555.555,0,0,0-.166-.432A.71.71,0,0,0,8.56-1.58H8.211Zm4.163.781h.442v.476h-.442V0h-.593V-.791H10.245l-.017-.361,1.533-2.4h.613Zm-1.523,0h.93V-2.751l-.044.078Z" transform="translate(15577.883 13371.842)"/>
    <path id="Path_241" data-name="Path 241" d="M1.5,0H1.025V-2.283l-.7.238v-.4l1.109-.408H1.5ZM4.277-2.094a.661.661,0,0,1-.107.372.745.745,0,0,1-.293.257.812.812,0,0,1,.343.283.714.714,0,0,1,.12.406.746.746,0,0,1-.254.595,1,1,0,0,1-.676.22,1,1,0,0,1-.679-.221.745.745,0,0,1-.255-.594.723.723,0,0,1,.121-.41.778.778,0,0,1,.34-.279.741.741,0,0,1-.29-.257.666.666,0,0,1-.106-.372.74.74,0,0,1,.234-.576.905.905,0,0,1,.633-.213.908.908,0,0,1,.635.213A.74.74,0,0,1,4.277-2.094ZM3.865-.8a.469.469,0,0,0-.126-.341.443.443,0,0,0-.333-.13.438.438,0,0,0-.331.129A.472.472,0,0,0,2.951-.8a.457.457,0,0,0,.122.334A.449.449,0,0,0,3.41-.34a.451.451,0,0,0,.335-.121A.459.459,0,0,0,3.865-.8ZM3.8-2.076A.441.441,0,0,0,3.7-2.382a.368.368,0,0,0-.289-.12.372.372,0,0,0-.287.114.441.441,0,0,0-.105.312.44.44,0,0,0,.106.311.373.373,0,0,0,.288.115A.373.373,0,0,0,3.7-1.766.44.44,0,0,0,3.8-2.076ZM5.691-1.018H4.666V-1.4H5.691ZM7.9,0H5.992V-.326L6.94-1.359a2.359,2.359,0,0,0,.292-.382.619.619,0,0,0,.087-.308A.467.467,0,0,0,7.2-2.377.4.4,0,0,0,6.9-2.5a.457.457,0,0,0-.357.141.553.553,0,0,0-.127.385H5.938a.93.93,0,0,1,.118-.468.814.814,0,0,1,.338-.323A1.075,1.075,0,0,1,6.9-2.883a.962.962,0,0,1,.653.208.722.722,0,0,1,.239.575.976.976,0,0,1-.12.446,2.538,2.538,0,0,1-.394.53l-.7.744H7.9ZM9.871-1.014h.354v.381H9.871V0H9.4V-.633H8.168L8.154-.922,9.381-2.844h.49Zm-1.219,0H9.4V-2.2l-.035.063Z" transform="translate(15577.883 13359.591)"/>
    <path id="Path_239" data-name="Path 239" d="M2-2.094a.661.661,0,0,1-.107.372.745.745,0,0,1-.293.257.812.812,0,0,1,.343.283.714.714,0,0,1,.12.406.746.746,0,0,1-.254.595,1,1,0,0,1-.676.22A1,1,0,0,1,.458-.182.745.745,0,0,1,.2-.775a.723.723,0,0,1,.121-.41.778.778,0,0,1,.34-.279.741.741,0,0,1-.29-.257.666.666,0,0,1-.106-.372A.74.74,0,0,1,.5-2.67a.905.905,0,0,1,.633-.213.908.908,0,0,1,.635.213A.74.74,0,0,1,2-2.094ZM1.592-.8a.469.469,0,0,0-.126-.341.443.443,0,0,0-.333-.13A.438.438,0,0,0,.8-1.141.472.472,0,0,0,.678-.8.457.457,0,0,0,.8-.465a.449.449,0,0,0,.337.125.451.451,0,0,0,.335-.121A.459.459,0,0,0,1.592-.8ZM1.531-2.076a.441.441,0,0,0-.107-.306.368.368,0,0,0-.289-.12.372.372,0,0,0-.287.114.441.441,0,0,0-.105.312.44.44,0,0,0,.106.311.373.373,0,0,0,.288.115.373.373,0,0,0,.288-.115A.44.44,0,0,0,1.531-2.076Zm2.432-.781v.393H3.9a.942.942,0,0,0-.637.219.915.915,0,0,0-.283.6.771.771,0,0,1,.584-.24.728.728,0,0,1,.595.266,1.046,1.046,0,0,1,.218.686.978.978,0,0,1-.255.7.88.88,0,0,1-.669.269.859.859,0,0,1-.69-.314A1.237,1.237,0,0,1,2.5-1.1v-.162a1.74,1.74,0,0,1,.364-1.172,1.306,1.306,0,0,1,1.048-.424ZM3.453-1.5a.5.5,0,0,0-.286.088.514.514,0,0,0-.19.234v.145a.851.851,0,0,0,.133.5.405.405,0,0,0,.344.187A.4.4,0,0,0,3.787-.5.659.659,0,0,0,3.91-.918a.668.668,0,0,0-.125-.42A.4.4,0,0,0,3.453-1.5Zm1.633,1a.271.271,0,0,1,.205.075.261.261,0,0,1,.072.188.252.252,0,0,1-.072.185.275.275,0,0,1-.205.073.276.276,0,0,1-.2-.072.248.248,0,0,1-.074-.186.261.261,0,0,1,.072-.188A.268.268,0,0,1,5.086-.5ZM7.77-2.58,6.633,0h-.5L7.27-2.463H5.8v-.381H7.77Zm.361.283A.571.571,0,0,1,8.3-2.72a.591.591,0,0,1,.436-.165.593.593,0,0,1,.438.165.585.585,0,0,1,.165.433v.141a.567.567,0,0,1-.165.42.589.589,0,0,1-.435.164A.608.608,0,0,1,8.3-1.724a.569.569,0,0,1-.171-.435Zm.332.15a.312.312,0,0,0,.075.218.255.255,0,0,0,.2.083.249.249,0,0,0,.2-.083.326.326,0,0,0,.074-.226V-2.3a.316.316,0,0,0-.075-.219.253.253,0,0,0-.2-.084.246.246,0,0,0-.2.085.33.33,0,0,0-.073.224ZM9.5-.7a.559.559,0,0,1,.17-.424.6.6,0,0,1,.434-.162.6.6,0,0,1,.435.162.578.578,0,0,1,.169.438v.139a.571.571,0,0,1-.163.419.586.586,0,0,1-.437.165.6.6,0,0,1-.44-.163A.575.575,0,0,1,9.5-.555Zm.332.152a.311.311,0,0,0,.077.218.256.256,0,0,0,.2.085.248.248,0,0,0,.2-.081.333.333,0,0,0,.071-.228V-.7A.309.309,0,0,0,10.3-.916.255.255,0,0,0,10.1-1a.254.254,0,0,0-.2.082.323.323,0,0,0-.075.227Zm-1,.332L8.59-.354,9.979-2.576l.244.141Z" transform="translate(15517.242 13387.408)"/>
    <path id="Path_237" data-name="Path 237" d="M1.5,0H1.025V-2.283l-.7.238v-.4l1.109-.408H1.5ZM4.34-1.2a1.551,1.551,0,0,1-.229.925.811.811,0,0,1-.7.312.821.821,0,0,1-.694-.3,1.485,1.485,0,0,1-.239-.9v-.492a1.528,1.528,0,0,1,.229-.92.818.818,0,0,1,.7-.307.823.823,0,0,1,.7.3,1.481,1.481,0,0,1,.235.895Zm-.475-.531a1.2,1.2,0,0,0-.109-.587A.373.373,0,0,0,3.408-2.5a.373.373,0,0,0-.342.177,1.112,1.112,0,0,0-.115.552v.645a1.234,1.234,0,0,0,.111.594.374.374,0,0,0,.35.2A.367.367,0,0,0,3.75-.521a1.161,1.161,0,0,0,.115-.565ZM5.086-.5a.271.271,0,0,1,.205.075.261.261,0,0,1,.072.188.252.252,0,0,1-.072.185.275.275,0,0,1-.205.073.276.276,0,0,1-.2-.072.248.248,0,0,1-.074-.186.261.261,0,0,1,.072-.188A.268.268,0,0,1,5.086-.5ZM7.73-1.2A1.551,1.551,0,0,1,7.5-.272a.811.811,0,0,1-.7.312.821.821,0,0,1-.694-.3,1.485,1.485,0,0,1-.239-.9v-.492a1.528,1.528,0,0,1,.229-.92.818.818,0,0,1,.7-.307.823.823,0,0,1,.7.3,1.481,1.481,0,0,1,.235.895Zm-.475-.531a1.2,1.2,0,0,0-.109-.587A.373.373,0,0,0,6.8-2.5a.373.373,0,0,0-.342.177,1.112,1.112,0,0,0-.115.552v.645a1.234,1.234,0,0,0,.111.594.374.374,0,0,0,.35.2.367.367,0,0,0,.338-.181,1.161,1.161,0,0,0,.115-.565ZM8.131-2.3A.571.571,0,0,1,8.3-2.72a.591.591,0,0,1,.436-.165.593.593,0,0,1,.438.165.585.585,0,0,1,.165.433v.141a.567.567,0,0,1-.165.42.589.589,0,0,1-.435.164A.608.608,0,0,1,8.3-1.724a.569.569,0,0,1-.171-.435Zm.332.15a.312.312,0,0,0,.075.218.255.255,0,0,0,.2.083.249.249,0,0,0,.2-.083.326.326,0,0,0,.074-.226V-2.3a.316.316,0,0,0-.075-.219.253.253,0,0,0-.2-.084.246.246,0,0,0-.2.085.33.33,0,0,0-.073.224ZM9.5-.7a.559.559,0,0,1,.17-.424.6.6,0,0,1,.434-.162.6.6,0,0,1,.435.162.578.578,0,0,1,.169.438v.139a.571.571,0,0,1-.163.419.586.586,0,0,1-.437.165.6.6,0,0,1-.44-.163A.575.575,0,0,1,9.5-.555Zm.332.152a.311.311,0,0,0,.077.218.256.256,0,0,0,.2.085.248.248,0,0,0,.2-.081.333.333,0,0,0,.071-.228V-.7A.309.309,0,0,0,10.3-.916.255.255,0,0,0,10.1-1a.254.254,0,0,0-.2.082.323.323,0,0,0-.075.227Zm-1,.332L8.59-.354,9.979-2.576l.244.141Z" transform="translate(15524.031 13338.586)"/>
    <path id="Path_238" data-name="Path 238" d="M.762-1.639h.289A.517.517,0,0,0,1.4-1.752a.4.4,0,0,0,.128-.322.44.44,0,0,0-.106-.315A.428.428,0,0,0,1.094-2.5a.453.453,0,0,0-.314.11A.369.369,0,0,0,.656-2.1H.182A.718.718,0,0,1,.3-2.5a.781.781,0,0,1,.324-.28,1.056,1.056,0,0,1,.466-.1.978.978,0,0,1,.669.214A.751.751,0,0,1,2-2.074a.6.6,0,0,1-.122.36.766.766,0,0,1-.315.255.7.7,0,0,1,.356.252.69.69,0,0,1,.122.41.764.764,0,0,1-.263.609,1.02,1.02,0,0,1-.69.227A1.012,1.012,0,0,1,.416-.18.72.72,0,0,1,.154-.762H.629a.4.4,0,0,0,.126.3.478.478,0,0,0,.339.117.493.493,0,0,0,.348-.117A.44.44,0,0,0,1.568-.8a.444.444,0,0,0-.133-.346.568.568,0,0,0-.395-.121H.762ZM2.813-.5a.271.271,0,0,1,.205.075.261.261,0,0,1,.072.188.252.252,0,0,1-.072.185.275.275,0,0,1-.205.073.276.276,0,0,1-.2-.072.248.248,0,0,1-.074-.186.261.261,0,0,1,.072-.188A.268.268,0,0,1,2.813-.5Zm1.34-1.139h.289a.517.517,0,0,0,.347-.113.4.4,0,0,0,.128-.322A.44.44,0,0,0,4.81-2.39.428.428,0,0,0,4.484-2.5a.453.453,0,0,0-.314.11.369.369,0,0,0-.123.288H3.572a.718.718,0,0,1,.116-.4.781.781,0,0,1,.324-.28,1.056,1.056,0,0,1,.466-.1.978.978,0,0,1,.669.214.751.751,0,0,1,.243.595.6.6,0,0,1-.122.36.766.766,0,0,1-.315.255.7.7,0,0,1,.356.252.69.69,0,0,1,.122.41.764.764,0,0,1-.263.609,1.02,1.02,0,0,1-.69.227A1.012,1.012,0,0,1,3.807-.18a.72.72,0,0,1-.262-.582H4.02a.4.4,0,0,0,.126.3.478.478,0,0,0,.339.117.493.493,0,0,0,.348-.117A.44.44,0,0,0,4.959-.8a.444.444,0,0,0-.133-.346.568.568,0,0,0-.395-.121H4.152ZM5.857-2.3a.571.571,0,0,1,.166-.423.591.591,0,0,1,.436-.165A.593.593,0,0,1,6.9-2.72a.585.585,0,0,1,.165.433v.141a.567.567,0,0,1-.165.42.589.589,0,0,1-.435.164.608.608,0,0,1-.435-.161.569.569,0,0,1-.171-.435Zm.332.15a.312.312,0,0,0,.075.218.255.255,0,0,0,.2.083.249.249,0,0,0,.2-.083.326.326,0,0,0,.074-.226V-2.3a.316.316,0,0,0-.075-.219.253.253,0,0,0-.2-.084.246.246,0,0,0-.2.085.33.33,0,0,0-.073.224ZM7.225-.7a.559.559,0,0,1,.17-.424.6.6,0,0,1,.434-.162.6.6,0,0,1,.435.162.578.578,0,0,1,.169.438v.139a.571.571,0,0,1-.163.419.586.586,0,0,1-.437.165.6.6,0,0,1-.44-.163.575.575,0,0,1-.167-.431Zm.332.152a.311.311,0,0,0,.077.218.256.256,0,0,0,.2.085.248.248,0,0,0,.2-.081A.333.333,0,0,0,8.1-.551V-.7a.309.309,0,0,0-.076-.219A.255.255,0,0,0,7.828-1a.254.254,0,0,0-.2.082.323.323,0,0,0-.075.227Zm-1,.332L6.316-.354,7.705-2.576l.244.141Z" transform="translate(15514.508 13323.182)"/>
    <line id="Line_120" data-name="Line 120" x2="0.843" y2="7.26" transform="translate(15519.703 13326.623)" fill="#1f3d8f"/>
    <line id="Line_121" data-name="Line 121" x2="0.843" y2="7.26" transform="translate(15519.703 13326.623)" fill="none" stroke="#000" stroke-linecap="round" stroke-miterlimit="10" stroke-width="2"/>
  </g>
</svg>
