<svg xmlns="http://www.w3.org/2000/svg" width="213.929" height="88.151" viewBox="0 0 213.929 88.151">
  <g id="Group_512" data-name="Group 512" transform="translate(-15476.423 -13694.728)">
    <line id="Line_122" data-name="Line 122" x2="204.305" transform="translate(15481.469 13699.774)" fill="none" stroke="#b0b0b0" stroke-miterlimit="10" stroke-width="1"/>
    <line id="Line_123" data-name="Line 123" x2="204.305" transform="translate(15481.469 13718.622)" fill="none" stroke="#b0b0b0" stroke-miterlimit="10" stroke-width="1"/>
    <line id="Line_124" data-name="Line 124" x2="204.305" transform="translate(15481.469 13738.57)" fill="none" stroke="#b0b0b0" stroke-miterlimit="10" stroke-width="1"/>
    <line id="Line_125" data-name="Line 125" x2="204.305" transform="translate(15481.469 13757.97)" fill="none" stroke="#b0b0b0" stroke-miterlimit="10" stroke-width="1"/>
    <line id="Line_126" data-name="Line 126" y1="58.745" transform="translate(15493.563 13718.622)" fill="none" stroke="#38afab" stroke-miterlimit="10" stroke-width="2"/>
    <line id="Line_127" data-name="Line 127" y1="9.339" transform="translate(15506.904 13768.397)" fill="none" stroke="#38afab" stroke-miterlimit="10" stroke-width="2"/>
    <line id="Line_128" data-name="Line 128" y1="39.165" transform="translate(15523.324 13738.57)" fill="none" stroke="#38afab" stroke-miterlimit="10" stroke-width="2"/>
    <line id="Line_129" data-name="Line 129" y1="9.278" transform="translate(15528.275 13768.458)" fill="none" stroke="#38afab" stroke-miterlimit="10" stroke-width="2"/>
    <line id="Line_130" data-name="Line 130" y1="19.79" transform="translate(15532.613 13757.969)" fill="none" stroke="#38afab" stroke-miterlimit="10" stroke-width="2"/>
    <line id="Line_131" data-name="Line 131" y1="59.114" transform="translate(15535.797 13718.622)" fill="none" stroke="#38afab" stroke-miterlimit="10" stroke-width="2"/>
    <line id="Line_132" data-name="Line 132" y1="19.398" transform="translate(15550.771 13757.969)" fill="none" stroke="#38afab" stroke-miterlimit="10" stroke-width="2"/>
    <line id="Line_133" data-name="Line 133" y1="39.165" transform="translate(15576.48 13738.57)" fill="none" stroke="#38afab" stroke-miterlimit="10" stroke-width="2"/>
    <line id="Line_134" data-name="Line 134" y1="8.909" transform="translate(15604.883 13768.458)" fill="none" stroke="#38afab" stroke-miterlimit="10" stroke-width="2"/>
    <line id="Line_135" data-name="Line 135" y1="8.909" transform="translate(15632.604 13768.458)" fill="none" stroke="#38afab" stroke-miterlimit="10" stroke-width="2"/>
    <path id="Path_138" data-name="Path 138" d="M349.372,102.835v0Z" transform="translate(15336.401 13674.534)" fill="#1d1d1b"/>
    <line id="Line_136" data-name="Line 136" y1="82.64" transform="translate(15685.773 13694.728)" fill="none" stroke="#1d1d1b" stroke-miterlimit="10" stroke-width="2"/>
    <path id="Path_266" data-name="Path 266" d="M2.5-2.617a.826.826,0,0,1-.134.465A.931.931,0,0,1,2-1.831a1.014,1.014,0,0,1,.428.354.893.893,0,0,1,.15.508.933.933,0,0,1-.317.743,1.246,1.246,0,0,1-.845.275A1.251,1.251,0,0,1,.573-.227.932.932,0,0,1,.254-.969a.9.9,0,0,1,.151-.513A.972.972,0,0,1,.83-1.831a.926.926,0,0,1-.363-.321.832.832,0,0,1-.133-.465.925.925,0,0,1,.293-.72A1.132,1.132,0,0,1,1.418-3.6a1.135,1.135,0,0,1,.793.266A.925.925,0,0,1,2.5-2.617ZM1.99-1a.586.586,0,0,0-.157-.426.553.553,0,0,0-.416-.162A.548.548,0,0,0,1-1.426.59.59,0,0,0,.847-1,.572.572,0,0,0,1-.581a.562.562,0,0,0,.421.156A.563.563,0,0,0,1.84-.576.574.574,0,0,0,1.99-1ZM1.914-2.6a.552.552,0,0,0-.134-.382.461.461,0,0,0-.361-.15.464.464,0,0,0-.359.143A.552.552,0,0,0,.928-2.6a.55.55,0,0,0,.133.388.466.466,0,0,0,.36.144.466.466,0,0,0,.36-.144A.55.55,0,0,0,1.914-2.6Z" transform="translate(15687.637 13699.992)" fill="#1d1d1b"/>
    <path id="Path_267" data-name="Path 267" d="M2.112-3.572v.491H2.039a1.178,1.178,0,0,0-.8.273,1.144,1.144,0,0,0-.354.754.963.963,0,0,1,.73-.3.91.91,0,0,1,.743.332,1.308,1.308,0,0,1,.272.857,1.223,1.223,0,0,1-.319.878,1.1,1.1,0,0,1-.836.336A1.074,1.074,0,0,1,.616-.344a1.546,1.546,0,0,1-.331-1.03v-.2A2.176,2.176,0,0,1,.741-3.042a1.633,1.633,0,0,1,1.31-.53Zm-.637,1.7a.625.625,0,0,0-.358.11.642.642,0,0,0-.238.293v.181a1.064,1.064,0,0,0,.166.629.506.506,0,0,0,.43.233.5.5,0,0,0,.417-.2.823.823,0,0,0,.154-.52.835.835,0,0,0-.156-.525A.5.5,0,0,0,1.475-1.875Z" transform="translate(15687.637 13719.389)" fill="#1d1d1b"/>
    <path id="Path_268" data-name="Path 268" d="M2.273-1.267h.442v.476H2.273V0H1.68V-.791H.144L.127-1.152l1.533-2.4h.613Zm-1.523,0h.93V-2.751l-.044.078Z" transform="translate(15687.637 13739.357)" fill="#1d1d1b"/>
    <path id="Path_269" data-name="Path 269" d="M2.656,0H.266V-.408L1.45-1.7a2.949,2.949,0,0,0,.365-.477.773.773,0,0,0,.109-.385.584.584,0,0,0-.143-.41A.5.5,0,0,0,1.4-3.127a.571.571,0,0,0-.447.176.691.691,0,0,0-.159.481H.2a1.163,1.163,0,0,1,.148-.585,1.017,1.017,0,0,1,.422-.4A1.344,1.344,0,0,1,1.4-3.6a1.2,1.2,0,0,1,.817.26.9.9,0,0,1,.3.719,1.22,1.22,0,0,1-.15.558,3.172,3.172,0,0,1-.492.663l-.869.93h1.65Z" transform="translate(15687.637 13757.868)" fill="#1d1d1b"/>
    <path id="Path_270" data-name="Path 270" d="M2.583-1.5A1.939,1.939,0,0,1,2.3-.341a1.013,1.013,0,0,1-.873.389,1.027,1.027,0,0,1-.868-.38,1.856,1.856,0,0,1-.3-1.124V-2.07A1.909,1.909,0,0,1,.543-3.22,1.023,1.023,0,0,1,1.418-3.6a1.028,1.028,0,0,1,.87.374,1.851,1.851,0,0,1,.294,1.118ZM1.99-2.161a1.5,1.5,0,0,0-.137-.734.467.467,0,0,0-.435-.233.466.466,0,0,0-.427.221,1.39,1.39,0,0,0-.144.69v.806a1.543,1.543,0,0,0,.139.742.467.467,0,0,0,.437.244.459.459,0,0,0,.422-.226,1.452,1.452,0,0,0,.144-.707Z" transform="translate(15687.637 13777.692)" fill="#1d1d1b"/>
    <path id="Path_139" data-name="Path 139" d="M10.052,102.834v0Z" transform="translate(15471.416 13674.534)" fill="#1d1d1b"/>
    <line id="Line_137" data-name="Line 137" y1="82.64" transform="translate(15481.469 13694.728)" fill="none" stroke="#1d1d1b" stroke-miterlimit="10" stroke-width="2"/>
    <path id="Path_140" data-name="Path 140" d="M9.053,180.81h0Z" transform="translate(15471.901 13596.558)" fill="#1d1d1b"/>
    <line id="Line_138" data-name="Line 138" x1="205.329" transform="translate(15480.954 13777.368)" fill="none" stroke="#1d1d1b" stroke-miterlimit="10" stroke-width="2"/>
    <path id="Path_254" data-name="Path 254" d="M2.5-2.617a.826.826,0,0,1-.134.465A.931.931,0,0,1,2-1.831a1.014,1.014,0,0,1,.428.354.893.893,0,0,1,.15.508.933.933,0,0,1-.317.743,1.246,1.246,0,0,1-.845.275A1.251,1.251,0,0,1,.573-.227.932.932,0,0,1,.254-.969a.9.9,0,0,1,.151-.513A.972.972,0,0,1,.83-1.831a.926.926,0,0,1-.363-.321.832.832,0,0,1-.133-.465.925.925,0,0,1,.293-.72A1.132,1.132,0,0,1,1.418-3.6a1.135,1.135,0,0,1,.793.266A.925.925,0,0,1,2.5-2.617ZM1.99-1a.586.586,0,0,0-.157-.426.553.553,0,0,0-.416-.162A.548.548,0,0,0,1-1.426.59.59,0,0,0,.847-1,.572.572,0,0,0,1-.581a.562.562,0,0,0,.421.156A.563.563,0,0,0,1.84-.576.574.574,0,0,0,1.99-1ZM1.914-2.6a.552.552,0,0,0-.134-.382.461.461,0,0,0-.361-.15.464.464,0,0,0-.359.143A.552.552,0,0,0,.928-2.6a.55.55,0,0,0,.133.388.466.466,0,0,0,.36.144.466.466,0,0,0,.36-.144A.55.55,0,0,0,1.914-2.6Z" transform="translate(15476.296 13699.992)" fill="#1d1d1b"/>
    <path id="Path_255" data-name="Path 255" d="M2.112-3.572v.491H2.039a1.178,1.178,0,0,0-.8.273,1.144,1.144,0,0,0-.354.754.963.963,0,0,1,.73-.3.91.91,0,0,1,.743.332,1.308,1.308,0,0,1,.272.857,1.223,1.223,0,0,1-.319.878,1.1,1.1,0,0,1-.836.336A1.074,1.074,0,0,1,.616-.344a1.546,1.546,0,0,1-.331-1.03v-.2A2.176,2.176,0,0,1,.741-3.042a1.633,1.633,0,0,1,1.31-.53Zm-.637,1.7a.625.625,0,0,0-.358.11.642.642,0,0,0-.238.293v.181a1.064,1.064,0,0,0,.166.629.506.506,0,0,0,.43.233.5.5,0,0,0,.417-.2.823.823,0,0,0,.154-.52.835.835,0,0,0-.156-.525A.5.5,0,0,0,1.475-1.875Z" transform="translate(15476.296 13718.873)" fill="#1d1d1b"/>
    <path id="Path_256" data-name="Path 256" d="M2.273-1.267h.442v.476H2.273V0H1.68V-.791H.144L.127-1.152l1.533-2.4h.613Zm-1.523,0h.93V-2.751l-.044.078Z" transform="translate(15476.296 13738.327)" fill="#1d1d1b"/>
    <path id="Path_257" data-name="Path 257" d="M2.656,0H.266V-.408L1.45-1.7a2.949,2.949,0,0,0,.365-.477.773.773,0,0,0,.109-.385.584.584,0,0,0-.143-.41A.5.5,0,0,0,1.4-3.127a.571.571,0,0,0-.447.176.691.691,0,0,0-.159.481H.2a1.163,1.163,0,0,1,.148-.585,1.017,1.017,0,0,1,.422-.4A1.344,1.344,0,0,1,1.4-3.6a1.2,1.2,0,0,1,.817.26.9.9,0,0,1,.3.719,1.22,1.22,0,0,1-.15.558,3.172,3.172,0,0,1-.492.663l-.869.93h1.65Z" transform="translate(15476.296 13758.897)" fill="#1d1d1b"/>
    <path id="Path_258" data-name="Path 258" d="M2.583-1.5A1.939,1.939,0,0,1,2.3-.341a1.013,1.013,0,0,1-.873.389,1.027,1.027,0,0,1-.868-.38,1.856,1.856,0,0,1-.3-1.124V-2.07A1.909,1.909,0,0,1,.543-3.22,1.023,1.023,0,0,1,1.418-3.6a1.028,1.028,0,0,1,.87.374,1.851,1.851,0,0,1,.294,1.118ZM1.99-2.161a1.5,1.5,0,0,0-.137-.734.467.467,0,0,0-.435-.233.466.466,0,0,0-.427.221,1.39,1.39,0,0,0-.144.69v.806a1.543,1.543,0,0,0,.139.742.467.467,0,0,0,.437.244.459.459,0,0,0,.422-.226,1.452,1.452,0,0,0,.144-.707Z" transform="translate(15476.296 13777.692)" fill="#1d1d1b"/>
    <path id="Path_259" data-name="Path 259" d="M1.243-1.46l.017.43A.869.869,0,0,1,1.1-.493H2.8L2.8,0H.239V-.493h.2A.225.225,0,0,0,.587-.651,1.009,1.009,0,0,0,.64-1.008L.623-1.46H.229v-.486H.608l-.02-.591a1.015,1.015,0,0,1,.305-.779,1.124,1.124,0,0,1,.8-.286,1.092,1.092,0,0,1,.779.266.935.935,0,0,1,.283.715h-.6a.487.487,0,0,0-.128-.36.483.483,0,0,0-.358-.128.414.414,0,0,0-.343.159.645.645,0,0,0-.126.413l.022.591h.759v.486ZM5.525-1.5A1.939,1.939,0,0,1,5.238-.341a1.013,1.013,0,0,1-.873.389A1.027,1.027,0,0,1,3.5-.331a1.856,1.856,0,0,1-.3-1.124V-2.07a1.909,1.909,0,0,1,.287-1.15A1.023,1.023,0,0,1,4.36-3.6a1.028,1.028,0,0,1,.87.374,1.851,1.851,0,0,1,.294,1.118Zm-.593-.664a1.5,1.5,0,0,0-.137-.734.467.467,0,0,0-.435-.233.466.466,0,0,0-.427.221,1.39,1.39,0,0,0-.144.69v.806a1.543,1.543,0,0,0,.139.742.467.467,0,0,0,.437.244.459.459,0,0,0,.422-.226,1.452,1.452,0,0,0,.144-.707Z" transform="translate(15489.307 13782.83)" fill="#1d1d1b"/>
    <path id="Path_260" data-name="Path 260" d="M1.243-1.46l.017.43A.869.869,0,0,1,1.1-.493H2.8L2.8,0H.239V-.493h.2A.225.225,0,0,0,.587-.651,1.009,1.009,0,0,0,.64-1.008L.623-1.46H.229v-.486H.608l-.02-.591a1.015,1.015,0,0,1,.305-.779,1.124,1.124,0,0,1,.8-.286,1.092,1.092,0,0,1,.779.266.935.935,0,0,1,.283.715h-.6a.487.487,0,0,0-.128-.36.483.483,0,0,0-.358-.128.414.414,0,0,0-.343.159.645.645,0,0,0-.126.413l.022.591h.759v.486ZM4.814,0H4.224V-2.854l-.872.3v-.5l1.387-.51h.076ZM8.367-1.5A1.939,1.939,0,0,1,8.08-.341a1.013,1.013,0,0,1-.873.389,1.027,1.027,0,0,1-.868-.38,1.856,1.856,0,0,1-.3-1.124V-2.07a1.909,1.909,0,0,1,.287-1.15A1.023,1.023,0,0,1,7.2-3.6a1.028,1.028,0,0,1,.87.374,1.851,1.851,0,0,1,.294,1.118Zm-.593-.664a1.5,1.5,0,0,0-.137-.734A.467.467,0,0,0,7.2-3.127a.466.466,0,0,0-.427.221,1.39,1.39,0,0,0-.144.69v.806a1.543,1.543,0,0,0,.139.742.467.467,0,0,0,.437.244.459.459,0,0,0,.422-.226,1.452,1.452,0,0,0,.144-.707Z" transform="translate(15516.398 13782.83)" fill="#1d1d1b"/>
    <path id="Path_261" data-name="Path 261" d="M1.243-1.46l.017.43A.869.869,0,0,1,1.1-.493H2.8L2.8,0H.239V-.493h.2A.225.225,0,0,0,.587-.651,1.009,1.009,0,0,0,.64-1.008L.623-1.46H.229v-.486H.608l-.02-.591a1.015,1.015,0,0,1,.305-.779,1.124,1.124,0,0,1,.8-.286,1.092,1.092,0,0,1,.779.266.935.935,0,0,1,.283.715h-.6a.487.487,0,0,0-.128-.36.483.483,0,0,0-.358-.128.414.414,0,0,0-.343.159.645.645,0,0,0-.126.413l.022.591h.759v.486ZM5.6,0H3.208V-.408L4.392-1.7a2.949,2.949,0,0,0,.365-.477.773.773,0,0,0,.109-.385.584.584,0,0,0-.143-.41.5.5,0,0,0-.385-.156.571.571,0,0,0-.447.176.691.691,0,0,0-.159.481H3.14a1.163,1.163,0,0,1,.148-.585,1.017,1.017,0,0,1,.422-.4A1.344,1.344,0,0,1,4.343-3.6a1.2,1.2,0,0,1,.817.26.9.9,0,0,1,.3.719,1.22,1.22,0,0,1-.15.558,3.172,3.172,0,0,1-.492.663l-.869.93H5.6ZM8.367-1.5A1.939,1.939,0,0,1,8.08-.341a1.013,1.013,0,0,1-.873.389,1.027,1.027,0,0,1-.868-.38,1.856,1.856,0,0,1-.3-1.124V-2.07a1.909,1.909,0,0,1,.287-1.15A1.023,1.023,0,0,1,7.2-3.6a1.028,1.028,0,0,1,.87.374,1.851,1.851,0,0,1,.294,1.118Zm-.593-.664a1.5,1.5,0,0,0-.137-.734A.467.467,0,0,0,7.2-3.127a.466.466,0,0,0-.427.221,1.39,1.39,0,0,0-.144.69v.806a1.543,1.543,0,0,0,.139.742.467.467,0,0,0,.437.244.459.459,0,0,0,.422-.226,1.452,1.452,0,0,0,.144-.707Z" transform="translate(15544.066 13782.83)" fill="#1d1d1b"/>
    <path id="Path_262" data-name="Path 262" d="M1.243-1.46l.017.43A.869.869,0,0,1,1.1-.493H2.8L2.8,0H.239V-.493h.2A.225.225,0,0,0,.587-.651,1.009,1.009,0,0,0,.64-1.008L.623-1.46H.229v-.486H.608l-.02-.591a1.015,1.015,0,0,1,.305-.779,1.124,1.124,0,0,1,.8-.286,1.092,1.092,0,0,1,.779.266.935.935,0,0,1,.283.715h-.6a.487.487,0,0,0-.128-.36.483.483,0,0,0-.358-.128.414.414,0,0,0-.343.159.645.645,0,0,0-.126.413l.022.591h.759v.486Zm2.651-.588h.361a.647.647,0,0,0,.433-.142.505.505,0,0,0,.16-.4.551.551,0,0,0-.133-.394.535.535,0,0,0-.406-.14.566.566,0,0,0-.393.138.461.461,0,0,0-.154.36H3.169a.9.9,0,0,1,.145-.5.976.976,0,0,1,.405-.35A1.32,1.32,0,0,1,4.3-3.6a1.223,1.223,0,0,1,.836.267.938.938,0,0,1,.3.743.755.755,0,0,1-.153.45.957.957,0,0,1-.394.319.872.872,0,0,1,.446.315A.862.862,0,0,1,5.493-1a.955.955,0,0,1-.328.762A1.275,1.275,0,0,1,4.3.049a1.265,1.265,0,0,1-.84-.273.9.9,0,0,1-.327-.728h.593a.5.5,0,0,0,.157.381.6.6,0,0,0,.424.146.616.616,0,0,0,.435-.146A.549.549,0,0,0,4.9-1a.555.555,0,0,0-.166-.432.71.71,0,0,0-.493-.151H3.894ZM8.367-1.5A1.939,1.939,0,0,1,8.08-.341a1.013,1.013,0,0,1-.873.389,1.027,1.027,0,0,1-.868-.38,1.856,1.856,0,0,1-.3-1.124V-2.07a1.909,1.909,0,0,1,.287-1.15A1.023,1.023,0,0,1,7.2-3.6a1.028,1.028,0,0,1,.87.374,1.851,1.851,0,0,1,.294,1.118Zm-.593-.664a1.5,1.5,0,0,0-.137-.734A.467.467,0,0,0,7.2-3.127a.466.466,0,0,0-.427.221,1.39,1.39,0,0,0-.144.69v.806a1.543,1.543,0,0,0,.139.742.467.467,0,0,0,.437.244.459.459,0,0,0,.422-.226,1.452,1.452,0,0,0,.144-.707Z" transform="translate(15571.586 13782.83)" fill="#1d1d1b"/>
    <path id="Path_263" data-name="Path 263" d="M1.243-1.46l.017.43A.869.869,0,0,1,1.1-.493H2.8L2.8,0H.239V-.493h.2A.225.225,0,0,0,.587-.651,1.009,1.009,0,0,0,.64-1.008L.623-1.46H.229v-.486H.608l-.02-.591a1.015,1.015,0,0,1,.305-.779,1.124,1.124,0,0,1,.8-.286,1.092,1.092,0,0,1,.779.266.935.935,0,0,1,.283.715h-.6a.487.487,0,0,0-.128-.36.483.483,0,0,0-.358-.128.414.414,0,0,0-.343.159.645.645,0,0,0-.126.413l.022.591h.759v.486Zm3.972.193h.442v.476H5.215V0H4.622V-.791H3.086l-.017-.361L4.6-3.555h.613Zm-1.523,0h.93V-2.751l-.044.078ZM8.367-1.5A1.939,1.939,0,0,1,8.08-.341a1.013,1.013,0,0,1-.873.389,1.027,1.027,0,0,1-.868-.38,1.856,1.856,0,0,1-.3-1.124V-2.07a1.909,1.909,0,0,1,.287-1.15A1.023,1.023,0,0,1,7.2-3.6a1.028,1.028,0,0,1,.87.374,1.851,1.851,0,0,1,.294,1.118Zm-.593-.664a1.5,1.5,0,0,0-.137-.734A.467.467,0,0,0,7.2-3.127a.466.466,0,0,0-.427.221,1.39,1.39,0,0,0-.144.69v.806a1.543,1.543,0,0,0,.139.742.467.467,0,0,0,.437.244.459.459,0,0,0,.422-.226,1.452,1.452,0,0,0,.144-.707Z" transform="translate(15598.996 13782.83)" fill="#1d1d1b"/>
    <path id="Path_264" data-name="Path 264" d="M1.243-1.46l.017.43A.869.869,0,0,1,1.1-.493H2.8L2.8,0H.239V-.493h.2A.225.225,0,0,0,.587-.651,1.009,1.009,0,0,0,.64-1.008L.623-1.46H.229v-.486H.608l-.02-.591a1.015,1.015,0,0,1,.305-.779,1.124,1.124,0,0,1,.8-.286,1.092,1.092,0,0,1,.779.266.935.935,0,0,1,.283.715h-.6a.487.487,0,0,0-.128-.36.483.483,0,0,0-.358-.128.414.414,0,0,0-.343.159.645.645,0,0,0-.126.413l.022.591h.759v.486Zm2.124-.3L3.56-3.555H5.469v.513H4.053l-.1.85a1.1,1.1,0,0,1,.557-.142.99.99,0,0,1,.79.325,1.287,1.287,0,0,1,.282.874,1.184,1.184,0,0,1-.312.863,1.141,1.141,0,0,1-.857.321A1.2,1.2,0,0,1,3.6-.228a1,1,0,0,1-.348-.731h.574a.627.627,0,0,0,.186.4.564.564,0,0,0,.4.138.51.51,0,0,0,.426-.2.843.843,0,0,0,.153-.532.745.745,0,0,0-.168-.514.589.589,0,0,0-.464-.189.772.772,0,0,0-.273.043.774.774,0,0,0-.244.167Zm5,.266A1.939,1.939,0,0,1,8.08-.341a1.013,1.013,0,0,1-.873.389,1.027,1.027,0,0,1-.868-.38,1.856,1.856,0,0,1-.3-1.124V-2.07a1.909,1.909,0,0,1,.287-1.15A1.023,1.023,0,0,1,7.2-3.6a1.028,1.028,0,0,1,.87.374,1.851,1.851,0,0,1,.294,1.118Zm-.593-.664a1.5,1.5,0,0,0-.137-.734A.467.467,0,0,0,7.2-3.127a.466.466,0,0,0-.427.221,1.39,1.39,0,0,0-.144.69v.806a1.543,1.543,0,0,0,.139.742.467.467,0,0,0,.437.244.459.459,0,0,0,.422-.226,1.452,1.452,0,0,0,.144-.707Z" transform="translate(15626.82 13782.83)" fill="#1d1d1b"/>
    <path id="Path_265" data-name="Path 265" d="M1.243-1.46l.017.43A.869.869,0,0,1,1.1-.493H2.8L2.8,0H.239V-.493h.2A.225.225,0,0,0,.587-.651,1.009,1.009,0,0,0,.64-1.008L.623-1.46H.229v-.486H.608l-.02-.591a1.015,1.015,0,0,1,.305-.779,1.124,1.124,0,0,1,.8-.286,1.092,1.092,0,0,1,.779.266.935.935,0,0,1,.283.715h-.6a.487.487,0,0,0-.128-.36.483.483,0,0,0-.358-.128.414.414,0,0,0-.343.159.645.645,0,0,0-.126.413l.022.591h.759v.486ZM5.054-3.572v.491H4.98a1.178,1.178,0,0,0-.8.273,1.144,1.144,0,0,0-.354.754.963.963,0,0,1,.73-.3.91.91,0,0,1,.743.332,1.308,1.308,0,0,1,.272.857,1.223,1.223,0,0,1-.319.878,1.1,1.1,0,0,1-.836.336,1.074,1.074,0,0,1-.863-.393,1.546,1.546,0,0,1-.331-1.03v-.2a2.176,2.176,0,0,1,.455-1.465,1.633,1.633,0,0,1,1.31-.53Zm-.637,1.7a.625.625,0,0,0-.358.11.642.642,0,0,0-.238.293v.181a1.064,1.064,0,0,0,.166.629.506.506,0,0,0,.43.233.5.5,0,0,0,.417-.2.823.823,0,0,0,.154-.52.835.835,0,0,0-.156-.525A.5.5,0,0,0,4.417-1.875Zm3.95.378A1.939,1.939,0,0,1,8.08-.341a1.013,1.013,0,0,1-.873.389,1.027,1.027,0,0,1-.868-.38,1.856,1.856,0,0,1-.3-1.124V-2.07a1.909,1.909,0,0,1,.287-1.15A1.023,1.023,0,0,1,7.2-3.6a1.028,1.028,0,0,1,.87.374,1.851,1.851,0,0,1,.294,1.118Zm-.593-.664a1.5,1.5,0,0,0-.137-.734A.467.467,0,0,0,7.2-3.127a.466.466,0,0,0-.427.221,1.39,1.39,0,0,0-.144.69v.806a1.543,1.543,0,0,0,.139.742.467.467,0,0,0,.437.244.459.459,0,0,0,.422-.226,1.452,1.452,0,0,0,.144-.707Z" transform="translate(15660.719 13782.83)" fill="#1d1d1b"/>
    <path id="Path_141" data-name="Path 141" d="M33.628,65.439a1.268,1.268,0,1,1-1.268-1.268,1.268,1.268,0,0,1,1.268,1.268" transform="translate(15461.202 13653.183)" fill="#38afab"/>
    <path id="Path_142" data-name="Path 142" d="M59.557,162.3a1.268,1.268,0,1,1-1.268-1.268,1.268,1.268,0,0,1,1.268,1.268" transform="translate(15448.613 13606.16)" fill="#38afab"/>
    <path id="Path_143" data-name="Path 143" d="M87.521,162.179a1.268,1.268,0,1,1-1.268-1.268,1.268,1.268,0,0,1,1.268,1.268" transform="translate(15441.915 13606.218)" fill="#38afab"/>
    <path id="Path_144" data-name="Path 144" d="M94.818,141.912a1.268,1.268,0,1,1-1.268-1.268,1.268,1.268,0,0,1,1.268,1.268" transform="translate(15438.964 13616.057)" fill="#38afab"/>
    <path id="Path_145" data-name="Path 145" d="M79.191,104.21a1.268,1.268,0,1,1-1.268-1.268,1.268,1.268,0,0,1,1.268,1.268" transform="translate(15445.288 13634.361)" fill="#38afab"/>
    <path id="Path_146" data-name="Path 146" d="M100.249,63.948A3.153,3.153,0,1,1,97.1,60.795a3.153,3.153,0,0,1,3.153,3.153" transform="translate(15438.448 13654.822)" fill="#38afab"/>
    <path id="Path_147" data-name="Path 147" d="M125.366,141.912a1.268,1.268,0,1,1-1.268-1.268,1.268,1.268,0,0,1,1.268,1.268" transform="translate(15426.606 13616.057)" fill="#38afab"/>
    <path id="Path_148" data-name="Path 148" d="M168.62,104.21a1.268,1.268,0,1,1-1.268-1.268,1.268,1.268,0,0,1,1.268,1.268" transform="translate(15409.108 13634.361)" fill="#38afab"/>
    <path id="Path_149" data-name="Path 149" d="M216.407,162.3a1.268,1.268,0,1,1-1.268-1.268,1.268,1.268,0,0,1,1.268,1.268" transform="translate(15389.777 13606.16)" fill="#38afab"/>
    <path id="Path_150" data-name="Path 150" d="M263.043,162.3a1.268,1.268,0,1,1-1.268-1.268,1.268,1.268,0,0,1,1.268,1.268" transform="translate(15370.912 13606.16)" fill="#38afab"/>
    <path id="Path_253" data-name="Path 253" d="M2.821-.993H1.169L.823,0H.053L1.664-4.266h.665L3.943,0H3.17Zm-1.444-.6H2.613L2-3.36ZM5.329-.9,6-3.17h.735L5.637,0H5.019L3.911-3.17h.738ZM8.575.059a1.473,1.473,0,0,1-1.1-.426A1.546,1.546,0,0,1,7.058-1.5v-.088a1.9,1.9,0,0,1,.183-.848,1.394,1.394,0,0,1,.514-.582,1.359,1.359,0,0,1,.738-.208,1.244,1.244,0,0,1,1,.413,1.747,1.747,0,0,1,.353,1.169v.287H7.775a.952.952,0,0,0,.262.621.787.787,0,0,0,.579.229.964.964,0,0,0,.8-.4L9.8-.539A1.282,1.282,0,0,1,9.289-.1,1.591,1.591,0,0,1,8.575.059ZM8.49-2.657a.6.6,0,0,0-.473.205,1.063,1.063,0,0,0-.23.571H9.144v-.053a.865.865,0,0,0-.19-.541A.6.6,0,0,0,8.49-2.657Zm3.568.138a1.762,1.762,0,0,0-.29-.023.653.653,0,0,0-.659.375V0H10.4V-3.17h.68l.018.354a.8.8,0,0,1,.715-.413.666.666,0,0,1,.252.041ZM14.314,0a1.1,1.1,0,0,1-.082-.3A1.108,1.108,0,0,1,13.4.059a1.118,1.118,0,0,1-.779-.272.872.872,0,0,1-.3-.674.9.9,0,0,1,.376-.778,1.824,1.824,0,0,1,1.077-.271h.437v-.208a.555.555,0,0,0-.138-.394.546.546,0,0,0-.419-.148.627.627,0,0,0-.4.122.376.376,0,0,0-.155.309h-.712a.79.79,0,0,1,.173-.488,1.152,1.152,0,0,1,.47-.356,1.652,1.652,0,0,1,.664-.129,1.33,1.33,0,0,1,.888.28,1,1,0,0,1,.34.787v1.43a1.62,1.62,0,0,0,.12.683V0Zm-.782-.513a.81.81,0,0,0,.4-.1.685.685,0,0,0,.28-.275v-.6h-.384a1.049,1.049,0,0,0-.595.138.446.446,0,0,0-.2.39.416.416,0,0,0,.136.327A.528.528,0,0,0,13.532-.513Zm2.01-1.1a1.854,1.854,0,0,1,.347-1.179,1.114,1.114,0,0,1,.921-.441,1.044,1.044,0,0,1,.853.378L17.7-3.17h.642V-.1a1.277,1.277,0,0,1-.388.984,1.479,1.479,0,0,1-1.047.36A1.688,1.688,0,0,1,16.22,1.1a1.21,1.21,0,0,1-.505-.379L16.052.3a1.018,1.018,0,0,0,.809.39.786.786,0,0,0,.56-.192.735.735,0,0,0,.205-.564V-.284a1.048,1.048,0,0,1-.82.343,1.112,1.112,0,0,1-.91-.442A1.914,1.914,0,0,1,15.542-1.608Zm.709.062a1.276,1.276,0,0,0,.195.751.626.626,0,0,0,.541.274.685.685,0,0,0,.639-.369V-2.285a.675.675,0,0,0-.633-.36.629.629,0,0,0-.546.278A1.429,1.429,0,0,0,16.251-1.547ZM20.464.059a1.473,1.473,0,0,1-1.1-.426,1.546,1.546,0,0,1-.42-1.135v-.088a1.9,1.9,0,0,1,.183-.848,1.394,1.394,0,0,1,.514-.582,1.359,1.359,0,0,1,.738-.208,1.244,1.244,0,0,1,1,.413,1.747,1.747,0,0,1,.353,1.169v.287H19.664a.952.952,0,0,0,.262.621A.787.787,0,0,0,20.5-.51a.964.964,0,0,0,.8-.4l.384.366a1.282,1.282,0,0,1-.508.441A1.591,1.591,0,0,1,20.464.059Zm-.085-2.716a.6.6,0,0,0-.473.205,1.063,1.063,0,0,0-.23.571h1.356v-.053a.865.865,0,0,0-.19-.541A.6.6,0,0,0,20.379-2.657ZM22.717-.75a.407.407,0,0,1,.308.113.392.392,0,0,1,.108.283.378.378,0,0,1-.108.277.413.413,0,0,1-.308.11.414.414,0,0,1-.3-.108A.372.372,0,0,1,22.3-.354a.392.392,0,0,1,.108-.283A.4.4,0,0,1,22.717-.75Zm0-2.487a.407.407,0,0,1,.308.113.392.392,0,0,1,.108.283.378.378,0,0,1-.108.277.413.413,0,0,1-.308.11.414.414,0,0,1-.3-.108.372.372,0,0,1-.111-.278.392.392,0,0,1,.108-.283A.4.4,0,0,1,22.717-3.237ZM26.5-1.752l.021.516a1.043,1.043,0,0,1-.187.645h2.039l0,.592H25.295V-.592h.24a.27.27,0,0,0,.177-.189,1.211,1.211,0,0,0,.063-.429l-.021-.542h-.472v-.583h.454l-.023-.709a1.218,1.218,0,0,1,.366-.935,1.349,1.349,0,0,1,.961-.343A1.31,1.31,0,0,1,27.976-4a1.122,1.122,0,0,1,.34.858H27.6a.584.584,0,0,0-.154-.432.58.58,0,0,0-.429-.154.5.5,0,0,0-.412.19.773.773,0,0,0-.151.5l.026.709h.911v.583ZM30.785,0h-.709V-3.425l-1.046.357v-.6l1.664-.612h.091Zm1.673-2.115.231-2.15H34.98v.615h-1.7l-.117,1.02a1.317,1.317,0,0,1,.668-.17,1.188,1.188,0,0,1,.948.39,1.544,1.544,0,0,1,.338,1.049,1.421,1.421,0,0,1-.375,1.036,1.369,1.369,0,0,1-1.028.385,1.433,1.433,0,0,1-.971-.333,1.2,1.2,0,0,1-.417-.877h.688a.752.752,0,0,0,.223.476.677.677,0,0,0,.475.166.612.612,0,0,0,.511-.234,1.012,1.012,0,0,0,.183-.639A.894.894,0,0,0,34.2-2a.707.707,0,0,0-.557-.227.926.926,0,0,0-.328.051.929.929,0,0,0-.293.2Z" transform="translate(15512.348 13709.868)" fill="#1d1d1b"/>
  </g>
</svg>
