<svg xmlns="http://www.w3.org/2000/svg" width="200.316" height="166.065" viewBox="0 0 200.316 166.065">
  <g id="Group_513" data-name="Group 513" transform="translate(-15438.282 -14654.179)">
    <text id="_" data-name="         " transform="translate(15518.057 14794.021)" fill="#fff" font-size="7" font-family="Viga-Regular, Viga"><tspan x="0" y="0" xml:space="preserve">         </tspan></text>
    <text id="_2" data-name=" " transform="translate(15552.148 14793.021)" fill="#fff" font-size="6" font-family="Viga-Regular, Viga"><tspan x="0" y="0"> </tspan></text>
    <text id="_3" data-name="      " transform="translate(15518.057 14810.353)" fill="#fff" font-size="7" font-family="Viga-Regular, Viga"><tspan x="0" y="0" xml:space="preserve">      </tspan></text>
    <text id="_4" data-name=" " transform="translate(15542.219 14809.353)" fill="#fff" font-size="6" font-family="Viga-Regular, Viga"><tspan x="0" y="0"> </tspan></text>
    <path id="Path_129" data-name="Path 129" d="M219.874,366.039h0a6.148,6.148,0,0,1-6.13-6.13v-1.484a6.13,6.13,0,1,1,12.26,0v1.484a6.148,6.148,0,0,1-6.13,6.13" transform="translate(15314.5 14454.206)" fill="#f9cd00"/>
    <path id="Path_130" data-name="Path 130" d="M226.028,335.626H219.9a6.148,6.148,0,0,1-6.13-6.13v-1.484a6.148,6.148,0,0,1,6.13-6.13h6.13a6.149,6.149,0,0,1,6.131,6.13V329.5a6.149,6.149,0,0,1-6.131,6.13" transform="translate(15314.49 14468.177)" fill="#f9cd00"/>
    <path id="Path_131" data-name="Path 131" d="M250.525,305.283h-30.65a6.148,6.148,0,0,1-6.13-6.13v-1.484a6.148,6.148,0,0,1,6.13-6.13h30.65a6.149,6.149,0,0,1,6.13,6.13v1.484a6.148,6.148,0,0,1-6.13,6.13" transform="translate(15314.5 14476.85)" fill="#f9cd00"/>
    <path id="Path_132" data-name="Path 132" d="M275.044,274.939h-55.17a6.148,6.148,0,0,1-6.13-6.13v-1.484a6.149,6.149,0,0,1,6.13-6.13h55.17a6.149,6.149,0,0,1,6.13,6.13v1.484a6.148,6.148,0,0,1-6.13,6.13" transform="translate(15314.5 14488.159)" fill="#f9cd00"/>
    <path id="Path_133" data-name="Path 133" d="M262.784,244.595h-42.91a6.148,6.148,0,0,1-6.13-6.13V236.98a6.149,6.149,0,0,1,6.13-6.13h42.91a6.149,6.149,0,0,1,6.13,6.13v1.484a6.148,6.148,0,0,1-6.13,6.13" transform="translate(15314.5 14499.469)" fill="#f9cd00"/>
    <path id="Path_134" data-name="Path 134" d="M293.458,214.25H219.9a6.148,6.148,0,0,1-6.13-6.13v-1.484a6.148,6.148,0,0,1,6.13-6.13h73.56a6.148,6.148,0,0,1,6.13,6.13v1.484a6.148,6.148,0,0,1-6.13,6.13" transform="translate(15314.49 14510.777)" fill="#f9cd00"/>
    <path id="Path_135" data-name="Path 135" d="M262.808,183.906H219.9a6.148,6.148,0,0,1-6.13-6.13v-1.484a6.149,6.149,0,0,1,6.13-6.13h42.91a6.149,6.149,0,0,1,6.13,6.13v1.484a6.148,6.148,0,0,1-6.13,6.13" transform="translate(15314.49 14522.087)" fill="#f9cd00"/>
    <path id="Path_136" data-name="Path 136" d="M281.2,153.562H219.9a6.148,6.148,0,0,1-6.13-6.13v-1.484a6.148,6.148,0,0,1,6.13-6.13h61.3a6.149,6.149,0,0,1,6.13,6.13v1.484a6.148,6.148,0,0,1-6.13,6.13" transform="translate(15314.488 14533.503)" fill="#f9cd00"/>
    <path id="Path_137" data-name="Path 137" d="M317.978,123.218H219.9a6.148,6.148,0,0,1-6.13-6.13v-2.226a5.4,5.4,0,0,1,5.388-5.387h98.822a6.148,6.148,0,0,1,6.13,6.13v1.484a6.148,6.148,0,0,1-6.13,6.13" transform="translate(15314.49 14544.705)" fill="#f9cd00"/>
    <path id="Path_280" data-name="Path 280" d="M3.379-5.715v.785H3.262a1.884,1.884,0,0,0-1.273.438,1.831,1.831,0,0,0-.566,1.207,1.541,1.541,0,0,1,1.168-.48,1.456,1.456,0,0,1,1.189.531,2.092,2.092,0,0,1,.436,1.371,1.956,1.956,0,0,1-.51,1.4A1.76,1.76,0,0,1,2.367.078,1.719,1.719,0,0,1,.986-.551,2.474,2.474,0,0,1,.457-2.2v-.324a3.481,3.481,0,0,1,.729-2.344,2.612,2.612,0,0,1,2.1-.848ZM2.359-3a1,1,0,0,0-.572.176,1.027,1.027,0,0,0-.381.469v.289a1.7,1.7,0,0,0,.266,1.006.81.81,0,0,0,.688.373A.8.8,0,0,0,3.027-1a1.318,1.318,0,0,0,.246-.832,1.337,1.337,0,0,0-.25-.84A.8.8,0,0,0,2.359-3Zm6.32.605a3.1,3.1,0,0,1-.459,1.85,1.621,1.621,0,0,1-1.4.623A1.642,1.642,0,0,1,5.436-.529a2.97,2.97,0,0,1-.479-1.8v-.984a3.055,3.055,0,0,1,.459-1.84,1.636,1.636,0,0,1,1.4-.613,1.645,1.645,0,0,1,1.393.6A2.962,2.962,0,0,1,8.68-3.379ZM7.73-3.457a2.406,2.406,0,0,0-.219-1.174A.747.747,0,0,0,6.816-5a.746.746,0,0,0-.684.354,2.224,2.224,0,0,0-.23,1.1v1.289A2.469,2.469,0,0,0,6.125-1.07a.748.748,0,0,0,.7.391A.735.735,0,0,0,7.5-1.041a2.323,2.323,0,0,0,.23-1.131ZM9.48-4.594a1.141,1.141,0,0,1,.332-.846,1.182,1.182,0,0,1,.871-.33,1.185,1.185,0,0,1,.877.33,1.17,1.17,0,0,1,.33.865v.281a1.134,1.134,0,0,1-.33.84,1.179,1.179,0,0,1-.869.328,1.216,1.216,0,0,1-.869-.322,1.138,1.138,0,0,1-.342-.869Zm.664.3a.624.624,0,0,0,.15.436.509.509,0,0,0,.4.166.5.5,0,0,0,.391-.166.652.652,0,0,0,.148-.451v-.285a.631.631,0,0,0-.15-.437.507.507,0,0,0-.4-.168.492.492,0,0,0-.393.17.661.661,0,0,0-.146.447Zm2.07,2.9a1.118,1.118,0,0,1,.34-.848,1.205,1.205,0,0,1,.867-.324,1.2,1.2,0,0,1,.869.324,1.156,1.156,0,0,1,.338.875v.277a1.143,1.143,0,0,1-.326.838,1.172,1.172,0,0,1-.873.33,1.207,1.207,0,0,1-.881-.326,1.15,1.15,0,0,1-.334-.861Zm.664.3a.623.623,0,0,0,.154.436.511.511,0,0,0,.4.17.5.5,0,0,0,.393-.162.667.667,0,0,0,.143-.455v-.293a.617.617,0,0,0-.152-.437A.509.509,0,0,0,13.422-2a.508.508,0,0,0-.393.164.645.645,0,0,0-.15.453Zm-1.992.664L10.4-.707l2.777-4.445.488.281Z" transform="translate(15531.576 14663.44)"/>
    <path id="Path_281" data-name="Path 281" d="M3.637-2.027h.707v.762H3.637V0H2.688V-1.266H.23L.2-1.844,2.656-5.687h.98Zm-2.437,0H2.688V-4.4l-.07.125Zm7.48-.367a3.1,3.1,0,0,1-.459,1.85,1.621,1.621,0,0,1-1.4.623A1.642,1.642,0,0,1,5.436-.529a2.97,2.97,0,0,1-.479-1.8v-.984a3.055,3.055,0,0,1,.459-1.84,1.636,1.636,0,0,1,1.4-.613,1.645,1.645,0,0,1,1.393.6A2.962,2.962,0,0,1,8.68-3.379ZM7.73-3.457a2.406,2.406,0,0,0-.219-1.174A.747.747,0,0,0,6.816-5a.746.746,0,0,0-.684.354,2.224,2.224,0,0,0-.23,1.1v1.289A2.469,2.469,0,0,0,6.125-1.07a.748.748,0,0,0,.7.391A.735.735,0,0,0,7.5-1.041a2.323,2.323,0,0,0,.23-1.131ZM9.48-4.594a1.141,1.141,0,0,1,.332-.846,1.182,1.182,0,0,1,.871-.33,1.185,1.185,0,0,1,.877.33,1.17,1.17,0,0,1,.33.865v.281a1.134,1.134,0,0,1-.33.84,1.179,1.179,0,0,1-.869.328,1.216,1.216,0,0,1-.869-.322,1.138,1.138,0,0,1-.342-.869Zm.664.3a.624.624,0,0,0,.15.436.509.509,0,0,0,.4.166.5.5,0,0,0,.391-.166.652.652,0,0,0,.148-.451v-.285a.631.631,0,0,0-.15-.437.507.507,0,0,0-.4-.168.492.492,0,0,0-.393.17.661.661,0,0,0-.146.447Zm2.07,2.9a1.118,1.118,0,0,1,.34-.848,1.205,1.205,0,0,1,.867-.324,1.2,1.2,0,0,1,.869.324,1.156,1.156,0,0,1,.338.875v.277a1.143,1.143,0,0,1-.326.838,1.172,1.172,0,0,1-.873.33,1.207,1.207,0,0,1-.881-.326,1.15,1.15,0,0,1-.334-.861Zm.664.3a.623.623,0,0,0,.154.436.511.511,0,0,0,.4.17.5.5,0,0,0,.393-.162.667.667,0,0,0,.143-.455v-.293a.617.617,0,0,0-.152-.437A.509.509,0,0,0,13.422-2a.508.508,0,0,0-.393.164.645.645,0,0,0-.15.453Zm-1.992.664L10.4-.707l2.777-4.445.488.281Z" transform="translate(15531.576 14681.935)"/>
    <path id="Path_282" data-name="Path 282" d="M1.523-3.277H2.1A1.035,1.035,0,0,0,2.795-3.5a.808.808,0,0,0,.256-.645.881.881,0,0,0-.213-.631A.857.857,0,0,0,2.188-5a.906.906,0,0,0-.629.221.737.737,0,0,0-.246.576H.363A1.437,1.437,0,0,1,.6-5a1.562,1.562,0,0,1,.648-.561,2.112,2.112,0,0,1,.932-.2,1.956,1.956,0,0,1,1.338.428A1.5,1.5,0,0,1,4-4.148a1.209,1.209,0,0,1-.244.721,1.531,1.531,0,0,1-.631.51,1.4,1.4,0,0,1,.713.5,1.38,1.38,0,0,1,.244.82A1.527,1.527,0,0,1,3.557-.375,2.04,2.04,0,0,1,2.176.078,2.024,2.024,0,0,1,.832-.359,1.441,1.441,0,0,1,.309-1.523h.949a.794.794,0,0,0,.252.609.955.955,0,0,0,.678.234.986.986,0,0,0,.7-.234.879.879,0,0,0,.254-.68.888.888,0,0,0-.266-.691,1.136,1.136,0,0,0-.789-.242H1.523Zm7.156.883a3.1,3.1,0,0,1-.459,1.85,1.621,1.621,0,0,1-1.4.623A1.642,1.642,0,0,1,5.436-.529a2.97,2.97,0,0,1-.479-1.8v-.984a3.055,3.055,0,0,1,.459-1.84,1.636,1.636,0,0,1,1.4-.613,1.645,1.645,0,0,1,1.393.6A2.962,2.962,0,0,1,8.68-3.379ZM7.73-3.457a2.406,2.406,0,0,0-.219-1.174A.747.747,0,0,0,6.816-5a.746.746,0,0,0-.684.354,2.224,2.224,0,0,0-.23,1.1v1.289A2.469,2.469,0,0,0,6.125-1.07a.748.748,0,0,0,.7.391A.735.735,0,0,0,7.5-1.041a2.323,2.323,0,0,0,.23-1.131ZM9.48-4.594a1.141,1.141,0,0,1,.332-.846,1.182,1.182,0,0,1,.871-.33,1.185,1.185,0,0,1,.877.33,1.17,1.17,0,0,1,.33.865v.281a1.134,1.134,0,0,1-.33.84,1.179,1.179,0,0,1-.869.328,1.216,1.216,0,0,1-.869-.322,1.138,1.138,0,0,1-.342-.869Zm.664.3a.624.624,0,0,0,.15.436.509.509,0,0,0,.4.166.5.5,0,0,0,.391-.166.652.652,0,0,0,.148-.451v-.285a.631.631,0,0,0-.15-.437.507.507,0,0,0-.4-.168.492.492,0,0,0-.393.17.661.661,0,0,0-.146.447Zm2.07,2.9a1.118,1.118,0,0,1,.34-.848,1.205,1.205,0,0,1,.867-.324,1.2,1.2,0,0,1,.869.324,1.156,1.156,0,0,1,.338.875v.277a1.143,1.143,0,0,1-.326.838,1.172,1.172,0,0,1-.873.33,1.207,1.207,0,0,1-.881-.326,1.15,1.15,0,0,1-.334-.861Zm.664.3a.623.623,0,0,0,.154.436.511.511,0,0,0,.4.17.5.5,0,0,0,.393-.162.667.667,0,0,0,.143-.455v-.293a.617.617,0,0,0-.152-.437A.509.509,0,0,0,13.422-2a.508.508,0,0,0-.393.164.645.645,0,0,0-.15.453Zm-1.992.664L10.4-.707l2.777-4.445.488.281Z" transform="translate(15531.576 14701.445)"/>
    <path id="Path_283" data-name="Path 283" d="M3.637-2.027h.707v.762H3.637V0H2.688V-1.266H.23L.2-1.844,2.656-5.687h.98Zm-2.437,0H2.688V-4.4l-.07.125ZM8.758-5.16,6.484,0h-1l2.27-4.926H4.816v-.762H8.758Zm.723.566a1.141,1.141,0,0,1,.332-.846,1.182,1.182,0,0,1,.871-.33,1.185,1.185,0,0,1,.877.33,1.17,1.17,0,0,1,.33.865v.281a1.134,1.134,0,0,1-.33.84,1.179,1.179,0,0,1-.869.328,1.216,1.216,0,0,1-.869-.322,1.138,1.138,0,0,1-.342-.869Zm.664.3a.624.624,0,0,0,.15.436.509.509,0,0,0,.4.166.5.5,0,0,0,.391-.166.652.652,0,0,0,.148-.451v-.285a.631.631,0,0,0-.15-.437.507.507,0,0,0-.4-.168.492.492,0,0,0-.393.17.661.661,0,0,0-.146.447Zm2.07,2.9a1.118,1.118,0,0,1,.34-.848,1.205,1.205,0,0,1,.867-.324,1.2,1.2,0,0,1,.869.324,1.156,1.156,0,0,1,.338.875v.277a1.143,1.143,0,0,1-.326.838,1.172,1.172,0,0,1-.873.33,1.207,1.207,0,0,1-.881-.326,1.15,1.15,0,0,1-.334-.861Zm.664.3a.623.623,0,0,0,.154.436.511.511,0,0,0,.4.17.5.5,0,0,0,.393-.162.667.667,0,0,0,.143-.455v-.293a.617.617,0,0,0-.152-.437A.509.509,0,0,0,13.422-2a.508.508,0,0,0-.393.164.645.645,0,0,0-.15.453Zm-1.992.664L10.4-.707l2.777-4.445.488.281Z" transform="translate(15531.576 14720.348)"/>
    <path id="Path_284" data-name="Path 284" d="M1.523-3.277H2.1A1.035,1.035,0,0,0,2.795-3.5a.808.808,0,0,0,.256-.645.881.881,0,0,0-.213-.631A.857.857,0,0,0,2.188-5a.906.906,0,0,0-.629.221.737.737,0,0,0-.246.576H.363A1.437,1.437,0,0,1,.6-5a1.562,1.562,0,0,1,.648-.561,2.112,2.112,0,0,1,.932-.2,1.956,1.956,0,0,1,1.338.428A1.5,1.5,0,0,1,4-4.148a1.209,1.209,0,0,1-.244.721,1.531,1.531,0,0,1-.631.51,1.4,1.4,0,0,1,.713.5,1.38,1.38,0,0,1,.244.82A1.527,1.527,0,0,1,3.557-.375,2.04,2.04,0,0,1,2.176.078,2.024,2.024,0,0,1,.832-.359,1.441,1.441,0,0,1,.309-1.523h.949a.794.794,0,0,0,.252.609.955.955,0,0,0,.678.234.986.986,0,0,0,.7-.234.879.879,0,0,0,.254-.68.888.888,0,0,0-.266-.691,1.136,1.136,0,0,0-.789-.242H1.523Zm7.156.883a3.1,3.1,0,0,1-.459,1.85,1.621,1.621,0,0,1-1.4.623A1.642,1.642,0,0,1,5.436-.529a2.97,2.97,0,0,1-.479-1.8v-.984a3.055,3.055,0,0,1,.459-1.84,1.636,1.636,0,0,1,1.4-.613,1.645,1.645,0,0,1,1.393.6A2.962,2.962,0,0,1,8.68-3.379ZM7.73-3.457a2.406,2.406,0,0,0-.219-1.174A.747.747,0,0,0,6.816-5a.746.746,0,0,0-.684.354,2.224,2.224,0,0,0-.23,1.1v1.289A2.469,2.469,0,0,0,6.125-1.07a.748.748,0,0,0,.7.391A.735.735,0,0,0,7.5-1.041a2.323,2.323,0,0,0,.23-1.131ZM9.48-4.594a1.141,1.141,0,0,1,.332-.846,1.182,1.182,0,0,1,.871-.33,1.185,1.185,0,0,1,.877.33,1.17,1.17,0,0,1,.33.865v.281a1.134,1.134,0,0,1-.33.84,1.179,1.179,0,0,1-.869.328,1.216,1.216,0,0,1-.869-.322,1.138,1.138,0,0,1-.342-.869Zm.664.3a.624.624,0,0,0,.15.436.509.509,0,0,0,.4.166.5.5,0,0,0,.391-.166.652.652,0,0,0,.148-.451v-.285a.631.631,0,0,0-.15-.437.507.507,0,0,0-.4-.168.492.492,0,0,0-.393.17.661.661,0,0,0-.146.447Zm2.07,2.9a1.118,1.118,0,0,1,.34-.848,1.205,1.205,0,0,1,.867-.324,1.2,1.2,0,0,1,.869.324,1.156,1.156,0,0,1,.338.875v.277a1.143,1.143,0,0,1-.326.838,1.172,1.172,0,0,1-.873.33,1.207,1.207,0,0,1-.881-.326,1.15,1.15,0,0,1-.334-.861Zm.664.3a.623.623,0,0,0,.154.436.511.511,0,0,0,.4.17.5.5,0,0,0,.393-.162.667.667,0,0,0,.143-.455v-.293a.617.617,0,0,0-.152-.437A.509.509,0,0,0,13.422-2a.508.508,0,0,0-.393.164.645.645,0,0,0-.15.453Zm-1.992.664L10.4-.707l2.777-4.445.488.281Z" transform="translate(15531.576 14739.239)"/>
    <path id="Path_285" data-name="Path 285" d="M1.523-3.277H2.1A1.035,1.035,0,0,0,2.795-3.5a.808.808,0,0,0,.256-.645.881.881,0,0,0-.213-.631A.857.857,0,0,0,2.188-5a.906.906,0,0,0-.629.221.737.737,0,0,0-.246.576H.363A1.437,1.437,0,0,1,.6-5a1.562,1.562,0,0,1,.648-.561,2.112,2.112,0,0,1,.932-.2,1.956,1.956,0,0,1,1.338.428A1.5,1.5,0,0,1,4-4.148a1.209,1.209,0,0,1-.244.721,1.531,1.531,0,0,1-.631.51,1.4,1.4,0,0,1,.713.5,1.38,1.38,0,0,1,.244.82A1.527,1.527,0,0,1,3.557-.375,2.04,2.04,0,0,1,2.176.078,2.024,2.024,0,0,1,.832-.359,1.441,1.441,0,0,1,.309-1.523h.949a.794.794,0,0,0,.252.609.955.955,0,0,0,.678.234.986.986,0,0,0,.7-.234.879.879,0,0,0,.254-.68.888.888,0,0,0-.266-.691,1.136,1.136,0,0,0-.789-.242H1.523ZM8.758-5.16,6.484,0h-1l2.27-4.926H4.816v-.762H8.758Zm.723.566a1.141,1.141,0,0,1,.332-.846,1.182,1.182,0,0,1,.871-.33,1.185,1.185,0,0,1,.877.33,1.17,1.17,0,0,1,.33.865v.281a1.134,1.134,0,0,1-.33.84,1.179,1.179,0,0,1-.869.328,1.216,1.216,0,0,1-.869-.322,1.138,1.138,0,0,1-.342-.869Zm.664.3a.624.624,0,0,0,.15.436.509.509,0,0,0,.4.166.5.5,0,0,0,.391-.166.652.652,0,0,0,.148-.451v-.285a.631.631,0,0,0-.15-.437.507.507,0,0,0-.4-.168.492.492,0,0,0-.393.17.661.661,0,0,0-.146.447Zm2.07,2.9a1.118,1.118,0,0,1,.34-.848,1.205,1.205,0,0,1,.867-.324,1.2,1.2,0,0,1,.869.324,1.156,1.156,0,0,1,.338.875v.277a1.143,1.143,0,0,1-.326.838,1.172,1.172,0,0,1-.873.33,1.207,1.207,0,0,1-.881-.326,1.15,1.15,0,0,1-.334-.861Zm.664.3a.623.623,0,0,0,.154.436.511.511,0,0,0,.4.17.5.5,0,0,0,.393-.162.667.667,0,0,0,.143-.455v-.293a.617.617,0,0,0-.152-.437A.509.509,0,0,0,13.422-2a.508.508,0,0,0-.393.164.645.645,0,0,0-.15.453Zm-1.992.664L10.4-.707l2.777-4.445.488.281Z" transform="translate(15531.576 14758.769)"/>
    <path id="Path_286" data-name="Path 286" d="M4.25,0H.426V-.652L2.32-2.719A4.718,4.718,0,0,0,2.9-3.482,1.237,1.237,0,0,0,3.078-4.1a.935.935,0,0,0-.229-.656A.793.793,0,0,0,2.234-5a.914.914,0,0,0-.715.281,1.106,1.106,0,0,0-.254.77H.316a1.86,1.86,0,0,1,.236-.936,1.627,1.627,0,0,1,.676-.646,2.151,2.151,0,0,1,1.014-.23,1.924,1.924,0,0,1,1.307.416A1.444,1.444,0,0,1,4.027-4.2a1.952,1.952,0,0,1-.24.893A5.075,5.075,0,0,1,3-2.246L1.609-.758H4.25ZM6.07-3.277h.578A1.035,1.035,0,0,0,7.342-3.5.808.808,0,0,0,7.6-4.148a.881.881,0,0,0-.213-.631A.857.857,0,0,0,6.734-5a.906.906,0,0,0-.629.221.737.737,0,0,0-.246.576H4.91A1.437,1.437,0,0,1,5.143-5a1.562,1.562,0,0,1,.648-.561,2.112,2.112,0,0,1,.932-.2,1.956,1.956,0,0,1,1.338.428,1.5,1.5,0,0,1,.486,1.189,1.209,1.209,0,0,1-.244.721,1.531,1.531,0,0,1-.631.51,1.4,1.4,0,0,1,.713.5,1.38,1.38,0,0,1,.244.82A1.527,1.527,0,0,1,8.1-.375,2.04,2.04,0,0,1,6.723.078,2.024,2.024,0,0,1,5.379-.359a1.441,1.441,0,0,1-.523-1.164H5.8a.794.794,0,0,0,.252.609.955.955,0,0,0,.678.234.986.986,0,0,0,.7-.234.879.879,0,0,0,.254-.68.888.888,0,0,0-.266-.691,1.136,1.136,0,0,0-.789-.242H6.07ZM9.48-4.594a1.141,1.141,0,0,1,.332-.846,1.182,1.182,0,0,1,.871-.33,1.185,1.185,0,0,1,.877.33,1.17,1.17,0,0,1,.33.865v.281a1.134,1.134,0,0,1-.33.84,1.179,1.179,0,0,1-.869.328,1.216,1.216,0,0,1-.869-.322,1.138,1.138,0,0,1-.342-.869Zm.664.3a.624.624,0,0,0,.15.436.509.509,0,0,0,.4.166.5.5,0,0,0,.391-.166.652.652,0,0,0,.148-.451v-.285a.631.631,0,0,0-.15-.437.507.507,0,0,0-.4-.168.492.492,0,0,0-.393.17.661.661,0,0,0-.146.447Zm2.07,2.9a1.118,1.118,0,0,1,.34-.848,1.205,1.205,0,0,1,.867-.324,1.2,1.2,0,0,1,.869.324,1.156,1.156,0,0,1,.338.875v.277a1.143,1.143,0,0,1-.326.838,1.172,1.172,0,0,1-.873.33,1.207,1.207,0,0,1-.881-.326,1.15,1.15,0,0,1-.334-.861Zm.664.3a.623.623,0,0,0,.154.436.511.511,0,0,0,.4.17.5.5,0,0,0,.393-.162.667.667,0,0,0,.143-.455v-.293a.617.617,0,0,0-.152-.437A.509.509,0,0,0,13.422-2a.508.508,0,0,0-.393.164.645.645,0,0,0-.15.453Zm-1.992.664L10.4-.707l2.777-4.445.488.281Z" transform="translate(15531.576 14777.672)"/>
    <path id="Path_287" data-name="Path 287" d="M2.622,0H1.794V-4l-1.22.417v-.7l1.941-.714h.106ZM7.595-2.1a2.714,2.714,0,0,1-.4,1.618A1.418,1.418,0,0,1,5.971.068,1.437,1.437,0,0,1,4.756-.463a2.6,2.6,0,0,1-.419-1.574V-2.9a2.673,2.673,0,0,1,.4-1.61,1.432,1.432,0,0,1,1.225-.537,1.44,1.44,0,0,1,1.219.523,2.592,2.592,0,0,1,.412,1.565Zm-.831-.93a2.106,2.106,0,0,0-.191-1.027.653.653,0,0,0-.608-.326.653.653,0,0,0-.6.309,1.946,1.946,0,0,0-.2.966v1.128A2.16,2.16,0,0,0,5.359-.937a.654.654,0,0,0,.612.342.643.643,0,0,0,.591-.316,2.032,2.032,0,0,0,.2-.99ZM8.3-4.02a1,1,0,0,1,.291-.74,1.034,1.034,0,0,1,.762-.289,1.037,1.037,0,0,1,.767.289A1.024,1.024,0,0,1,10.4-4v.246a.992.992,0,0,1-.289.735,1.032,1.032,0,0,1-.76.287,1.064,1.064,0,0,1-.76-.282,1,1,0,0,1-.3-.76Zm.581.263a.546.546,0,0,0,.132.381.446.446,0,0,0,.347.145A.436.436,0,0,0,9.7-3.375a.571.571,0,0,0,.13-.395v-.25A.552.552,0,0,0,9.7-4.4a.443.443,0,0,0-.347-.147A.431.431,0,0,0,9-4.4a.578.578,0,0,0-.128.391ZM10.688-1.22a.978.978,0,0,1,.3-.742,1.055,1.055,0,0,1,.759-.284,1.053,1.053,0,0,1,.76.284,1.011,1.011,0,0,1,.3.766v.243a1,1,0,0,1-.285.733,1.026,1.026,0,0,1-.764.289,1.056,1.056,0,0,1-.771-.285,1.006,1.006,0,0,1-.292-.754Zm.581.267a.545.545,0,0,0,.135.381.447.447,0,0,0,.347.149.434.434,0,0,0,.344-.142.583.583,0,0,0,.125-.4V-1.22a.54.54,0,0,0-.133-.383.446.446,0,0,0-.342-.144A.444.444,0,0,0,11.4-1.6a.565.565,0,0,0-.132.4ZM9.526-.373,9.1-.619l2.43-3.89.427.246Z" transform="translate(15549.637 14798.337)"/>
    <path id="Path_288" data-name="Path 288" d="M3.685-4.515,1.7,0H.824L2.81-4.31H.236v-.667H3.685Zm.632.5a1,1,0,0,1,.291-.74,1.034,1.034,0,0,1,.762-.289,1.037,1.037,0,0,1,.767.289A1.024,1.024,0,0,1,6.426-4v.246a.992.992,0,0,1-.289.735,1.032,1.032,0,0,1-.76.287,1.064,1.064,0,0,1-.76-.282,1,1,0,0,1-.3-.76Zm.581.263a.546.546,0,0,0,.132.381.446.446,0,0,0,.347.145.436.436,0,0,0,.342-.145.571.571,0,0,0,.13-.395v-.25A.552.552,0,0,0,5.717-4.4a.443.443,0,0,0-.347-.147.431.431,0,0,0-.344.149.578.578,0,0,0-.128.391ZM6.709-1.22a.978.978,0,0,1,.3-.742,1.055,1.055,0,0,1,.759-.284,1.053,1.053,0,0,1,.76.284,1.011,1.011,0,0,1,.3.766v.243a1,1,0,0,1-.285.733,1.026,1.026,0,0,1-.764.289A1.056,1.056,0,0,1,7-.217a1.006,1.006,0,0,1-.292-.754Zm.581.267a.545.545,0,0,0,.135.381.447.447,0,0,0,.347.149.434.434,0,0,0,.344-.142.583.583,0,0,0,.125-.4V-1.22A.54.54,0,0,0,8.107-1.6a.446.446,0,0,0-.342-.144.444.444,0,0,0-.344.144.565.565,0,0,0-.132.4ZM5.547-.373,5.12-.619l2.43-3.89.427.246Z" transform="translate(15543.617 14814.67)"/>
    <path id="Path_279" data-name="Path 279" d="M4.006-4.618H2.3V0H1.88V-4.618H.178v-.359H4.006ZM4.149-1.9a2.176,2.176,0,0,1,.207-.96,1.576,1.576,0,0,1,.584-.665A1.574,1.574,0,0,1,5.8-3.767a1.521,1.521,0,0,1,1.2.518,2,2,0,0,1,.458,1.372v.085a2.2,2.2,0,0,1-.207.966,1.544,1.544,0,0,1-.583.661A1.6,1.6,0,0,1,5.8.068,1.523,1.523,0,0,1,4.609-.449a1.991,1.991,0,0,1-.46-1.372Zm.41.113A1.678,1.678,0,0,0,4.9-.7a1.1,1.1,0,0,0,.9.426A1.1,1.1,0,0,0,6.7-.7a1.733,1.733,0,0,0,.344-1.123V-1.9a1.881,1.881,0,0,0-.157-.776,1.263,1.263,0,0,0-.441-.545A1.127,1.127,0,0,0,5.8-3.418a1.093,1.093,0,0,0-.892.429A1.736,1.736,0,0,0,4.56-1.866ZM8.07-1.9a2.176,2.176,0,0,1,.207-.96,1.576,1.576,0,0,1,.584-.665,1.574,1.574,0,0,1,.856-.238,1.521,1.521,0,0,1,1.2.518,2,2,0,0,1,.458,1.372v.085a2.2,2.2,0,0,1-.207.966,1.544,1.544,0,0,1-.583.661,1.6,1.6,0,0,1-.858.232A1.523,1.523,0,0,1,8.53-.449a1.991,1.991,0,0,1-.46-1.372Zm.41.113A1.678,1.678,0,0,0,8.823-.7a1.1,1.1,0,0,0,.9.426,1.1,1.1,0,0,0,.9-.426,1.733,1.733,0,0,0,.344-1.123V-1.9a1.881,1.881,0,0,0-.157-.776,1.263,1.263,0,0,0-.441-.545,1.127,1.127,0,0,0-.649-.193,1.093,1.093,0,0,0-.892.429A1.736,1.736,0,0,0,8.48-1.866Zm6.074-2.854V-3.7h.766v.335h-.766V-.9a.771.771,0,0,0,.111.458.431.431,0,0,0,.371.15,2.545,2.545,0,0,0,.332-.034l.017.335a1.326,1.326,0,0,1-.437.058.729.729,0,0,1-.612-.244A1.15,1.15,0,0,1,14.144-.9V-3.363h-.68V-3.7h.68v-.947ZM16.625,0h-.41V-3.7h.41Zm-.482-4.768a.277.277,0,0,1,.075-.2.267.267,0,0,1,.205-.08.273.273,0,0,1,.207.08.273.273,0,0,1,.077.2.268.268,0,0,1-.077.195.276.276,0,0,1-.207.079.27.27,0,0,1-.205-.079A.271.271,0,0,1,16.143-4.768Zm1.429,2.885a2.226,2.226,0,0,1,.385-1.376A1.24,1.24,0,0,1,19-3.767a1.286,1.286,0,0,1,1.148.6l.021-.533h.383V-.075a1.566,1.566,0,0,1-.4,1.131,1.431,1.431,0,0,1-1.083.417,1.646,1.646,0,0,1-.737-.173,1.431,1.431,0,0,1-.552-.46l.229-.246a1.3,1.3,0,0,0,1.032.533,1.05,1.05,0,0,0,.8-.3,1.205,1.205,0,0,0,.3-.839V-.479a1.322,1.322,0,0,1-1.145.547,1.233,1.233,0,0,1-1.032-.513,2.234,2.234,0,0,1-.39-1.384Zm.414.072A1.929,1.929,0,0,0,18.269-.7a.918.918,0,0,0,.8.408,1.093,1.093,0,0,0,1.07-.677V-2.683a1.167,1.167,0,0,0-.414-.542,1.115,1.115,0,0,0-.649-.186.929.929,0,0,0-.8.405A2.061,2.061,0,0,0,17.985-1.812Zm4.04-1.261a1.444,1.444,0,0,1,.516-.513,1.352,1.352,0,0,1,.687-.181,1.109,1.109,0,0,1,.885.335,1.511,1.511,0,0,1,.294,1V0H24V-2.43a1.13,1.13,0,0,0-.21-.738.823.823,0,0,0-.661-.243,1.035,1.035,0,0,0-.672.238,1.392,1.392,0,0,0-.432.641V0h-.407V-5.25h.407ZM26.1-4.645V-3.7h.766v.335H26.1V-.9a.771.771,0,0,0,.111.458.431.431,0,0,0,.371.15,2.545,2.545,0,0,0,.332-.034l.017.335a1.326,1.326,0,0,1-.437.058.729.729,0,0,1-.612-.244A1.15,1.15,0,0,1,25.686-.9V-3.363h-.68V-3.7h.68v-.947Z" transform="translate(15485.074 14662.44)"/>
    <path id="Path_276" data-name="Path 276" d="M4.006-4.618H2.3V0H1.88V-4.618H.178v-.359H4.006ZM4.149-1.9a2.176,2.176,0,0,1,.207-.96,1.576,1.576,0,0,1,.584-.665A1.574,1.574,0,0,1,5.8-3.767a1.521,1.521,0,0,1,1.2.518,2,2,0,0,1,.458,1.372v.085a2.2,2.2,0,0,1-.207.966,1.544,1.544,0,0,1-.583.661A1.6,1.6,0,0,1,5.8.068,1.523,1.523,0,0,1,4.609-.449a1.991,1.991,0,0,1-.46-1.372Zm.41.113A1.678,1.678,0,0,0,4.9-.7a1.1,1.1,0,0,0,.9.426A1.1,1.1,0,0,0,6.7-.7a1.733,1.733,0,0,0,.344-1.123V-1.9a1.881,1.881,0,0,0-.157-.776,1.263,1.263,0,0,0-.441-.545A1.127,1.127,0,0,0,5.8-3.418a1.093,1.093,0,0,0-.892.429A1.736,1.736,0,0,0,4.56-1.866ZM8.07-1.9a2.176,2.176,0,0,1,.207-.96,1.576,1.576,0,0,1,.584-.665,1.574,1.574,0,0,1,.856-.238,1.521,1.521,0,0,1,1.2.518,2,2,0,0,1,.458,1.372v.085a2.2,2.2,0,0,1-.207.966,1.544,1.544,0,0,1-.583.661,1.6,1.6,0,0,1-.858.232A1.523,1.523,0,0,1,8.53-.449a1.991,1.991,0,0,1-.46-1.372Zm.41.113A1.678,1.678,0,0,0,8.823-.7a1.1,1.1,0,0,0,.9.426,1.1,1.1,0,0,0,.9-.426,1.733,1.733,0,0,0,.344-1.123V-1.9a1.881,1.881,0,0,0-.157-.776,1.263,1.263,0,0,0-.441-.545,1.127,1.127,0,0,0-.649-.193,1.093,1.093,0,0,0-.892.429A1.736,1.736,0,0,0,8.48-1.866ZM14.376,0h-.41V-5.25h.41Zm.885-1.9a2.176,2.176,0,0,1,.207-.96,1.576,1.576,0,0,1,.584-.665,1.574,1.574,0,0,1,.856-.238,1.521,1.521,0,0,1,1.2.518,2,2,0,0,1,.458,1.372v.085a2.2,2.2,0,0,1-.207.966,1.544,1.544,0,0,1-.583.661,1.6,1.6,0,0,1-.858.232,1.523,1.523,0,0,1-1.195-.518,1.991,1.991,0,0,1-.46-1.372Zm.41.113A1.678,1.678,0,0,0,16.015-.7a1.1,1.1,0,0,0,.9.426,1.1,1.1,0,0,0,.9-.426,1.733,1.733,0,0,0,.344-1.123V-1.9A1.881,1.881,0,0,0,18-2.68a1.263,1.263,0,0,0-.441-.545,1.127,1.127,0,0,0-.649-.193,1.093,1.093,0,0,0-.892.429,1.736,1.736,0,0,0-.345,1.123Zm3.51-.113a2.176,2.176,0,0,1,.207-.96,1.576,1.576,0,0,1,.584-.665,1.574,1.574,0,0,1,.856-.238,1.521,1.521,0,0,1,1.2.518,2,2,0,0,1,.458,1.372v.085a2.2,2.2,0,0,1-.207.966,1.544,1.544,0,0,1-.583.661,1.6,1.6,0,0,1-.858.232,1.523,1.523,0,0,1-1.195-.518,1.991,1.991,0,0,1-.46-1.372Zm.41.113A1.678,1.678,0,0,0,19.935-.7a1.1,1.1,0,0,0,.9.426,1.1,1.1,0,0,0,.9-.426,1.733,1.733,0,0,0,.344-1.123V-1.9a1.881,1.881,0,0,0-.157-.776,1.263,1.263,0,0,0-.441-.545,1.127,1.127,0,0,0-.649-.193,1.093,1.093,0,0,0-.892.429,1.736,1.736,0,0,0-.345,1.123Zm5.951.851a.583.583,0,0,0-.244-.489,1.885,1.885,0,0,0-.737-.289,3.323,3.323,0,0,1-.764-.239,1.018,1.018,0,0,1-.4-.33.823.823,0,0,1-.132-.472.88.88,0,0,1,.366-.723,1.477,1.477,0,0,1,.937-.285,1.52,1.52,0,0,1,.993.306.982.982,0,0,1,.374.8h-.41a.662.662,0,0,0-.272-.54,1.069,1.069,0,0,0-.685-.215,1.07,1.07,0,0,0-.648.179.554.554,0,0,0-.244.467.5.5,0,0,0,.2.429,2.151,2.151,0,0,0,.742.279,3.486,3.486,0,0,1,.807.27,1.045,1.045,0,0,1,.4.345.884.884,0,0,1,.13.489.886.886,0,0,1-.378.749,1.614,1.614,0,0,1-.986.28,1.657,1.657,0,0,1-1.048-.313.963.963,0,0,1-.4-.791h.41a.711.711,0,0,0,.3.559,1.236,1.236,0,0,0,.737.2,1.162,1.162,0,0,0,.69-.188A.564.564,0,0,0,25.542-.94ZM28.3.068a1.605,1.605,0,0,1-.853-.232,1.584,1.584,0,0,1-.593-.648,2.019,2.019,0,0,1-.212-.931V-1.89a2.176,2.176,0,0,1,.207-.96,1.645,1.645,0,0,1,.576-.672,1.421,1.421,0,0,1,.8-.244,1.335,1.335,0,0,1,1.068.46,1.865,1.865,0,0,1,.395,1.256v.229H27.053v.079A1.549,1.549,0,0,0,27.414-.7a1.147,1.147,0,0,0,.907.419A1.333,1.333,0,0,0,28.9-.4a1.285,1.285,0,0,0,.456-.383l.256.195A1.492,1.492,0,0,1,28.3.068Zm-.075-3.486a1.022,1.022,0,0,0-.778.338,1.563,1.563,0,0,0-.385.909h2.218v-.044a1.357,1.357,0,0,0-.3-.868A.943.943,0,0,0,28.229-3.418Z" transform="translate(15482.508 14680.935)"/>
    <path id="Path_271" data-name="Path 271" d="M51.106,0h-.424V-2.386H47.838V0h-.42V-4.977h.42v2.235h2.844V-4.977h.424Zm2.6.068a1.605,1.605,0,0,1-.853-.232,1.584,1.584,0,0,1-.593-.648,2.019,2.019,0,0,1-.212-.931V-1.89a2.176,2.176,0,0,1,.207-.96,1.645,1.645,0,0,1,.576-.672,1.421,1.421,0,0,1,.8-.244,1.335,1.335,0,0,1,1.068.46,1.865,1.865,0,0,1,.395,1.256v.229H52.456v.079A1.549,1.549,0,0,0,52.817-.7a1.147,1.147,0,0,0,.907.419A1.333,1.333,0,0,0,54.3-.4a1.285,1.285,0,0,0,.456-.383l.256.195A1.492,1.492,0,0,1,53.707.068Zm-.075-3.486a1.022,1.022,0,0,0-.778.338,1.563,1.563,0,0,0-.385.909h2.218v-.044a1.357,1.357,0,0,0-.3-.868A.943.943,0,0,0,53.632-3.418ZM58.226,0a1.934,1.934,0,0,1-.079-.516,1.426,1.426,0,0,1-.549.432,1.68,1.68,0,0,1-.706.152,1.24,1.24,0,0,1-.863-.3.969.969,0,0,1-.33-.752.99.99,0,0,1,.449-.854A2.16,2.16,0,0,1,57.4-2.15h.742v-.42a.81.81,0,0,0-.244-.624,1.01,1.01,0,0,0-.713-.227,1.115,1.115,0,0,0-.708.219.65.65,0,0,0-.28.526l-.41,0a.951.951,0,0,1,.41-.764,1.579,1.579,0,0,1,1.008-.323,1.441,1.441,0,0,1,.976.309,1.11,1.11,0,0,1,.367.863v1.75a2.171,2.171,0,0,0,.113.8V0ZM56.941-.294a1.373,1.373,0,0,0,.733-.2,1.166,1.166,0,0,0,.47-.53v-.813h-.731a1.833,1.833,0,0,0-.957.224.672.672,0,0,0-.345.6.661.661,0,0,0,.231.516A.869.869,0,0,0,56.941-.294Zm2.536-1.589a2.229,2.229,0,0,1,.385-1.372,1.238,1.238,0,0,1,1.044-.511,1.286,1.286,0,0,1,1.142.591V-5.25h.407V0h-.383l-.017-.492A1.321,1.321,0,0,1,60.9.068a1.233,1.233,0,0,1-1.031-.514,2.241,2.241,0,0,1-.391-1.389Zm.414.072A1.929,1.929,0,0,0,60.174-.7a.918.918,0,0,0,.8.408,1.1,1.1,0,0,0,1.073-.667V-2.69a1.093,1.093,0,0,0-1.066-.721.929.929,0,0,0-.8.405A2.061,2.061,0,0,0,59.89-1.812ZM65.865,0a1.934,1.934,0,0,1-.079-.516,1.426,1.426,0,0,1-.549.432,1.68,1.68,0,0,1-.706.152,1.24,1.24,0,0,1-.863-.3.969.969,0,0,1-.33-.752.99.99,0,0,1,.449-.854,2.16,2.16,0,0,1,1.253-.314h.742v-.42a.81.81,0,0,0-.244-.624,1.01,1.01,0,0,0-.713-.227,1.115,1.115,0,0,0-.708.219.65.65,0,0,0-.28.526l-.41,0a.951.951,0,0,1,.41-.764,1.579,1.579,0,0,1,1.008-.323,1.441,1.441,0,0,1,.976.309,1.11,1.11,0,0,1,.367.863v1.75a2.171,2.171,0,0,0,.113.8V0ZM64.58-.294a1.373,1.373,0,0,0,.733-.2,1.167,1.167,0,0,0,.47-.53v-.813h-.731a1.833,1.833,0,0,0-.957.224.672.672,0,0,0-.345.6A.661.661,0,0,0,63.98-.5.869.869,0,0,0,64.58-.294Zm4.067.017a1.08,1.08,0,0,0,.716-.241.848.848,0,0,0,.313-.624h.393a1.158,1.158,0,0,1-.212.617,1.328,1.328,0,0,1-.518.436,1.561,1.561,0,0,1-.692.157,1.429,1.429,0,0,1-1.154-.506,2.045,2.045,0,0,1-.426-1.36v-.123a2.312,2.312,0,0,1,.191-.967,1.475,1.475,0,0,1,.549-.649,1.514,1.514,0,0,1,.836-.229,1.426,1.426,0,0,1,1,.362,1.321,1.321,0,0,1,.422.954h-.393a1.006,1.006,0,0,0-.313-.7,1.013,1.013,0,0,0-.719-.267,1.02,1.02,0,0,0-.86.4A1.809,1.809,0,0,0,67.478-1.9v.12a1.769,1.769,0,0,0,.306,1.1A1.027,1.027,0,0,0,68.647-.277Zm2.646-2.8a1.444,1.444,0,0,1,.516-.513,1.352,1.352,0,0,1,.687-.181,1.109,1.109,0,0,1,.885.335,1.511,1.511,0,0,1,.294,1V0h-.407V-2.43a1.13,1.13,0,0,0-.21-.738.823.823,0,0,0-.661-.243,1.035,1.035,0,0,0-.672.238,1.392,1.392,0,0,0-.432.641V0h-.407V-5.25h.407ZM76.16.068a1.605,1.605,0,0,1-.853-.232,1.584,1.584,0,0,1-.593-.648,2.019,2.019,0,0,1-.212-.931V-1.89a2.176,2.176,0,0,1,.207-.96,1.645,1.645,0,0,1,.576-.672,1.421,1.421,0,0,1,.8-.244,1.335,1.335,0,0,1,1.068.46,1.865,1.865,0,0,1,.395,1.256v.229H74.909v.079A1.549,1.549,0,0,0,75.269-.7a1.147,1.147,0,0,0,.907.419,1.333,1.333,0,0,0,.579-.12,1.285,1.285,0,0,0,.456-.383l.256.195A1.492,1.492,0,0,1,76.16.068Zm-.075-3.486a1.023,1.023,0,0,0-.778.338,1.563,1.563,0,0,0-.385.909h2.218v-.044a1.357,1.357,0,0,0-.3-.868A.943.943,0,0,0,76.085-3.418ZM80.559-.94a.583.583,0,0,0-.244-.489,1.885,1.885,0,0,0-.737-.289,3.323,3.323,0,0,1-.764-.239,1.018,1.018,0,0,1-.4-.33.823.823,0,0,1-.132-.472.88.88,0,0,1,.366-.723,1.477,1.477,0,0,1,.937-.285,1.52,1.52,0,0,1,.993.306.982.982,0,0,1,.374.8h-.41a.662.662,0,0,0-.272-.54,1.069,1.069,0,0,0-.685-.215,1.07,1.07,0,0,0-.648.179.554.554,0,0,0-.244.467.5.5,0,0,0,.2.429,2.151,2.151,0,0,0,.742.279,3.486,3.486,0,0,1,.807.27,1.045,1.045,0,0,1,.4.345.884.884,0,0,1,.13.489.886.886,0,0,1-.378.749,1.614,1.614,0,0,1-.986.28,1.657,1.657,0,0,1-1.048-.313.963.963,0,0,1-.4-.791h.41a.711.711,0,0,0,.3.559,1.236,1.236,0,0,0,.737.2,1.162,1.162,0,0,0,.69-.188A.564.564,0,0,0,80.559-.94Z" transform="translate(15418.635 14700.118)"/>
    <path id="Path_272" data-name="Path 272" d="M27.091-1.4a.921.921,0,0,0-.332-.748,3.506,3.506,0,0,0-1.215-.523,4.258,4.258,0,0,1-1.289-.541A1.277,1.277,0,0,1,23.677-4.3a1.272,1.272,0,0,1,.537-1.061,2.206,2.206,0,0,1,1.373-.408,2.277,2.277,0,0,1,1.014.219,1.659,1.659,0,0,1,.693.609,1.6,1.6,0,0,1,.246.871h-.484a1.19,1.19,0,0,0-.4-.936,1.554,1.554,0,0,0-1.07-.354,1.688,1.688,0,0,0-1.039.291.908.908,0,0,0-.387.76.859.859,0,0,0,.348.707,3.225,3.225,0,0,0,1.113.482,5.224,5.224,0,0,1,1.16.434,1.654,1.654,0,0,1,.594.537,1.344,1.344,0,0,1,.2.738,1.286,1.286,0,0,1-.537,1.078,2.288,2.288,0,0,1-1.416.406,2.776,2.776,0,0,1-1.1-.215,1.686,1.686,0,0,1-.762-.6,1.553,1.553,0,0,1-.26-.887h.48a1.135,1.135,0,0,0,.449.949,1.9,1.9,0,0,0,1.2.348,1.772,1.772,0,0,0,1.066-.293A.916.916,0,0,0,27.091-1.4ZM29.024,0h-.469V-6h.469Zm1.793,0h-.469V-4.227h.469Zm-.551-5.449a.316.316,0,0,1,.086-.225.305.305,0,0,1,.234-.092.312.312,0,0,1,.236.092.313.313,0,0,1,.088.225.306.306,0,0,1-.088.223.315.315,0,0,1-.236.09.309.309,0,0,1-.234-.09A.31.31,0,0,1,30.267-5.449ZM35.485-2.07A2.545,2.545,0,0,1,35.048-.5a1.393,1.393,0,0,1-1.172.58,1.564,1.564,0,0,1-1.328-.609V1.625h-.465V-4.227h.434l.023.6A1.5,1.5,0,0,1,33.864-4.3a1.406,1.406,0,0,1,1.189.574,2.6,2.6,0,0,1,.432,1.594Zm-.469-.082a2.174,2.174,0,0,0-.332-1.277,1.071,1.071,0,0,0-.926-.469,1.294,1.294,0,0,0-.738.207,1.3,1.3,0,0,0-.473.6v2.027a1.241,1.241,0,0,0,.48.555,1.386,1.386,0,0,0,.738.191,1.061,1.061,0,0,0,.92-.471A2.367,2.367,0,0,0,35.017-2.152Zm4.9.082A2.545,2.545,0,0,1,39.481-.5a1.393,1.393,0,0,1-1.172.58,1.564,1.564,0,0,1-1.328-.609V1.625h-.465V-4.227h.434l.023.6A1.5,1.5,0,0,1,38.3-4.3a1.406,1.406,0,0,1,1.189.574,2.6,2.6,0,0,1,.432,1.594Zm-.469-.082a2.174,2.174,0,0,0-.332-1.277,1.071,1.071,0,0,0-.926-.469,1.294,1.294,0,0,0-.738.207,1.3,1.3,0,0,0-.473.6v2.027a1.241,1.241,0,0,0,.48.555,1.386,1.386,0,0,0,.738.191,1.061,1.061,0,0,0,.92-.471A2.367,2.367,0,0,0,39.45-2.152ZM41.478,0h-.469V-4.227h.469Zm-.551-5.449a.316.316,0,0,1,.086-.225.305.305,0,0,1,.234-.092.312.312,0,0,1,.236.092.313.313,0,0,1,.088.225.306.306,0,0,1-.088.223.315.315,0,0,1-.236.09.309.309,0,0,1-.234-.09A.31.31,0,0,1,40.927-5.449Zm2.266,1.223.016.723a1.678,1.678,0,0,1,.594-.6,1.543,1.543,0,0,1,.785-.205,1.268,1.268,0,0,1,1.012.383,1.727,1.727,0,0,1,.336,1.148V0H45.47V-2.777a1.291,1.291,0,0,0-.24-.844.941.941,0,0,0-.756-.277,1.182,1.182,0,0,0-.768.271,1.59,1.59,0,0,0-.494.732V0h-.465V-4.227Zm3.762,2.074a2.544,2.544,0,0,1,.439-1.572,1.418,1.418,0,0,1,1.193-.58,1.47,1.47,0,0,1,1.313.688l.023-.609h.438V-.086A1.79,1.79,0,0,1,49.9,1.207a1.635,1.635,0,0,1-1.238.477,1.881,1.881,0,0,1-.842-.2,1.635,1.635,0,0,1-.631-.525L47.454.68a1.481,1.481,0,0,0,1.18.609,1.2,1.2,0,0,0,.914-.346,1.377,1.377,0,0,0,.34-.959V-.547a1.511,1.511,0,0,1-1.309.625A1.409,1.409,0,0,1,47.4-.508a2.553,2.553,0,0,1-.445-1.582Zm.473.082a2.2,2.2,0,0,0,.324,1.275,1.049,1.049,0,0,0,.914.467A1.249,1.249,0,0,0,49.888-1.1V-3.066a1.333,1.333,0,0,0-.473-.619,1.275,1.275,0,0,0-.742-.213,1.061,1.061,0,0,0-.918.463A2.355,2.355,0,0,0,47.427-2.07ZM53.458.488h-.426l2.375-6.176h.422ZM58.981,0V-3.844h-.7v-.383h.7v-.512a1.391,1.391,0,0,1,.33-1,1.208,1.208,0,0,1,.92-.348,1.785,1.785,0,0,1,.5.066l-.035.391a1.823,1.823,0,0,0-.426-.047.765.765,0,0,0-.6.24.988.988,0,0,0-.215.682v.523h1.008v.383H59.45V0Zm4.98,0a2.211,2.211,0,0,1-.09-.59,1.63,1.63,0,0,1-.627.494,1.92,1.92,0,0,1-.807.174,1.417,1.417,0,0,1-.986-.34,1.107,1.107,0,0,1-.377-.859,1.131,1.131,0,0,1,.514-.977,2.468,2.468,0,0,1,1.432-.359h.848v-.48a.926.926,0,0,0-.279-.713,1.154,1.154,0,0,0-.814-.26,1.275,1.275,0,0,0-.809.25.743.743,0,0,0-.32.6l-.469,0a1.087,1.087,0,0,1,.469-.873A1.8,1.8,0,0,1,62.8-4.3a1.646,1.646,0,0,1,1.115.354,1.269,1.269,0,0,1,.42.986v2a2.481,2.481,0,0,0,.129.918V0ZM62.493-.336a1.569,1.569,0,0,0,.838-.227,1.333,1.333,0,0,0,.537-.605V-2.1h-.836a2.1,2.1,0,0,0-1.094.256.768.768,0,0,0-.395.682.756.756,0,0,0,.264.59A.993.993,0,0,0,62.493-.336ZM66.1,0h-.469V-6H66.1ZM67.9,0h-.469V-6H67.9Zm1.793,0H69.22V-4.227h.469Zm-.551-5.449a.316.316,0,0,1,.086-.225.305.305,0,0,1,.234-.092.312.312,0,0,1,.236.092.313.313,0,0,1,.088.225.306.306,0,0,1-.088.223.315.315,0,0,1-.236.09.309.309,0,0,1-.234-.09A.31.31,0,0,1,69.138-5.449ZM71.4-4.227l.016.723a1.678,1.678,0,0,1,.594-.6A1.543,1.543,0,0,1,72.8-4.3a1.268,1.268,0,0,1,1.012.383,1.727,1.727,0,0,1,.336,1.148V0h-.465V-2.777a1.291,1.291,0,0,0-.24-.844.941.941,0,0,0-.756-.277,1.182,1.182,0,0,0-.768.271,1.59,1.59,0,0,0-.494.732V0h-.465V-4.227Zm3.762,2.074A2.544,2.544,0,0,1,75.6-3.725,1.418,1.418,0,0,1,76.8-4.3a1.47,1.47,0,0,1,1.313.688l.023-.609h.438V-.086a1.79,1.79,0,0,1-.457,1.293,1.635,1.635,0,0,1-1.238.477,1.881,1.881,0,0,1-.842-.2A1.635,1.635,0,0,1,75.4.961L75.665.68a1.481,1.481,0,0,0,1.18.609,1.2,1.2,0,0,0,.914-.346,1.377,1.377,0,0,0,.34-.959V-.547A1.511,1.511,0,0,1,76.79.078a1.409,1.409,0,0,1-1.18-.586,2.553,2.553,0,0,1-.445-1.582Zm.473.082a2.2,2.2,0,0,0,.324,1.275,1.049,1.049,0,0,0,.914.467A1.249,1.249,0,0,0,78.1-1.1V-3.066a1.333,1.333,0,0,0-.473-.619,1.275,1.275,0,0,0-.742-.213,1.061,1.061,0,0,0-.918.463A2.355,2.355,0,0,0,75.638-2.07Zm5.84-.105a2.487,2.487,0,0,1,.236-1.1,1.8,1.8,0,0,1,.668-.76A1.8,1.8,0,0,1,83.36-4.3a1.739,1.739,0,0,1,1.367.592,2.28,2.28,0,0,1,.523,1.568v.1a2.509,2.509,0,0,1-.236,1.1,1.765,1.765,0,0,1-.666.756,1.826,1.826,0,0,1-.98.266A1.74,1.74,0,0,1,82-.514a2.275,2.275,0,0,1-.525-1.568Zm.469.129A1.918,1.918,0,0,0,82.339-.8a1.259,1.259,0,0,0,1.029.486A1.255,1.255,0,0,0,84.394-.8a1.981,1.981,0,0,0,.393-1.283v-.09a2.15,2.15,0,0,0-.18-.887,1.444,1.444,0,0,0-.5-.623,1.288,1.288,0,0,0-.742-.221,1.249,1.249,0,0,0-1.02.49,1.984,1.984,0,0,0-.395,1.283ZM86.552,0V-3.844h-.7v-.383h.7v-.512a1.391,1.391,0,0,1,.33-1,1.208,1.208,0,0,1,.92-.348,1.785,1.785,0,0,1,.5.066l-.035.391a1.823,1.823,0,0,0-.426-.047.765.765,0,0,0-.6.24.988.988,0,0,0-.215.682v.523h1.008v.383H87.021V0ZM89.2,0V-3.844h-.7v-.383h.7v-.512a1.391,1.391,0,0,1,.33-1,1.208,1.208,0,0,1,.92-.348,1.785,1.785,0,0,1,.5.066l-.035.391a1.823,1.823,0,0,0-.426-.047.765.765,0,0,0-.6.24.988.988,0,0,0-.215.682v.523h1.008v.383H89.669V0Z" transform="translate(15418.635 14719.956)"/>
    <path id="Path_275" data-name="Path 275" d="M4.578-5.277H2.629V0h-.48V-5.277H.2v-.41H4.578Zm.164,3.1a2.487,2.487,0,0,1,.236-1.1,1.8,1.8,0,0,1,.668-.76A1.8,1.8,0,0,1,6.625-4.3a1.739,1.739,0,0,1,1.367.592,2.28,2.28,0,0,1,.523,1.568v.1a2.509,2.509,0,0,1-.236,1.1,1.765,1.765,0,0,1-.666.756,1.826,1.826,0,0,1-.98.266A1.74,1.74,0,0,1,5.268-.514a2.275,2.275,0,0,1-.525-1.568Zm.469.129A1.918,1.918,0,0,0,5.6-.8a1.259,1.259,0,0,0,1.029.486A1.255,1.255,0,0,0,7.658-.8a1.981,1.981,0,0,0,.393-1.283v-.09a2.15,2.15,0,0,0-.18-.887,1.444,1.444,0,0,0-.5-.623,1.288,1.288,0,0,0-.742-.221,1.249,1.249,0,0,0-1.02.49,1.984,1.984,0,0,0-.395,1.283Zm4.012-.129a2.487,2.487,0,0,1,.236-1.1,1.8,1.8,0,0,1,.668-.76,1.8,1.8,0,0,1,.979-.271,1.739,1.739,0,0,1,1.367.592A2.28,2.28,0,0,1,13-2.145v.1a2.509,2.509,0,0,1-.236,1.1,1.765,1.765,0,0,1-.666.756,1.826,1.826,0,0,1-.98.266A1.74,1.74,0,0,1,9.748-.514a2.275,2.275,0,0,1-.525-1.568Zm.469.129A1.918,1.918,0,0,0,10.084-.8a1.259,1.259,0,0,0,1.029.486A1.255,1.255,0,0,0,12.139-.8a1.981,1.981,0,0,0,.393-1.283v-.09a2.15,2.15,0,0,0-.18-.887,1.444,1.444,0,0,0-.5-.623,1.288,1.288,0,0,0-.742-.221,1.249,1.249,0,0,0-1.02.49,1.984,1.984,0,0,0-.395,1.283Zm6.68-1.465a1.65,1.65,0,0,1,.59-.586,1.545,1.545,0,0,1,.785-.207,1.268,1.268,0,0,1,1.012.383,1.727,1.727,0,0,1,.336,1.148V0h-.465V-2.777a1.291,1.291,0,0,0-.24-.844.941.941,0,0,0-.756-.277,1.182,1.182,0,0,0-.768.271,1.59,1.59,0,0,0-.494.732V0h-.465V-6h.465ZM21.934.078a1.835,1.835,0,0,1-.975-.266,1.81,1.81,0,0,1-.678-.74,2.308,2.308,0,0,1-.242-1.064V-2.16a2.487,2.487,0,0,1,.236-1.1,1.88,1.88,0,0,1,.658-.768,1.624,1.624,0,0,1,.914-.279,1.526,1.526,0,0,1,1.221.525,2.131,2.131,0,0,1,.451,1.436v.262H20.5v.09a1.77,1.77,0,0,0,.412,1.2,1.311,1.311,0,0,0,1.037.479,1.523,1.523,0,0,0,.662-.137,1.468,1.468,0,0,0,.521-.437l.293.223A1.705,1.705,0,0,1,21.934.078Zm-.086-3.984a1.169,1.169,0,0,0-.889.387A1.787,1.787,0,0,0,20.52-2.48h2.535v-.051a1.551,1.551,0,0,0-.348-.992A1.077,1.077,0,0,0,21.848-3.906ZM27.1,0a2.211,2.211,0,0,1-.09-.59,1.63,1.63,0,0,1-.627.494,1.92,1.92,0,0,1-.807.174,1.417,1.417,0,0,1-.986-.34,1.107,1.107,0,0,1-.377-.859,1.131,1.131,0,0,1,.514-.977,2.468,2.468,0,0,1,1.432-.359H27v-.48a.926.926,0,0,0-.279-.713,1.154,1.154,0,0,0-.814-.26,1.275,1.275,0,0,0-.809.25.743.743,0,0,0-.32.6l-.469,0a1.087,1.087,0,0,1,.469-.873A1.8,1.8,0,0,1,25.934-4.3a1.646,1.646,0,0,1,1.115.354,1.268,1.268,0,0,1,.42.986v2a2.481,2.481,0,0,0,.129.918V0ZM25.629-.336a1.569,1.569,0,0,0,.838-.227A1.333,1.333,0,0,0,27-1.168V-2.1h-.836a2.1,2.1,0,0,0-1.094.256.768.768,0,0,0-.395.682.756.756,0,0,0,.264.59A.993.993,0,0,0,25.629-.336Zm4.344-.309,1.285-3.582h.48L30.16,0h-.379L28.2-4.227h.48Zm3.871-.027,1.234-3.555h.5L33.777.719l-.094.219a1.135,1.135,0,0,1-1.074.77,1.311,1.311,0,0,1-.359-.055l0-.387.242.023a.865.865,0,0,0,.557-.17,1.29,1.29,0,0,0,.361-.584l.207-.57L32.02-4.227h.512Z" transform="translate(15480.449 14738.784)"/>
    <path id="Path_273" data-name="Path 273" d="M53.382-5.687V-1.8a1.966,1.966,0,0,1-.254,1,1.664,1.664,0,0,1-.705.654,2.3,2.3,0,0,1-1.045.229,2.062,2.062,0,0,1-1.439-.49,1.8,1.8,0,0,1-.561-1.357V-5.687h.477V-1.84a1.479,1.479,0,0,0,.41,1.115,1.534,1.534,0,0,0,1.113.4,1.523,1.523,0,0,0,1.111-.4A1.479,1.479,0,0,0,52.9-1.836V-5.687Zm1.676,1.461.016.723a1.678,1.678,0,0,1,.594-.6,1.543,1.543,0,0,1,.785-.205,1.268,1.268,0,0,1,1.012.383A1.727,1.727,0,0,1,57.8-2.773V0h-.465V-2.777a1.291,1.291,0,0,0-.24-.844.941.941,0,0,0-.756-.277,1.182,1.182,0,0,0-.768.271,1.59,1.59,0,0,0-.494.732V0h-.465V-4.227ZM61.675,0a2.211,2.211,0,0,1-.09-.59,1.63,1.63,0,0,1-.627.494,1.92,1.92,0,0,1-.807.174,1.417,1.417,0,0,1-.986-.34,1.107,1.107,0,0,1-.377-.859A1.131,1.131,0,0,1,59.3-2.1a2.468,2.468,0,0,1,1.432-.359h.848v-.48A.926.926,0,0,0,61.3-3.65a1.154,1.154,0,0,0-.814-.26,1.275,1.275,0,0,0-.809.25.743.743,0,0,0-.32.6l-.469,0a1.087,1.087,0,0,1,.469-.873A1.8,1.8,0,0,1,60.511-4.3a1.646,1.646,0,0,1,1.115.354,1.268,1.268,0,0,1,.42.986v2a2.481,2.481,0,0,0,.129.918V0ZM60.206-.336a1.569,1.569,0,0,0,.838-.227,1.333,1.333,0,0,0,.537-.605V-2.1h-.836a2.1,2.1,0,0,0-1.094.256.768.768,0,0,0-.395.682.756.756,0,0,0,.264.59A.993.993,0,0,0,60.206-.336Zm3.813-4.973v1.082h.875v.383h-.875v2.816a.881.881,0,0,0,.127.523.492.492,0,0,0,.424.172,2.908,2.908,0,0,0,.379-.039l.02.383a1.515,1.515,0,0,1-.5.066.834.834,0,0,1-.7-.279,1.315,1.315,0,0,1-.219-.822v-2.82h-.777v-.383h.777V-5.309Zm2.57,0v1.082h.875v.383h-.875v2.816a.881.881,0,0,0,.127.523.492.492,0,0,0,.424.172,2.908,2.908,0,0,0,.379-.039l.02.383a1.515,1.515,0,0,1-.5.066.834.834,0,0,1-.7-.279,1.315,1.315,0,0,1-.219-.822v-2.82h-.777v-.383h.777V-5.309Zm3.8,1.48a1.746,1.746,0,0,0-.316-.027,1.142,1.142,0,0,0-.74.244A1.337,1.337,0,0,0,68.9-2.9V0h-.465V-4.227h.457l.008.672a1.243,1.243,0,0,1,1.191-.75.769.769,0,0,1,.309.051ZM73.636,0a2.211,2.211,0,0,1-.09-.59,1.63,1.63,0,0,1-.627.494,1.92,1.92,0,0,1-.807.174,1.417,1.417,0,0,1-.986-.34,1.107,1.107,0,0,1-.377-.859,1.131,1.131,0,0,1,.514-.977,2.468,2.468,0,0,1,1.432-.359h.848v-.48a.926.926,0,0,0-.279-.713,1.154,1.154,0,0,0-.814-.26,1.275,1.275,0,0,0-.809.25.743.743,0,0,0-.32.6l-.469,0a1.087,1.087,0,0,1,.469-.873A1.8,1.8,0,0,1,72.472-4.3a1.646,1.646,0,0,1,1.115.354,1.269,1.269,0,0,1,.42.986v2a2.481,2.481,0,0,0,.129.918V0ZM72.167-.336a1.569,1.569,0,0,0,.838-.227,1.333,1.333,0,0,0,.537-.605V-2.1h-.836a2.1,2.1,0,0,0-1.094.256.768.768,0,0,0-.395.682.756.756,0,0,0,.264.59A.993.993,0,0,0,72.167-.336Zm4.648.02a1.234,1.234,0,0,0,.818-.275.969.969,0,0,0,.357-.713h.449A1.323,1.323,0,0,1,78.2-.6a1.517,1.517,0,0,1-.592.5,1.784,1.784,0,0,1-.791.18A1.633,1.633,0,0,1,75.5-.5a2.337,2.337,0,0,1-.486-1.555V-2.2A2.642,2.642,0,0,1,75.23-3.3a1.686,1.686,0,0,1,.627-.742,1.731,1.731,0,0,1,.955-.262,1.63,1.63,0,0,1,1.146.414,1.51,1.51,0,0,1,.482,1.09h-.449a1.149,1.149,0,0,0-.357-.8,1.157,1.157,0,0,0-.822-.3,1.165,1.165,0,0,0-.982.457,2.068,2.068,0,0,0-.35,1.281v.137a2.022,2.022,0,0,0,.35,1.262A1.173,1.173,0,0,0,76.816-.316ZM80.1-5.309v1.082h.875v.383H80.1v2.816a.881.881,0,0,0,.127.523.492.492,0,0,0,.424.172,2.908,2.908,0,0,0,.379-.039l.02.383a1.515,1.515,0,0,1-.5.066.834.834,0,0,1-.7-.279,1.315,1.315,0,0,1-.219-.822v-2.82h-.777v-.383h.777V-5.309ZM82.468,0H82V-4.227h.469Zm-.551-5.449A.316.316,0,0,1,82-5.674a.305.305,0,0,1,.234-.092.312.312,0,0,1,.236.092.313.313,0,0,1,.088.225.306.306,0,0,1-.088.223.315.315,0,0,1-.236.09A.309.309,0,0,1,82-5.227.31.31,0,0,1,81.917-5.449Zm3.137,4.8,1.285-3.582h.48L85.241,0h-.379L83.277-4.227h.48Zm4.168.723a1.835,1.835,0,0,1-.975-.266,1.81,1.81,0,0,1-.678-.74,2.308,2.308,0,0,1-.242-1.064V-2.16a2.487,2.487,0,0,1,.236-1.1,1.88,1.88,0,0,1,.658-.768,1.624,1.624,0,0,1,.914-.279,1.526,1.526,0,0,1,1.221.525,2.131,2.131,0,0,1,.451,1.436v.262H87.792v.09a1.77,1.77,0,0,0,.412,1.2,1.311,1.311,0,0,0,1.037.479A1.523,1.523,0,0,0,89.9-.453a1.468,1.468,0,0,0,.521-.437l.293.223A1.705,1.705,0,0,1,89.222.078Zm-.086-3.984a1.169,1.169,0,0,0-.889.387,1.787,1.787,0,0,0-.439,1.039h2.535v-.051A1.551,1.551,0,0,0,90-3.523,1.077,1.077,0,0,0,89.136-3.906Z" transform="translate(15418.635 14758.247)"/>
    <path id="Path_274" data-name="Path 274" d="M23.906-.676a1.61,1.61,0,0,1-.783.555,3.389,3.389,0,0,1-1.193.2,2.216,2.216,0,0,1-1.187-.32,2.132,2.132,0,0,1-.8-.906,3.071,3.071,0,0,1-.289-1.344v-.719a2.747,2.747,0,0,1,.6-1.869,2.022,2.022,0,0,1,1.605-.686,2.133,2.133,0,0,1,1.414.447A1.846,1.846,0,0,1,23.9-4.086h-.48a1.469,1.469,0,0,0-.51-.947,1.644,1.644,0,0,0-1.057-.322,1.546,1.546,0,0,0-1.262.566,2.454,2.454,0,0,0-.465,1.6v.672a2.805,2.805,0,0,0,.221,1.146,1.749,1.749,0,0,0,.633.771,1.674,1.674,0,0,0,.947.273A2.644,2.644,0,0,0,23-.523a1.149,1.149,0,0,0,.43-.3V-2.293H21.9V-2.7h2.008ZM25.683,0h-.469V-6h.469ZM29.62,0a2.211,2.211,0,0,1-.09-.59A1.63,1.63,0,0,1,28.9-.1,1.92,1.92,0,0,1,28.1.078a1.417,1.417,0,0,1-.986-.34,1.107,1.107,0,0,1-.377-.859,1.131,1.131,0,0,1,.514-.977,2.468,2.468,0,0,1,1.432-.359h.848v-.48a.926.926,0,0,0-.279-.713,1.154,1.154,0,0,0-.814-.26,1.275,1.275,0,0,0-.809.25.743.743,0,0,0-.32.6l-.469,0a1.087,1.087,0,0,1,.469-.873A1.8,1.8,0,0,1,28.456-4.3a1.646,1.646,0,0,1,1.115.354,1.268,1.268,0,0,1,.42.986v2a2.481,2.481,0,0,0,.129.918V0ZM28.152-.336a1.569,1.569,0,0,0,.838-.227,1.333,1.333,0,0,0,.537-.605V-2.1h-.836a2.1,2.1,0,0,0-1.094.256.768.768,0,0,0-.395.682.756.756,0,0,0,.264.59A.993.993,0,0,0,28.152-.336Zm5.617-.738a.666.666,0,0,0-.279-.559,2.154,2.154,0,0,0-.842-.33,3.8,3.8,0,0,1-.873-.273,1.163,1.163,0,0,1-.461-.377.94.94,0,0,1-.15-.539,1.006,1.006,0,0,1,.418-.826,1.688,1.688,0,0,1,1.07-.326,1.738,1.738,0,0,1,1.135.35,1.122,1.122,0,0,1,.428.912h-.469a.757.757,0,0,0-.311-.617,1.222,1.222,0,0,0-.783-.246,1.222,1.222,0,0,0-.74.205.633.633,0,0,0-.279.533.576.576,0,0,0,.232.49,2.458,2.458,0,0,0,.848.318,3.984,3.984,0,0,1,.922.309,1.194,1.194,0,0,1,.455.395,1.01,1.01,0,0,1,.148.559,1.012,1.012,0,0,1-.432.855,1.844,1.844,0,0,1-1.127.32,1.893,1.893,0,0,1-1.2-.357,1.1,1.1,0,0,1-.459-.9h.469a.813.813,0,0,0,.346.639,1.413,1.413,0,0,0,.842.229,1.328,1.328,0,0,0,.789-.215A.645.645,0,0,0,33.769-1.074Zm4.051,0a.666.666,0,0,0-.279-.559,2.154,2.154,0,0,0-.842-.33,3.8,3.8,0,0,1-.873-.273,1.163,1.163,0,0,1-.461-.377.94.94,0,0,1-.15-.539,1.006,1.006,0,0,1,.418-.826A1.688,1.688,0,0,1,36.7-4.3a1.738,1.738,0,0,1,1.135.35,1.122,1.122,0,0,1,.428.912H37.8a.757.757,0,0,0-.311-.617,1.222,1.222,0,0,0-.783-.246,1.222,1.222,0,0,0-.74.205.633.633,0,0,0-.279.533.576.576,0,0,0,.232.49,2.458,2.458,0,0,0,.848.318,3.984,3.984,0,0,1,.922.309,1.194,1.194,0,0,1,.455.395,1.01,1.01,0,0,1,.148.559,1.012,1.012,0,0,1-.432.855,1.844,1.844,0,0,1-1.127.32,1.893,1.893,0,0,1-1.2-.357,1.1,1.1,0,0,1-.459-.9h.469a.813.813,0,0,0,.346.639,1.413,1.413,0,0,0,.842.229,1.328,1.328,0,0,0,.789-.215A.645.645,0,0,0,37.82-1.074ZM40.976.078A1.835,1.835,0,0,1,40-.187a1.81,1.81,0,0,1-.678-.74,2.308,2.308,0,0,1-.242-1.064V-2.16a2.487,2.487,0,0,1,.236-1.1,1.88,1.88,0,0,1,.658-.768A1.624,1.624,0,0,1,40.89-4.3a1.526,1.526,0,0,1,1.221.525,2.131,2.131,0,0,1,.451,1.436v.262H39.546v.09a1.77,1.77,0,0,0,.412,1.2A1.311,1.311,0,0,0,41-.316a1.523,1.523,0,0,0,.662-.137,1.468,1.468,0,0,0,.521-.437l.293.223A1.705,1.705,0,0,1,40.976.078ZM40.89-3.906A1.169,1.169,0,0,0,40-3.52a1.787,1.787,0,0,0-.439,1.039H42.1v-.051a1.551,1.551,0,0,0-.348-.992A1.077,1.077,0,0,0,40.89-3.906ZM46-1.074a.666.666,0,0,0-.279-.559,2.154,2.154,0,0,0-.842-.33,3.8,3.8,0,0,1-.873-.273,1.163,1.163,0,0,1-.461-.377.94.94,0,0,1-.15-.539,1.006,1.006,0,0,1,.418-.826,1.688,1.688,0,0,1,1.07-.326,1.738,1.738,0,0,1,1.135.35,1.122,1.122,0,0,1,.428.912H45.98a.757.757,0,0,0-.311-.617,1.222,1.222,0,0,0-.783-.246,1.222,1.222,0,0,0-.74.205.633.633,0,0,0-.279.533.576.576,0,0,0,.232.49,2.458,2.458,0,0,0,.848.318,3.984,3.984,0,0,1,.922.309,1.194,1.194,0,0,1,.455.395,1.01,1.01,0,0,1,.148.559,1.012,1.012,0,0,1-.432.855,1.844,1.844,0,0,1-1.127.32,1.893,1.893,0,0,1-1.2-.357,1.1,1.1,0,0,1-.459-.9h.469a.813.813,0,0,0,.346.639,1.413,1.413,0,0,0,.842.229A1.328,1.328,0,0,0,45.7-.531.645.645,0,0,0,46-1.074Zm6,0a.666.666,0,0,0-.279-.559,2.154,2.154,0,0,0-.842-.33,3.8,3.8,0,0,1-.873-.273,1.163,1.163,0,0,1-.461-.377.94.94,0,0,1-.15-.539,1.006,1.006,0,0,1,.418-.826,1.688,1.688,0,0,1,1.07-.326,1.738,1.738,0,0,1,1.135.35,1.122,1.122,0,0,1,.428.912h-.469a.757.757,0,0,0-.311-.617,1.222,1.222,0,0,0-.783-.246,1.222,1.222,0,0,0-.74.205.633.633,0,0,0-.279.533.576.576,0,0,0,.232.49,2.458,2.458,0,0,0,.848.318,3.984,3.984,0,0,1,.922.309,1.194,1.194,0,0,1,.455.395,1.01,1.01,0,0,1,.148.559,1.012,1.012,0,0,1-.432.855,1.844,1.844,0,0,1-1.127.32,1.893,1.893,0,0,1-1.2-.357,1.1,1.1,0,0,1-.459-.9h.469a.813.813,0,0,0,.346.639,1.413,1.413,0,0,0,.842.229A1.328,1.328,0,0,0,51.7-.531.645.645,0,0,0,52-1.074Zm2.246-4.234v1.082h.875v.383h-.875v2.816a.881.881,0,0,0,.127.523.492.492,0,0,0,.424.172,2.908,2.908,0,0,0,.379-.039l.02.383a1.515,1.515,0,0,1-.5.066A.834.834,0,0,1,54-.2a1.315,1.315,0,0,1-.219-.822v-2.82H53v-.383h.777V-5.309ZM57.726.078a1.835,1.835,0,0,1-.975-.266,1.81,1.81,0,0,1-.678-.74,2.308,2.308,0,0,1-.242-1.064V-2.16a2.487,2.487,0,0,1,.236-1.1,1.88,1.88,0,0,1,.658-.768A1.624,1.624,0,0,1,57.64-4.3a1.526,1.526,0,0,1,1.221.525,2.131,2.131,0,0,1,.451,1.436v.262H56.3v.09a1.77,1.77,0,0,0,.412,1.2,1.311,1.311,0,0,0,1.037.479,1.523,1.523,0,0,0,.662-.137,1.468,1.468,0,0,0,.521-.437l.293.223A1.705,1.705,0,0,1,57.726.078ZM57.64-3.906a1.169,1.169,0,0,0-.889.387,1.787,1.787,0,0,0-.439,1.039h2.535v-.051a1.551,1.551,0,0,0-.348-.992A1.077,1.077,0,0,0,57.64-3.906ZM62.89,0a2.211,2.211,0,0,1-.09-.59,1.63,1.63,0,0,1-.627.494,1.92,1.92,0,0,1-.807.174,1.417,1.417,0,0,1-.986-.34A1.107,1.107,0,0,1,60-1.121a1.131,1.131,0,0,1,.514-.977,2.468,2.468,0,0,1,1.432-.359H62.8v-.48a.926.926,0,0,0-.279-.713,1.154,1.154,0,0,0-.814-.26,1.275,1.275,0,0,0-.809.25.743.743,0,0,0-.32.6l-.469,0a1.087,1.087,0,0,1,.469-.873A1.8,1.8,0,0,1,61.726-4.3a1.646,1.646,0,0,1,1.115.354,1.268,1.268,0,0,1,.42.986v2a2.481,2.481,0,0,0,.129.918V0ZM61.421-.336a1.569,1.569,0,0,0,.838-.227,1.333,1.333,0,0,0,.537-.605V-2.1H61.96a2.1,2.1,0,0,0-1.094.256.768.768,0,0,0-.395.682.756.756,0,0,0,.264.59A.993.993,0,0,0,61.421-.336Zm3.512-3.891.016.688a1.565,1.565,0,0,1,.586-.574,1.607,1.607,0,0,1,.781-.191,1.186,1.186,0,0,1,1.27.82,1.587,1.587,0,0,1,.605-.607,1.677,1.677,0,0,1,.836-.213q1.359,0,1.387,1.484V0h-.469V-2.785a1.26,1.26,0,0,0-.244-.84.994.994,0,0,0-.783-.273,1.245,1.245,0,0,0-.852.326,1.153,1.153,0,0,0-.387.775V0H67.21V-2.82a1.158,1.158,0,0,0-.256-.811,1.018,1.018,0,0,0-.775-.268,1.179,1.179,0,0,0-.758.252,1.478,1.478,0,0,0-.469.748V0h-.469V-4.227ZM72.12,0h-.469V-4.227h.469ZM71.57-5.449a.316.316,0,0,1,.086-.225.305.305,0,0,1,.234-.092.312.312,0,0,1,.236.092.313.313,0,0,1,.088.225.306.306,0,0,1-.088.223.315.315,0,0,1-.236.09.309.309,0,0,1-.234-.09A.31.31,0,0,1,71.57-5.449Zm2.266,1.223.016.723a1.678,1.678,0,0,1,.594-.6A1.543,1.543,0,0,1,75.23-4.3a1.268,1.268,0,0,1,1.012.383,1.727,1.727,0,0,1,.336,1.148V0h-.465V-2.777a1.291,1.291,0,0,0-.24-.844.941.941,0,0,0-.756-.277,1.182,1.182,0,0,0-.768.271,1.59,1.59,0,0,0-.494.732V0H73.39V-4.227ZM77.6-2.152a2.544,2.544,0,0,1,.439-1.572A1.418,1.418,0,0,1,79.23-4.3a1.47,1.47,0,0,1,1.313.688l.023-.609H81V-.086a1.79,1.79,0,0,1-.457,1.293,1.635,1.635,0,0,1-1.238.477,1.881,1.881,0,0,1-.842-.2,1.635,1.635,0,0,1-.631-.525L78.1.68a1.481,1.481,0,0,0,1.18.609,1.2,1.2,0,0,0,.914-.346,1.377,1.377,0,0,0,.34-.959V-.547a1.511,1.511,0,0,1-1.309.625,1.409,1.409,0,0,1-1.18-.586A2.553,2.553,0,0,1,77.6-2.09Zm.473.082a2.2,2.2,0,0,0,.324,1.275,1.049,1.049,0,0,0,.914.467A1.249,1.249,0,0,0,80.531-1.1V-3.066a1.333,1.333,0,0,0-.473-.619,1.275,1.275,0,0,0-.742-.213,1.061,1.061,0,0,0-.918.463A2.355,2.355,0,0,0,78.07-2.07ZM86.886-.535a1.519,1.519,0,0,1-1.348.613,1.308,1.308,0,0,1-1.027-.393,1.719,1.719,0,0,1-.359-1.162v-2.75h.465v2.691q0,1.207.977,1.207a1.2,1.2,0,0,0,1.285-.84V-4.227h.469V0h-.453ZM91.96-2.07A2.545,2.545,0,0,1,91.523-.5a1.393,1.393,0,0,1-1.172.58,1.564,1.564,0,0,1-1.328-.609V1.625h-.465V-4.227h.434l.023.6A1.5,1.5,0,0,1,90.339-4.3a1.406,1.406,0,0,1,1.189.574,2.6,2.6,0,0,1,.432,1.594Zm-.469-.082a2.174,2.174,0,0,0-.332-1.277,1.071,1.071,0,0,0-.926-.469,1.294,1.294,0,0,0-.738.207,1.3,1.3,0,0,0-.473.6v2.027a1.241,1.241,0,0,0,.48.555,1.386,1.386,0,0,0,.738.191,1.061,1.061,0,0,0,.92-.471A2.367,2.367,0,0,0,91.491-2.152Z" transform="translate(15418.635 14777.085)"/>
    <path id="Path_277" data-name="Path 277" d="M.719,0V-5.687h1.59a2.473,2.473,0,0,1,1.254.318,2.2,2.2,0,0,1,.865.912,2.873,2.873,0,0,1,.311,1.352v.523A2.873,2.873,0,0,1,4.43-1.23a2.2,2.2,0,0,1-.869.91A2.548,2.548,0,0,1,2.273,0ZM1.2-5.277V-.406H2.277A1.856,1.856,0,0,0,3.719-1a2.3,2.3,0,0,0,.543-1.611v-.5a2.247,2.247,0,0,0-.535-1.57,1.825,1.825,0,0,0-1.41-.594ZM6.371,0H5.9V-4.227h.469ZM5.82-5.449a.316.316,0,0,1,.086-.225.305.305,0,0,1,.234-.092.312.312,0,0,1,.236.092.313.313,0,0,1,.088.225.306.306,0,0,1-.088.223.315.315,0,0,1-.236.09.309.309,0,0,1-.234-.09A.31.31,0,0,1,5.82-5.449ZM7.949-.395H10.7V0H7.371V-.344l2.563-3.48H7.449v-.4h3.074v.348Zm3.891,0h2.746V0H11.262V-.344l2.563-3.48H11.34v-.4h3.074v.348ZM15.945,0h-.469V-4.227h.469Zm-.551-5.449a.316.316,0,0,1,.086-.225.305.305,0,0,1,.234-.092.312.312,0,0,1,.236.092.313.313,0,0,1,.088.225.306.306,0,0,1-.088.223.315.315,0,0,1-.236.09.309.309,0,0,1-.234-.09A.31.31,0,0,1,15.395-5.449ZM17.66-4.227l.016.723a1.678,1.678,0,0,1,.594-.6,1.543,1.543,0,0,1,.785-.205,1.268,1.268,0,0,1,1.012.383A1.727,1.727,0,0,1,20.4-2.773V0h-.465V-2.777a1.291,1.291,0,0,0-.24-.844.941.941,0,0,0-.756-.277,1.182,1.182,0,0,0-.768.271,1.59,1.59,0,0,0-.494.732V0h-.465V-4.227Zm5.586,4.3a1.835,1.835,0,0,1-.975-.266,1.81,1.81,0,0,1-.678-.74,2.308,2.308,0,0,1-.242-1.064V-2.16a2.487,2.487,0,0,1,.236-1.1,1.88,1.88,0,0,1,.658-.768A1.624,1.624,0,0,1,23.16-4.3a1.526,1.526,0,0,1,1.221.525,2.131,2.131,0,0,1,.451,1.436v.262H21.816v.09a1.77,1.77,0,0,0,.412,1.2,1.311,1.311,0,0,0,1.037.479,1.523,1.523,0,0,0,.662-.137,1.468,1.468,0,0,0,.521-.437l.293.223A1.705,1.705,0,0,1,23.246.078ZM23.16-3.906a1.169,1.169,0,0,0-.889.387,1.787,1.787,0,0,0-.439,1.039h2.535v-.051a1.551,1.551,0,0,0-.348-.992A1.077,1.077,0,0,0,23.16-3.906Zm5.113,2.832a.666.666,0,0,0-.279-.559,2.154,2.154,0,0,0-.842-.33,3.8,3.8,0,0,1-.873-.273,1.163,1.163,0,0,1-.461-.377.94.94,0,0,1-.15-.539,1.006,1.006,0,0,1,.418-.826,1.688,1.688,0,0,1,1.07-.326,1.738,1.738,0,0,1,1.135.35,1.122,1.122,0,0,1,.428.912H28.25a.757.757,0,0,0-.311-.617,1.222,1.222,0,0,0-.783-.246,1.222,1.222,0,0,0-.74.205.633.633,0,0,0-.279.533.576.576,0,0,0,.232.49,2.458,2.458,0,0,0,.848.318,3.984,3.984,0,0,1,.922.309,1.194,1.194,0,0,1,.455.395,1.01,1.01,0,0,1,.148.559,1.012,1.012,0,0,1-.432.855,1.844,1.844,0,0,1-1.127.32,1.893,1.893,0,0,1-1.2-.357,1.1,1.1,0,0,1-.459-.9H26a.813.813,0,0,0,.346.639,1.413,1.413,0,0,0,.842.229,1.328,1.328,0,0,0,.789-.215A.645.645,0,0,0,28.273-1.074Zm4.051,0a.666.666,0,0,0-.279-.559,2.154,2.154,0,0,0-.842-.33,3.8,3.8,0,0,1-.873-.273,1.163,1.163,0,0,1-.461-.377.94.94,0,0,1-.15-.539,1.006,1.006,0,0,1,.418-.826,1.688,1.688,0,0,1,1.07-.326,1.738,1.738,0,0,1,1.135.35,1.122,1.122,0,0,1,.428.912H32.3a.757.757,0,0,0-.311-.617,1.222,1.222,0,0,0-.783-.246,1.222,1.222,0,0,0-.74.205.633.633,0,0,0-.279.533.576.576,0,0,0,.232.49,2.458,2.458,0,0,0,.848.318,3.984,3.984,0,0,1,.922.309,1.194,1.194,0,0,1,.455.395,1.01,1.01,0,0,1,.148.559,1.012,1.012,0,0,1-.432.855,1.844,1.844,0,0,1-1.127.32,1.893,1.893,0,0,1-1.2-.357,1.1,1.1,0,0,1-.459-.9h.469a.813.813,0,0,0,.346.639,1.413,1.413,0,0,0,.842.229,1.328,1.328,0,0,0,.789-.215A.645.645,0,0,0,32.324-1.074Z" transform="translate(15482.516 14798.452)"/>
    <path id="Path_278" data-name="Path 278" d="M4.953,0h-.48L1.2-4.867V0H.719V-5.687H1.2L4.477-.816V-5.687h.477ZM6.031-2.176a2.487,2.487,0,0,1,.236-1.1,1.8,1.8,0,0,1,.668-.76A1.8,1.8,0,0,1,7.914-4.3a1.739,1.739,0,0,1,1.367.592A2.28,2.28,0,0,1,9.8-2.145v.1a2.509,2.509,0,0,1-.236,1.1A1.765,1.765,0,0,1,8.9-.187a1.826,1.826,0,0,1-.98.266A1.74,1.74,0,0,1,6.557-.514a2.275,2.275,0,0,1-.525-1.568Zm.469.129A1.918,1.918,0,0,0,6.893-.8a1.259,1.259,0,0,0,1.029.486A1.255,1.255,0,0,0,8.947-.8,1.981,1.981,0,0,0,9.34-2.086v-.09a2.15,2.15,0,0,0-.18-.887,1.444,1.444,0,0,0-.5-.623,1.288,1.288,0,0,0-.742-.221,1.249,1.249,0,0,0-1.02.49A1.984,1.984,0,0,0,6.5-2.133Zm4.715-2.18.016.723a1.678,1.678,0,0,1,.594-.6,1.543,1.543,0,0,1,.785-.205,1.268,1.268,0,0,1,1.012.383,1.727,1.727,0,0,1,.336,1.148V0h-.465V-2.777a1.291,1.291,0,0,0-.24-.844A.941.941,0,0,0,12.5-3.9a1.182,1.182,0,0,0-.768.271,1.59,1.59,0,0,0-.494.732V0H10.77V-4.227ZM16.8.078a1.835,1.835,0,0,1-.975-.266,1.81,1.81,0,0,1-.678-.74,2.308,2.308,0,0,1-.242-1.064V-2.16a2.487,2.487,0,0,1,.236-1.1,1.88,1.88,0,0,1,.658-.768,1.624,1.624,0,0,1,.914-.279,1.526,1.526,0,0,1,1.221.525,2.131,2.131,0,0,1,.451,1.436v.262H15.371v.09a1.77,1.77,0,0,0,.412,1.2,1.311,1.311,0,0,0,1.037.479,1.523,1.523,0,0,0,.662-.137A1.468,1.468,0,0,0,18-.891l.293.223A1.705,1.705,0,0,1,16.8.078Zm-.086-3.984a1.169,1.169,0,0,0-.889.387,1.787,1.787,0,0,0-.439,1.039h2.535v-.051a1.551,1.551,0,0,0-.348-.992A1.077,1.077,0,0,0,16.715-3.906Zm4.27,1.73a2.487,2.487,0,0,1,.236-1.1,1.8,1.8,0,0,1,.668-.76,1.8,1.8,0,0,1,.979-.271,1.739,1.739,0,0,1,1.367.592,2.28,2.28,0,0,1,.523,1.568v.1a2.509,2.509,0,0,1-.236,1.1,1.765,1.765,0,0,1-.666.756,1.826,1.826,0,0,1-.98.266A1.74,1.74,0,0,1,21.51-.514a2.275,2.275,0,0,1-.525-1.568Zm.469.129A1.918,1.918,0,0,0,21.846-.8a1.259,1.259,0,0,0,1.029.486A1.255,1.255,0,0,0,23.9-.8a1.981,1.981,0,0,0,.393-1.283v-.09a2.15,2.15,0,0,0-.18-.887,1.444,1.444,0,0,0-.5-.623,1.288,1.288,0,0,0-.742-.221,1.249,1.249,0,0,0-1.02.49,1.984,1.984,0,0,0-.395,1.283ZM26.059,0V-3.844h-.7v-.383h.7v-.512a1.391,1.391,0,0,1,.33-1,1.208,1.208,0,0,1,.92-.348,1.785,1.785,0,0,1,.5.066l-.035.391a1.823,1.823,0,0,0-.426-.047.765.765,0,0,0-.6.24.988.988,0,0,0-.215.682v.523h1.008v.383H26.527V0Zm4.984-5.309v1.082h.875v.383h-.875v2.816A.881.881,0,0,0,31.17-.5a.492.492,0,0,0,.424.172,2.908,2.908,0,0,0,.379-.039l.02.383a1.515,1.515,0,0,1-.5.066.834.834,0,0,1-.7-.279,1.315,1.315,0,0,1-.219-.822v-2.82H29.8v-.383h.777V-5.309Zm2.309,1.8a1.65,1.65,0,0,1,.59-.586,1.545,1.545,0,0,1,.785-.207,1.268,1.268,0,0,1,1.012.383,1.727,1.727,0,0,1,.336,1.148V0h-.465V-2.777a1.291,1.291,0,0,0-.24-.844.941.941,0,0,0-.756-.277,1.182,1.182,0,0,0-.768.271,1.59,1.59,0,0,0-.494.732V0h-.465V-6h.465ZM38.914.078a1.835,1.835,0,0,1-.975-.266,1.81,1.81,0,0,1-.678-.74,2.308,2.308,0,0,1-.242-1.064V-2.16a2.487,2.487,0,0,1,.236-1.1,1.88,1.88,0,0,1,.658-.768,1.624,1.624,0,0,1,.914-.279,1.526,1.526,0,0,1,1.221.525A2.131,2.131,0,0,1,40.5-2.344v.262H37.484v.09a1.77,1.77,0,0,0,.412,1.2,1.311,1.311,0,0,0,1.037.479A1.523,1.523,0,0,0,39.6-.453a1.468,1.468,0,0,0,.521-.437l.293.223A1.705,1.705,0,0,1,38.914.078Zm-.086-3.984a1.169,1.169,0,0,0-.889.387A1.787,1.787,0,0,0,37.5-2.48h2.535v-.051a1.551,1.551,0,0,0-.348-.992A1.077,1.077,0,0,0,38.828-3.906ZM46.023,0a2.211,2.211,0,0,1-.09-.59,1.63,1.63,0,0,1-.627.494A1.92,1.92,0,0,1,44.5.078a1.417,1.417,0,0,1-.986-.34,1.107,1.107,0,0,1-.377-.859A1.131,1.131,0,0,1,43.65-2.1a2.468,2.468,0,0,1,1.432-.359h.848v-.48a.926.926,0,0,0-.279-.713,1.154,1.154,0,0,0-.814-.26,1.275,1.275,0,0,0-.809.25.743.743,0,0,0-.32.6l-.469,0a1.087,1.087,0,0,1,.469-.873A1.8,1.8,0,0,1,44.859-4.3a1.646,1.646,0,0,1,1.115.354,1.268,1.268,0,0,1,.42.986v2a2.481,2.481,0,0,0,.129.918V0ZM44.555-.336a1.569,1.569,0,0,0,.838-.227,1.333,1.333,0,0,0,.537-.605V-2.1h-.836A2.1,2.1,0,0,0,44-1.842a.768.768,0,0,0-.395.682.756.756,0,0,0,.264.59A.993.993,0,0,0,44.555-.336ZM51.043-2.07A2.545,2.545,0,0,1,50.605-.5a1.4,1.4,0,0,1-1.176.58,1.519,1.519,0,0,1-1.336-.656L48.074,0h-.437V-6H48.1v2.387a1.469,1.469,0,0,1,1.32-.691,1.41,1.41,0,0,1,1.186.572,2.576,2.576,0,0,1,.436,1.592Zm-.469-.082a2.2,2.2,0,0,0-.324-1.291,1.057,1.057,0,0,0-.914-.455,1.287,1.287,0,0,0-.762.221,1.342,1.342,0,0,0-.473.646v1.906a1.252,1.252,0,0,0,1.242.8,1.049,1.049,0,0,0,.9-.457A2.354,2.354,0,0,0,50.574-2.152Zm1.242-.023a2.487,2.487,0,0,1,.236-1.1,1.8,1.8,0,0,1,.668-.76A1.8,1.8,0,0,1,53.7-4.3a1.739,1.739,0,0,1,1.367.592,2.28,2.28,0,0,1,.523,1.568v.1a2.509,2.509,0,0,1-.236,1.1,1.765,1.765,0,0,1-.666.756,1.826,1.826,0,0,1-.98.266,1.74,1.74,0,0,1-1.365-.592,2.275,2.275,0,0,1-.525-1.568Zm.469.129A1.918,1.918,0,0,0,52.678-.8a1.259,1.259,0,0,0,1.029.486A1.255,1.255,0,0,0,54.732-.8a1.981,1.981,0,0,0,.393-1.283v-.09a2.15,2.15,0,0,0-.18-.887,1.444,1.444,0,0,0-.5-.623,1.288,1.288,0,0,0-.742-.221,1.249,1.249,0,0,0-1.02.49,1.984,1.984,0,0,0-.395,1.283Zm5.527,1.4L59.1-4.227h.48L58,0h-.379L56.035-4.227h.48ZM61.98.078a1.835,1.835,0,0,1-.975-.266,1.81,1.81,0,0,1-.678-.74,2.308,2.308,0,0,1-.242-1.064V-2.16a2.487,2.487,0,0,1,.236-1.1,1.88,1.88,0,0,1,.658-.768,1.624,1.624,0,0,1,.914-.279,1.526,1.526,0,0,1,1.221.525,2.131,2.131,0,0,1,.451,1.436v.262H60.551v.09a1.77,1.77,0,0,0,.412,1.2A1.311,1.311,0,0,0,62-.316a1.523,1.523,0,0,0,.662-.137,1.468,1.468,0,0,0,.521-.437l.293.223A1.705,1.705,0,0,1,61.98.078Zm-.086-3.984a1.169,1.169,0,0,0-.889.387,1.787,1.787,0,0,0-.439,1.039H63.1v-.051a1.551,1.551,0,0,0-.348-.992A1.077,1.077,0,0,0,61.895-3.906Z" transform="translate(15448.908 14814.925)"/>
  </g>
</svg>
